<?xml version="1.0" standalone="no"?>
<!DOCTYPE svg PUBLIC "-//W3C//DTD SVG 1.1//EN" "http://www.w3.org/Graphics/SVG/1.1/DTD/svg11.dtd" >
<svg xmlns="http://www.w3.org/2000/svg" xmlns:xlink="http://www.w3.org/1999/xlink" version="1.1">
<metadata></metadata>
<defs>
<font id="renner_mediummedium" horiz-adv-x="1658" >
<font-face units-per-em="2048" ascent="1638" descent="-410" />
<missing-glyph horiz-adv-x="614" />
<glyph horiz-adv-x="0" />
<glyph horiz-adv-x="682" />
<glyph unicode=" "  horiz-adv-x="614" />
<glyph unicode="&#x09;" horiz-adv-x="614" />
<glyph unicode="&#xa0;" horiz-adv-x="614" />
<glyph unicode="!" horiz-adv-x="614" d="M168 82q0 56 40.5 94.5t98.5 38.5t98.5 -38.5t40.5 -94.5t-40.5 -94.5t-98.5 -38.5t-98.5 38.5t-40.5 94.5zM174 1434h266l-51 -1024h-164z" />
<glyph unicode="&#x22;" horiz-adv-x="972" d="M195 819l92 615h235l-194 -615h-133zM563 819l92 615h236l-195 -615h-133z" />
<glyph unicode="#" horiz-adv-x="1239" d="M92 389v174h178l76 318h-213v174h256l92 379h195l-92 -379h235l92 379h195l-92 -379h133v-174h-176l-76 -318h211v-174h-254l-94 -389h-195l94 389h-235l-94 -389h-195l94 389h-135zM465 563h235l76 318h-235z" />
<glyph unicode="$" horiz-adv-x="1181" d="M72 365l180 118q60 -136 133.5 -215t173.5 -98v498q-4 1 -11 4t-11 4q-49 18 -93.5 39.5t-96 59t-88.5 82t-62 110t-25 139.5q0 149 108.5 249t278.5 118v198h135v-201q79 -10 144.5 -41.5t110 -77t74 -92t50.5 -100.5l-174 -127q-22 42 -39.5 70t-43 60.5t-56 55 t-66.5 35.5v-403q406 -134 406 -461q0 -182 -106.5 -294t-299.5 -132v-196h-135v194q-176 17 -298.5 124t-188.5 280zM406 1094q0 -62 39.5 -107t113.5 -82v361q-73 -10 -113 -56t-40 -116zM694 172q79 19 126.5 73.5t47.5 129.5q0 86 -46 142t-128 95v-440z" />
<glyph unicode="%" horiz-adv-x="1538" d="M0 1126q0 146 101 247.5t253 101.5t253.5 -101.5t101.5 -247.5t-101.5 -247t-253.5 -101t-253 101t-101 247zM176 1126q0 -80 50 -137t128 -57t128 57t50 137t-50 137.5t-128 57.5t-128 -57.5t-50 -137.5zM211 0l922 1434h194l-921 -1434h-195zM829 307q0 146 101.5 247 t253.5 101t253 -101t101 -247t-101 -247t-253 -101t-253.5 101t-101.5 247zM1006 307q0 -80 50 -137t128 -57t128 57t50 137t-50 137.5t-128 57.5t-128 -57.5t-50 -137.5z" />
<glyph unicode="&#x26;" horiz-adv-x="1382" d="M51 389q0 70 22 130.5t55.5 103t84 79.5t95.5 59.5t102 45.5q-67 79 -103.5 156.5t-36.5 175.5q0 143 115.5 240.5t278.5 97.5q172 0 272 -96.5t100 -245.5q0 -56 -31 -115t-82 -108.5t-103 -88.5t-105 -69l307 -359q69 82 188 273l150 -101q-1 -1 -20 -31.5t-22.5 -35.5 t-21 -32.5t-24.5 -37t-23 -33.5t-26 -37.5t-24.5 -34t-28 -37.5t-27.5 -34l217 -254h-246l-102 117q-187 -158 -408 -158q-149 0 -274.5 51.5t-202 151t-76.5 227.5zM272 410q0 -109 86 -182.5t246 -73.5q147 0 281 108l-363 416q-44 -16 -75.5 -30.5t-67 -38t-57 -50 t-36 -65t-14.5 -84.5zM494 1139q0 -71 27 -126.5t87 -129.5q100 48 155.5 116t55.5 136q0 60 -40 102.5t-115 42.5q-87 0 -128.5 -40t-41.5 -101z" />
<glyph unicode="'" horiz-adv-x="604" d="M195 819l92 615h235l-194 -615h-133z" />
<glyph unicode="(" horiz-adv-x="634" d="M164 594q0 563 235 1003h195q-205 -440 -205 -1003q0 -564 205 -1004h-195q-235 440 -235 1004z" />
<glyph unicode=")" horiz-adv-x="634" d="M41 -410q205 440 205 1004q0 563 -205 1003h195q235 -440 235 -1003q0 -564 -235 -1004h-195z" />
<glyph unicode="*" horiz-adv-x="1212" d="M195 1061l63 194l268 -110l-22 289h205l-23 -289l268 110l64 -194l-283 -70l189 -219l-166 -121l-152 246l-151 -246l-166 121l188 219z" />
<glyph unicode="+" horiz-adv-x="1310" d="M133 420v205h410v419h225v-419h410v-205h-410v-420h-225v420h-410z" />
<glyph unicode="," horiz-adv-x="630" d="M102 -305l181 530l194 -69l-235 -512z" />
<glyph unicode="-" horiz-adv-x="430" d="M10 389v195h410v-195h-410z" />
<glyph unicode="." horiz-adv-x="565" d="M143 82q0 56 41 94.5t99 38.5t98.5 -38.5t40.5 -94.5t-40.5 -94.5t-98.5 -38.5t-99 38.5t-41 94.5z" />
<glyph unicode="/" horiz-adv-x="1300" d="M31 -307l1024 1741h215l-1024 -1741h-215z" />
<glyph unicode="0" horiz-adv-x="1228" d="M51 717q0 220 75 394t203 269t285 95q117 0 221 -56t179.5 -154t119.5 -240.5t44 -307.5t-44 -307.5t-119.5 -240.5t-179.5 -154t-221 -56q-157 0 -285 95t-203 269t-75 394zM276 717q0 -250 93.5 -401.5t244.5 -151.5t244.5 151.5t93.5 401.5t-93.5 401.5t-244.5 151.5 t-244.5 -151.5t-93.5 -401.5z" />
<glyph unicode="1" horiz-adv-x="962" d="M205 1130v222l543 133v-1485h-226v1229z" />
<glyph unicode="2" horiz-adv-x="1165" d="M0 0l674 686q97 99 137.5 184t40.5 187q0 94 -63 154.5t-181 60.5q-137 0 -219 -90.5t-82 -239.5h-215q0 107 36.5 204t102 170.5t163.5 117t214 43.5q114 0 205.5 -36.5t146.5 -97.5t84 -134.5t29 -151.5q0 -151 -52 -252.5t-155 -202.5l-405 -397h612v-205h-1073z" />
<glyph unicode="3" horiz-adv-x="1118" d="M102 379h217q0 -93 69.5 -154t170.5 -61q121 0 190.5 57.5t69.5 177.5q0 246 -301 246v195q82 0 135.5 15.5t79.5 47t35.5 67t9.5 87.5q0 99 -46 156t-142 57q-104 0 -161.5 -47.5t-57.5 -145.5h-207q0 174 120.5 286t305.5 112q119 0 213 -55.5t143 -145.5t49 -197 q0 -135 -51.5 -216t-157.5 -118q250 -81 250 -364q0 -190 -130.5 -305t-346.5 -115q-209 0 -333 120t-124 300z" />
<glyph unicode="4" horiz-adv-x="1214" d="M20 246l959 1310v-1116h225v-194h-225v-246h-225v246h-734zM387 440h367v500z" />
<glyph unicode="5" horiz-adv-x="1155" d="M41 260l178 131q50 -98 144.5 -162.5t207.5 -64.5q80 0 146.5 32.5t110.5 104t44 170.5q0 152 -73.5 229.5t-206.5 77.5q-117 0 -218.5 -35.5t-211.5 -113.5l190 805h717v-195h-541l-84 -326q100 60 250 60q82 0 155 -33t130.5 -95t91 -158.5t33.5 -215.5 q0 -133 -44 -234t-120 -160.5t-169 -88.5t-200 -29q-186 0 -319.5 83t-210.5 218z" />
<glyph unicode="6" horiz-adv-x="1138" d="M51 471q0 80 36 164.5t85 152.5l463 646h254l-387 -512q63 26 151 26q111 0 210.5 -63.5t161.5 -174.5t62 -239q0 -149 -69.5 -267t-187.5 -181.5t-261 -63.5t-261 63.5t-187.5 181.5t-69.5 267zM274 471q0 -139 82 -223t213 -84t213 84t82 223t-82 225t-213 86t-213 -86 t-82 -225z" />
<glyph unicode="7" horiz-adv-x="1075" d="M61 1229v205h1004l-635 -1434h-233l544 1229h-680z" />
<glyph unicode="8" horiz-adv-x="1118" d="M82 399q0 132 73.5 225t194.5 138q-102 39 -159.5 117t-57.5 198q0 179 122 288.5t304 109.5t304 -109.5t122 -288.5q0 -120 -57.5 -198t-159.5 -117q121 -45 194.5 -138t73.5 -225q0 -196 -134 -318t-343 -122t-343 122t-134 318zM299 420q0 -121 74.5 -193.5 t185.5 -72.5t185.5 72.5t74.5 193.5q0 108 -76 182t-184 74t-184 -74t-76 -182zM350 1057q0 -95 55 -151t154 -56t154 56t55 151q0 105 -60 164t-149 59t-149 -59t-60 -164z" />
<glyph unicode="9" horiz-adv-x="1118" d="M31 963q0 149 69.5 267t187.5 181.5t261 63.5t261 -63.5t187.5 -181.5t69.5 -267q0 -80 -36 -165t-85 -153l-463 -645h-254l387 512q-66 -27 -151 -27q-110 0 -210 63.5t-162 175t-62 239.5zM254 963q0 -139 82 -225.5t213 -86.5t213 86.5t82 225.5t-82 223t-213 84 t-213 -84t-82 -223z" />
<glyph unicode=":" horiz-adv-x="565" d="M143 82q0 56 41 94.5t99 38.5t98.5 -38.5t40.5 -94.5t-40.5 -94.5t-98.5 -38.5t-99 38.5t-41 94.5zM143 860q0 56 41 94.5t99 38.5t98.5 -38.5t40.5 -94.5t-40.5 -94.5t-98.5 -38.5t-99 38.5t-41 94.5z" />
<glyph unicode=";" horiz-adv-x="675" d="M102 -305l181 530l194 -69l-235 -512zM205 860q0 56 40.5 94.5t98.5 38.5t98.5 -38.5t40.5 -94.5t-40.5 -94.5t-98.5 -38.5t-98.5 38.5t-40.5 94.5z" />
<glyph unicode="&#x3c;" horiz-adv-x="1310" d="M133 471v113l1045 430v-205l-721 -272l721 -291v-205z" />
<glyph unicode="=" horiz-adv-x="1259" d="M133 236v194h993v-194h-993zM133 604v195h993v-195h-993z" />
<glyph unicode="&#x3e;" horiz-adv-x="1310" d="M133 41v205l721 272l-721 291v205l1045 -430v-113z" />
<glyph unicode="?" horiz-adv-x="1140" d="M119 1223q39 59 77 100.5t91.5 78t124.5 55t159 18.5q208 0 343 -127t135 -324q0 -123 -69.5 -226.5t-175.5 -161.5t-222 -63l-13 -225h-163l-41 359h94q89 0 161.5 27.5t117.5 73t69 101t24 115.5q0 122 -77 189t-203 67q-87 0 -159 -42.5t-120 -119.5zM348 82 q0 56 40.5 94.5t98.5 38.5t99 -38.5t41 -94.5t-41 -94.5t-99 -38.5t-98.5 38.5t-40.5 94.5z" />
<glyph unicode="@" horiz-adv-x="1576" d="M51 655q0 166 61 317t166 261.5t254 176t318 65.5q122 0 230.5 -39t188.5 -105.5t139 -152.5t88.5 -183.5t29.5 -195.5q0 -125 -34.5 -228.5t-91.5 -168.5t-127.5 -100.5t-144.5 -35.5q-80 0 -133 47.5t-69 122.5q-44 -72 -110 -110.5t-144 -38.5q-131 0 -217 98t-86 250 q0 103 36 193t93.5 150t130 94t145.5 34q146 0 201 -148l18 107h193l-84 -494q-4 -28 -4 -55q0 -38 13.5 -56t47.5 -18q24 0 54.5 23t59.5 65t48.5 113.5t19.5 155.5q0 139 -54 253.5t-167.5 186.5t-269.5 72q-142 0 -258 -50t-193.5 -137.5t-120 -208t-42.5 -260.5 q0 -249 131.5 -390.5t359.5 -141.5q153 0 245.5 18t186.5 78l109 -145q-59 -28 -75.5 -36t-73 -29t-98.5 -28t-115 -14.5t-158 -7.5q-323 0 -510 192.5t-187 503.5zM565 635q0 -74 39 -124t109 -50q68 0 125 44.5t80 135.5l12 61q2 18 2 56q0 88 -45 131t-113 43 q-87 0 -148 -84t-61 -213z" />
<glyph unicode="A" horiz-adv-x="1454" d="M0 0l727 1516l727 -1516h-246l-180 389h-602l-180 -389h-246zM520 594h414l-207 444z" />
<glyph unicode="B" horiz-adv-x="1173" d="M143 0v1434h400q207 0 331.5 -101t124.5 -268q0 -206 -204 -274q133 -40 209.5 -130.5t76.5 -230.5q0 -129 -67 -228t-179.5 -150.5t-250.5 -51.5h-441zM369 205h215q126 0 199 60.5t73 174.5q0 115 -73 175.5t-199 60.5h-215v-471zM369 881h174q121 0 176 42.5t55 131.5 q0 88 -55 131t-176 43h-174v-348z" />
<glyph unicode="C" horiz-adv-x="1392" d="M61 717q0 130 35.5 247t102 209.5t157.5 160.5t207 104.5t246 36.5q279 0 461 -158v-268q-77 98 -194.5 152t-266.5 54q-106 0 -200.5 -39t-165 -108t-111.5 -170.5t-41 -220.5t41 -220.5t111.5 -171t165 -108.5t200.5 -39q149 0 266.5 54.5t194.5 152.5v-268 q-182 -158 -461 -158q-130 0 -246 36.5t-207 104.5t-157.5 160.5t-102 209.5t-35.5 247z" />
<glyph unicode="D" horiz-adv-x="1413" d="M143 0v1434h482q216 0 381.5 -89.5t255.5 -252.5t90 -375t-90 -375t-255.5 -252.5t-381.5 -89.5h-482zM369 205h256q232 0 366.5 133t134.5 379t-134.5 379t-366.5 133h-256v-1024z" />
<glyph unicode="E" horiz-adv-x="1146" d="M143 0v1434h871v-205h-645v-348h604v-205h-604v-471h645v-205h-871z" />
<glyph unicode="F" horiz-adv-x="1044" d="M143 0v1434h789v-205h-563v-348h542v-205h-542v-676h-226z" />
<glyph unicode="G" horiz-adv-x="1617" d="M61 717q0 221 100.5 394.5t275.5 268.5t392 95q213 0 372.5 -79t252.5 -229l-156 -145q-68 114 -194 181t-275 67q-151 0 -274 -67.5t-195.5 -195t-72.5 -290.5t72.5 -290.5t195.5 -195t274 -67.5q192 0 319 112.5t167 296.5h-424v205h665v-41q0 -225 -85 -400.5 t-251 -276.5t-391 -101q-217 0 -392 95t-275.5 268.5t-100.5 394.5z" />
<glyph unicode="H" horiz-adv-x="1474" d="M143 0v1434h226v-553h737v553h225v-1434h-225v676h-737v-676h-226z" />
<glyph unicode="I" horiz-adv-x="512" d="M143 0v1434h226v-1434h-226z" />
<glyph unicode="J" horiz-adv-x="501" d="M-258 -338l100 186q23 -38 71 -66t101 -28q52 0 90.5 46t38.5 139v1495h215v-1557q0 -165 -85.5 -246.5t-247.5 -81.5q-101 0 -177 36.5t-106 76.5z" />
<glyph unicode="K" horiz-adv-x="1230" d="M143 0v1434h226v-611l563 611h268l-620 -672l651 -762h-268l-594 694v-694h-226z" />
<glyph unicode="L" horiz-adv-x="942" d="M143 0v1434h226v-1229h563v-205h-789z" />
<glyph unicode="M" horiz-adv-x="1638" d="M41 0l195 1526l583 -994l584 994l194 -1526h-235l-94 881l-449 -748l-448 748l-95 -881h-235z" />
<glyph unicode="N" horiz-adv-x="1607" d="M143 0v1526l1096 -1088v996h225v-1526l-1095 1087v-995h-226z" />
<glyph unicode="O" d="M61 717q0 161 60 302.5t163 241t244.5 157t300.5 57.5q155 0 296 -57.5t245 -156.5t165.5 -241t61.5 -303t-60 -302.5t-163 -241t-244.5 -157t-300.5 -57.5t-300.5 57.5t-244.5 157t-163 241t-60 302.5zM293 717q0 -234 154 -390.5t382 -156.5q150 0 273 71t193.5 196.5 t70.5 279.5q0 155 -68.5 280t-191.5 196t-277 71q-228 0 -382 -156.5t-154 -390.5z" />
<glyph unicode="P" horiz-adv-x="1122" d="M143 0v1434h441q137 0 248 -54.5t175 -156t64 -230.5q0 -195 -138.5 -317.5t-348.5 -122.5h-215v-553h-226zM369 758h215q124 0 193 60t69 175t-69 175.5t-193 60.5h-215v-471z" />
<glyph unicode="Q" d="M61 717q0 161 60 302.5t163 241t244.5 157t300.5 57.5q155 0 296 -57.5t245 -156.5t165.5 -241t61.5 -303q0 -268 -155 -469l256 -248h-297l-109 104q-203 -145 -463 -145q-159 0 -300.5 57.5t-244.5 157t-163 241t-60 302.5zM293 717q0 -234 154 -390.5t382 -156.5 q168 0 304 90l-367 354h297l215 -206q88 133 88 309q0 155 -68.5 280t-191.5 196t-277 71q-228 0 -382 -156.5t-154 -390.5z" />
<glyph unicode="R" horiz-adv-x="1177" d="M143 0v1434h441q137 0 248 -54.5t175 -156t64 -230.5q0 -151 -85 -260t-226 -153l397 -580h-266l-379 553h-143v-553h-226zM369 758h215q124 0 193 60t69 175t-69 175.5t-193 60.5h-215v-471z" />
<glyph unicode="S" horiz-adv-x="1181" d="M72 365l180 118q69 -157 157.5 -238t215.5 -81q107 0 175 59.5t68 151.5q0 30 -6.5 57t-15.5 48t-28 42t-33.5 35t-43 30t-45 25t-52 23.5t-52 20.5t-55.5 20q-49 18 -93.5 39.5t-96 59t-88.5 82t-62 110t-25 139.5q0 162 127 265.5t319 103.5q97 0 176.5 -28t133 -76.5 t87.5 -100t58 -111.5l-174 -127q-21 42 -39 71t-45.5 62.5t-56.5 54t-70 34.5t-88 14q-91 0 -142.5 -47.5t-51.5 -126.5q0 -39 17.5 -72.5t42.5 -57t70.5 -47.5t82 -38.5t96.5 -36.5q385 -136 385 -453q0 -199 -128.5 -314.5t-355.5 -115.5q-198 0 -335.5 109.5 t-208.5 296.5z" />
<glyph unicode="T" horiz-adv-x="1003" d="M20 1229v205h963v-205h-369v-1229h-225v1229h-369z" />
<glyph unicode="U" horiz-adv-x="1302" d="M133 471v963h225v-963q0 -135 79 -221t214 -86t214 86t79 221v963h225v-963q0 -159 -68 -276.5t-184 -176.5t-266 -59t-266 59t-184 176.5t-68 276.5z" />
<glyph unicode="V" horiz-adv-x="1433" d="M-10 1434h246l481 -1039l481 1039h246l-727 -1516z" />
<glyph unicode="W" horiz-adv-x="2068" d="M0 1434h256l352 -983l426 1075l426 -1075l352 983h256l-593 -1526l-441 1075l-440 -1075z" />
<glyph unicode="X" horiz-adv-x="1239" d="M10 0l488 750l-437 684h256l310 -486l315 486h256l-444 -684l475 -750h-256l-350 549l-357 -549h-256z" />
<glyph unicode="Y" horiz-adv-x="1157" d="M-10 1434h235l344 -631l363 631h235l-485 -838v-596h-215v578z" />
<glyph unicode="Z" horiz-adv-x="1167" d="M31 0l745 1229h-674v205h1035l-746 -1229h674v-205h-1034z" />
<glyph unicode="[" horiz-adv-x="634" d="M174 -440v2048h420v-195h-207v-1679h207v-174h-420z" />
<glyph unicode="\" horiz-adv-x="1095" d="M31 1434h215l819 -1434h-215z" />
<glyph unicode="]" horiz-adv-x="614" d="M20 -246h207v1680h-207v174h420v-2048h-420v194z" />
<glyph unicode="^" horiz-adv-x="1044" d="M113 942l348 512h123l348 -512h-205l-205 315l-205 -315h-204z" />
<glyph unicode="_" horiz-adv-x="1024" d="M2 -145h1024v-142h-1024v142z" />
<glyph unicode="`" horiz-adv-x="768" d="M123 1352l205 82l307 -328l-143 -62z" />
<glyph unicode="a" horiz-adv-x="1054" d="M51 266q0 106 59 182t153 112t210 36q143 0 244 -55v135q0 57 -56.5 82.5t-142.5 25.5q-90 0 -167.5 -29t-123.5 -63l-80 166q172 125 371 125q184 0 299 -80t115 -227v-676h-215v131q-43 -79 -129.5 -125.5t-192.5 -46.5q-68 0 -127.5 17t-109 52t-78.5 96.5t-29 141.5z M258 287q0 -66 61.5 -104t137.5 -38q131 0 195.5 49t64.5 175v34q-99 37 -215 37q-109 0 -176.5 -45.5t-67.5 -107.5z" />
<glyph unicode="b" horiz-adv-x="1218" d="M133 0v1597h215v-817q55 96 141 149.5t191 53.5q97 0 183 -34.5t151.5 -98.5t104 -162t38.5 -217t-38.5 -217t-104 -162t-151.5 -98.5t-183 -34.5q-105 0 -191 53.5t-141 149.5v-162h-215zM348 471q0 -78 25 -140.5t67 -100t93 -57t106 -19.5q133 0 217 86t84 231 t-84 231t-217 86q-55 0 -106 -19.5t-93 -57t-67 -100t-25 -140.5z" />
<glyph unicode="c" horiz-adv-x="1009" d="M61 471q0 230 141.5 371t377.5 141q102 0 191 -25.5t136 -74.5v-271q-33 70 -121.5 120t-185.5 50q-150 0 -235.5 -87.5t-85.5 -223.5t85.5 -223.5t235.5 -87.5q109 0 191 48.5t116 121.5v-271q-47 -50 -135.5 -75t-191.5 -25q-236 0 -377.5 141t-141.5 371z" />
<glyph unicode="d" horiz-adv-x="1218" d="M61 471q0 119 38.5 217t104.5 162t152 98.5t183 34.5q105 0 190.5 -53.5t140.5 -149.5v817h215v-1597h-215v162q-55 -96 -140.5 -149.5t-190.5 -53.5q-97 0 -183 34.5t-152 98.5t-104.5 162t-38.5 217zM279 471q0 -145 84 -231t217 -86q55 0 106 19.5t92.5 57t66.5 100 t25 140.5t-25 140.5t-66.5 100t-92.5 57t-106 19.5q-133 0 -217 -86t-84 -231z" />
<glyph unicode="e" horiz-adv-x="1095" d="M61 471q0 217 139.5 364.5t358.5 147.5q215 0 345 -135.5t130 -358.5q0 -42 -4 -69h-749q13 -123 90 -194.5t188 -71.5q93 0 169.5 36t121.5 109l162 -100q-158 -240 -453 -240q-154 0 -268.5 69t-172 184t-57.5 259zM289 592h514q-18 98 -80.5 152.5t-163.5 54.5 q-95 0 -171.5 -58t-98.5 -149z" />
<glyph unicode="f" horiz-adv-x="643" d="M41 748v194h113v348q0 168 82 258t241 90q74 0 126 -29t81 -67l-104 -170q-38 62 -93 62q-50 0 -84 -41.5t-34 -122.5v-328h235v-194h-235v-748h-215v748h-113z" />
<glyph unicode="g" horiz-adv-x="1218" d="M61 471q0 119 38.5 217t104.5 162t152 98.5t183 34.5q105 0 190.5 -53.5t140.5 -149.5v162h215v-922q0 -125 -44.5 -225t-119 -161.5t-165.5 -93.5t-189 -32q-224 0 -360.5 117t-136.5 314h217q0 -92 74.5 -159t205.5 -67q56 0 108 18t96.5 53.5t71.5 96.5t27 139v142 q-55 -96 -140.5 -149.5t-190.5 -53.5q-97 0 -183 34.5t-152 98.5t-104.5 162t-38.5 217zM279 471q0 -145 84 -231t217 -86q55 0 106 19.5t92.5 57t66.5 100t25 140.5t-25 140.5t-66.5 100t-92.5 57t-106 19.5q-133 0 -217 -86t-84 -231z" />
<glyph unicode="h" horiz-adv-x="1105" d="M133 0v1597h215v-794q56 82 137.5 131t163.5 49q156 0 245 -92.5t89 -296.5v-594h-215v573q0 113 -46 164t-134 51q-97 0 -168.5 -59t-71.5 -156v-573h-215z" />
<glyph unicode="i" horiz-adv-x="462" d="M92 1311q0 56 40.5 94.5t98.5 38.5t99 -38.5t41 -94.5t-41 -94.5t-99 -38.5t-98.5 38.5t-40.5 94.5zM123 0v942h217v-942h-217z" />
<glyph unicode="j" horiz-adv-x="462" d="M-193 -395l105 170q38 -62 92 -62q50 0 84.5 41.5t34.5 122.5v1065h217v-1085q0 -168 -83.5 -258.5t-242.5 -90.5q-73 0 -125.5 29t-81.5 68zM92 1311q0 56 40.5 94.5t98.5 38.5t99 -38.5t41 -94.5t-41 -94.5t-99 -38.5t-98.5 38.5t-40.5 94.5z" />
<glyph unicode="k" horiz-adv-x="993" d="M133 0v1597h215v-987l348 332h267l-410 -389l451 -553h-267l-389 477v-477h-215z" />
<glyph unicode="l" horiz-adv-x="481" d="M133 0v1597h215v-1597h-215z" />
<glyph unicode="m" d="M133 0v942h215v-121q51 75 124 118.5t157 43.5q99 0 170 -48t108 -138q51 87 133 136.5t183 49.5q148 0 230.5 -94.5t82.5 -274.5v-614h-215v573q0 215 -160 215q-103 0 -161 -62t-58 -153v-573h-215v573q0 215 -160 215q-103 0 -161 -62t-58 -153v-573h-215z" />
<glyph unicode="n" horiz-adv-x="1105" d="M133 0v942h215v-139q56 82 137.5 131t163.5 49q156 0 245 -92.5t89 -296.5v-594h-215v573q0 113 -46 164t-134 51q-97 0 -168.5 -59t-71.5 -156v-573h-215z" />
<glyph unicode="o" horiz-adv-x="1159" d="M61 471q0 149 70 267t188 181.5t261 63.5t261 -63.5t187.5 -181.5t69.5 -267t-69.5 -267t-187.5 -181.5t-261 -63.5t-261 63.5t-188 181.5t-70 267zM279 471q0 -139 85 -228t216 -89t216 89t85 228t-85 228t-216 89t-216 -89t-85 -228z" />
<glyph unicode="p" horiz-adv-x="1218" d="M133 -451v1393h215v-162q55 96 141 149.5t191 53.5q97 0 183 -34.5t151.5 -98.5t104 -162t38.5 -217t-38.5 -217t-104 -162t-151.5 -98.5t-183 -34.5q-105 0 -191 53.5t-141 149.5v-613h-215zM348 471q0 -78 25 -140.5t67 -100t93 -57t106 -19.5q133 0 217 86t84 231 t-84 231t-217 86q-55 0 -106 -19.5t-93 -57t-67 -100t-25 -140.5z" />
<glyph unicode="q" horiz-adv-x="1218" d="M61 471q0 119 38.5 217t104.5 162t152 98.5t183 34.5q105 0 190.5 -53.5t140.5 -149.5v162h215v-1393h-215v613q-55 -96 -140.5 -149.5t-190.5 -53.5q-97 0 -183 34.5t-152 98.5t-104.5 162t-38.5 217zM279 471q0 -145 84 -231t217 -86q55 0 106 19.5t92.5 57t66.5 100 t25 140.5t-25 140.5t-66.5 100t-92.5 57t-106 19.5q-133 0 -217 -86t-84 -231z" />
<glyph unicode="r" horiz-adv-x="753" d="M133 0v942h225v-106q41 68 97.5 107.5t111.5 39.5q114 0 176 -65l-90 -177q-64 47 -137 47q-158 0 -158 -215v-573h-225z" />
<glyph unicode="s" horiz-adv-x="886" d="M51 252l176 78q18 -82 82.5 -129t141.5 -47q68 0 105.5 26t37.5 72q0 57 -49.5 93.5t-143.5 66.5q-301 96 -301 303q0 125 99 196.5t237 71.5q124 0 228 -62t133 -143l-172 -84q-32 45 -82 74t-105 29q-52 0 -87.5 -22t-35.5 -60t51.5 -70.5t157.5 -71.5q46 -17 82 -33.5 t77.5 -45t68.5 -61.5t45 -81.5t18 -105.5q0 -132 -108 -209.5t-267 -77.5q-143 0 -255 87t-134 206z" />
<glyph unicode="t" horiz-adv-x="522" d="M0 748v194h154v328h215v-328h153v-194h-153v-748h-215v748h-154z" />
<glyph unicode="u" horiz-adv-x="1105" d="M123 348v594h215v-573q0 -113 46 -164t134 -51q97 0 168.5 59t71.5 156v573h215v-942h-215v139q-56 -82 -137.5 -131t-163.5 -49q-156 0 -245 92.5t-89 296.5z" />
<glyph unicode="v" horiz-adv-x="942" d="M-10 942h235l246 -596l246 596h235l-481 -1034z" />
<glyph unicode="w" horiz-adv-x="1423" d="M-10 942h225l217 -575l275 667l292 -669l209 577h226l-420 -1034l-305 661l-289 -661z" />
<glyph unicode="x" horiz-adv-x="962" d="M-10 0l368 485l-348 457h246l225 -297l226 297h245l-348 -457l369 -485h-246l-246 324l-245 -324h-246z" />
<glyph unicode="y" horiz-adv-x="983" d="M-20 942h245l267 -666l266 666h246l-615 -1393h-246l217 508z" />
<glyph unicode="z" horiz-adv-x="952" d="M20 0l545 748h-483v194h860l-545 -747h484v-195h-861z" />
<glyph unicode="{" horiz-adv-x="708" d="M133 492v204q129 42 129 226v389q0 72 28 129.5t70 90t85 49.5t79 17h123v-184h-72q-44 0 -71 -30t-27 -72v-307q0 -77 -12.5 -150.5t-47.5 -147t-89 -112.5q54 -39 89 -112.5t47.5 -147t12.5 -150.5v-307q0 -42 27 -72t71 -30h72v-185h-123q-36 0 -79 17t-85 49.5 t-70 90.5t-28 130v389q0 184 -129 226z" />
<glyph unicode="|" horiz-adv-x="612" d="M205 -440v2048h203v-2048h-203z" />
<glyph unicode="}" horiz-adv-x="657" d="M113 -225h71q44 0 71.5 30t27.5 72v307q0 77 12.5 150.5t47.5 147t89 112.5q-54 39 -89 112.5t-47.5 147t-12.5 150.5v307q0 42 -27.5 72t-71.5 30h-71v184h123q36 0 79 -17t85 -49.5t70 -90t28 -129.5v-389q0 -184 129 -226v-204q-129 -42 -129 -226v-389 q0 -72 -28 -130t-70 -90.5t-85 -49.5t-79 -17h-123v185z" />
<glyph unicode="~" horiz-adv-x="1177" d="M113 420q0 37 13.5 83.5t39.5 80.5q78 106 231 106q121 0 262 -108q67 -52 86 -60q15 -6 33 -6q86 0 86 90q0 31 -10 56l203 -11q8 -32 8 -57q0 -39 -10.5 -86.5t-34.5 -79.5q-39 -51 -90 -73.5t-123 -22.5q-102 0 -246 108q-50 38 -79.5 53t-65.5 15q-60 0 -86 -33 q-27 -35 -27 -69q0 -25 8 -46l-192 11q-6 21 -6 49z" />
<glyph unicode="&#xa1;" horiz-adv-x="614" d="M168 850q0 56 40.5 94.5t98.5 38.5t98.5 -38.5t40.5 -94.5t-40.5 -94.5t-98.5 -38.5t-98.5 38.5t-40.5 94.5zM174 -502l51 1024h164l51 -1024h-266z" />
<glyph unicode="&#xa2;" horiz-adv-x="1009" d="M61 471q0 204 111.5 339.5t306.5 164.5v209h176v-205q179 -18 252 -96v-271q-28 59 -98.5 106t-153.5 60v-614q89 12 156 57.5t96 108.5v-271q-73 -78 -252 -96v-192h-176v196q-195 29 -306.5 164.5t-111.5 339.5zM279 471q0 -104 52.5 -182.5t147.5 -110.5v586 q-95 -32 -147.5 -110.5t-52.5 -182.5z" />
<glyph unicode="&#xa3;" horiz-adv-x="1097" d="M72 0q82 86 131.5 144t89 120.5t56 120.5t16.5 125q0 25 -7 53h-280v195h174q-50 73 -77.5 142t-27.5 161q0 195 126 304.5t335 109.5q84 0 155.5 -27t119.5 -70t82 -99.5t51 -114t20 -115.5l-194 -68q-3 59 -17 107.5t-41.5 88.5t-74.5 62.5t-111 22.5q-98 0 -159.5 -50 t-61.5 -147q0 -40 6.5 -75.5t22.5 -70t27 -54t36 -57.5t33 -50h313v-195h-244v-22q0 -95 -41 -183t-108 -153h577v-205h-927z" />
<glyph unicode="&#xa4;" horiz-adv-x="1198" d="M61 219l109 109q-90 129 -90 286q0 158 90 287l-109 109l142 143l112 -113q133 86 283 86q157 0 285 -86l112 113l142 -143l-111 -109q90 -129 90 -287q0 -157 -90 -286l111 -109l-142 -143l-112 112q-128 -86 -285 -86q-150 0 -283 86l-112 -112zM297 614 q0 -135 83 -226t218 -91t218 91t83 226t-83 226.5t-218 91.5t-218 -91.5t-83 -226.5z" />
<glyph unicode="&#xa5;" horiz-adv-x="1218" d="M20 1434h236l344 -631l363 631h235l-369 -635h267v-195h-379l-4 -8v-166h383v-194h-383v-236h-215v236h-396v194h396v148l-15 26h-381v195h273z" />
<glyph unicode="&#xa6;" horiz-adv-x="612" d="M205 10v512h203v-512h-203zM205 911v512h203v-512h-203z" />
<glyph unicode="&#xa7;" horiz-adv-x="835" d="M41 240l156 90q18 -84 85 -130t158 -46q144 0 144 98q0 15 -3 28.5t-6.5 24t-12 21t-14.5 17.5t-20 15.5t-21.5 13t-26.5 12.5t-27 11.5t-30.5 12.5t-31.5 12q-37 15 -57.5 23.5t-56 26t-56 33t-46.5 40.5t-40.5 51.5t-24.5 63t-10 77.5q0 81 48 138t139 85 q-187 101 -187 248q0 118 91 193.5t235 75.5q133 0 221 -59.5t119 -145.5l-152 -105q-59 113 -186 113q-60 0 -91.5 -19.5t-31.5 -52.5q0 -50 56.5 -90t152.5 -80q281 -116 281 -278q0 -181 -174 -240q80 -42 127 -101.5t47 -150.5q0 -158 -100.5 -232.5t-264.5 -74.5 q-86 0 -170.5 37.5t-144.5 103t-74 140.5zM305 756q0 -59 49.5 -102t134.5 -79q44 21 69.5 69.5t25.5 98.5q0 34 -10.5 58t-38.5 43t-47.5 28t-66.5 27l-15 6q-56 -27 -78.5 -62t-22.5 -87z" />
<glyph unicode="&#xa8;" horiz-adv-x="962" d="M92 1352q0 56 40.5 94.5t98.5 38.5t99 -38.5t41 -94.5t-41 -94.5t-99 -38.5t-98.5 38.5t-40.5 94.5zM543 1352q0 56 40.5 94.5t98.5 38.5t98.5 -38.5t40.5 -94.5t-40.5 -94.5t-98.5 -38.5t-98.5 38.5t-40.5 94.5z" />
<glyph unicode="&#xa9;" horiz-adv-x="1638" d="M82 717q0 158 56.5 295.5t154.5 234t234.5 152t291.5 55.5t291.5 -55.5t234.5 -152t154.5 -234t56.5 -295.5t-56.5 -295.5t-154.5 -234t-234.5 -152t-291.5 -55.5t-291.5 55.5t-234.5 152t-154.5 234t-56.5 295.5zM195 717q0 -135 48 -253t131 -201.5t198.5 -132 t246.5 -48.5q175 0 318 82t225 227.5t82 325.5t-82 325.5t-225 227.5t-318 82q-131 0 -246.5 -48.5t-198.5 -132t-131 -201.5t-48 -253zM377 717q0 197 126 325.5t322 128.5q169 0 277 -94v-162q-45 59 -116.5 92t-160.5 33q-131 0 -221 -90t-90 -233t90 -233.5t221 -90.5 q89 0 160.5 33t116.5 92v-162q-108 -94 -277 -94q-196 0 -322 129t-126 326z" />
<glyph unicode="&#xaa;" horiz-adv-x="487" d="M37 1085q0 80 59.5 122t151.5 42q74 0 121 -26v67q0 53 -99 53q-80 0 -145 -45l-39 82q90 64 184 64q93 0 150 -40t57 -114v-338h-108v66q-22 -40 -64 -63t-96 -23q-72 0 -122 38t-50 115zM139 1096q0 -33 31.5 -52.5t69.5 -19.5q65 0 97 25t32 88v16q-48 18 -107 18 q-55 0 -89 -22t-34 -53z" />
<glyph unicode="&#xab;" horiz-adv-x="1044" d="M82 522l389 482l102 -93l-307 -381l307 -397l-102 -92zM410 522l389 482l102 -93l-307 -381l307 -397l-102 -92z" />
<glyph unicode="&#xac;" horiz-adv-x="1269" d="M133 594v194h1004v-430h-195v236h-809z" />
<glyph unicode="&#xad;" horiz-adv-x="430" d="M10 389v195h410v-195h-410z" />
<glyph unicode="&#xae;" horiz-adv-x="1638" d="M82 717q0 158 56.5 295.5t154.5 234t234.5 152t291.5 55.5t291.5 -55.5t234.5 -152t154.5 -234t56.5 -295.5t-56.5 -295.5t-154.5 -234t-234.5 -152t-291.5 -55.5t-291.5 55.5t-234.5 152t-154.5 234t-56.5 295.5zM195 717q0 -135 48 -253t131 -201.5t198.5 -132 t246.5 -48.5q175 0 318 82t225 227.5t82 325.5t-82 325.5t-225 227.5t-318 82q-131 0 -246.5 -48.5t-198.5 -132t-131 -201.5t-48 -253zM549 307v860h264q126 0 209.5 -73.5t83.5 -190.5q0 -90 -50.5 -155.5t-135.5 -92.5l237 -348h-160l-227 332h-86v-332h-135zM684 762 h129q74 0 116 36t42 105t-42 105t-116 36h-129v-282z" />
<glyph unicode="&#xaf;" horiz-adv-x="1044" d="M164 1208v195h717v-195h-717z" />
<glyph unicode="&#xb0;" horiz-adv-x="569" d="M37 1229q0 112 74.5 184t183.5 72t183.5 -72t74.5 -184t-74.5 -184t-183.5 -72t-183.5 72t-74.5 184zM143 1229q0 -70 43.5 -115t108.5 -45t108 45t43 115t-43 115t-108 45t-108.5 -45t-43.5 -115z" />
<glyph unicode="&#xb1;" horiz-adv-x="1259" d="M133 143v164h993v-164h-993zM133 686v164h410v317h174v-317h409v-164h-409v-317h-174v317h-410z" />
<glyph unicode="&#xb2;" horiz-adv-x="708" d="M27 578l403 411q58 60 82.5 110.5t24.5 112.5q0 57 -37.5 93t-108.5 36q-83 0 -131.5 -54t-48.5 -144h-129q0 132 85.5 226.5t223.5 94.5q133 0 206 -76t73 -176q0 -90 -31.5 -151t-93.5 -121l-242 -240h367v-122h-643z" />
<glyph unicode="&#xb3;" horiz-adv-x="638" d="M39 801h131q0 -56 41 -92.5t102 -36.5q73 0 114.5 34.5t41.5 106.5q0 148 -180 148v116q49 0 81 9t47.5 28.5t21 40.5t5.5 53q0 127 -112 127q-131 0 -131 -114h-125q0 104 72.5 170.5t183.5 66.5q107 0 175 -69.5t68 -167.5q0 -158 -124 -201q149 -49 149 -219 q0 -114 -79 -183t-208 -69q-125 0 -199.5 72t-74.5 180z" />
<glyph unicode="&#xb4;" horiz-adv-x="768" d="M133 1106l307 328l205 -82l-369 -308z" />
<glyph unicode="&#xb5;" horiz-adv-x="1105" d="M121 -655v1597h217v-573q0 -113 46 -164t134 -51q97 0 168.5 59t71.5 156v573h215v-942h-215v139q-56 -82 -137.5 -131t-163.5 -49q-62 0 -121 16v-630h-215z" />
<glyph unicode="&#xb6;" horiz-adv-x="1224" d="M123 993q0 206 133.5 323.5t333.5 117.5h512v-1885h-184v1711h-144v-1711h-184v1004q-130 0 -234.5 49.5t-168.5 151t-64 239.5z" />
<glyph unicode="&#xb7;" horiz-adv-x="614" d="M143 492q0 56 41 94.5t99 38.5t98.5 -38.5t40.5 -94.5t-40.5 -95t-98.5 -39t-99 39t-41 95z" />
<glyph unicode="&#xb8;" horiz-adv-x="716" d="M143 -389l86 78q33 -28 55.5 -38.5t59.5 -10.5q49 0 75.5 30.5t26.5 71.5q0 74 -102 74q-51 0 -96 -21l-29 -16l162 344h145l-110 -229q56 0 101.5 -41t45.5 -111q0 -95 -60 -154t-159 -59q-119 0 -201 82z" />
<glyph unicode="&#xb9;" horiz-adv-x="962" d="M299 1239v133l326 80v-891h-136v737z" />
<glyph unicode="&#xba;" horiz-adv-x="569" d="M37 1188q0 112 74.5 184t183.5 72t183.5 -72t74.5 -184t-74.5 -184t-183.5 -72t-183.5 72t-74.5 184zM143 1188q0 -70 43.5 -115t108.5 -45t108 45t43 115t-43 115t-108 45t-108.5 -45t-43.5 -115z" />
<glyph unicode="&#xbb;" horiz-adv-x="1044" d="M143 133l308 381l-308 397l103 93l389 -482l-389 -481zM471 133l307 381l-307 397l102 93l390 -482l-390 -481z" />
<glyph unicode="&#xbc;" horiz-adv-x="1544" d="M49 1239v133l326 80v-891h-135v737zM201 0l1024 1434h174l-1024 -1434h-174zM803 147l575 787v-670h135v-117h-135v-147h-135v147h-440zM1024 264h219v301z" />
<glyph unicode="&#xbd;" horiz-adv-x="1677" d="M49 1239v133l326 80v-891h-135v737zM201 0l1024 1434h174l-1024 -1434h-174zM985 4l404 412q58 60 82 110.5t24 112.5q0 57 -37 93t-108 36q-83 0 -132 -54.5t-49 -144.5h-129q0 132 86 227t224 95q133 0 205.5 -76t72.5 -176q0 -90 -31.5 -151t-93.5 -121l-241 -240h366 v-123h-643z" />
<glyph unicode="&#xbe;" horiz-adv-x="1679" d="M49 801h131q0 -56 41.5 -92.5t102.5 -36.5q72 0 113.5 34.5t41.5 106.5q0 148 -180 148v116q93 0 124.5 33t31.5 98q0 127 -113 127q-131 0 -131 -114h-125q0 104 72.5 170.5t183.5 66.5q107 0 175.5 -69.5t68.5 -167.5q0 -158 -125 -201q149 -49 149 -219 q0 -114 -78.5 -183t-207.5 -69q-125 0 -200 72t-75 180zM338 0l1024 1434h174l-1024 -1434h-174zM940 147l576 787v-670h135v-117h-135v-147h-136v147h-440zM1161 264h219v301z" />
<glyph unicode="&#xbf;" horiz-adv-x="1140" d="M92 410q0 123 69.5 226.5t175.5 161t222 62.5l12 225h164l41 -358h-94q-89 0 -161.5 -27.5t-117.5 -73t-69.5 -101t-24.5 -115.5q0 -122 77.5 -189t203.5 -67q87 0 158.5 42t119.5 119l154 -104q-39 -59 -77.5 -100.5t-92 -78t-124.5 -55t-159 -18.5q-208 0 -342.5 127 t-134.5 324zM514 1352q0 56 40.5 94.5t98.5 38.5t99 -38.5t41 -94.5t-41 -94.5t-99 -38.5t-98.5 38.5t-40.5 94.5z" />
<glyph unicode="&#xc0;" horiz-adv-x="1454" d="M0 0l727 1516l727 -1516h-246l-180 389h-602l-180 -389h-246zM328 1935l204 82l308 -327l-144 -62zM520 594h414l-207 444z" />
<glyph unicode="&#xc1;" horiz-adv-x="1454" d="M0 0l727 1516l727 -1516h-246l-180 389h-602l-180 -389h-246zM520 594h414l-207 444zM614 1690l308 327l204 -82l-368 -307z" />
<glyph unicode="&#xc2;" horiz-adv-x="1454" d="M0 0l727 1516l727 -1516h-246l-180 389h-602l-180 -389h-246zM379 1731l348 307l348 -307l-143 -103l-205 191l-205 -191zM520 594h414l-207 444z" />
<glyph unicode="&#xc3;" horiz-adv-x="1454" d="M0 0l727 1516l727 -1516h-246l-180 389h-602l-180 -389h-246zM348 1704q16 78 78.5 133t144.5 55q17 0 32.5 -2t31 -7t26 -8.5t25.5 -11.5t20.5 -11t19.5 -11.5t15 -9.5q12 -7 31 -20t29 -19t27.5 -11t37.5 -5q64 0 125 98l115 -88q-28 -64 -92 -117t-135 -53 q-30 0 -60.5 8t-43.5 14t-46 24q-2 1 -3.5 1.5t-3 1.5t-3.5 2q-9 5 -34 20t-39.5 23t-36.5 15.5t-40 7.5q-26 0 -45.5 -11.5t-28.5 -29.5t-13.5 -34t-4.5 -30zM520 594h414l-207 444z" />
<glyph unicode="&#xc4;" horiz-adv-x="1454" d="M0 0l727 1516l727 -1516h-246l-180 389h-602l-180 -389h-246zM338 1741q0 56 40.5 94.5t98.5 38.5t98.5 -38.5t40.5 -94.5t-40.5 -94.5t-98.5 -38.5t-98.5 38.5t-40.5 94.5zM520 594h414l-207 444zM788 1741q0 56 41 94.5t99 38.5t98.5 -38.5t40.5 -94.5t-40.5 -94.5 t-98.5 -38.5t-99 38.5t-41 94.5z" />
<glyph unicode="&#xc5;" horiz-adv-x="1454" d="M0 0l715 1491q-87 5 -144 61t-57 144q0 91 61 148t152 57t152 -57t61 -148q0 -88 -57 -144t-144 -61l715 -1491h-246l-180 389h-602l-180 -389h-246zM520 594h414l-207 444zM618 1696q0 -117 109 -117t109 117q0 119 -109 119t-109 -119z" />
<glyph unicode="&#xc6;" horiz-adv-x="2109" d="M41 0l881 1434h1044v-205h-645v-348h604v-205h-604v-471h645v-205h-870v389h-559v2l-240 -391h-256zM662 594h434v711z" />
<glyph unicode="&#xc7;" horiz-adv-x="1392" d="M61 717q0 130 35.5 247t102 209.5t157.5 160.5t207 104.5t246 36.5q279 0 461 -158v-268q-77 98 -194.5 152t-266.5 54q-106 0 -200.5 -39t-165 -108t-111.5 -170.5t-41 -220.5t41 -220.5t111.5 -171t165 -108.5t200.5 -39q149 0 266.5 54.5t194.5 152.5v-268 q-161 -142 -408 -156l-92 -192q57 0 103.5 -41t46.5 -111q0 -94 -60.5 -153.5t-159.5 -59.5q-118 0 -202 84l88 76q33 -28 55 -38.5t59 -10.5q49 0 76 30.5t27 71.5q0 74 -103 74q-52 0 -98 -21l-29 -14l146 307q-293 31 -475.5 239.5t-182.5 514.5z" />
<glyph unicode="&#xc8;" horiz-adv-x="1146" d="M143 0v1434h871v-205h-645v-348h604v-205h-604v-471h645v-205h-871zM205 1884l205 82l307 -328l-144 -61z" />
<glyph unicode="&#xc9;" horiz-adv-x="1146" d="M143 0v1434h871v-205h-645v-348h604v-205h-604v-471h645v-205h-871zM492 1638l307 328l205 -82l-369 -307z" />
<glyph unicode="&#xca;" horiz-adv-x="1146" d="M143 0v1434h871v-205h-645v-348h604v-205h-604v-471h645v-205h-871zM256 1679l348 308l348 -308l-143 -102l-205 190l-205 -190z" />
<glyph unicode="&#xcb;" horiz-adv-x="1146" d="M143 0v1434h871v-205h-645v-348h604v-205h-604v-471h645v-205h-871zM215 1690q0 56 40.5 94.5t98.5 38.5t99 -38.5t41 -94.5t-41 -95t-99 -39t-98.5 39t-40.5 95zM666 1690q0 56 40.5 94.5t98.5 38.5t98.5 -38.5t40.5 -94.5t-40.5 -95t-98.5 -39t-98.5 39t-40.5 95z" />
<glyph unicode="&#xcc;" horiz-adv-x="512" d="M-168 1884l205 82l307 -328l-143 -61zM143 0v1434h226v-1434h-226z" />
<glyph unicode="&#xcd;" horiz-adv-x="512" d="M119 1638l307 328l205 -82l-369 -307zM143 0v1434h226v-1434h-226z" />
<glyph unicode="&#xce;" horiz-adv-x="512" d="M-119 1679l348 308l349 -308l-144 -102l-205 190l-204 -190zM143 0v1434h226v-1434h-226z" />
<glyph unicode="&#xcf;" horiz-adv-x="512" d="M-160 1690q0 56 41 94.5t99 38.5t98.5 -38.5t40.5 -94.5t-40.5 -95t-98.5 -39t-99 39t-41 95zM143 0v1434h226v-1434h-226zM291 1690q0 56 40.5 94.5t98.5 38.5t98.5 -38.5t40.5 -94.5t-40.5 -95t-98.5 -39t-98.5 39t-40.5 95z" />
<glyph unicode="&#xd0;" horiz-adv-x="1413" d="M41 614v195h102v625h482q216 0 381.5 -89.5t255.5 -252.5t90 -375t-90 -375t-255.5 -252.5t-381.5 -89.5h-482v614h-102zM369 205h256q232 0 366.5 133t134.5 379t-134.5 379t-366.5 133h-256v-420h286v-195h-286v-409z" />
<glyph unicode="&#xd1;" horiz-adv-x="1607" d="M143 0v1526l1096 -1088v996h225v-1526l-1095 1087v-995h-226zM451 1704q16 78 78.5 133t144.5 55q17 0 32.5 -2t31 -7t26 -8.5t25.5 -11.5t20.5 -11t19.5 -11.5t15 -9.5q12 -7 31 -20t29 -19t27.5 -11t37.5 -5q64 0 125 98l114 -88q-28 -64 -92 -117t-135 -53 q-30 0 -60.5 8t-43.5 14t-46 24q-2 1 -3.5 1.5t-3 1.5t-3.5 2q-9 5 -34 20t-39.5 23t-36 15.5t-39.5 7.5q-26 0 -45.5 -11.5t-28.5 -29.5t-13.5 -34t-4.5 -30z" />
<glyph unicode="&#xd2;" d="M61 717q0 161 60 302.5t163 241t244.5 157t300.5 57.5q155 0 296 -57.5t245 -156.5t165.5 -241t61.5 -303t-60 -302.5t-163 -241t-244.5 -157t-300.5 -57.5t-300.5 57.5t-244.5 157t-163 241t-60 302.5zM293 717q0 -234 154 -390.5t382 -156.5q150 0 273 71t193.5 196.5 t70.5 279.5q0 155 -68.5 280t-191.5 196t-277 71q-228 0 -382 -156.5t-154 -390.5zM461 1905l205 82l307 -328l-144 -62z" />
<glyph unicode="&#xd3;" d="M61 717q0 161 60 302.5t163 241t244.5 157t300.5 57.5q155 0 296 -57.5t245 -156.5t165.5 -241t61.5 -303t-60 -302.5t-163 -241t-244.5 -157t-300.5 -57.5t-300.5 57.5t-244.5 157t-163 241t-60 302.5zM293 717q0 -234 154 -390.5t382 -156.5q150 0 273 71t193.5 196.5 t70.5 279.5q0 155 -68.5 280t-191.5 196t-277 71q-228 0 -382 -156.5t-154 -390.5zM686 1659l307 328l205 -82l-369 -308z" />
<glyph unicode="&#xd4;" d="M61 717q0 161 60 302.5t163 241t244.5 157t300.5 57.5q155 0 296 -57.5t245 -156.5t165.5 -241t61.5 -303t-60 -302.5t-163 -241t-244.5 -157t-300.5 -57.5t-300.5 57.5t-244.5 157t-163 241t-60 302.5zM293 717q0 -234 154 -390.5t382 -156.5q150 0 273 71t193.5 196.5 t70.5 279.5q0 155 -68.5 280t-191.5 196t-277 71q-228 0 -382 -156.5t-154 -390.5zM481 1700l348 307l349 -307l-144 -103l-205 191l-204 -191z" />
<glyph unicode="&#xd5;" d="M61 717q0 161 60 302.5t163 241t244.5 157t300.5 57.5q155 0 296 -57.5t245 -156.5t165.5 -241t61.5 -303t-60 -302.5t-163 -241t-244.5 -157t-300.5 -57.5t-300.5 57.5t-244.5 157t-163 241t-60 302.5zM293 717q0 -234 154 -390.5t382 -156.5q150 0 273 71t193.5 196.5 t70.5 279.5q0 155 -68.5 280t-191.5 196t-277 71q-228 0 -382 -156.5t-154 -390.5zM451 1686q16 78 78.5 133t144.5 55q17 0 32.5 -2t30.5 -7t26.5 -9t25.5 -11.5t20.5 -11.5t19 -11.5t15.5 -9.5l17.5 -10.5l17.5 -10.5t16 -9t16.5 -8.5t14.5 -6.5t15 -5.5t13.5 -3 t14.5 -1.5q64 0 125 98l114 -88q-28 -64 -92 -117t-135 -53q-13 0 -25.5 1.5t-22 3t-22 5.5t-18.5 6t-19.5 8.5t-17 8.5t-18.5 10t-17 9q-8 5 -33.5 20t-40 22.5t-36 15t-39.5 7.5q-34 0 -56 -20.5t-29 -42t-7 -41.5z" />
<glyph unicode="&#xd6;" d="M61 717q0 161 60 302.5t163 241t244.5 157t300.5 57.5q155 0 296 -57.5t245 -156.5t165.5 -241t61.5 -303t-60 -302.5t-163 -241t-244.5 -157t-300.5 -57.5t-300.5 57.5t-244.5 157t-163 241t-60 302.5zM293 717q0 -234 154 -390.5t382 -156.5q150 0 273 71t193.5 196.5 t70.5 279.5q0 155 -68.5 280t-191.5 196t-277 71q-228 0 -382 -156.5t-154 -390.5zM465 1731q0 56 40.5 94.5t98.5 38.5t98.5 -38.5t40.5 -94.5t-40.5 -95t-98.5 -39t-98.5 39t-40.5 95zM915 1731q0 56 41 94.5t99 38.5t98.5 -38.5t40.5 -94.5t-40.5 -95t-98.5 -39t-99 39 t-41 95z" />
<glyph unicode="&#xd7;" horiz-adv-x="1220" d="M113 180l350 342l-350 342l155 156l342 -350l342 350l156 -156l-350 -342l350 -342l-156 -155l-342 350l-342 -350z" />
<glyph unicode="&#xd8;" d="M61 717q0 161 60 302.5t163 241t244.5 157t300.5 57.5q246 0 441 -134l82 93h266l-199 -226q178 -207 178 -491q0 -161 -60 -302.5t-163 -241t-244.5 -157t-300.5 -57.5q-228 0 -411 111l-62 -70h-264l172 195q-96 102 -149.5 236t-53.5 286zM293 717q0 -202 121 -352 l714 815q-133 84 -299 84q-228 0 -382 -156.5t-154 -390.5zM565 238q123 -68 264 -68q150 0 273 71t193.5 196.5t70.5 279.5q0 184 -94 323z" />
<glyph unicode="&#xd9;" horiz-adv-x="1302" d="M133 471v963h225v-963q0 -135 79 -221t214 -86t214 86t79 221v963h225v-963q0 -159 -68 -276.5t-184 -176.5t-266 -59t-266 59t-184 176.5t-68 276.5zM252 1884l205 82l307 -328l-143 -61z" />
<glyph unicode="&#xda;" horiz-adv-x="1302" d="M133 471v963h225v-963q0 -135 79 -221t214 -86t214 86t79 221v963h225v-963q0 -159 -68 -276.5t-184 -176.5t-266 -59t-266 59t-184 176.5t-68 276.5zM539 1638l307 328l205 -82l-369 -307z" />
<glyph unicode="&#xdb;" horiz-adv-x="1302" d="M133 471v963h225v-963q0 -135 79 -221t214 -86t214 86t79 221v963h225v-963q0 -159 -68 -276.5t-184 -176.5t-266 -59t-266 59t-184 176.5t-68 276.5zM303 1679l348 308l348 -308l-143 -102l-205 190l-205 -190z" />
<glyph unicode="&#xdc;" horiz-adv-x="1302" d="M133 471v963h225v-963q0 -135 79 -221t214 -86t214 86t79 221v963h225v-963q0 -159 -68 -276.5t-184 -176.5t-266 -59t-266 59t-184 176.5t-68 276.5zM262 1690q0 56 40.5 94.5t98.5 38.5t99 -38.5t41 -94.5t-41 -95t-99 -39t-98.5 39t-40.5 95zM713 1690q0 56 40.5 94.5 t98.5 38.5t98.5 -38.5t40.5 -94.5t-40.5 -95t-98.5 -39t-98.5 39t-40.5 95z" />
<glyph unicode="&#xdd;" horiz-adv-x="1157" d="M-10 1434h235l344 -631l363 631h235l-485 -838v-596h-215v578zM467 1638l307 328l205 -82l-369 -307z" />
<glyph unicode="&#xde;" horiz-adv-x="1208" d="M164 0v1434h225v-267h215q252 0 385 -117.5t133 -332.5t-133 -333t-385 -118h-215v-266h-225zM389 471h215q293 0 293 246t-293 246h-215v-492z" />
<glyph unicode="&#xdf;" horiz-adv-x="1239" d="M143 0v1241q0 167 131.5 282t323.5 115q229 0 353 -111t124 -286q0 -265 -266 -340q162 -55 255 -170t93 -270q0 -139 -76 -250t-205.5 -171t-287.5 -60v194q64 0 124.5 18t112.5 53.5t83.5 96.5t31.5 139q0 132 -112 219.5t-281 87.5v236q161 0 236 52.5t75 144.5 q0 106 -63.5 164.5t-196.5 58.5q-49 0 -90 -10t-76 -32.5t-54.5 -63.5t-19.5 -97v-1241h-215z" />
<glyph unicode="&#xe0;" horiz-adv-x="1054" d="M51 266q0 106 59 182t153 112t210 36q143 0 244 -55v135q0 57 -56.5 82.5t-142.5 25.5q-90 0 -167.5 -29t-123.5 -63l-80 166q172 125 371 125q184 0 299 -80t115 -227v-676h-215v131q-43 -79 -129.5 -125.5t-192.5 -46.5q-68 0 -127.5 17t-109 52t-78.5 96.5t-29 141.5z M119 1393l205 82l307 -328l-144 -62zM258 287q0 -66 61.5 -104t137.5 -38q131 0 195.5 49t64.5 175v34q-99 37 -215 37q-109 0 -176.5 -45.5t-67.5 -107.5z" />
<glyph unicode="&#xe1;" horiz-adv-x="1054" d="M51 266q0 106 59 182t153 112t210 36q143 0 244 -55v135q0 57 -56.5 82.5t-142.5 25.5q-90 0 -167.5 -29t-123.5 -63l-80 166q172 125 371 125q184 0 299 -80t115 -227v-676h-215v131q-43 -79 -129.5 -125.5t-192.5 -46.5q-68 0 -127.5 17t-109 52t-78.5 96.5t-29 141.5z M258 287q0 -66 61.5 -104t137.5 -38q131 0 195.5 49t64.5 175v34q-99 37 -215 37q-109 0 -176.5 -45.5t-67.5 -107.5zM406 1147l307 328l205 -82l-369 -308z" />
<glyph unicode="&#xe2;" horiz-adv-x="1054" d="M51 266q0 106 59 182t153 112t210 36q143 0 244 -55v135q0 57 -56.5 82.5t-142.5 25.5q-90 0 -167.5 -29t-123.5 -63l-80 166q172 125 371 125q184 0 299 -80t115 -227v-676h-215v131q-43 -79 -129.5 -125.5t-192.5 -46.5q-68 0 -127.5 17t-109 52t-78.5 96.5t-29 141.5z M170 1188l348 307l348 -307l-143 -103l-205 191l-205 -191zM258 287q0 -66 61.5 -104t137.5 -38q131 0 195.5 49t64.5 175v34q-99 37 -215 37q-109 0 -176.5 -45.5t-67.5 -107.5z" />
<glyph unicode="&#xe3;" horiz-adv-x="1054" d="M51 266q0 106 59 182t153 112t210 36q143 0 244 -55v135q0 57 -56.5 82.5t-142.5 25.5q-90 0 -167.5 -29t-123.5 -63l-80 166q172 125 371 125q184 0 299 -80t115 -227v-676h-215v131q-43 -79 -129.5 -125.5t-192.5 -46.5q-68 0 -127.5 17t-109 52t-78.5 96.5t-29 141.5z M139 1161q16 78 78.5 133.5t144.5 55.5q17 0 32.5 -2t30.5 -7t26.5 -9t25.5 -11.5t20.5 -11.5t19 -11.5t15.5 -9.5q12 -7 31 -20t29 -19t27.5 -11t37.5 -5q64 0 125 98l115 -88q-28 -64 -92 -117t-135 -53q-30 0 -60.5 8t-43.5 14t-46 24q-2 1 -3.5 1.5t-3 1.5t-3.5 2 q-9 5 -34 20t-39.5 23t-36.5 15.5t-40 7.5q-26 0 -45.5 -11.5t-28.5 -29.5t-13.5 -34t-4.5 -30zM258 287q0 -66 61.5 -104t137.5 -38q131 0 195.5 49t64.5 175v34q-99 37 -215 37q-109 0 -176.5 -45.5t-67.5 -107.5z" />
<glyph unicode="&#xe4;" horiz-adv-x="1054" d="M51 266q0 106 59 182t153 112t210 36q143 0 244 -55v135q0 57 -56.5 82.5t-142.5 25.5q-90 0 -167.5 -29t-123.5 -63l-80 166q172 125 371 125q184 0 299 -80t115 -227v-676h-215v131q-43 -79 -129.5 -125.5t-192.5 -46.5q-68 0 -127.5 17t-109 52t-78.5 96.5t-29 141.5z M129 1198q0 56 40.5 94.5t98.5 38.5t99 -38.5t41 -94.5t-41 -94.5t-99 -38.5t-98.5 38.5t-40.5 94.5zM258 287q0 -66 61.5 -104t137.5 -38q131 0 195.5 49t64.5 175v34q-99 37 -215 37q-109 0 -176.5 -45.5t-67.5 -107.5zM580 1198q0 56 40.5 94.5t98.5 38.5t98.5 -38.5 t40.5 -94.5t-40.5 -94.5t-98.5 -38.5t-98.5 38.5t-40.5 94.5z" />
<glyph unicode="&#xe5;" horiz-adv-x="1054" d="M51 266q0 106 59 182t153 112t210 36q143 0 244 -55v135q0 57 -56.5 82.5t-142.5 25.5q-90 0 -167.5 -29t-123.5 -63l-80 166q172 125 371 125q184 0 299 -80t115 -227v-676h-215v131q-43 -79 -129.5 -125.5t-192.5 -46.5q-68 0 -127.5 17t-109 52t-78.5 96.5t-29 141.5z M258 287q0 -66 61.5 -104t137.5 -38q131 0 195.5 49t64.5 175v34q-99 37 -215 37q-109 0 -176.5 -45.5t-67.5 -107.5zM305 1290q0 91 61 148t152 57t152 -57t61 -148t-61 -148t-152 -57t-152 57t-61 148zM410 1290q0 -119 108 -119q109 0 109 119t-109 119q-108 0 -108 -119 z" />
<glyph unicode="&#xe6;" horiz-adv-x="1689" d="M51 266q0 106 59 182t153 112t210 36q143 0 244 -55v135q0 57 -56.5 82.5t-142.5 25.5q-90 0 -167.5 -29t-123.5 -63l-80 166q172 125 371 125q117 0 209 -33.5t145 -97.5q137 131 342 131q215 0 345.5 -135.5t130.5 -358.5q0 -42 -4 -69h-750q13 -123 90 -194.5 t188 -71.5q93 0 169.5 36t121.5 109l162 -100q-158 -240 -453 -240q-130 0 -231 48.5t-166 135.5q-51 -85 -159 -134.5t-242 -49.5q-76 0 -140 17t-115.5 52.5t-80.5 96t-29 141.5zM258 287q0 -66 61.5 -104t137.5 -38q131 0 195.5 49t64.5 175v34q-99 37 -215 37 q-109 0 -176.5 -45.5t-67.5 -107.5zM944 592h514q-18 98 -80.5 152.5t-163.5 54.5q-95 0 -171.5 -58t-98.5 -149z" />
<glyph unicode="&#xe7;" horiz-adv-x="1009" d="M61 471q0 230 141.5 371t377.5 141q102 0 191 -25.5t136 -74.5v-271q-33 70 -121.5 120t-185.5 50q-150 0 -235.5 -87.5t-85.5 -223.5t85.5 -223.5t235.5 -87.5q109 0 191 48.5t116 121.5v-271q-78 -84 -272 -98l-94 -192q57 0 103 -41t46 -111q0 -95 -60 -154t-159 -59 q-119 0 -203 84l88 76q33 -28 55.5 -38.5t59.5 -10.5q49 0 75.5 30.5t26.5 71.5q0 74 -102 74q-53 0 -98 -21l-29 -14l148 309q-199 26 -315 162.5t-116 343.5z" />
<glyph unicode="&#xe8;" horiz-adv-x="1095" d="M61 471q0 217 139.5 364.5t358.5 147.5q215 0 345 -135.5t130 -358.5q0 -42 -4 -69h-749q13 -123 89 -194.5t189 -71.5q93 0 169.5 36t121.5 109l162 -100q-38 -58 -77 -98.5t-92.5 -74.5t-124 -50.5t-159.5 -16.5q-219 0 -358.5 147.5t-139.5 364.5zM160 1393l205 82 l307 -328l-144 -62zM289 592h514q-18 98 -80.5 152.5t-163.5 54.5q-95 0 -171.5 -58t-98.5 -149z" />
<glyph unicode="&#xe9;" horiz-adv-x="1095" d="M61 471q0 217 139.5 364.5t358.5 147.5q215 0 345 -135.5t130 -358.5q0 -42 -4 -69h-749q13 -123 89 -194.5t189 -71.5q93 0 169.5 36t121.5 109l162 -100q-38 -58 -77 -98.5t-92.5 -74.5t-124 -50.5t-159.5 -16.5q-219 0 -358.5 147.5t-139.5 364.5zM289 592h514 q-18 98 -80.5 152.5t-163.5 54.5q-95 0 -171.5 -58t-98.5 -149zM446 1147l308 328l204 -82l-368 -308z" />
<glyph unicode="&#xea;" horiz-adv-x="1095" d="M61 471q0 217 139.5 364.5t358.5 147.5q215 0 345 -135.5t130 -358.5q0 -42 -4 -69h-749q13 -123 89 -194.5t189 -71.5q93 0 169.5 36t121.5 109l162 -100q-38 -58 -77 -98.5t-92.5 -74.5t-124 -50.5t-159.5 -16.5q-219 0 -358.5 147.5t-139.5 364.5zM211 1188l348 307 l348 -307l-143 -103l-205 191l-205 -191zM289 592h514q-18 98 -80.5 152.5t-163.5 54.5q-95 0 -171.5 -58t-98.5 -149z" />
<glyph unicode="&#xeb;" horiz-adv-x="1095" d="M61 471q0 217 139.5 364.5t358.5 147.5q215 0 345 -135.5t130 -358.5q0 -42 -4 -69h-749q13 -123 89 -194.5t189 -71.5q93 0 169.5 36t121.5 109l162 -100q-38 -58 -77 -98.5t-92.5 -74.5t-124 -50.5t-159.5 -16.5q-219 0 -358.5 147.5t-139.5 364.5zM170 1198 q0 56 40.5 94.5t98.5 38.5t99 -38.5t41 -94.5t-41 -94.5t-99 -38.5t-98.5 38.5t-40.5 94.5zM289 592h514q-18 98 -80.5 152.5t-163.5 54.5q-95 0 -171.5 -58t-98.5 -149zM621 1198q0 56 40.5 94.5t98.5 38.5t98.5 -38.5t40.5 -94.5t-40.5 -94.5t-98.5 -38.5t-98.5 38.5 t-40.5 94.5z" />
<glyph unicode="&#xec;" horiz-adv-x="532" d="M-133 1393l205 82l307 -328l-143 -62zM158 0v942h217v-942h-217z" />
<glyph unicode="&#xed;" horiz-adv-x="532" d="M154 1147l307 328l205 -82l-369 -308zM158 0v942h217v-942h-217z" />
<glyph unicode="&#xee;" horiz-adv-x="532" d="M-82 1188l348 307l348 -307l-143 -103l-205 191l-205 -191zM158 0v942h217v-942h-217z" />
<glyph unicode="&#xef;" horiz-adv-x="532" d="M-123 1198q0 56 40.5 94.5t98.5 38.5t99 -38.5t41 -94.5t-41 -94.5t-99 -38.5t-98.5 38.5t-40.5 94.5zM158 0v942h217v-942h-217zM328 1198q0 56 40.5 94.5t98.5 38.5t98.5 -38.5t40.5 -94.5t-40.5 -94.5t-98.5 -38.5t-98.5 38.5t-40.5 94.5z" />
<glyph unicode="&#xf0;" horiz-adv-x="1138" d="M51 471q0 128 62 239t161.5 174.5t210.5 63.5q89 0 152 -26l-92 122h-248v195h100l-147 195h254l139 -195h268v-195h-129l185 -256q49 -68 84.5 -152.5t35.5 -164.5q0 -149 -69.5 -267t-187.5 -181.5t-261 -63.5t-261 63.5t-187.5 181.5t-69.5 267zM274 471 q0 -139 82 -223t213 -84t213 84t82 223t-82 225t-213 86t-213 -86t-82 -225z" />
<glyph unicode="&#xf1;" horiz-adv-x="1105" d="M133 0v942h215v-139q56 82 137.5 131t163.5 49q156 0 245 -92.5t89 -296.5v-594h-215v573q0 113 -46 164t-134 51q-97 0 -168.5 -59t-71.5 -156v-573h-215zM188 1161q15 77 79.5 133t146.5 56q19 0 38.5 -3.5t33 -7.5t30.5 -12.5t25 -13t23.5 -14.5t17.5 -11 q12 -7 31.5 -20t29.5 -19t28 -11t38 -5q61 0 122 98l115 -88q-28 -64 -91 -117t-134 -53q-30 0 -60.5 8t-43.5 14t-46 24q-2 1 -3.5 1.5t-3 1.5t-3.5 2q-8 5 -34 20.5t-40.5 23t-36.5 15t-40 7.5q-34 0 -56 -21t-28.5 -42.5t-6.5 -41.5z" />
<glyph unicode="&#xf2;" horiz-adv-x="1159" d="M61 471q0 149 70 267t188 181.5t261 63.5t261 -63.5t187.5 -181.5t69.5 -267t-69.5 -267t-187.5 -181.5t-261 -63.5t-261 63.5t-188 181.5t-70 267zM180 1393l205 82l307 -328l-143 -62zM279 471q0 -139 85 -228t216 -89t216 89t85 228t-85 228t-216 89t-216 -89 t-85 -228z" />
<glyph unicode="&#xf3;" horiz-adv-x="1159" d="M61 471q0 149 70 267t188 181.5t261 63.5t261 -63.5t187.5 -181.5t69.5 -267t-69.5 -267t-187.5 -181.5t-261 -63.5t-261 63.5t-188 181.5t-70 267zM279 471q0 -139 85 -228t216 -89t216 89t85 228t-85 228t-216 89t-216 -89t-85 -228zM467 1147l307 328l205 -82 l-369 -308z" />
<glyph unicode="&#xf4;" horiz-adv-x="1159" d="M61 471q0 149 70 267t188 181.5t261 63.5t261 -63.5t187.5 -181.5t69.5 -267t-69.5 -267t-187.5 -181.5t-261 -63.5t-261 63.5t-188 181.5t-70 267zM231 1188l349 307l348 -307l-144 -103l-204 191l-205 -191zM279 471q0 -139 85 -228t216 -89t216 89t85 228t-85 228 t-216 89t-216 -89t-85 -228z" />
<glyph unicode="&#xf5;" horiz-adv-x="1159" d="M61 471q0 149 70 267t188 181.5t261 63.5t261 -63.5t187.5 -181.5t69.5 -267t-69.5 -267t-187.5 -181.5t-261 -63.5t-261 63.5t-188 181.5t-70 267zM201 1161q16 78 78.5 133.5t144.5 55.5q17 0 32.5 -2t30.5 -7t26.5 -9t25.5 -11.5t20.5 -11.5t19 -11.5t15.5 -9.5 q12 -7 31 -20t29 -19t27.5 -11t37.5 -5q64 0 125 98l114 -88q-28 -64 -92 -117t-135 -53q-30 0 -60.5 8t-43.5 14t-46 24q-2 1 -3.5 1.5t-3 1.5t-3.5 2q-9 5 -34 20t-39.5 23t-36 15.5t-39.5 7.5q-26 0 -45.5 -11.5t-28.5 -29.5t-13.5 -34t-4.5 -30zM279 471q0 -139 85 -228 t216 -89t216 89t85 228t-85 228t-216 89t-216 -89t-85 -228z" />
<glyph unicode="&#xf6;" horiz-adv-x="1159" d="M61 471q0 149 70 267t188 181.5t261 63.5t261 -63.5t187.5 -181.5t69.5 -267t-69.5 -267t-187.5 -181.5t-261 -63.5t-261 63.5t-188 181.5t-70 267zM190 1198q0 56 41 94.5t99 38.5t98.5 -38.5t40.5 -94.5t-40.5 -94.5t-98.5 -38.5t-99 38.5t-41 94.5zM279 471 q0 -139 85 -228t216 -89t216 89t85 228t-85 228t-216 89t-216 -89t-85 -228zM641 1198q0 56 40.5 94.5t98.5 38.5t99 -38.5t41 -94.5t-41 -94.5t-99 -38.5t-98.5 38.5t-40.5 94.5z" />
<glyph unicode="&#xf7;" horiz-adv-x="1261" d="M133 430v195h1024v-195h-1024zM481 143q0 56 41 94.5t99 38.5t98.5 -38.5t40.5 -94.5t-40.5 -94.5t-98.5 -38.5t-99 38.5t-41 94.5zM481 901q0 56 41 94.5t99 38.5t98.5 -38.5t40.5 -94.5t-40.5 -94.5t-98.5 -38.5t-99 38.5t-41 94.5z" />
<glyph unicode="&#xf8;" horiz-adv-x="1159" d="M61 471q0 149 70 267t188 181.5t261 63.5q171 0 305 -92l45 51h174l-121 -139q115 -137 115 -332q0 -149 -69.5 -267t-187.5 -181.5t-261 -63.5q-152 0 -275 72l-35 -39h-176l107 121q-140 143 -140 358zM279 471q0 -118 61 -201l410 467q-73 51 -170 51q-131 0 -216 -89 t-85 -228zM440 186q66 -32 140 -32q131 0 216 89t85 228q0 99 -41 170z" />
<glyph unicode="&#xf9;" horiz-adv-x="1105" d="M123 348v594h215v-573q0 -113 46 -164t134 -51q97 0 168.5 59t71.5 156v573h215v-942h-215v139q-56 -82 -137.5 -131t-163.5 -49q-156 0 -245 92.5t-89 296.5zM160 1393l205 82l307 -328l-144 -62z" />
<glyph unicode="&#xfa;" horiz-adv-x="1105" d="M123 348v594h215v-573q0 -113 46 -164t134 -51q97 0 168.5 59t71.5 156v573h215v-942h-215v139q-56 -82 -137.5 -131t-163.5 -49q-156 0 -245 92.5t-89 296.5zM446 1147l308 328l204 -82l-368 -308z" />
<glyph unicode="&#xfb;" horiz-adv-x="1105" d="M123 348v594h215v-573q0 -113 46 -164t134 -51q97 0 168.5 59t71.5 156v573h215v-942h-215v139q-56 -82 -137.5 -131t-163.5 -49q-156 0 -245 92.5t-89 296.5zM209 1188l348 307l348 -307l-143 -103l-205 191l-205 -191z" />
<glyph unicode="&#xfc;" horiz-adv-x="1105" d="M123 348v594h215v-573q0 -113 46 -164t134 -51q97 0 168.5 59t71.5 156v573h215v-942h-215v139q-56 -82 -137.5 -131t-163.5 -49q-156 0 -245 92.5t-89 296.5zM168 1198q0 56 40.5 94.5t98.5 38.5t98.5 -38.5t40.5 -94.5t-40.5 -94.5t-98.5 -38.5t-98.5 38.5t-40.5 94.5z M618 1198q0 56 41 94.5t99 38.5t98.5 -38.5t40.5 -94.5t-40.5 -94.5t-98.5 -38.5t-99 38.5t-41 94.5z" />
<glyph unicode="&#xfd;" horiz-adv-x="983" d="M-20 942h245l267 -666l266 666h246l-615 -1393h-246l217 508zM379 1147l307 328l205 -82l-369 -308z" />
<glyph unicode="&#xfe;" horiz-adv-x="1218" d="M133 -451v2048h215v-817q55 96 141 149.5t191 53.5q97 0 183 -34.5t151.5 -98.5t104 -162t38.5 -217t-38.5 -217t-104 -162t-151.5 -98.5t-183 -34.5q-105 0 -191 53.5t-141 149.5v-613h-215zM348 471q0 -78 25 -140.5t67 -100t93 -57t106 -19.5q133 0 217 86t84 231 t-84 231t-217 86q-55 0 -106 -19.5t-93 -57t-67 -100t-25 -140.5z" />
<glyph unicode="&#xff;" horiz-adv-x="983" d="M-20 942h245l267 -666l266 666h246l-615 -1393h-246l217 508zM102 1198q0 56 41 94.5t99 38.5t98.5 -38.5t40.5 -94.5t-40.5 -94.5t-98.5 -38.5t-99 38.5t-41 94.5zM553 1198q0 56 40.5 94.5t98.5 38.5t98.5 -38.5t40.5 -94.5t-40.5 -94.5t-98.5 -38.5t-98.5 38.5 t-40.5 94.5z" />
<glyph unicode="&#x2c6;" horiz-adv-x="983" d="M143 1229l349 307l348 -307l-144 -103l-204 191l-205 -191z" />
<glyph unicode="&#x2dc;" horiz-adv-x="1085" d="M164 1280q16 78 78.5 133t144.5 55q17 0 32.5 -2t31 -7t26 -8.5t25.5 -11.5t20.5 -11t19.5 -11.5t15 -9.5l17.5 -10.5l17.5 -10.5t16 -9t16.5 -8.5t14.5 -6.5t15 -5.5t13.5 -3t14.5 -1.5q64 0 125 98l115 -88q-28 -64 -92.5 -117t-135.5 -53q-11 0 -22 0.5t-21.5 3t-18 4 t-18.5 5.5t-16 6t-16.5 8t-15 7.5t-16.5 8.5t-15 8q-9 5 -34 20t-39.5 23t-36.5 15.5t-40 7.5q-26 0 -45.5 -11.5t-28.5 -29.5t-13.5 -34t-4.5 -30z" />
<glyph unicode="&#x2000;" horiz-adv-x="1019" />
<glyph unicode="&#x2001;" horiz-adv-x="2038" />
<glyph unicode="&#x2002;" horiz-adv-x="1019" />
<glyph unicode="&#x2003;" horiz-adv-x="2038" />
<glyph unicode="&#x2004;" horiz-adv-x="679" />
<glyph unicode="&#x2005;" horiz-adv-x="509" />
<glyph unicode="&#x2006;" horiz-adv-x="339" />
<glyph unicode="&#x2007;" horiz-adv-x="339" />
<glyph unicode="&#x2008;" horiz-adv-x="254" />
<glyph unicode="&#x2009;" horiz-adv-x="407" />
<glyph unicode="&#x200a;" horiz-adv-x="113" />
<glyph unicode="&#x2010;" horiz-adv-x="430" d="M10 389v195h410v-195h-410z" />
<glyph unicode="&#x2011;" horiz-adv-x="430" d="M10 389v195h410v-195h-410z" />
<glyph unicode="&#x2012;" horiz-adv-x="430" d="M10 389v195h410v-195h-410z" />
<glyph unicode="&#x2013;" horiz-adv-x="1515" d="M143 389v195h1229v-195h-1229z" />
<glyph unicode="&#x2014;" horiz-adv-x="1822" d="M143 389v195h1536v-195h-1536z" />
<glyph unicode="&#x2018;" horiz-adv-x="604" d="M82 963l215 471h143l-123 -471h-235z" />
<glyph unicode="&#x2019;" horiz-adv-x="604" d="M164 963l123 471h235l-215 -471h-143z" />
<glyph unicode="&#x201a;" horiz-adv-x="604" d="M164 -307l123 471h235l-215 -471h-143z" />
<glyph unicode="&#x201c;" horiz-adv-x="1013" d="M82 963l215 471h143l-123 -471h-235zM492 963l215 471h143l-123 -471h-235z" />
<glyph unicode="&#x201d;" horiz-adv-x="1013" d="M164 963l123 471h235l-215 -471h-143zM573 963l123 471h236l-215 -471h-144z" />
<glyph unicode="&#x202f;" horiz-adv-x="407" />
<glyph unicode="&#x2039;" horiz-adv-x="716" d="M82 522l389 482l102 -93l-307 -381l307 -397l-102 -92z" />
<glyph unicode="&#x203a;" horiz-adv-x="716" d="M143 133l308 381l-308 397l103 93l389 -482l-389 -481z" />
<glyph unicode="&#x205f;" horiz-adv-x="509" />
<glyph unicode="&#x20ac;" horiz-adv-x="1433" d="M-31 575v123h92v19q0 46 7 104h-99v123h119q57 238 219.5 384.5t388.5 146.5q162 0 308 -84v-248q-130 127 -308 127q-146 0 -247 -86t-144 -240h690v-123h-712q-7 -58 -7 -104v-19h666v-123h-655q30 -191 137 -301t272 -110q178 0 308 127v-248q-146 -84 -308 -84 q-246 0 -415.5 172t-208.5 444h-103z" />
<glyph unicode="&#x25fc;" horiz-adv-x="942" d="M0 0v942h942v-942h-942z" />
</font>
</defs>
</svg>
