<?xml version="1.0" standalone="no"?>
<!DOCTYPE svg PUBLIC "-//W3C//DTD SVG 1.1//EN" "http://www.w3.org/Graphics/SVG/1.1/DTD/svg11.dtd" >
<svg xmlns="http://www.w3.org/2000/svg" xmlns:xlink="http://www.w3.org/1999/xlink" version="1.1">
<metadata></metadata>
<defs>
<font id="renner_lightlight" horiz-adv-x="1310" >
<font-face units-per-em="2048" ascent="1638" descent="-410" />
<missing-glyph horiz-adv-x="614" />
<glyph horiz-adv-x="0" />
<glyph horiz-adv-x="682" />
<glyph unicode=" "  horiz-adv-x="614" />
<glyph unicode="&#x09;" horiz-adv-x="614" />
<glyph unicode="&#xa0;" horiz-adv-x="614" />
<glyph unicode="!" horiz-adv-x="614" d="M225 55q0 35 22.5 58.5t59.5 23.5t59.5 -23.5t22.5 -58.5t-22.5 -58.5t-59.5 -23.5t-59.5 23.5t-22.5 58.5zM242 1434h131l-25 -1024h-82z" />
<glyph unicode="&#x22;" horiz-adv-x="972" d="M205 819l164 615h133l-226 -615h-71zM573 819l164 615h133l-225 -615h-72z" />
<glyph unicode="#" horiz-adv-x="1239" d="M92 410v92h182l109 440h-250v92h273l96 400h92l-96 -400h399l96 400h92l-96 -400h158v-92h-180l-107 -440h246v-92h-268l-101 -410h-92l100 410h-399l-100 -410h-92l100 410h-162zM369 502h397l108 440h-399z" />
<glyph unicode="$" horiz-adv-x="1081" d="M92 395l103 43q30 -78 58 -131t68 -100.5t93.5 -73t122.5 -31.5v605q-4 2 -12.5 5t-12.5 5q-59 23 -114 56.5t-107.5 81.5t-84.5 113.5t-32 137.5q0 153 99 244.5t264 99.5v225h79v-227q142 -16 238.5 -111.5t126.5 -210.5l-98 -51q-33 97 -98.5 170.5t-168.5 89.5v-538 q2 -1 5.5 -3t5.5 -3q53 -21 96 -42.5t95 -58.5t87.5 -78.5t59.5 -102.5t24 -130q0 -72 -23.5 -138.5t-68.5 -120.5t-117.5 -90t-163.5 -44v-215h-79v213q-159 9 -271 118.5t-174 292.5zM291 1114q0 -161 246 -285v508q-119 -7 -182.5 -66.5t-63.5 -156.5zM616 102 q118 12 186 86t68 177q0 49 -14.5 91t-37 73t-57 59t-68.5 47t-77 39v-572z" />
<glyph unicode="%" horiz-adv-x="1538" d="M72 1126q0 139 89.5 231.5t233.5 92.5t234 -92.5t90 -231.5t-90 -231t-234 -92t-233.5 92t-89.5 231zM166 1126q0 -103 60.5 -167t168.5 -64t169 64.5t61 166.5q0 103 -61 167.5t-169 64.5q-107 0 -168 -64.5t-61 -167.5zM231 0l963 1434h113l-963 -1434h-113zM819 307 q0 139 90 231.5t234 92.5t233.5 -92.5t89.5 -231.5t-89.5 -231t-233.5 -92t-234 92t-90 231zM913 307q0 -102 61 -166.5t169 -64.5t168.5 64t60.5 167t-61 167.5t-168 64.5q-108 0 -169 -64.5t-61 -167.5z" />
<glyph unicode="&#x26;" horiz-adv-x="1382" d="M102 389q0 62 22 117t55 94.5t83 76t93.5 59.5t97.5 46q-74 88 -113 168.5t-39 188.5q0 143 100 228t263 85q167 0 254.5 -85.5t87.5 -211.5q0 -233 -361 -395q-4 -2 -12 -5t-12 -5l423 -441q117 122 236 318l80 -60q-137 -215 -246 -329l227 -238h-143l-160 166 q-211 -182 -454 -182q-131 0 -238.5 45t-175.5 139t-68 221zM221 389q0 -129 104.5 -216t258.5 -87q198 0 383 154l-449 465q0 1 -1 2t-1 2q-50 -20 -86.5 -37.5t-78.5 -46t-68 -60t-44 -77t-18 -99.5zM410 1139q0 -86 31.5 -150t113.5 -166q4 2 13.5 5.5t13.5 5.5 q71 31 116.5 55t96.5 63t76.5 89.5t25.5 113.5q0 79 -59 136t-174 57q-119 0 -186.5 -59.5t-67.5 -149.5z" />
<glyph unicode="'" horiz-adv-x="604" d="M205 819l164 615h133l-226 -615h-71z" />
<glyph unicode="(" horiz-adv-x="573" d="M184 594q0 561 236 1003h92q-205 -440 -205 -1003q0 -564 205 -1004h-92q-236 442 -236 1004z" />
<glyph unicode=")" horiz-adv-x="573" d="M61 -410q205 440 205 1004q0 563 -205 1003h93q235 -440 235 -1003q0 -564 -235 -1004h-93z" />
<glyph unicode="*" horiz-adv-x="1212" d="M211 1108l31 98l321 -112l-8 340h102l-8 -340l322 112l30 -98l-325 -96l207 -271l-84 -59l-193 281l-192 -281l-84 59l207 271z" />
<glyph unicode="+" horiz-adv-x="1259" d="M133 471v102h445v451h104v-451h444v-102h-444v-451h-104v451h-445z" />
<glyph unicode="," horiz-adv-x="630" d="M123 -305l231 516l113 -47l-277 -498z" />
<glyph unicode="-" horiz-adv-x="430" d="M10 440v92h410v-92h-410z" />
<glyph unicode="." horiz-adv-x="614" d="M225 55q0 35 22.5 58.5t59.5 23.5t59.5 -23.5t22.5 -58.5t-22.5 -58.5t-59.5 -23.5t-59.5 23.5t-22.5 58.5z" />
<glyph unicode="/" horiz-adv-x="1259" d="M31 -307l1075 1741h123l-1075 -1741h-123z" />
<glyph unicode="0" horiz-adv-x="1228" d="M102 717q0 211 66 378.5t183 261t263 93.5t263 -93.5t183 -261t66 -378.5t-66 -378.5t-183 -261t-263 -93.5t-263 93.5t-183 261t-66 378.5zM215 717q0 -168 48.5 -308.5t140.5 -226.5t210 -86t210.5 86t141 226.5t48.5 308.5q0 176 -49 317t-140.5 222t-210.5 81 t-210.5 -81t-140 -222t-48.5 -317z" />
<glyph unicode="1" horiz-adv-x="901" d="M205 1212v119l430 123v-1454h-113v1307z" />
<glyph unicode="2" horiz-adv-x="1114" d="M41 0l674 686q105 113 151.5 194.5t46.5 176.5q0 132 -81.5 207t-227.5 75q-166 0 -262 -111t-96 -286h-113q0 144 55 258.5t163 183t253 68.5q111 0 195.5 -33t134 -90t74 -126t24.5 -148q0 -57 -15.5 -113t-35 -96.5t-57.5 -90.5t-62.5 -77t-70.5 -76l-492 -489h754 v-113h-1012z" />
<glyph unicode="3" horiz-adv-x="1097" d="M123 379h104q0 -128 84.5 -210.5t227.5 -82.5q144 0 237.5 80t93.5 223q0 61 -21.5 114.5t-64.5 97.5t-116.5 69.5t-169.5 25.5v92q88 0 153 24t100.5 65.5t51.5 88.5t16 101q0 126 -76.5 203.5t-193.5 77.5q-135 0 -202.5 -71.5t-67.5 -199.5h-105q0 169 100 271 t275 102q163 0 269 -103.5t106 -269.5q0 -263 -224 -334q133 -36 204 -127.5t71 -236.5q0 -187 -120 -291t-316 -104q-188 0 -302 112t-114 283z" />
<glyph unicode="4" horiz-adv-x="1214" d="M41 287l887 1249v-1147h225v-102h-225v-287h-103v287h-784zM231 389h594v830z" />
<glyph unicode="5" horiz-adv-x="1185" d="M104 311l89 54q25 -49 64.5 -95t92.5 -87t123 -66t145 -25q164 0 259.5 98t95.5 281q0 115 -51.5 202t-131.5 130t-174 43q-98 0 -192.5 -42.5t-218.5 -133.5l188 764h676v-103h-596l-119 -465q118 92 289 92q82 0 161.5 -34t144.5 -94.5t105 -154.5t40 -204 q0 -235 -133.5 -361t-342.5 -126q-177 0 -312 95.5t-202 231.5z" />
<glyph unicode="6" horiz-adv-x="1138" d="M92 471q0 83 31 169t78 153l454 641h138l-385 -531q98 43 225 43q171 0 292.5 -133.5t121.5 -341.5q0 -219 -134.5 -353t-343.5 -134t-343 134t-134 353zM207 471q0 -162 103.5 -268.5t258.5 -106.5q166 0 264.5 104.5t98.5 270.5t-98.5 272.5t-264.5 106.5 q-69 0 -134 -26t-116 -73.5t-81.5 -120.5t-30.5 -159z" />
<glyph unicode="7" horiz-adv-x="1075" d="M61 1321v113h1004l-737 -1434h-131l680 1321h-816z" />
<glyph unicode="8" horiz-adv-x="1118" d="M123 389q0 142 72.5 237.5t195.5 135.5q-103 36 -160 118.5t-57 206.5q0 164 110 263.5t275 99.5t275 -99.5t110 -263.5q0 -124 -57 -206.5t-160 -118.5q123 -40 195.5 -135.5t72.5 -237.5q0 -176 -122.5 -290.5t-313.5 -114.5t-313.5 114.5t-122.5 290.5zM231 410 q0 -145 93.5 -234.5t234.5 -89.5t234.5 89.5t93.5 234.5q0 130 -94 213.5t-234 83.5t-234 -83.5t-94 -213.5zM279 1075q0 -113 84 -184.5t196 -71.5t196.5 71.5t84.5 184.5q0 132 -82.5 202.5t-198.5 70.5t-198 -70.5t-82 -202.5z" />
<glyph unicode="9" horiz-adv-x="1118" d="M72 963q0 219 134 353t343 134t343 -134t134 -353q0 -83 -31 -169t-77 -153l-455 -641h-137l385 530q-98 -43 -226 -43q-82 0 -157.5 34.5t-132 96t-90 151.5t-33.5 194zM186 963q0 -166 98.5 -272.5t264.5 -106.5q69 0 134 26t116 73.5t81.5 120.5t30.5 159 q0 162 -103.5 268t-258.5 106q-166 0 -264.5 -104.5t-98.5 -269.5z" />
<glyph unicode=":" horiz-adv-x="614" d="M225 55q0 35 22.5 58.5t59.5 23.5t59.5 -23.5t22.5 -58.5t-22.5 -58.5t-59.5 -23.5t-59.5 23.5t-22.5 58.5zM225 834q0 35 22.5 58t59.5 23t59.5 -23t22.5 -58t-22.5 -58.5t-59.5 -23.5t-59.5 23.5t-22.5 58.5z" />
<glyph unicode=";" horiz-adv-x="675" d="M123 -305l231 516l113 -47l-277 -498zM287 834q0 35 22.5 58t59.5 23t59.5 -23t22.5 -58t-22.5 -58.5t-59.5 -23.5t-59.5 23.5t-22.5 58.5z" />
<glyph unicode="&#x3c;" d="M133 512v31l1045 471v-103l-832 -374l832 -394v-102z" />
<glyph unicode="=" horiz-adv-x="1259" d="M133 317v93h993v-93h-993zM133 625v92h993v-92h-993z" />
<glyph unicode="&#x3e;" d="M133 41v102l832 375l-832 393v103l1045 -471v-31z" />
<glyph unicode="?" horiz-adv-x="1140" d="M123 1214q75 115 182 175.5t266 60.5q189 0 307.5 -118t118.5 -298q0 -116 -63 -207t-158 -139.5t-207 -60.5l-16 -279h-68l-41 369h15q197 0 309.5 89t112.5 238q0 133 -89.5 213t-232.5 80q-224 0 -346 -198zM430 55q0 35 22.5 58.5t59.5 23.5t59.5 -23.5t22.5 -58.5 t-22.5 -58.5t-59.5 -23.5t-59.5 23.5t-22.5 58.5z" />
<glyph unicode="@" horiz-adv-x="1576" d="M72 655q0 223 98 404t276.5 286t403.5 105q151 0 277.5 -55.5t207.5 -148t125.5 -208t44.5 -239.5q0 -100 -24.5 -185.5t-64 -143.5t-89.5 -99.5t-100.5 -60.5t-98.5 -19q-84 0 -131 43.5t-55 118.5q-102 -142 -270 -142q-119 0 -196 87.5t-77 236.5q0 103 34 189.5 t88.5 141t120.5 85t132 30.5q164 0 225 -157l25 141h102l-84 -494q-4 -28 -4 -51q0 -31 5.5 -57.5t27.5 -51t59 -24.5q48 0 95 26t87.5 74.5t65.5 130t25 181.5q0 110 -38.5 209.5t-108.5 175t-175 120t-231 44.5q-199 0 -353 -91t-236.5 -248t-82.5 -354 q0 -266 145.5 -417.5t403.5 -151.5q137 0 244 26t209 83l55 -91q-125 -60 -187 -79q-133 -41 -321 -41q-310 0 -482.5 180.5t-172.5 490.5zM494 635q0 -93 54 -162.5t148 -69.5q82 0 156.5 72t99.5 189l6 28q5 50 5 66q0 104 -49.5 167.5t-139.5 63.5q-116 0 -198 -103.5 t-82 -250.5z" />
<glyph unicode="A" d="M10 0l645 1485l645 -1485h-122l-185 430h-676l-184 -430h-123zM362 537h586l-293 686z" />
<glyph unicode="B" horiz-adv-x="1071" d="M164 0v1434h287q218 0 332 -91t114 -247q0 -242 -225 -310q141 -40 224 -139.5t83 -247.5q0 -196 -127 -297.5t-360 -101.5h-328zM276 106h216q368 0 368 304q0 78 -31.5 140t-84 99.5t-117 56.5t-135.5 19h-216v-619zM276 831h175q142 0 237.5 70t95.5 184 q0 242 -333 242h-175v-496z" />
<glyph unicode="C" horiz-adv-x="1402" d="M82 717q0 157 56.5 294.5t153 233t228.5 150.5t279 55q154 0 261.5 -36.5t199.5 -117.5v-143q-180 190 -461 190q-163 0 -300 -80.5t-217.5 -225t-80.5 -320.5t80.5 -320.5t217.5 -225.5t300 -81q280 0 461 191v-144q-92 -81 -199 -117t-262 -36q-147 0 -279 55 t-228.5 150.5t-153 233t-56.5 294.5z" />
<glyph unicode="D" horiz-adv-x="1320" d="M164 0v1434h368q314 0 510.5 -198.5t196.5 -518.5t-196.5 -518.5t-510.5 -198.5h-368zM276 106h256q260 0 425 169.5t165 441.5t-165 441t-425 169h-256v-1221z" />
<glyph unicode="E" horiz-adv-x="1054" d="M164 0v1434h758v-107h-646v-496h605v-106h-605v-619h646v-106h-758z" />
<glyph unicode="F" horiz-adv-x="962" d="M164 0v1434h676v-107h-564v-496h543v-106h-543v-725h-112z" />
<glyph unicode="G" horiz-adv-x="1597" d="M82 717q0 158 56.5 295t155 232.5t234.5 150.5t291 55q201 0 358 -77t248 -224l-82 -72q-68 115 -214.5 190.5t-309.5 75.5q-131 0 -246 -48.5t-197 -131.5t-129.5 -199t-47.5 -247q0 -171 78 -314t221 -228t321 -85q244 0 396 147.5t182 383.5h-516v106h635 q0 -157 -48 -292.5t-135.5 -235.5t-220 -157.5t-293.5 -57.5q-155 0 -291 55t-234.5 150.5t-155 232.5t-56.5 295z" />
<glyph unicode="H" horiz-adv-x="1402" d="M164 0v1434h112v-615h850v615h113v-1434h-113v709h-850v-709h-112z" />
<glyph unicode="I" horiz-adv-x="440" d="M164 0v1434h112v-1434h-112z" />
<glyph unicode="J" horiz-adv-x="430" d="M-258 -348l53 90q24 -39 78.5 -67.5t120.5 -28.5q83 0 126.5 56t43.5 196v1536h102v-1557q0 -168 -68.5 -248t-213.5 -80q-75 0 -145 33.5t-97 69.5z" />
<glyph unicode="K" horiz-adv-x="1028" d="M164 0v1434h112v-617l570 617h141l-620 -672l651 -762h-154l-588 688v-688h-112z" />
<glyph unicode="L" horiz-adv-x="860" d="M164 0v1434h112v-1328h564v-106h-676z" />
<glyph unicode="M" horiz-adv-x="1699" d="M102 0l174 1485l574 -1110l573 1110l174 -1485h-112l-129 1106l-506 -973l-506 973l-129 -1106h-113z" />
<glyph unicode="N" horiz-adv-x="1525" d="M164 0v1485l1085 -1237v1186h113v-1485l-1086 1237v-1186h-112z" />
<glyph unicode="O" horiz-adv-x="1626" d="M82 717q0 158 56 294.5t152.5 232.5t232 151t290.5 55t290.5 -55t232 -151t152.5 -232.5t56 -294.5t-56 -294.5t-152.5 -232.5t-232 -151t-290.5 -55t-290.5 55t-232 151t-152.5 232.5t-56 294.5zM195 717q0 -180 80.5 -323.5t221.5 -223.5t316 -80t316.5 80t222 223.5 t80.5 323.5q0 135 -47 251.5t-129.5 198.5t-197 129t-245.5 47q-175 0 -316 -80t-221.5 -223t-80.5 -323z" />
<glyph unicode="P" horiz-adv-x="1036" d="M164 0v1434h328q213 0 348 -111.5t135 -304.5t-135 -304.5t-348 -111.5h-216v-602h-112zM276 709h216q71 0 135.5 18.5t117.5 54.5t84 97t31 139t-31 139t-84 97t-117.5 54.5t-135.5 18.5h-216v-618z" />
<glyph unicode="Q" horiz-adv-x="1626" d="M82 717q0 158 56 294.5t152.5 232.5t232 151t290.5 55t290.5 -55t232 -151t152.5 -232.5t56 -294.5q0 -305 -192 -510l200 -207h-147l-131 135q-197 -151 -461 -151q-155 0 -290.5 55t-232 151t-152.5 232.5t-56 294.5zM195 717q0 -180 80.5 -323.5t221.5 -223.5t316 -80 q221 0 383 125l-385 399h147l316 -327q158 176 158 430q0 135 -47 251.5t-129.5 198.5t-197 129t-245.5 47q-175 0 -316 -80t-221.5 -223t-80.5 -323z" />
<glyph unicode="R" horiz-adv-x="1077" d="M164 0v1434h328q213 0 348 -111.5t135 -304.5q0 -170 -107 -278t-282 -132l430 -608h-137l-426 602h-177v-602h-112zM276 709h216q71 0 135.5 18.5t117.5 54.5t84 97t31 139t-31 139t-84 97t-117.5 54.5t-135.5 18.5h-216v-618z" />
<glyph unicode="S" horiz-adv-x="1081" d="M92 395l103 43q31 -83 62 -139t75 -104t105 -71.5t141 -23.5q133 0 212.5 76.5t79.5 188.5q0 44 -12 83t-29.5 68t-49.5 56.5t-57.5 45.5t-68.5 39t-69 31.5t-72 28.5q-59 23 -114 56.5t-107.5 81.5t-84.5 113.5t-32 137.5q0 160 108.5 252t286.5 92q83 0 156 -30 t123.5 -78t84.5 -103.5t48 -112.5l-98 -51q-17 49 -42 92t-62 83.5t-90.5 64.5t-117.5 24q-135 0 -207.5 -60.5t-72.5 -164.5q0 -55 27 -104.5t76.5 -89t105.5 -70t127 -59.5q53 -21 96 -42.5t95 -58.5t87.5 -78.5t59.5 -102.5t24 -130q0 -78 -27 -148t-78.5 -125.5 t-134.5 -88.5t-186 -33q-170 0 -289 110.5t-182 300.5z" />
<glyph unicode="T" horiz-adv-x="890" d="M20 1327v107h850v-107h-368v-1327h-113v1327h-369z" />
<glyph unicode="U" horiz-adv-x="1220" d="M154 471v963h112v-963q0 -164 96 -271.5t248 -107.5t248 107.5t96 271.5v963h113v-963q0 -227 -124.5 -359t-332.5 -132t-332 132t-124 359z" />
<glyph unicode="V" d="M10 1434h123l522 -1223l523 1223h122l-645 -1485z" />
<glyph unicode="W" horiz-adv-x="2027" d="M20 1434h134l428 -1178l432 1229l432 -1229l428 1178h133l-563 -1485l-430 1206l-430 -1206z" />
<glyph unicode="X" horiz-adv-x="1075" d="M20 0l457 752l-405 682h133l340 -572l346 572h133l-414 -682l445 -752h-133l-379 639l-389 -639h-134z" />
<glyph unicode="Y" horiz-adv-x="1095" d="M10 1434h133l396 -717l413 717h133l-485 -832v-602h-113v582z" />
<glyph unicode="Z" horiz-adv-x="1085" d="M20 0l844 1327h-803v107h1004l-844 -1328h803v-106h-1004z" />
<glyph unicode="[" horiz-adv-x="614" d="M205 -440v2048h368v-103h-258v-1843h258v-102h-368z" />
<glyph unicode="\" horiz-adv-x="1054" d="M31 1434h123l870 -1434h-123z" />
<glyph unicode="]" horiz-adv-x="614" d="M41 -338h258v1843h-258v103h369v-2048h-369v102z" />
<glyph unicode="^" horiz-adv-x="1044" d="M133 942l359 512h61l358 -512h-112l-277 410l-276 -410h-113z" />
<glyph unicode="_" horiz-adv-x="1024" d="M2 -182h1024v-68h-1024v68z" />
<glyph unicode="`" horiz-adv-x="768" d="M174 1352l92 82l348 -328l-51 -41z" />
<glyph unicode="a" horiz-adv-x="962" d="M92 276q0 95 60 165t147 102t184 32q146 0 254 -57v158q0 188 -229 188q-170 0 -301 -96l-60 78q161 117 361 117q166 0 249 -74t83 -213v-676h-103v170q-33 -91 -121.5 -140.5t-209.5 -49.5q-53 0 -105.5 17t-100.5 50.5t-78 93t-30 135.5zM197 276q0 -93 65.5 -147.5 t173.5 -54.5q126 0 213.5 83t87.5 212v75q-127 48 -245 48q-131 0 -213 -58t-82 -158z" />
<glyph unicode="b" horiz-adv-x="1126" d="M143 0v1597h103v-862q54 105 147 164t215 59q197 0 327 -133t130 -354t-130 -354t-327 -133q-122 0 -215 59t-147 164v-207h-103zM246 471q0 -93 31.5 -168.5t83 -121.5t113 -70.5t124.5 -24.5q161 0 262 99.5t101 285.5t-101 285.5t-262 99.5q-63 0 -124.5 -24.5 t-113 -70.5t-83 -121.5t-31.5 -168.5z" />
<glyph unicode="c" horiz-adv-x="948" d="M61 471q0 211 138 349t340 138q97 0 177 -31.5t130 -88.5v-138q-34 68 -115.5 112t-191.5 44q-166 0 -269.5 -110t-103.5 -275t103.5 -275t269.5 -110q110 0 191.5 44t115.5 112v-138q-49 -58 -129 -89t-178 -31q-202 0 -340 138t-138 349z" />
<glyph unicode="d" horiz-adv-x="1126" d="M61 471q0 221 130 354t327 133q122 0 215.5 -59t147.5 -164v862h102v-1597h-102v207q-54 -105 -147.5 -164t-215.5 -59q-197 0 -327 133t-130 354zM166 471q0 -187 100.5 -286t261.5 -99q63 0 124.5 24.5t113 70.5t83.5 121.5t32 168.5t-32 168.5t-83.5 121.5t-113 70.5 t-124.5 24.5q-161 0 -261.5 -99t-100.5 -286z" />
<glyph unicode="e" horiz-adv-x="1005" d="M61 471q0 216 124 351.5t329 135.5q191 0 310.5 -130t119.5 -349q0 -12 -2 -22h-776q5 -162 105.5 -267.5t263.5 -105.5q96 0 183 54t138 147l82 -66q-154 -235 -414 -235q-195 0 -329 138t-134 349zM170 549h666q-11 130 -97 221.5t-225 91.5q-146 0 -242 -91t-102 -222 z" />
<glyph unicode="f" horiz-adv-x="524" d="M51 840v102h92v348q0 146 59.5 235t182.5 89q61 0 107.5 -23.5t72.5 -58.5l-59 -86q-49 61 -121 61q-79 0 -109 -62t-30 -175v-328h246v-102h-246v-840h-103v840h-92z" />
<glyph unicode="g" horiz-adv-x="1126" d="M61 471q0 221 130 354t327 133q122 0 215.5 -59t147.5 -164v207h102v-922q0 -119 -38.5 -214t-104.5 -154.5t-151.5 -91t-182.5 -31.5q-190 0 -303 112.5t-113 297.5h103q0 -133 80 -220.5t233 -87.5q169 0 272 98.5t103 290.5v187q-54 -105 -147.5 -164t-215.5 -59 q-197 0 -327 133t-130 354zM166 471q0 -187 100.5 -286t261.5 -99q63 0 124.5 24.5t113 70.5t83.5 121.5t32 168.5t-32 168.5t-83.5 121.5t-113 70.5t-124.5 24.5q-161 0 -261.5 -99t-100.5 -286z" />
<glyph unicode="h" horiz-adv-x="993" d="M143 0v1597h103v-817q85 178 311 178q149 0 221 -82t72 -262v-614h-102v594q0 63 -9 107.5t-31 81t-65 55t-106 18.5q-122 0 -206.5 -82.5t-84.5 -200.5v-573h-103z" />
<glyph unicode="i" horiz-adv-x="389" d="M117 1362q0 32 23 55t55 23t54.5 -23t22.5 -55t-22.5 -55t-54.5 -23t-55 23t-23 55zM143 0v942h103v-942h-103z" />
<glyph unicode="j" horiz-adv-x="389" d="M-176 -369l59 86q49 -61 121 -61q41 0 69 17.5t43 51.5t21 74.5t6 94.5v1048h103v-1069q0 -146 -59.5 -235t-182.5 -89q-61 0 -107.5 23.5t-72.5 58.5zM117 1362q0 32 23 55t55 23t54.5 -23t22.5 -55t-22.5 -55t-54.5 -23t-55 23t-23 55z" />
<glyph unicode="k" horiz-adv-x="819" d="M143 0v1597h103v-1009l409 354h144l-451 -389l492 -553h-144l-450 508v-508h-103z" />
<glyph unicode="l" horiz-adv-x="389" d="M143 0v1597h103v-1597h-103z" />
<glyph unicode="m" horiz-adv-x="1515" d="M143 0v942h103v-149q79 165 280 165q212 0 265 -190q80 190 299 190q282 0 282 -344v-614h-102v594q0 127 -44.5 194.5t-156.5 67.5q-114 0 -187 -82t-73 -201v-573h-102v594q0 127 -44.5 194.5t-156.5 67.5q-114 0 -187 -82t-73 -201v-573h-103z" />
<glyph unicode="n" horiz-adv-x="993" d="M143 0v942h103v-162q85 178 311 178q149 0 221 -82t72 -262v-614h-102v594q0 63 -9 107.5t-31 81t-65 55t-106 18.5q-122 0 -206.5 -82.5t-84.5 -200.5v-573h-103z" />
<glyph unicode="o" horiz-adv-x="1052" d="M61 471q0 209 132.5 348t332.5 139t332.5 -139t132.5 -348t-132.5 -348t-332.5 -139t-332.5 139t-132.5 348zM164 471q0 -162 103.5 -275.5t258.5 -113.5t259 113.5t104 275.5t-104 275.5t-259 113.5t-258.5 -113.5t-103.5 -275.5z" />
<glyph unicode="p" horiz-adv-x="1126" d="M143 -451v1393h103v-207q54 105 147 164t215 59q197 0 327 -133t130 -354t-130 -354t-327 -133q-122 0 -215 59t-147 164v-658h-103zM246 471q0 -93 31.5 -168.5t83 -121.5t113 -70.5t124.5 -24.5q161 0 262 99.5t101 285.5t-101 285.5t-262 99.5q-63 0 -124.5 -24.5 t-113 -70.5t-83 -121.5t-31.5 -168.5z" />
<glyph unicode="q" horiz-adv-x="1126" d="M61 471q0 221 130 354t327 133q122 0 215.5 -59t147.5 -164v207h102v-1393h-102v658q-54 -105 -147.5 -164t-215.5 -59q-197 0 -327 133t-130 354zM166 471q0 -187 100.5 -286t261.5 -99q63 0 124.5 24.5t113 70.5t83.5 121.5t32 168.5t-32 168.5t-83.5 121.5t-113 70.5 t-124.5 24.5q-161 0 -261.5 -99t-100.5 -286z" />
<glyph unicode="r" horiz-adv-x="630" d="M143 0v942h103v-141q66 157 219 157q50 0 85 -15t71 -50l-52 -76q-53 47 -127 47q-59 0 -105 -45t-68.5 -110.5t-22.5 -135.5v-573h-103z" />
<glyph unicode="s" horiz-adv-x="798" d="M72 295l90 35q21 -98 89.5 -172t172.5 -74q91 0 142.5 39.5t51.5 107.5q0 47 -17.5 83.5t-54 63t-67 41.5t-82.5 36q-56 22 -96.5 44t-81.5 54t-62.5 75.5t-21.5 96.5q0 112 79 172.5t196 60.5q116 0 192 -58.5t107 -145.5l-88 -49q-17 32 -25.5 47t-28 40t-38.5 37 t-49.5 21.5t-67.5 9.5q-86 0 -130 -33.5t-44 -91.5q0 -16 4.5 -31t9.5 -27t17.5 -24.5l21 -21t26.5 -19.5t27.5 -16.5t32.5 -16t31.5 -14t33.5 -13.5t31 -13q116 -48 185 -117t69 -176q0 -129 -85 -195.5t-216 -66.5q-77 0 -141 26.5t-106.5 71.5t-69 99t-37.5 114z" />
<glyph unicode="t" horiz-adv-x="430" d="M10 840v102h154v328h102v-328h154v-102h-154v-840h-102v840h-154z" />
<glyph unicode="u" horiz-adv-x="993" d="M143 328v614h103v-594q0 -63 9 -107.5t31 -81t65 -55t106 -18.5q122 0 206.5 82.5t84.5 200.5v573h102v-942h-102v162q-41 -85 -120 -131.5t-192 -46.5q-149 0 -221 82t-72 262z" />
<glyph unicode="v" horiz-adv-x="880" d="M10 942h119l311 -731l312 731h118l-430 -993z" />
<glyph unicode="w" horiz-adv-x="1372" d="M10 942h123l266 -725l287 776l287 -776l266 725h123l-389 -1008l-287 766l-287 -766z" />
<glyph unicode="x" horiz-adv-x="819" d="M10 0l334 485l-313 457h129l250 -362l249 362h129l-313 -457l334 -485h-129l-270 393l-271 -393h-129z" />
<glyph unicode="y" horiz-adv-x="901" d="M0 942h117l336 -772l329 772h119l-614 -1393h-113l223 500z" />
<glyph unicode="z" horiz-adv-x="870" d="M10 0l645 840h-604v102h809l-645 -840h604v-102h-809z" />
<glyph unicode="{" horiz-adv-x="657" d="M164 543v102q49 16 73.5 70t24.5 166v430q0 286 211 286h123v-102h-72q-80 0 -114.5 -30t-34.5 -113v-348q0 -325 -96 -410q96 -85 96 -410v-348q0 -83 34.5 -113t114.5 -30h72v-103h-123q-211 0 -211 287v430q0 112 -24.5 166t-73.5 70z" />
<glyph unicode="|" horiz-adv-x="499" d="M205 -440v2048h90v-2048h-90z" />
<glyph unicode="}" horiz-adv-x="657" d="M164 -307h72q80 0 114.5 30t34.5 113v348q0 325 96 410q-96 85 -96 410v348q0 83 -34.5 113t-114.5 30h-72v102h123q211 0 211 -286v-430q0 -112 24.5 -166t73.5 -70v-102q-49 -16 -73.5 -70t-24.5 -166v-430q0 -287 -211 -287h-123v103z" />
<glyph unicode="~" horiz-adv-x="1177" d="M133 420q0 105 69.5 177.5t174.5 72.5q43 0 80.5 -9.5t73.5 -32.5t56.5 -39t59.5 -50q6 -5 31.5 -28t33.5 -28.5t28 -18.5t38 -16.5t41 -3.5q58 0 92.5 43.5t34.5 110.5q0 39 -10 64l100 -11q8 -32 8 -57q0 -103 -60 -172.5t-157 -69.5q-52 0 -99.5 18t-76.5 38.5 t-78 62.5q-7 6 -29 24.5t-31 26t-29.5 21.5t-34.5 20t-34 11.5t-40 5.5q-66 0 -110 -50t-44 -124q0 -25 8 -46l-90 11q-6 21 -6 49z" />
<glyph unicode="&#xa1;" horiz-adv-x="614" d="M225 877q0 35 22.5 58t59.5 23t59.5 -23t22.5 -58t-22.5 -58.5t-59.5 -23.5t-59.5 23.5t-22.5 58.5zM242 -502l24 1024h82l25 -1024h-131z" />
<glyph unicode="&#xa2;" horiz-adv-x="948" d="M61 471q0 195 118.5 328.5t299.5 154.5v230h80v-226q91 -3 166 -34.5t121 -85.5v-138q-32 64 -108.5 108t-178.5 48v-770q102 4 178.5 48t108.5 108v-138q-45 -55 -120 -86t-167 -34v-213h-80v217q-181 21 -299.5 154.5t-118.5 328.5zM166 471q0 -151 85 -256t228 -125 v762q-143 -20 -228 -125t-85 -256z" />
<glyph unicode="&#xa3;" horiz-adv-x="1069" d="M72 0q22 23 64 66t61.5 63t53 56.5t49 57t39.5 52t35 54.5t23 52.5t16.5 57t4.5 57.5q0 72 -41 139h-299v103h229q-52 73 -80 141t-28 162q0 183 109 286t300 103q84 0 153 -29.5t112 -74.5t73.5 -104t44.5 -114t17 -108l-111 -19q-3 59 -23 115t-55 104.5t-92.5 78.5 t-128.5 30q-126 0 -199 -67.5t-73 -196.5q0 -40 6.5 -75t24.5 -71.5t27 -52.5t38.5 -58t34.5 -50h358v-103h-303q18 -49 18 -114q0 -131 -72.5 -250.5t-174.5 -177.5h716v-113h-927z" />
<glyph unicode="&#xa4;" horiz-adv-x="1157" d="M72 188l118 119q-100 130 -100 307q0 178 100 308l-118 118l80 82l118 -118q127 102 308 102q173 0 307 -105l121 121l79 -82l-120 -118q100 -130 100 -308q0 -177 -100 -307l120 -119l-79 -82l-121 121q-132 -104 -307 -104q-181 0 -308 102l-118 -119zM195 614 q0 -178 110.5 -288.5t272.5 -110.5t272.5 110.5t110.5 288.5t-110.5 289t-272.5 111t-272.5 -111t-110.5 -289z" />
<glyph unicode="&#xa5;" horiz-adv-x="1157" d="M41 1434h133l395 -717l414 717h133l-418 -717h377v-92h-430l-14 -23v-192h444v-93h-444v-317h-113v317h-436v93h436v172l-24 43h-412v92h360z" />
<glyph unicode="&#xa6;" horiz-adv-x="499" d="M205 10v492h90v-492h-90zM205 932v491h90v-491h-90z" />
<glyph unicode="&#xa7;" horiz-adv-x="835" d="M61 252l93 35q19 -88 96.5 -147.5t181.5 -59.5q213 0 213 172q0 20 -4.5 38t-15.5 33.5t-21 27.5t-29.5 24.5t-32 20.5t-37.5 19t-37 16t-40 15.5t-37 14.5q-56 22 -94.5 43t-77.5 53t-58.5 76.5t-19.5 101.5q0 88 46.5 152.5t134.5 93.5q-88 38 -134.5 87t-46.5 138 q0 112 87 178t208 66q113 0 207.5 -51t122.5 -129l-82 -53q-32 61 -96.5 99t-149.5 38q-83 0 -138.5 -37t-55.5 -111q0 -22 8.5 -41.5t28 -37t36 -30t49 -28t48.5 -22.5t53.5 -22t46.5 -19q58 -24 95 -43.5t73.5 -49t54 -68t17.5 -87.5q0 -94 -53 -159.5t-148 -90.5 q98 -45 149.5 -100t51.5 -142q0 -147 -83 -214.5t-241 -67.5q-132 0 -239.5 77t-129.5 191zM254 756q0 -40 17 -73.5t50.5 -59t63.5 -41.5t74 -35q69 13 127.5 76t58.5 120q0 32 -12.5 59t-35 46.5t-49.5 35t-59.5 29.5t-61.5 25q-11 4 -17 6q-156 -49 -156 -188z" />
<glyph unicode="&#xa8;" horiz-adv-x="962" d="M195 1325q0 35 22 58.5t59 23.5t59.5 -23.5t22.5 -58.5t-22.5 -58.5t-59.5 -23.5t-59 23.5t-22 58.5zM604 1325q0 35 22.5 58.5t59.5 23.5t59.5 -23.5t22.5 -58.5t-22.5 -58.5t-59.5 -23.5t-59.5 23.5t-22.5 58.5z" />
<glyph unicode="&#xa9;" horiz-adv-x="1638" d="M82 717q0 158 56.5 295.5t154.5 234t234.5 152t291.5 55.5t291.5 -55.5t234.5 -152t154.5 -234t56.5 -295.5t-56.5 -295.5t-154.5 -234t-234.5 -152t-291.5 -55.5t-291.5 55.5t-234.5 152t-154.5 234t-56.5 295.5zM154 717q0 -189 87.5 -342t239.5 -238.5t338 -85.5 t338 85.5t240 238.5t88 342q0 142 -51.5 266t-140.5 211.5t-212 137.5t-262 50t-262 -50t-211.5 -137.5t-140 -211.5t-51.5 -266zM379 717q0 190 124.5 315t305.5 125q92 0 156.5 -22t119.5 -70v-86q-108 115 -276 115q-150 0 -254 -108t-104 -269t104 -269t254 -108 q168 0 276 115v-86q-55 -48 -119.5 -70.5t-156.5 -22.5q-181 0 -305.5 125.5t-124.5 315.5z" />
<glyph unicode="&#xaa;" horiz-adv-x="487" d="M57 1090q0 69 60 110t137 41q71 0 127 -29v78q0 94 -115 94q-81 0 -151 -49l-29 41q81 58 180 58q164 0 164 -144v-338h-49v84q-17 -45 -62.5 -69.5t-105.5 -24.5q-58 0 -107 37.5t-49 110.5zM111 1090q0 -46 32 -73.5t86 -27.5q63 0 107.5 41.5t44.5 106.5v37 q-61 24 -123 24q-66 0 -106.5 -29t-40.5 -79z" />
<glyph unicode="&#xab;" horiz-adv-x="1044" d="M82 522l430 461l61 -72l-370 -381l370 -397l-61 -72zM410 522l430 461l61 -72l-371 -381l371 -397l-61 -72z" />
<glyph unicode="&#xac;" horiz-adv-x="1269" d="M133 645v92h901v11h103v-390h-103v287h-901z" />
<glyph unicode="&#xad;" horiz-adv-x="430" d="M10 440v92h410v-92h-410z" />
<glyph unicode="&#xae;" horiz-adv-x="1638" d="M82 717q0 158 56.5 295.5t154.5 234t234.5 152t291.5 55.5t291.5 -55.5t234.5 -152t154.5 -234t56.5 -295.5t-56.5 -295.5t-154.5 -234t-234.5 -152t-291.5 -55.5t-291.5 55.5t-234.5 152t-154.5 234t-56.5 295.5zM154 717q0 -189 87.5 -342t239.5 -238.5t338 -85.5 t338 85.5t240 238.5t88 342q0 142 -51.5 266t-140.5 211.5t-212 137.5t-262 50t-262 -50t-211.5 -137.5t-140 -211.5t-51.5 -266zM602 307v860h197q128 0 209.5 -66.5t81.5 -182.5q0 -102 -64.5 -167t-169.5 -79l258 -365h-84l-254 361h-106v-361h-68zM670 733h129 q92 0 156.5 46.5t64.5 138.5t-64.5 139t-156.5 47h-129v-371z" />
<glyph unicode="&#xaf;" horiz-adv-x="1044" d="M164 1260v92h717v-92h-717z" />
<glyph unicode="&#xb0;" horiz-adv-x="569" d="M37 1229q0 105 65.5 174.5t165.5 69.5t166 -70t66 -174t-66 -174t-166 -70t-165.5 69.5t-65.5 174.5zM86 1229q0 -80 52.5 -137.5t129.5 -57.5t130 57.5t53 137.5t-53 137t-130 57t-129.5 -57t-52.5 -137z" />
<glyph unicode="&#xb1;" horiz-adv-x="1259" d="M133 174v82h993v-82h-993zM133 729v80h451v358h92v-358h450v-80h-450v-360h-92v360h-451z" />
<glyph unicode="&#xb2;" horiz-adv-x="708" d="M51 578l404 411q62 67 90 116t28 107q0 80 -48.5 125t-135.5 45q-99 0 -157 -67t-58 -172h-68q0 132 76.5 219.5t206.5 87.5q129 0 192.5 -69.5t63.5 -170.5q0 -42 -11.5 -80.5t-36 -74t-44 -58t-53.5 -57.5l-295 -295h452v-67h-606z" />
<glyph unicode="&#xb3;" horiz-adv-x="638" d="M51 801h64q0 -77 50 -126.5t136 -49.5q87 0 143 48t56 134q0 78 -56 131t-168 53v56q102 0 147.5 48t45.5 119q0 75 -46 121.5t-116 46.5q-81 0 -121.5 -42t-40.5 -119h-63q0 101 60 162t165 61q98 0 161.5 -62t63.5 -161q0 -159 -133 -201q164 -46 164 -219 q0 -112 -72 -175t-190 -63q-113 0 -181.5 68t-68.5 170z" />
<glyph unicode="&#xb4;" horiz-adv-x="768" d="M154 1106l348 328l92 -82l-389 -287z" />
<glyph unicode="&#xb5;" horiz-adv-x="993" d="M102 -655v1597h144v-594q0 -63 9 -107.5t31 -81t65 -55t106 -18.5q122 0 206.5 82.5t84.5 200.5v573h102v-942h-102v162q-41 -85 -120 -131.5t-192 -46.5q-160 0 -231 96v-735h-103z" />
<glyph unicode="&#xb6;" horiz-adv-x="1101" d="M123 993q0 206 133.5 323.5t333.5 117.5h389v-1885h-82v1803h-225v-1803h-82v1004q-130 0 -234.5 49.5t-168.5 151t-64 239.5z" />
<glyph unicode="&#xb7;" horiz-adv-x="614" d="M225 465q0 35 22.5 58.5t59.5 23.5t59.5 -23.5t22.5 -58.5t-22.5 -58.5t-59.5 -23.5t-59.5 23.5t-22.5 58.5z" />
<glyph unicode="&#xb8;" horiz-adv-x="716" d="M162 -373l67 62q33 -28 55.5 -38.5t59.5 -10.5q49 0 75.5 30.5t26.5 71.5q0 40 -26 67t-76 27q-30 0 -65 -18l-31 -19l153 324h105l-111 -229h19q51 0 90 -46t39 -106q0 -91 -55.5 -142t-143.5 -51q-57 0 -98 17.5t-84 60.5z" />
<glyph unicode="&#xb9;" horiz-adv-x="962" d="M299 1288v72l258 74v-873h-68v785z" />
<glyph unicode="&#xba;" horiz-adv-x="569" d="M37 1188q0 105 65.5 174.5t165.5 69.5t166 -70t66 -174t-66 -174t-166 -70t-165.5 69.5t-65.5 174.5zM86 1188q0 -80 52.5 -137.5t129.5 -57.5t130 57.5t53 137.5t-53 137t-130 57t-129.5 -57t-52.5 -137z" />
<glyph unicode="&#xbb;" horiz-adv-x="1044" d="M143 133l371 381l-371 397l62 72l430 -461l-430 -461zM471 133l371 381l-371 397l61 72l431 -461l-431 -461z" />
<glyph unicode="&#xbc;" horiz-adv-x="1544" d="M49 1288v72l258 74v-873h-67v785zM201 0l1106 1434h92l-1106 -1434h-92zM815 172l533 750v-689h135v-61h-135v-172h-62v172h-471zM930 233h356v498z" />
<glyph unicode="&#xbd;" horiz-adv-x="1677" d="M49 1288v72l258 74v-873h-67v785zM201 0l1106 1434h92l-1106 -1434h-92zM1010 4l403 412q63 68 91 116.5t28 106.5q0 80 -48.5 125t-135.5 45q-99 0 -157 -67.5t-58 -172.5h-68q0 132 76.5 220t206.5 88q129 0 192.5 -69.5t63.5 -170.5q0 -42 -11.5 -80t-36.5 -74.5 t-44 -58t-54 -57.5l-295 -295h453v-68h-606z" />
<glyph unicode="&#xbe;" horiz-adv-x="1679" d="M61 801h64q0 -77 50 -126.5t136 -49.5q87 0 143 48t56 134q0 78 -55.5 131t-167.5 53v56q102 0 147 48t45 119q0 75 -46 121.5t-116 46.5q-81 0 -121 -42t-40 -119h-64q0 101 60 162t165 61q98 0 162 -62t64 -161q0 -159 -133 -201q163 -45 163 -219q0 -112 -72 -175 t-190 -63q-113 0 -181.5 68t-68.5 170zM338 0l1106 1434h92l-1106 -1434h-92zM952 172l533 750v-689h135v-61h-135v-172h-62v172h-471zM1067 233h356v498z" />
<glyph unicode="&#xbf;" horiz-adv-x="1140" d="M143 399q0 88 36 162.5t97 124.5t136.5 81t158.5 40l17 278h67l41 -368h-14q-197 0 -309.5 -89t-112.5 -239q0 -133 89.5 -213t232.5 -80q223 0 346 199l90 -76q-75 -114 -182.5 -174.5t-266.5 -60.5q-190 0 -308 118t-118 297zM547 1378q0 35 22.5 58.5t59.5 23.5 t59.5 -23.5t22.5 -58.5t-22.5 -58.5t-59.5 -23.5t-59.5 23.5t-22.5 58.5z" />
<glyph unicode="&#xc0;" d="M10 0l645 1485l645 -1485h-122l-185 430h-676l-184 -430h-123zM328 1935l92 82l348 -327l-51 -41zM362 537h586l-293 686z" />
<glyph unicode="&#xc1;" d="M10 0l645 1485l645 -1485h-122l-185 430h-676l-184 -430h-123zM362 537h586l-293 686zM584 1690l348 327l92 -82l-389 -286z" />
<glyph unicode="&#xc2;" d="M10 0l645 1485l645 -1485h-122l-185 430h-676l-184 -430h-123zM348 1710l328 287l328 -287l-62 -61l-266 231l-266 -231zM362 537h586l-293 686z" />
<glyph unicode="&#xc3;" d="M10 0l645 1485l645 -1485h-122l-185 430h-676l-184 -430h-123zM297 1704q14 72 82 120t141 48q48 0 91.5 -24t70 -52t62.5 -52t71 -24q28 0 52 11t47 38.5t33.5 42t33.5 52.5l74 -37q-30 -68 -94 -129.5t-134 -61.5q-50 0 -95 20t-75 50q-39 39 -73 58.5t-76 19.5 q-56 0 -96.5 -44t-40.5 -75zM362 537h586l-293 686z" />
<glyph unicode="&#xc4;" d="M10 0l645 1485l645 -1485h-122l-185 430h-676l-184 -430h-123zM362 537h586l-293 686zM389 1714q0 35 22.5 58.5t59.5 23.5t59.5 -23.5t22.5 -58.5t-22.5 -58.5t-59.5 -23.5t-59.5 23.5t-22.5 58.5zM799 1714q0 35 22.5 58.5t59.5 23.5t59.5 -23.5t22.5 -58.5 t-22.5 -58.5t-59.5 -23.5t-59.5 23.5t-22.5 58.5z" />
<glyph unicode="&#xc5;" d="M10 0l639 1470q-87 2 -141.5 58.5t-54.5 146.5q0 92 56 148.5t146 56.5t146.5 -56.5t56.5 -148.5q0 -90 -54.5 -146.5t-141.5 -58.5l638 -1470h-122l-185 430h-676l-184 -430h-123zM362 537h586l-293 686zM537 1675q0 -58 32 -92.5t86 -34.5t86.5 34.5t32.5 92.5 q0 59 -32.5 94t-86.5 35t-86 -35t-32 -94z" />
<glyph unicode="&#xc6;" horiz-adv-x="1996" d="M41 0l942 1434h870v-101h-706v-504h665v-102h-665v-625h706v-102h-819v461h-557l-303 -461h-133zM545 563h489v746z" />
<glyph unicode="&#xc7;" horiz-adv-x="1402" d="M82 717q0 157 56.5 294.5t153 233t228.5 150.5t279 55q154 0 261.5 -36.5t199.5 -117.5v-143q-180 190 -461 190q-163 0 -300 -80.5t-217.5 -225t-80.5 -320.5t80.5 -320.5t217.5 -225.5t300 -81q280 0 461 191v-144q-87 -75 -184.5 -112t-231.5 -41l-105 -215h21 q51 0 90 -46t39 -106q0 -91 -55.5 -141.5t-143.5 -50.5q-57 0 -99 18t-85 61l67 60q32 -27 56 -38t61 -11q49 0 76 30.5t27 71.5q0 40 -26.5 67t-76.5 27q-36 0 -67 -16l-31 -19l149 310q-138 11 -259.5 69.5t-209.5 153t-139 226.5t-51 282z" />
<glyph unicode="&#xc8;" horiz-adv-x="1054" d="M164 0v1434h758v-107h-646v-496h605v-106h-605v-619h646v-106h-758zM225 1884l92 82l349 -328l-52 -41z" />
<glyph unicode="&#xc9;" horiz-adv-x="1054" d="M164 0v1434h758v-107h-646v-496h605v-106h-605v-619h646v-106h-758zM481 1638l348 328l93 -82l-390 -287z" />
<glyph unicode="&#xca;" horiz-adv-x="1054" d="M164 0v1434h758v-107h-646v-496h605v-106h-605v-619h646v-106h-758zM246 1659l327 287l328 -287l-61 -62l-267 232l-266 -232z" />
<glyph unicode="&#xcb;" horiz-adv-x="1054" d="M164 0v1434h758v-107h-646v-496h605v-106h-605v-619h646v-106h-758zM287 1663q0 35 22.5 58.5t59.5 23.5t59.5 -23.5t22.5 -58.5t-22.5 -58.5t-59.5 -23.5t-59.5 23.5t-22.5 58.5zM696 1663q0 35 22.5 58.5t59.5 23.5t59.5 -23.5t22.5 -58.5t-22.5 -58.5t-59.5 -23.5 t-59.5 23.5t-22.5 58.5z" />
<glyph unicode="&#xcc;" horiz-adv-x="440" d="M-98 1884l94 82l348 -328l-53 -41zM164 0v1434h112v-1434h-112z" />
<glyph unicode="&#xcd;" horiz-adv-x="440" d="M160 1638l348 328l90 -82l-389 -287zM164 0v1434h112v-1434h-112z" />
<glyph unicode="&#xce;" horiz-adv-x="440" d="M-78 1659l328 287l328 -287l-62 -62l-266 232l-266 -232zM164 0v1434h112v-1434h-112z" />
<glyph unicode="&#xcf;" horiz-adv-x="440" d="M-37 1663q0 35 22.5 58.5t59.5 23.5t59.5 -23.5t22.5 -58.5t-22.5 -58.5t-59.5 -23.5t-59.5 23.5t-22.5 58.5zM164 0v1434h112v-1434h-112zM373 1663q0 35 22.5 58.5t59.5 23.5t59.5 -23.5t22.5 -58.5t-22.5 -58.5t-59.5 -23.5t-59.5 23.5t-22.5 58.5z" />
<glyph unicode="&#xd0;" horiz-adv-x="1320" d="M10 666v92h154v676h368q314 0 510.5 -198.5t196.5 -518.5t-196.5 -518.5t-510.5 -198.5h-368v666h-154zM276 106h256q260 0 425 169.5t165 441.5t-165 441t-425 169h-256v-569h349v-92h-349v-560z" />
<glyph unicode="&#xd1;" horiz-adv-x="1525" d="M164 0v1485l1085 -1237v1186h113v-1485l-1086 1237v-1186h-112zM440 1704q14 72 82.5 120t141.5 48q48 0 91 -24t70 -52t62.5 -52t70.5 -24q28 0 52 11t47 38.5t33.5 42t33.5 52.5l74 -37q-30 -68 -93.5 -129.5t-133.5 -61.5q-50 0 -95 20t-75 50q-78 78 -150 78 q-56 0 -96.5 -44t-40.5 -75z" />
<glyph unicode="&#xd2;" horiz-adv-x="1626" d="M82 717q0 158 56 294.5t152.5 232.5t232 151t290.5 55t290.5 -55t232 -151t152.5 -232.5t56 -294.5t-56 -294.5t-152.5 -232.5t-232 -151t-290.5 -55t-290.5 55t-232 151t-152.5 232.5t-56 294.5zM195 717q0 -180 80.5 -323.5t221.5 -223.5t316 -80t316.5 80t222 223.5 t80.5 323.5q0 135 -47 251.5t-129.5 198.5t-197 129t-245.5 47q-175 0 -316 -80t-221.5 -223t-80.5 -323zM465 1884l92 82l348 -328l-51 -41z" />
<glyph unicode="&#xd3;" horiz-adv-x="1626" d="M82 717q0 158 56 294.5t152.5 232.5t232 151t290.5 55t290.5 -55t232 -151t152.5 -232.5t56 -294.5t-56 -294.5t-152.5 -232.5t-232 -151t-290.5 -55t-290.5 55t-232 151t-152.5 232.5t-56 294.5zM195 717q0 -180 80.5 -323.5t221.5 -223.5t316 -80t316.5 80t222 223.5 t80.5 323.5q0 135 -47 251.5t-129.5 198.5t-197 129t-245.5 47q-175 0 -316 -80t-221.5 -223t-80.5 -323zM721 1638l348 328l92 -82l-389 -287z" />
<glyph unicode="&#xd4;" horiz-adv-x="1626" d="M82 717q0 158 56 294.5t152.5 232.5t232 151t290.5 55t290.5 -55t232 -151t152.5 -232.5t56 -294.5t-56 -294.5t-152.5 -232.5t-232 -151t-290.5 -55t-290.5 55t-232 151t-152.5 232.5t-56 294.5zM195 717q0 -180 80.5 -323.5t221.5 -223.5t316 -80t316.5 80t222 223.5 t80.5 323.5q0 135 -47 251.5t-129.5 198.5t-197 129t-245.5 47q-175 0 -316 -80t-221.5 -223t-80.5 -323zM485 1659l328 287l328 -287l-62 -62l-266 232l-266 -232z" />
<glyph unicode="&#xd5;" horiz-adv-x="1626" d="M82 717q0 158 56 294.5t152.5 232.5t232 151t290.5 55t290.5 -55t232 -151t152.5 -232.5t56 -294.5t-56 -294.5t-152.5 -232.5t-232 -151t-290.5 -55t-290.5 55t-232 151t-152.5 232.5t-56 294.5zM195 717q0 -180 80.5 -323.5t221.5 -223.5t316 -80t316.5 80t222 223.5 t80.5 323.5q0 135 -47 251.5t-129.5 198.5t-197 129t-245.5 47q-175 0 -316 -80t-221.5 -223t-80.5 -323zM434 1653q14 72 82 120t141 48q40 0 75 -15.5t61 -38t50 -45t52 -38t57 -15.5q28 0 52 11t47 37.5t33.5 42t33.5 52.5l74 -36q-30 -68 -93.5 -129.5t-133.5 -61.5 q-50 0 -95 20t-75 50q-78 78 -150 78q-56 0 -96.5 -44t-40.5 -75z" />
<glyph unicode="&#xd6;" horiz-adv-x="1626" d="M82 717q0 158 56 294.5t152.5 232.5t232 151t290.5 55t290.5 -55t232 -151t152.5 -232.5t56 -294.5t-56 -294.5t-152.5 -232.5t-232 -151t-290.5 -55t-290.5 55t-232 151t-152.5 232.5t-56 294.5zM195 717q0 -180 80.5 -323.5t221.5 -223.5t316 -80t316.5 80t222 223.5 t80.5 323.5q0 135 -47 251.5t-129.5 198.5t-197 129t-245.5 47q-175 0 -316 -80t-221.5 -223t-80.5 -323zM526 1663q0 35 22.5 58.5t59.5 23.5t59.5 -23.5t22.5 -58.5t-22.5 -58.5t-59.5 -23.5t-59.5 23.5t-22.5 58.5zM936 1663q0 35 22.5 58.5t59.5 23.5t59.5 -23.5 t22.5 -58.5t-22.5 -58.5t-59.5 -23.5t-59.5 23.5t-22.5 58.5z" />
<glyph unicode="&#xd7;" horiz-adv-x="1220" d="M150 143l389 379l-389 379l81 82l379 -389l379 389l82 -82l-389 -379l389 -379l-82 -82l-379 390l-379 -390z" />
<glyph unicode="&#xd8;" horiz-adv-x="1626" d="M76 0l194 211q-188 204 -188 506q0 158 56 294.5t152.5 232.5t232 151t290.5 55q263 0 461 -152l125 136h151l-194 -211q188 -204 188 -506q0 -158 -56 -294.5t-152.5 -232.5t-232 -151t-290.5 -55q-264 0 -461 151l-125 -135h-151zM195 717q0 -253 151 -424l852 924 q-164 126 -385 126q-175 0 -316 -80t-221.5 -223t-80.5 -323zM428 217q165 -127 385 -127q175 0 316.5 80t222 223.5t80.5 323.5q0 251 -152 424z" />
<glyph unicode="&#xd9;" horiz-adv-x="1220" d="M154 471v963h112v-963q0 -164 96 -271.5t248 -107.5t248 107.5t96 271.5v963h113v-963q0 -227 -124.5 -359t-332.5 -132t-332 132t-124 359zM293 1884l92 82l348 -328l-51 -41z" />
<glyph unicode="&#xda;" horiz-adv-x="1220" d="M154 471v963h112v-963q0 -164 96 -271.5t248 -107.5t248 107.5t96 271.5v963h113v-963q0 -227 -124.5 -359t-332.5 -132t-332 132t-124 359zM549 1638l348 328l92 -82l-389 -287z" />
<glyph unicode="&#xdb;" horiz-adv-x="1220" d="M154 471v963h112v-963q0 -164 96 -271.5t248 -107.5t248 107.5t96 271.5v963h113v-963q0 -227 -124.5 -359t-332.5 -132t-332 132t-124 359zM313 1659l328 287l328 -287l-62 -62l-266 232l-266 -232z" />
<glyph unicode="&#xdc;" horiz-adv-x="1220" d="M154 471v963h112v-963q0 -164 96 -271.5t248 -107.5t248 107.5t96 271.5v963h113v-963q0 -227 -124.5 -359t-332.5 -132t-332 132t-124 359zM354 1663q0 35 22.5 58.5t59.5 23.5t59.5 -23.5t22.5 -58.5t-22.5 -58.5t-59.5 -23.5t-59.5 23.5t-22.5 58.5zM764 1663 q0 35 22.5 58.5t59.5 23.5t59.5 -23.5t22.5 -58.5t-22.5 -58.5t-59.5 -23.5t-59.5 23.5t-22.5 58.5z" />
<glyph unicode="&#xdd;" horiz-adv-x="1095" d="M10 1434h133l396 -717l413 717h133l-485 -832v-602h-113v582zM487 1638l349 328l90 -82l-389 -287z" />
<glyph unicode="&#xde;" horiz-adv-x="1126" d="M164 0v1434h112v-287h277q209 0 338 -117t129 -313t-129 -313t-338 -117h-277v-287h-112zM276 399h277q71 0 133.5 19.5t112.5 57.5t79 100t29 141q0 104 -51 177t-129 105.5t-174 32.5h-277v-633z" />
<glyph unicode="&#xdf;" horiz-adv-x="1167" d="M184 0v1241q0 165 109.5 269t273.5 104q201 0 303.5 -100t102.5 -273q0 -122 -65.5 -210.5t-196.5 -125.5q159 -46 251.5 -163t92.5 -281q0 -139 -67 -250t-180.5 -171t-250.5 -60v102q103 0 190.5 46t142 136t54.5 205t-60.5 206t-157.5 138t-210 47v92q81 0 149.5 25.5 t111.5 66t67 87t24 90.5q0 144 -79.5 217t-221.5 73q-123 0 -201.5 -76.5t-78.5 -193.5v-1241h-103z" />
<glyph unicode="&#xe0;" horiz-adv-x="962" d="M92 276q0 95 60 165t147 102t184 32q146 0 254 -57v158q0 188 -229 188q-170 0 -301 -96l-60 78q161 117 361 117q166 0 249 -74t83 -213v-676h-103v170q-33 -91 -121.5 -140.5t-209.5 -49.5q-53 0 -105.5 17t-100.5 50.5t-78 93t-30 135.5zM160 1393l92 82l348 -328 l-51 -41zM197 276q0 -93 65.5 -147.5t173.5 -54.5q126 0 213.5 83t87.5 212v75q-127 48 -245 48q-131 0 -213 -58t-82 -158z" />
<glyph unicode="&#xe1;" horiz-adv-x="962" d="M92 276q0 95 60 165t147 102t184 32q146 0 254 -57v158q0 188 -229 188q-170 0 -301 -96l-60 78q161 117 361 117q166 0 249 -74t83 -213v-676h-103v170q-33 -91 -121.5 -140.5t-209.5 -49.5q-53 0 -105.5 17t-100.5 50.5t-78 93t-30 135.5zM197 276q0 -93 65.5 -147.5 t173.5 -54.5q126 0 213.5 83t87.5 212v75q-127 48 -245 48q-131 0 -213 -58t-82 -158zM416 1147l348 328l92 -82l-389 -287z" />
<glyph unicode="&#xe2;" horiz-adv-x="962" d="M92 276q0 95 60 165t147 102t184 32q146 0 254 -57v158q0 188 -229 188q-170 0 -301 -96l-60 78q161 117 361 117q166 0 249 -74t83 -213v-676h-103v170q-33 -91 -121.5 -140.5t-209.5 -49.5q-53 0 -105.5 17t-100.5 50.5t-78 93t-30 135.5zM180 1167l328 287l328 -287 l-62 -61l-266 231l-266 -231zM197 276q0 -93 65.5 -147.5t173.5 -54.5q126 0 213.5 83t87.5 212v75q-127 48 -245 48q-131 0 -213 -58t-82 -158z" />
<glyph unicode="&#xe3;" horiz-adv-x="962" d="M92 276q0 95 60 165t147 102t184 32q146 0 254 -57v158q0 188 -229 188q-170 0 -301 -96l-60 78q161 117 361 117q166 0 249 -74t83 -213v-676h-103v170q-33 -91 -121.5 -140.5t-209.5 -49.5q-53 0 -105.5 17t-100.5 50.5t-78 93t-30 135.5zM129 1161q14 72 82 120 t141 48q40 0 75 -15.5t61 -37.5t50 -44.5t52 -38t57 -15.5q28 0 52 11t47 37.5t33.5 42t33.5 52.5l74 -37q-30 -68 -94 -129t-134 -61q-50 0 -95 19.5t-75 49.5q-39 39 -73 58.5t-76 19.5q-56 0 -96.5 -44t-40.5 -75zM197 276q0 -93 65.5 -147.5t173.5 -54.5q126 0 213.5 83 t87.5 212v75q-127 48 -245 48q-131 0 -213 -58t-82 -158z" />
<glyph unicode="&#xe4;" horiz-adv-x="962" d="M92 276q0 95 60 165t147 102t184 32q146 0 254 -57v158q0 188 -229 188q-170 0 -301 -96l-60 78q161 117 361 117q166 0 249 -74t83 -213v-676h-103v170q-33 -91 -121.5 -140.5t-209.5 -49.5q-53 0 -105.5 17t-100.5 50.5t-78 93t-30 135.5zM197 276q0 -93 65.5 -147.5 t173.5 -54.5q126 0 213.5 83t87.5 212v75q-127 48 -245 48q-131 0 -213 -58t-82 -158zM221 1171q0 35 22.5 58.5t59.5 23.5t59.5 -23.5t22.5 -58.5t-22.5 -58t-59.5 -23t-59.5 23t-22.5 58zM631 1171q0 35 22.5 58.5t59.5 23.5t59.5 -23.5t22.5 -58.5t-22.5 -58t-59.5 -23 t-59.5 23t-22.5 58z" />
<glyph unicode="&#xe5;" horiz-adv-x="962" d="M92 276q0 95 60 165t147 102t184 32q146 0 254 -57v158q0 188 -229 188q-170 0 -301 -96l-60 78q161 117 361 117q166 0 249 -74t83 -213v-676h-103v170q-33 -91 -121.5 -140.5t-209.5 -49.5q-53 0 -105.5 17t-100.5 50.5t-78 93t-30 135.5zM197 276q0 -93 65.5 -147.5 t173.5 -54.5q126 0 213.5 83t87.5 212v75q-127 48 -245 48q-131 0 -213 -58t-82 -158zM305 1290q0 92 56.5 148.5t146.5 56.5t146.5 -56.5t56.5 -148.5t-56.5 -148.5t-146.5 -56.5t-146.5 56.5t-56.5 148.5zM389 1290q0 -58 32.5 -92.5t86.5 -34.5t86.5 34.5t32.5 92.5 t-32.5 92.5t-86.5 34.5t-86.5 -34.5t-32.5 -92.5z" />
<glyph unicode="&#xe6;" horiz-adv-x="1675" d="M92 276q0 95 60 165t147 102t184 32q146 0 254 -57v158q0 188 -229 188q-170 0 -301 -96l-60 78q161 117 361 117q276 0 307 -222q52 104 146 160.5t223 56.5q191 0 310.5 -130t119.5 -349q0 -12 -2 -22h-776q5 -162 105.5 -267.5t262.5 -105.5q96 0 183.5 54t138.5 147 l82 -66q-154 -235 -414 -235q-138 0 -243.5 74.5t-155.5 203.5q-1 -86 -58.5 -152t-144.5 -98t-186 -32q-53 0 -105.5 17t-100.5 50.5t-78 93t-30 135.5zM197 276q0 -93 65.5 -147.5t173.5 -54.5q126 0 213.5 83t87.5 212v75q-127 48 -245 48q-131 0 -213 -58t-82 -158z M840 549h665q-11 130 -96.5 221.5t-224.5 91.5q-146 0 -242 -91t-102 -222z" />
<glyph unicode="&#xe7;" horiz-adv-x="948" d="M61 471q0 211 138 349t340 138q97 0 177 -31.5t130 -88.5v-138q-34 68 -115.5 112t-191.5 44q-166 0 -269.5 -110t-103.5 -275t103.5 -275t269.5 -110q110 0 191.5 44t115.5 112v-138q-45 -55 -119 -86t-164 -34l-104 -215h20q51 0 90 -46t39 -106q0 -91 -55 -141.5 t-143 -50.5q-57 0 -99.5 18t-85.5 61l70 60q33 -28 55.5 -38.5t59.5 -10.5q49 0 75.5 30.5t26.5 71.5q0 40 -26 67t-76 27q-37 0 -68 -16l-31 -19l150 314q-174 27 -287 159.5t-113 321.5z" />
<glyph unicode="&#xe8;" horiz-adv-x="1005" d="M61 471q0 216 124 351.5t329 135.5q191 0 310.5 -130t119.5 -349q0 -12 -2 -22h-776q5 -162 105.5 -267.5t263.5 -105.5q96 0 183 54t138 147l82 -66q-154 -235 -414 -235q-195 0 -329 138t-134 349zM166 1393l92 82l348 -328l-51 -41zM170 549h666q-11 130 -97 221.5 t-225 91.5q-146 0 -242 -91t-102 -222z" />
<glyph unicode="&#xe9;" horiz-adv-x="1005" d="M61 471q0 216 124 351.5t329 135.5q191 0 310.5 -130t119.5 -349q0 -12 -2 -22h-776q5 -162 105.5 -267.5t263.5 -105.5q96 0 183 54t138 147l82 -66q-154 -235 -414 -235q-195 0 -329 138t-134 349zM170 549h666q-11 130 -97 221.5t-225 91.5q-146 0 -242 -91t-102 -222 zM422 1147l348 328l92 -82l-389 -287z" />
<glyph unicode="&#xea;" horiz-adv-x="1005" d="M61 471q0 216 124 351.5t329 135.5q191 0 310.5 -130t119.5 -349q0 -12 -2 -22h-776q5 -162 105.5 -267.5t263.5 -105.5q96 0 183 54t138 147l82 -66q-154 -235 -414 -235q-195 0 -329 138t-134 349zM170 549h666q-11 130 -97 221.5t-225 91.5q-146 0 -242 -91t-102 -222 zM186 1167l328 287l328 -287l-62 -61l-266 231l-266 -231z" />
<glyph unicode="&#xeb;" horiz-adv-x="1005" d="M61 471q0 216 124 351.5t329 135.5q191 0 310.5 -130t119.5 -349q0 -12 -2 -22h-776q5 -162 105.5 -267.5t263.5 -105.5q96 0 183 54t138 147l82 -66q-154 -235 -414 -235q-195 0 -329 138t-134 349zM170 549h666q-11 130 -97 221.5t-225 91.5q-146 0 -242 -91t-102 -222 zM227 1171q0 35 22.5 58.5t59.5 23.5t59.5 -23.5t22.5 -58.5t-22.5 -58t-59.5 -23t-59.5 23t-22.5 58zM637 1171q0 35 22.5 58.5t59.5 23.5t59.5 -23.5t22.5 -58.5t-22.5 -58t-59.5 -23t-59.5 23t-22.5 58z" />
<glyph unicode="&#xec;" horiz-adv-x="532" d="M-82 1393l92 82l348 -328l-51 -41zM215 0v942h102v-942h-102z" />
<glyph unicode="&#xed;" horiz-adv-x="532" d="M174 1147l348 328l92 -82l-389 -287zM215 0v942h102v-942h-102z" />
<glyph unicode="&#xee;" horiz-adv-x="532" d="M-61 1167l327 287l328 -287l-62 -61l-266 231l-266 -231zM215 0v942h102v-942h-102z" />
<glyph unicode="&#xef;" horiz-adv-x="532" d="M-20 1171q0 35 22 58.5t59 23.5t59.5 -23.5t22.5 -58.5t-22.5 -58t-59.5 -23t-59 23t-22 58zM215 0v942h102v-942h-102zM389 1171q0 35 22.5 58.5t59.5 23.5t59.5 -23.5t22.5 -58.5t-22.5 -58t-59.5 -23t-59.5 23t-22.5 58z" />
<glyph unicode="&#xf0;" horiz-adv-x="1138" d="M92 471q0 208 121.5 341.5t292.5 133.5q127 0 225 -43l-139 193h-295v92h227l-178 246h137l174 -246h254v-92h-188l215 -303q47 -67 78 -153t31 -169q0 -219 -134.5 -353t-343.5 -134t-343 134t-134 353zM207 471q0 -166 98 -270.5t264 -104.5q155 0 259 106.5t104 268.5 q0 114 -53 202.5t-134.5 132.5t-175.5 44q-166 0 -264 -106.5t-98 -272.5z" />
<glyph unicode="&#xf1;" horiz-adv-x="993" d="M119 1161q14 72 81.5 120t139.5 48q40 0 75 -15.5t61 -37.5t50 -44.5t52 -38t57 -15.5q28 0 53 11.5t47 37t34.5 43t33.5 51.5l74 -37q-29 -68 -94.5 -129t-135.5 -61q-99 0 -168 69q-78 78 -151 78q-56 0 -95.5 -44t-39.5 -75zM143 0v942h103v-162q85 178 311 178 q149 0 221 -82t72 -262v-614h-102v594q0 63 -9 107.5t-31 81t-65 55t-106 18.5q-122 0 -206.5 -82.5t-84.5 -200.5v-573h-103z" />
<glyph unicode="&#xf2;" horiz-adv-x="1052" d="M61 471q0 209 132.5 348t332.5 139t332.5 -139t132.5 -348t-132.5 -348t-332.5 -139t-332.5 139t-132.5 348zM164 471q0 -162 103.5 -275.5t258.5 -113.5t259 113.5t104 275.5t-104 275.5t-259 113.5t-258.5 -113.5t-103.5 -275.5zM176 1393l92 82l348 -328l-51 -41z" />
<glyph unicode="&#xf3;" horiz-adv-x="1052" d="M61 471q0 209 132.5 348t332.5 139t332.5 -139t132.5 -348t-132.5 -348t-332.5 -139t-332.5 139t-132.5 348zM164 471q0 -162 103.5 -275.5t258.5 -113.5t259 113.5t104 275.5t-104 275.5t-259 113.5t-258.5 -113.5t-103.5 -275.5zM432 1147l348 328l92 -82l-389 -287z " />
<glyph unicode="&#xf4;" horiz-adv-x="1052" d="M61 471q0 209 132.5 348t332.5 139t332.5 -139t132.5 -348t-132.5 -348t-332.5 -139t-332.5 139t-132.5 348zM164 471q0 -162 103.5 -275.5t258.5 -113.5t259 113.5t104 275.5t-104 275.5t-259 113.5t-258.5 -113.5t-103.5 -275.5zM197 1167l327 287l328 -287l-61 -61 l-267 231l-266 -231z" />
<glyph unicode="&#xf5;" horiz-adv-x="1052" d="M61 471q0 209 132.5 348t332.5 139t332.5 -139t132.5 -348t-132.5 -348t-332.5 -139t-332.5 139t-132.5 348zM145 1161q14 72 82.5 120t141.5 48q40 0 75 -15.5t61 -37.5t50 -44.5t52 -38t57 -15.5q28 0 52 11t47 38t32.5 41.5t33.5 52.5l74 -37q-30 -68 -93.5 -129 t-133.5 -61q-50 0 -95 19.5t-75 49.5q-78 78 -150 78q-56 0 -96.5 -44t-40.5 -75zM164 471q0 -162 103.5 -275.5t258.5 -113.5t259 113.5t104 275.5t-104 275.5t-259 113.5t-258.5 -113.5t-103.5 -275.5z" />
<glyph unicode="&#xf6;" horiz-adv-x="1052" d="M61 471q0 209 132.5 348t332.5 139t332.5 -139t132.5 -348t-132.5 -348t-332.5 -139t-332.5 139t-132.5 348zM164 471q0 -162 103.5 -275.5t258.5 -113.5t259 113.5t104 275.5t-104 275.5t-259 113.5t-258.5 -113.5t-103.5 -275.5zM238 1171q0 35 22 58.5t59 23.5 t59.5 -23.5t22.5 -58.5t-22.5 -58t-59.5 -23t-59 23t-22 58zM647 1171q0 35 22.5 58.5t59.5 23.5t59.5 -23.5t22.5 -58.5t-22.5 -58t-59.5 -23t-59.5 23t-22.5 58z" />
<glyph unicode="&#xf7;" horiz-adv-x="1261" d="M133 481v92h1024v-92h-1024zM563 117q0 35 22.5 58.5t59.5 23.5t59.5 -23.5t22.5 -58.5t-22.5 -58.5t-59.5 -23.5t-59.5 23.5t-22.5 58.5zM563 874q0 35 22.5 58.5t59.5 23.5t59.5 -23.5t22.5 -58.5t-22.5 -58t-59.5 -23t-59.5 23t-22.5 58z" />
<glyph unicode="&#xf8;" horiz-adv-x="1052" d="M39 -8l137 149q-115 134 -115 330q0 209 132.5 348t332.5 139q177 0 303 -110l86 94h101l-135 -147q110 -132 110 -324q0 -209 -132.5 -348t-332.5 -139q-172 0 -297 106l-90 -98h-100zM164 471q0 -144 84 -252l512 553q-98 88 -234 88q-155 0 -258.5 -113.5 t-103.5 -275.5zM299 166q100 -84 227 -84q155 0 259 113.5t104 275.5q0 139 -80 246z" />
<glyph unicode="&#xf9;" horiz-adv-x="993" d="M143 328v614h103v-594q0 -63 9 -107.5t31 -81t65 -55t106 -18.5q122 0 206.5 82.5t84.5 200.5v573h102v-942h-102v162q-41 -85 -120 -131.5t-192 -46.5q-149 0 -221 82t-72 262zM147 1393l95 82l348 -328l-53 -41z" />
<glyph unicode="&#xfa;" horiz-adv-x="993" d="M143 328v614h103v-594q0 -63 9 -107.5t31 -81t65 -55t106 -18.5q122 0 206.5 82.5t84.5 200.5v573h102v-942h-102v162q-41 -85 -120 -131.5t-192 -46.5q-149 0 -221 82t-72 262zM406 1147l348 328l90 -82l-389 -287z" />
<glyph unicode="&#xfb;" horiz-adv-x="993" d="M143 328v614h103v-594q0 -63 9 -107.5t31 -81t65 -55t106 -18.5q122 0 206.5 82.5t84.5 200.5v573h102v-942h-102v162q-41 -85 -120 -131.5t-192 -46.5q-149 0 -221 82t-72 262zM168 1167l328 287l327 -287l-61 -61l-266 231l-267 -231z" />
<glyph unicode="&#xfc;" horiz-adv-x="993" d="M143 328v614h103v-594q0 -63 9 -107.5t31 -81t65 -55t106 -18.5q122 0 206.5 82.5t84.5 200.5v573h102v-942h-102v162q-41 -85 -120 -131.5t-192 -46.5q-149 0 -221 82t-72 262zM209 1171q0 35 22.5 58.5t59.5 23.5t59.5 -23.5t22.5 -58.5t-22.5 -58t-59.5 -23t-59.5 23 t-22.5 58zM618 1171q0 35 22.5 58.5t59.5 23.5t59.5 -23.5t22.5 -58.5t-22.5 -58t-59.5 -23t-59.5 23t-22.5 58z" />
<glyph unicode="&#xfd;" horiz-adv-x="901" d="M0 942h117l336 -772l329 772h119l-614 -1393h-113l223 500zM358 1147l349 328l92 -82l-389 -287z" />
<glyph unicode="&#xfe;" horiz-adv-x="1126" d="M143 -451v2048h103v-862q54 105 147 164t215 59q197 0 327 -133t130 -354t-130 -354t-327 -133q-122 0 -215 59t-147 164v-658h-103zM246 471q0 -93 31.5 -168.5t83 -121.5t113 -70.5t124.5 -24.5q161 0 262 99.5t101 285.5t-101 285.5t-262 99.5q-63 0 -124.5 -24.5 t-113 -70.5t-83 -121.5t-31.5 -168.5z" />
<glyph unicode="&#xff;" horiz-adv-x="901" d="M0 942h117l336 -772l329 772h119l-614 -1393h-113l223 500zM164 1171q0 35 22.5 58.5t59.5 23.5t59.5 -23.5t22.5 -58.5t-22.5 -58t-59.5 -23t-59.5 23t-22.5 58zM573 1171q0 35 22.5 58.5t59.5 23.5t59.5 -23.5t22.5 -58.5t-22.5 -58t-59.5 -23t-59.5 23t-22.5 58z" />
<glyph unicode="&#x2c6;" horiz-adv-x="983" d="M164 1208l328 287l327 -287l-61 -61l-266 231l-267 -231z" />
<glyph unicode="&#x2dc;" horiz-adv-x="1085" d="M164 1280q14 72 82 120t141 48q48 0 91.5 -24t70 -52t62.5 -52t71 -24q28 0 52 11t47 38.5t33.5 42t33.5 52.5l74 -37q-30 -68 -94 -129.5t-134 -61.5q-50 0 -95 20t-75 50q-39 39 -73 58.5t-76 19.5q-56 0 -96.5 -44t-40.5 -75z" />
<glyph unicode="&#x2000;" horiz-adv-x="1008" />
<glyph unicode="&#x2001;" horiz-adv-x="2017" />
<glyph unicode="&#x2002;" horiz-adv-x="1008" />
<glyph unicode="&#x2003;" horiz-adv-x="2017" />
<glyph unicode="&#x2004;" horiz-adv-x="672" />
<glyph unicode="&#x2005;" horiz-adv-x="504" />
<glyph unicode="&#x2006;" horiz-adv-x="336" />
<glyph unicode="&#x2007;" horiz-adv-x="336" />
<glyph unicode="&#x2008;" horiz-adv-x="252" />
<glyph unicode="&#x2009;" horiz-adv-x="403" />
<glyph unicode="&#x200a;" horiz-adv-x="112" />
<glyph unicode="&#x2010;" horiz-adv-x="430" d="M10 440v92h410v-92h-410z" />
<glyph unicode="&#x2011;" horiz-adv-x="430" d="M10 440v92h410v-92h-410z" />
<glyph unicode="&#x2012;" horiz-adv-x="430" d="M10 440v92h410v-92h-410z" />
<glyph unicode="&#x2013;" horiz-adv-x="1515" d="M143 440v92h1229v-92h-1229z" />
<glyph unicode="&#x2014;" horiz-adv-x="1822" d="M143 440v92h1536v-92h-1536z" />
<glyph unicode="&#x2018;" horiz-adv-x="604" d="M102 963l252 471h66l-180 -471h-138z" />
<glyph unicode="&#x2019;" horiz-adv-x="604" d="M184 963l181 471h137l-252 -471h-66z" />
<glyph unicode="&#x201a;" horiz-adv-x="604" d="M184 -307l181 471h137l-252 -471h-66z" />
<glyph unicode="&#x201c;" horiz-adv-x="1013" d="M102 963l252 471h66l-180 -471h-138zM512 963l252 471h65l-180 -471h-137z" />
<glyph unicode="&#x201d;" horiz-adv-x="1013" d="M184 963l181 471h137l-252 -471h-66zM594 963l180 471h137l-252 -471h-65z" />
<glyph unicode="&#x202f;" horiz-adv-x="403" />
<glyph unicode="&#x2039;" horiz-adv-x="716" d="M82 522l430 461l61 -72l-370 -381l370 -397l-61 -72z" />
<glyph unicode="&#x203a;" horiz-adv-x="716" d="M143 133l371 381l-371 397l62 72l430 -461l-430 -461z" />
<glyph unicode="&#x205f;" horiz-adv-x="504" />
<glyph unicode="&#x20ac;" horiz-adv-x="1433" d="M-31 608v58h115q0 8 -1 25.5t-1 25.5q0 80 8 137h-121v57h131q50 245 211.5 394t384.5 149q162 0 308 -84v-129q-114 111 -308 111q-183 0 -310.5 -119t-170.5 -322h780v-57h-790q-10 -72 -10 -137q0 -8 1 -25.5t1 -25.5h745v-58h-741q29 -236 166.5 -381t328.5 -145 q194 0 308 111v-130q-144 -83 -308 -83q-243 0 -410 174t-198 454h-119z" />
<glyph unicode="&#x25fc;" horiz-adv-x="942" d="M0 0v942h942v-942h-942z" />
</font>
</defs>
</svg>
