<?xml version="1.0" standalone="no"?>
<!DOCTYPE svg PUBLIC "-//W3C//DTD SVG 1.1//EN" "http://www.w3.org/Graphics/SVG/1.1/DTD/svg11.dtd" >
<svg xmlns="http://www.w3.org/2000/svg" xmlns:xlink="http://www.w3.org/1999/xlink" version="1.1">
<metadata></metadata>
<defs>
<font id="rennerbold" horiz-adv-x="1157" >
<font-face units-per-em="2048" ascent="1638" descent="-410" />
<missing-glyph horiz-adv-x="614" />
<glyph horiz-adv-x="0" />
<glyph horiz-adv-x="682" />
<glyph unicode=" "  horiz-adv-x="614" />
<glyph unicode="&#x09;" horiz-adv-x="614" />
<glyph unicode="&#xa0;" horiz-adv-x="614" />
<glyph unicode="!" horiz-adv-x="614" d="M133 1434h348l-82 -1024h-184zM137 102q0 68 50 116t120 48t120 -48t50 -116t-50 -115.5t-120 -47.5t-120 47.5t-50 115.5z" />
<glyph unicode="&#x22;" horiz-adv-x="972" d="M174 819l82 615h287l-195 -615h-174zM543 819l82 615h286l-194 -615h-174z" />
<glyph unicode="#" horiz-adv-x="1239" d="M92 369v215h162l68 276h-189v215h240l88 359h235l-86 -359h193l88 359h235l-86 -359h107v-215h-160l-67 -276h186v-215h-238l-90 -369h-235l90 369h-195l-90 -369h-235l90 369h-111zM489 584h195l68 276h-195z" />
<glyph unicode="$" horiz-adv-x="1202" d="M61 344l222 160q66 -152 151 -227.5t201 -75.5q90 0 141 48t51 126q0 32 -8.5 60t-19.5 48.5t-35 41.5t-41.5 33.5t-53.5 30t-56 26t-63 26.5q-23 9 -34 14q-51 21 -92 41.5t-95 59.5t-90 82t-61.5 108t-25.5 139q0 157 107.5 268t279.5 136v197h176v-197q78 -12 144 -44 t112 -77t77 -92.5t52 -99.5l-211 -164q-26 50 -50 86t-57.5 70t-77 51.5t-94.5 17.5q-77 0 -120.5 -39.5t-43.5 -103.5q0 -33 12.5 -59.5t29.5 -44t51.5 -36t60.5 -29t75.5 -29t78.5 -30.5q51 -20 97.5 -45t101.5 -66.5t94.5 -88.5t66.5 -114.5t27 -141.5 q0 -214 -109.5 -330t-316.5 -137v-162h-176v164q-169 24 -292.5 130.5t-185.5 268.5z" />
<glyph unicode="%" horiz-adv-x="1742" d="M61 1126q0 157 109 258t266 101t266 -101t109 -258t-109 -257.5t-266 -100.5t-266 100.5t-109 257.5zM279 1126q0 -70 42.5 -111.5t114.5 -41.5t115 41.5t43 111.5t-43 112t-115 42t-114.5 -41.5t-42.5 -112.5zM293 0l921 1434h236l-922 -1434h-235zM932 307 q0 157 109 258t266 101t265.5 -101t108.5 -258t-108.5 -257.5t-265.5 -100.5t-266 100.5t-109 257.5zM1149 307q0 -70 43 -111.5t115 -41.5t114.5 41.5t42.5 111.5q0 71 -42.5 112.5t-114.5 41.5t-115 -42t-43 -112z" />
<glyph unicode="&#x26;" horiz-adv-x="1382" d="M20 389q0 66 21 124t54 99.5t81.5 78t94.5 60.5t102 46q-40 46 -59.5 72.5t-42.5 69t-32.5 90.5t-9.5 110q0 104 59.5 184t158 122t217.5 42q191 0 302 -95.5t111 -256.5q0 -38 -12.5 -74.5t-29.5 -65t-47.5 -58.5t-55 -50t-64.5 -45.5t-62 -38t-60 -33.5 q-20 -11 -29 -16l317 -330q88 98 176 244l195 -146q-110 -173 -203 -272l240 -250h-328l-88 92q-198 -143 -422 -143q-159 0 -291.5 54t-212.5 155.5t-80 230.5zM324 410q0 -100 77.5 -157.5t202.5 -57.5q129 0 254 77l-354 379q-85 -46 -132.5 -102t-47.5 -139zM514 1118 q0 -62 22 -114t74 -121q93 46 141 110t48 121t-36 91t-99 34q-75 0 -112.5 -32t-37.5 -89z" />
<glyph unicode="'" horiz-adv-x="604" d="M174 819l82 615h287l-195 -615h-174z" />
<glyph unicode="(" horiz-adv-x="634" d="M133 594q0 561 236 1003h256q-236 -507 -236 -1003q0 -497 236 -1004h-256q-236 442 -236 1004z" />
<glyph unicode=")" horiz-adv-x="634" d="M10 -410q236 507 236 1004q0 496 -236 1003h256q236 -442 236 -1003q0 -562 -236 -1004h-256z" />
<glyph unicode="*" horiz-adv-x="1212" d="M188 1040l76 234l246 -109l-27 269h246l-27 -269l246 109l76 -234l-264 -55l180 -201l-199 -145l-135 233l-135 -233l-199 145l181 201z" />
<glyph unicode="+" horiz-adv-x="1372" d="M133 399v256h410v420h286v-420h410v-256h-410v-419h-286v419h-410z" />
<glyph unicode="," horiz-adv-x="630" d="M82 -305l180 530l256 -69l-235 -512z" />
<glyph unicode="-" horiz-adv-x="430" d="M10 369v235h410v-235h-410z" />
<glyph unicode="." horiz-adv-x="565" d="M113 102q0 68 50 116t120 48t120 -48t50 -116t-50 -115.5t-120 -47.5t-120 47.5t-50 115.5z" />
<glyph unicode="/" horiz-adv-x="1361" d="M31 -307l1024 1741h276l-1024 -1741h-276z" />
<glyph unicode="0" horiz-adv-x="1310" d="M61 717q0 178 48.5 325.5t130.5 243t189 147.5t226 52t226 -52t189 -147.5t130.5 -243t48.5 -325.5t-48.5 -325.5t-130.5 -243t-189 -147.5t-226 -52t-226 52t-189 147.5t-130.5 243t-48.5 325.5zM348 717q0 -239 79.5 -375.5t227.5 -136.5t228 136.5t80 375.5t-80 375.5 t-228 136.5t-227.5 -136.5t-79.5 -375.5z" />
<glyph unicode="1" horiz-adv-x="1013" d="M143 1073v273l645 149v-1495h-286v1174z" />
<glyph unicode="2" horiz-adv-x="1175" d="M-41 0l698 686q95 90 129.5 172t34.5 178q0 80 -56 137.5t-157 57.5q-127 0 -198.5 -72.5t-71.5 -216.5h-277q0 153 65.5 276t191 196t290.5 73q98 0 181 -25.5t140 -69t97 -101.5t59 -122.5t19 -132.5q0 -144 -64.5 -269.5t-173.5 -219.5l-350 -301h598v-246h-1155z" />
<glyph unicode="3" horiz-adv-x="1159" d="M82 399h278q0 -82 56.5 -138t152.5 -56q230 0 230 194q0 226 -271 226v233q131 0 180.5 49t49.5 150q0 81 -44.5 126.5t-133.5 45.5q-71 0 -119.5 -41.5t-48.5 -110.5h-269q0 172 135 290t322 118q104 0 188.5 -33.5t137.5 -90.5t81.5 -130t28.5 -154q0 -243 -196 -334 q237 -100 237 -364q0 -195 -133.5 -312.5t-374.5 -117.5q-217 0 -352 123t-135 327z" />
<glyph unicode="4" horiz-adv-x="1275" d="M0 195l1040 1382v-1137h226v-245h-226v-195h-286v195h-754zM412 440h342v451z" />
<glyph unicode="5" horiz-adv-x="1236" d="M41 250l229 172q106 -207 322 -207q119 0 194.5 67.5t75.5 188.5q0 130 -64.5 198t-205.5 68q-118 0 -203.5 -26t-226.5 -103l170 826h758v-226h-529l-72 -280q88 45 226 45q67 0 128.5 -16.5t119 -55t99.5 -95t67.5 -143t25.5 -192.5q0 -112 -32.5 -202.5t-86 -149 t-127.5 -98t-152.5 -56t-164.5 -16.5q-188 0 -331.5 84.5t-219.5 216.5z" />
<glyph unicode="6" horiz-adv-x="1282" d="M82 471q0 95 40 194.5t91 163.5l494 605h325l-377 -471q41 6 90 6q121 0 225.5 -64.5t167 -179.5t62.5 -254q0 -158 -76 -278.5t-202 -182t-281 -61.5t-281 61.5t-202 182t-76 278.5zM387 471q0 -116 65 -191t189 -75t189 75t65 191t-65 193t-189 77t-189 -77t-65 -193z " />
<glyph unicode="7" horiz-adv-x="1126" d="M61 1178v256h1065l-634 -1434h-295l522 1178h-658z" />
<glyph unicode="8" horiz-adv-x="1138" d="M61 399q0 127 66.5 218.5t177.5 144.5q-192 92 -192 315q0 96 38 174.5t102 129t145 77.5t171 27t171.5 -27t145.5 -77.5t102 -129t38 -174.5q0 -223 -192 -315q110 -53 176.5 -144.5t66.5 -218.5q0 -138 -70 -242t-184 -156t-254 -52t-254 52t-184 156t-70 242zM340 420 q0 -106 63.5 -165.5t165.5 -59.5q103 0 166.5 59.5t63.5 165.5q0 96 -66 165.5t-164 69.5t-163.5 -69.5t-65.5 -165.5zM391 1057q0 -82 45 -134.5t133 -52.5t133.5 52.5t45.5 134.5q0 90 -49.5 136t-129.5 46t-129 -46t-49 -136z" />
<glyph unicode="9" horiz-adv-x="1282" d="M82 963q0 158 76 278.5t202 182t281 61.5t281 -61.5t202 -182t76 -278.5q0 -95 -40 -195t-91 -164l-494 -604h-325l377 471q-41 -6 -90 -6q-121 0 -225.5 64.5t-167 179.5t-62.5 254zM387 963q0 -116 65 -193.5t189 -77.5t189 77.5t65 193.5t-65 191t-189 75t-189 -75 t-65 -191z" />
<glyph unicode=":" horiz-adv-x="565" d="M113 102q0 68 50 116t120 48t120 -48t50 -116t-50 -115.5t-120 -47.5t-120 47.5t-50 115.5zM113 881q0 68 50 115.5t120 47.5t120 -47.5t50 -115.5t-50 -116t-120 -48t-120 48t-50 116z" />
<glyph unicode=";" horiz-adv-x="675" d="M82 -305l180 530l256 -69l-235 -512zM174 881q0 68 50 115.5t120 47.5t120 -47.5t50 -115.5t-50 -116t-120 -48t-120 48t-50 116z" />
<glyph unicode="&#x3c;" horiz-adv-x="1310" d="M133 451v153l1045 430v-266l-625 -233l625 -248v-267z" />
<glyph unicode="=" horiz-adv-x="1259" d="M133 195v235h993v-235h-993zM133 604v236h993v-236h-993z" />
<glyph unicode="&#x3e;" horiz-adv-x="1310" d="M133 20v267l625 233l-625 248v266l1045 -430v-153z" />
<glyph unicode="?" horiz-adv-x="1140" d="M119 1223q40 60 77.5 102t91 81.5t124.5 59t159 19.5q105 0 196 -29.5t161 -86t110.5 -145.5t40.5 -200q0 -97 -38 -181t-101 -141t-139.5 -93.5t-159.5 -49.5l-10 -211h-205l-41 389h74q88 0 156.5 25.5t107.5 68t58.5 91.5t19.5 102q0 105 -69 160t-181 55 q-138 0 -238 -162zM358 102q0 68 50 116t120 48t120 -48t50 -116t-50 -115.5t-120 -47.5t-120 47.5t-50 115.5z" />
<glyph unicode="@" horiz-adv-x="1576" d="M20 655q0 174 63 329t172 267.5t264 178t331 65.5q128 0 241.5 -39t197 -106.5t144.5 -156t92 -189.5t31 -205q0 -124 -39 -228t-102 -169t-137.5 -100.5t-149.5 -35.5q-80 0 -142.5 47t-84.5 119q-77 -145 -229 -145q-131 0 -217 98t-86 250q0 103 36 193t93.5 150 t130 94t145.5 34q122 0 164 -117l14 76h234l-82 -453q-4 -28 -4 -55q0 -39 12.5 -56.5t46.5 -17.5q25 0 51.5 16.5t52 51t42 99.5t16.5 149q0 96 -31.5 183.5t-89.5 156.5t-149 110t-201 41q-178 0 -314.5 -85t-208 -229t-71.5 -321q0 -243 133 -382.5t399 -139.5 q65 0 120 8.5t82 16.5t84.5 30t84.5 31l107 -168q-63 -34 -95 -48.5t-96 -36t-142.5 -30t-184.5 -8.5q-175 0 -315 56t-229.5 154.5t-136.5 230.5t-47 286zM606 635q0 -60 26 -96.5t81 -36.5q69 0 123.5 66.5t54.5 189.5q0 133 -117 133q-68 0 -118 -77t-50 -179z" />
<glyph unicode="A" horiz-adv-x="1515" d="M-10 0l768 1536l768 -1536h-307l-164 348h-594l-164 -348h-307zM575 594h365l-182 387z" />
<glyph unicode="B" horiz-adv-x="1255" d="M133 0v1434h461q237 0 367.5 -103t130.5 -287q0 -196 -179 -274q121 -47 191 -132.5t70 -207.5q0 -111 -42 -195.5t-116.5 -134.5t-170 -75t-210.5 -25h-502zM420 256h215q116 0 184 44t68 140q0 97 -69.5 146t-182.5 49h-215v-379zM420 881h174q105 0 158 40t53 113 q0 144 -211 144h-174v-297z" />
<glyph unicode="C" horiz-adv-x="1423" d="M51 717q0 226 101 404t281 276t407 98q150 0 260 -40t200 -118v-340q-71 101 -192.5 164.5t-267.5 63.5q-131 0 -242 -63t-178.5 -180.5t-67.5 -264.5t67.5 -264.5t178.5 -180.5t242 -63q146 0 267.5 63.5t192.5 163.5v-340q-89 -77 -199.5 -117t-260.5 -40 q-227 0 -407 98t-281 276t-101 404z" />
<glyph unicode="D" horiz-adv-x="1484" d="M133 0v1434h543q347 0 552.5 -191.5t205.5 -525.5t-205.5 -525.5t-552.5 -191.5h-543zM420 256h256q219 0 345 116.5t126 344.5t-126 344.5t-345 116.5h-256v-922z" />
<glyph unicode="E" horiz-adv-x="1187" d="M133 0v1434h932v-256h-645v-318h604v-246h-604v-358h645v-256h-932z" />
<glyph unicode="F" horiz-adv-x="1075" d="M133 0v1434h850v-256h-563v-318h543v-246h-543v-614h-287z" />
<glyph unicode="G" horiz-adv-x="1658" d="M51 717q0 230 104 408.5t285.5 274t409.5 95.5q439 0 635 -317l-187 -177q-66 112 -188.5 175t-259.5 63q-141 0 -257.5 -64.5t-185.5 -184.5t-69 -273t69 -273t185.5 -184.5t257.5 -64.5q200 0 315 93.5t154 254.5h-408v256h697v-62q0 -235 -88.5 -414.5t-261.5 -281.5 t-408 -102q-228 0 -409.5 95.5t-285.5 274t-104 408.5z" />
<glyph unicode="H" horiz-adv-x="1515" d="M133 0v1434h287v-553h676v553h286v-1434h-286v625h-676v-625h-287z" />
<glyph unicode="I" horiz-adv-x="552" d="M133 0v1434h287v-1434h-287z" />
<glyph unicode="J" horiz-adv-x="542" d="M-289 -328l142 217q64 -104 151 -104q57 0 93 31.5t36 122.5v1495h277v-1557q0 -117 -55.5 -197.5t-142.5 -115.5t-198 -35q-99 0 -184 49t-119 94z" />
<glyph unicode="K" horiz-adv-x="1333" d="M133 0v1434h287v-611l563 611h340l-621 -672l652 -762h-361l-573 670v-670h-287z" />
<glyph unicode="L" horiz-adv-x="983" d="M133 0v1434h287v-1178h563v-256h-850z" />
<glyph unicode="M" horiz-adv-x="1720" d="M41 0l215 1546l602 -958l586 958l235 -1546h-297l-112 786l-410 -653l-424 655l-98 -788h-297z" />
<glyph unicode="N" horiz-adv-x="1587" d="M133 0v1505l1034 -938v867h287v-1506l-1034 938v-866h-287z" />
<glyph unicode="O" horiz-adv-x="1699" d="M51 717q0 168 65 314.5t174 247.5t255 158.5t305 57.5q163 0 309.5 -57.5t254.5 -158.5t171.5 -247.5t63.5 -314.5q0 -169 -62 -314.5t-169 -247t-254 -159t-314 -57.5t-314 57.5t-254 159t-169 247t-62 314.5zM344 717q0 -153 67.5 -271.5t182.5 -181.5t256 -63t256 63 t182.5 181.5t67.5 271.5q0 232 -142 374t-364 142q-141 0 -256 -63t-182.5 -181.5t-67.5 -271.5z" />
<glyph unicode="P" horiz-adv-x="1204" d="M133 0v1434h502q238 0 378 -124t140 -337t-140 -337t-378 -124h-215v-512h-287zM420 768h215q108 0 169.5 53t61.5 152t-61.5 152t-169.5 53h-215v-410z" />
<glyph unicode="Q" horiz-adv-x="1699" d="M51 717q0 168 65 314.5t174 247.5t255 158.5t305 57.5q163 0 309.5 -57.5t254.5 -158.5t171.5 -247.5t63.5 -314.5q0 -243 -164 -455l295 -303h-379l-115 119q-204 -139 -436 -139q-167 0 -314 57.5t-254 159t-169 247t-62 314.5zM344 717q0 -153 67.5 -271.5 t182.5 -181.5t256 -63q142 0 256 63l-381 391h379l190 -196q62 118 62 258q0 232 -142 374t-364 142q-141 0 -256 -63t-182.5 -181.5t-67.5 -271.5z" />
<glyph unicode="R" horiz-adv-x="1198" d="M133 0v1434h502q238 0 378 -124t140 -337q0 -160 -80.5 -272t-226.5 -158l373 -543h-338l-351 512h-110v-512h-287zM420 768h215q108 0 169.5 53t61.5 152t-61.5 152t-169.5 53h-215v-410z" />
<glyph unicode="S" horiz-adv-x="1202" d="M61 344l222 160q66 -152 151 -227.5t201 -75.5q90 0 141 48t51 126q0 32 -8.5 60t-19.5 48.5t-35 41.5t-41.5 33.5t-53.5 30t-56 26t-63 26.5q-23 9 -34 14q-51 21 -92 41.5t-95 59.5t-90 82t-61.5 108t-25.5 139q0 178 135.5 294t341.5 116q78 0 147.5 -19.5 t119.5 -50.5t91.5 -74t68 -86t44.5 -89l-211 -164q-26 50 -50 86t-57.5 70t-77 51.5t-94.5 17.5q-77 0 -120.5 -39.5t-43.5 -103.5q0 -33 12.5 -59.5t29.5 -44t51.5 -36t60.5 -29t75.5 -29t78.5 -30.5q51 -20 97.5 -45t101.5 -66.5t94.5 -88.5t66.5 -114.5t27 -141.5 q0 -237 -132.5 -354t-381.5 -117q-201 0 -348.5 110.5t-217.5 294.5z" />
<glyph unicode="T" horiz-adv-x="1044" d="M10 1178v256h1024v-256h-368v-1178h-287v1178h-369z" />
<glyph unicode="U" horiz-adv-x="1343" d="M123 471v963h287v-963q0 -124 65 -200t197 -76t197 76t65 200v963h287v-963q0 -133 -43.5 -237t-120 -167.5t-174 -95.5t-211.5 -32t-211.5 32t-174 95.5t-120 167.5t-43.5 237z" />
<glyph unicode="V" horiz-adv-x="1474" d="M-31 1434h307l461 -981l461 981h307l-768 -1536z" />
<glyph unicode="W" horiz-adv-x="2088" d="M-31 1434h318l321 -875l436 987l437 -987l321 875h318l-615 -1547l-461 1047l-460 -1047z" />
<glyph unicode="X" horiz-adv-x="1300" d="M-20 0l518 748l-467 686h317l309 -455l316 455h317l-475 -686l506 -748h-317l-351 516l-356 -516h-317z" />
<glyph unicode="Y" horiz-adv-x="1177" d="M-41 1434h297l326 -582l340 582h297l-496 -811v-623h-277v606z" />
<glyph unicode="Z" horiz-adv-x="1208" d="M20 0l715 1178h-622v256h1075l-727 -1198h635v-236h-1076z" />
<glyph unicode="[" horiz-adv-x="696" d="M174 -440v2048h481v-246h-206v-1577h206v-225h-481z" />
<glyph unicode="\" d="M31 1434h276l819 -1434h-276z" />
<glyph unicode="]" horiz-adv-x="675" d="M20 -195h207v1577h-207v226h482v-2048h-482v245z" />
<glyph unicode="^" horiz-adv-x="1044" d="M92 942l348 512h164l348 -512h-245l-185 277l-184 -277h-246z" />
<glyph unicode="_" horiz-adv-x="1024" d="M2 -129h1024v-174h-1024v174z" />
<glyph unicode="`" horiz-adv-x="768" d="M102 1352l246 82l307 -328l-184 -62z" />
<glyph unicode="a" horiz-adv-x="1095" d="M31 266q0 69 25 125t63.5 91t89 59t98.5 33.5t94 9.5q180 0 295 -60v94q0 67 -54 106.5t-134 39.5q-91 0 -179.5 -30.5t-131.5 -61.5l-80 196q65 48 170.5 86.5t220.5 38.5q211 0 338 -83.5t127 -233.5v-676h-277v121q-37 -76 -113 -119t-177 -43q-175 0 -275 84 t-100 223zM309 295q0 -51 43.5 -80t114.5 -29q101 0 165 44t64 139v6q-82 31 -184 31q-90 0 -146.5 -27t-56.5 -84z" />
<glyph unicode="b" horiz-adv-x="1269" d="M113 0v1597h276v-823q56 99 145.5 154t196.5 55q98 0 183 -32t151.5 -93.5t104.5 -161t38 -225.5t-38 -225.5t-104.5 -161t-151.5 -93.5t-183 -32q-107 0 -196.5 55t-145.5 154v-168h-276zM389 471q0 -138 75.5 -202t194.5 -64q122 0 196.5 66.5t74.5 199.5 q0 122 -76.5 194t-194.5 72q-119 0 -194.5 -64t-75.5 -202z" />
<glyph unicode="c" horiz-adv-x="1050" d="M51 471q0 231 154 376.5t405 145.5q91 0 182.5 -24t145.5 -56v-311q-33 56 -122 97.5t-185 41.5q-131 0 -211 -73t-80 -197t80 -197t211 -73q108 0 190 41t117 100v-313q-50 -35 -141 -57.5t-187 -22.5q-251 0 -405 145.5t-154 376.5z" />
<glyph unicode="d" horiz-adv-x="1280" d="M61 471q0 126 38.5 225.5t105 161t151.5 93.5t183 32q107 0 196.5 -55t145.5 -154v823h276v-1597h-276v168q-56 -99 -145.5 -154t-196.5 -55q-98 0 -183 32t-151.5 93.5t-105 161t-38.5 225.5zM340 471q0 -134 74 -200t196 -66q56 0 103 14.5t85.5 44.5t60.5 83t22 124 t-22 124t-60.5 83t-85.5 44.5t-103 14.5q-118 0 -194 -72t-76 -194z" />
<glyph unicode="e" horiz-adv-x="1116" d="M41 471q0 143 65 261.5t187 189.5t276 71q229 0 367.5 -140t138.5 -364q0 -51 -4 -90h-745q18 -109 83.5 -167t159.5 -58q159 0 232 145l262 -59q-145 -301 -494 -301q-164 0 -285.5 69t-182 184t-60.5 259zM332 602h448q-35 186 -211 186q-79 0 -146.5 -51t-90.5 -135z " />
<glyph unicode="f" horiz-adv-x="714" d="M31 707v235h133v348q0 157 100 252.5t285 95.5q88 0 154 -29.5t94 -66.5l-105 -221q-23 37 -53 54.5t-80 17.5q-51 0 -85 -37t-34 -117v-297h236v-235h-236v-707h-276v707h-133z" />
<glyph unicode="g" horiz-adv-x="1280" d="M51 -72h281q13 -82 89 -133t208 -51q116 0 189 68t73 208v158q-56 -99 -145.5 -154t-196.5 -55q-98 0 -183 32t-151.5 93.5t-104.5 161t-38 225.5t38 225.5t104.5 161t151.5 93.5t183 32q107 0 196.5 -55t145.5 -154v158h276v-922q0 -113 -30 -202.5t-81 -148.5t-123 -98 t-152.5 -56t-172.5 -17q-245 0 -386.5 116t-170.5 314zM350 481q0 -133 74.5 -199.5t196.5 -66.5q119 0 194.5 64t75.5 202t-76 202.5t-194 64.5t-194.5 -72.5t-76.5 -194.5z" />
<glyph unicode="h" d="M123 0v1597h276v-784q91 172 312 172q148 0 235.5 -92.5t87.5 -257.5v-635h-276v573q0 107 -36 152t-114 45q-90 0 -149.5 -50.5t-59.5 -146.5v-573h-276z" />
<glyph unicode="i" horiz-adv-x="524" d="M92 1315q0 66 50 113t120 47t120 -47t50 -113t-50 -113t-120 -47t-120 47t-50 113zM121 0v942h280v-942h-280z" />
<glyph unicode="j" horiz-adv-x="555" d="M-274 -344l145 190q21 -34 64 -63t69 -29q119 0 119 144v1044h278v-1085q0 -190 -90.5 -274.5t-259.5 -84.5q-66 0 -125 18t-99 47t-62.5 50t-38.5 43zM92 1315q0 66 50 113t120 47t120 -47t50 -113t-50 -113t-120 -47t-120 47t-50 113z" />
<glyph unicode="k" horiz-adv-x="1116" d="M123 0v1597h276v-987l340 332h357l-400 -389l441 -553h-349l-389 489v-489h-276z" />
<glyph unicode="l" horiz-adv-x="532" d="M123 0v1597h276v-1597h-276z" />
<glyph unicode="m" horiz-adv-x="1730" d="M123 0v942h297v-139q48 73 119 117.5t151 44.5q101 0 175 -43.5t112 -128.5q46 81 126.5 126.5t180.5 45.5q152 0 238 -87t86 -264v-614h-277v573q0 86 -36 126t-113 40q-82 0 -125 -46t-43 -120v-573h-277v573q0 86 -36 126t-113 40q-82 0 -125 -46t-43 -120v-573h-297z " />
<glyph unicode="n" d="M123 0v942h276v-139q46 86 125.5 134t186.5 48q148 0 235.5 -92.5t87.5 -257.5v-635h-276v573q0 107 -36 152t-114 45q-90 0 -149.5 -50.5t-59.5 -146.5v-573h-276z" />
<glyph unicode="o" horiz-adv-x="1179" d="M41 471q0 119 45.5 218.5t121.5 165t175 102t207 36.5t207 -36.5t175 -102t121.5 -165t45.5 -218.5t-45.5 -218.5t-121.5 -165t-175 -102t-207 -36.5t-207 36.5t-175 102t-121.5 165t-45.5 218.5zM319 471q0 -132 74 -209.5t197 -77.5t196.5 77.5t73.5 209.5t-73.5 209.5 t-196.5 77.5t-197 -77.5t-74 -209.5z" />
<glyph unicode="p" horiz-adv-x="1249" d="M113 -451v1393h276v-168q56 99 145.5 154t196.5 55q98 0 183 -32t151.5 -93.5t104.5 -161t38 -225.5t-38 -225.5t-104.5 -161t-151.5 -93.5t-183 -32q-107 0 -196.5 55t-145.5 154v-619h-276zM389 471q0 -138 75.5 -202t194.5 -64q118 0 194.5 72t76.5 194 q0 133 -74.5 199.5t-196.5 66.5q-119 0 -194.5 -64t-75.5 -202z" />
<glyph unicode="q" horiz-adv-x="1249" d="M41 471q0 126 38 225.5t104.5 161t151.5 93.5t183 32q107 0 196.5 -55t145.5 -154v168h277v-1393h-277v619q-56 -99 -145.5 -154t-196.5 -55q-98 0 -183 32t-151.5 93.5t-104.5 161t-38 225.5zM319 471q0 -122 76.5 -194t194.5 -72q119 0 194.5 64t75.5 202t-75.5 202 t-194.5 64q-122 0 -196.5 -66.5t-74.5 -199.5z" />
<glyph unicode="r" horiz-adv-x="886" d="M123 0v942h287v-119q46 69 109.5 109.5t129.5 40.5q152 0 228 -92l-142 -222q-65 48 -157 48q-88 0 -128 -38.5t-40 -136.5v-532h-287z" />
<glyph unicode="s" horiz-adv-x="958" d="M51 252l238 78q19 -70 69.5 -108t122.5 -38q56 0 89.5 22t33.5 62q0 22 -16.5 41t-50 36t-65 28.5t-81.5 27.5q-46 15 -79.5 28.5t-74 38t-66 54t-43 74t-17.5 98.5q0 145 96 222t260 77q151 0 253.5 -70.5t147.5 -185.5l-215 -73q-41 63 -80.5 92.5t-93.5 29.5 q-41 0 -66.5 -19.5t-25.5 -51.5q0 -20 16 -38t52.5 -36.5t69.5 -32t91 -35.5q49 -18 80 -32t71.5 -40t63.5 -55.5t39.5 -76t16.5 -103.5q0 -161 -107.5 -239t-298.5 -78q-181 0 -293.5 88.5t-136.5 214.5z" />
<glyph unicode="t" horiz-adv-x="583" d="M0 707v235h154v328h276v-328h154v-235h-154v-707h-276v707h-154z" />
<glyph unicode="u" d="M123 307v635h276v-573q0 -107 36 -152t114 -45q46 0 81 9.5t65.5 32.5t46.5 67t16 108v553h276v-942h-276v139q-93 -182 -332 -182q-157 0 -230 89t-73 261z" />
<glyph unicode="v" horiz-adv-x="1024" d="M-31 942h318l225 -536l225 536h318l-543 -1055z" />
<glyph unicode="w" horiz-adv-x="1505" d="M-31 942h307l189 -522l283 614l301 -618l180 526h307l-461 -1055l-325 635l-310 -635z" />
<glyph unicode="x" horiz-adv-x="1044" d="M-31 0l404 483l-383 459h317l223 -272l228 272h297l-375 -459l395 -483h-297l-250 297l-241 -297h-318z" />
<glyph unicode="y" horiz-adv-x="1064" d="M-31 942h328l246 -614l245 614h308l-615 -1393h-307l221 514z" />
<glyph unicode="z" horiz-adv-x="962" d="M0 0l477 686h-395v256h881l-478 -686h396v-256h-881z" />
<glyph unicode="{" horiz-adv-x="770" d="M133 451v286q53 18 91 78.5t38 167.5v328q0 70 21.5 123t54 83.5t78 49t86 24.5t84.5 6h123v-235h-72q-44 0 -71 -30t-27 -72v-256q0 -100 -43 -218t-117 -192q74 -74 117 -192t43 -218v-256q0 -42 27 -72t71 -30h72v-236h-123q-44 0 -84.5 6t-86 25t-78 49.5t-54 83.5 t-21.5 123v328q0 107 -38 167.5t-91 78.5z" />
<glyph unicode="|" horiz-adv-x="673" d="M205 -440v2048h264v-2048h-264z" />
<glyph unicode="}" horiz-adv-x="718" d="M51 -174h72q44 0 71 30t27 72v256q0 100 43 218t117 192q-74 74 -117 192t-43 218v256q0 42 -27 72t-71 30h-72v235h123q44 0 84.5 -6t86 -24.5t78 -49t54 -83.5t21.5 -123v-328q0 -107 38 -167.5t91 -78.5v-286q-53 -18 -91 -78.5t-38 -167.5v-328q0 -70 -21.5 -123 t-54 -83.5t-78 -49.5t-86 -25t-84.5 -6h-123v236z" />
<glyph unicode="~" horiz-adv-x="1177" d="M92 420q0 39 14 95t39 89q41 55 100 81t152 26q120 0 262 -109q52 -40 83 -58t57 -18q35 0 50 19.5t15 60.5q0 31 -10 56l223 -11q8 -32 8 -57q0 -42 -11 -98.5t-34 -87.5q-73 -97 -213 -97q-121 0 -266 109q-101 78 -166 78q-92 0 -92 -92q0 -25 8 -46l-213 11 q-6 21 -6 49z" />
<glyph unicode="&#xa1;" horiz-adv-x="614" d="M133 -502l82 1024h184l82 -1024h-348zM137 829q0 68 50 116t120 48t120 -48t50 -116t-50 -115.5t-120 -47.5t-120 47.5t-50 115.5z" />
<glyph unicode="&#xa2;" horiz-adv-x="1050" d="M51 471q0 212 130 353.5t349 164.5v195h187v-199q139 -22 221 -72v-311q-25 42 -86 78t-135 51v-522q78 14 135.5 50.5t85.5 82.5v-313q-73 -54 -221 -74v-184h-187v182q-219 23 -349 164.5t-130 353.5zM340 471q0 -97 50.5 -165t139.5 -93v516q-89 -25 -139.5 -93 t-50.5 -165z" />
<glyph unicode="&#xa3;" horiz-adv-x="1097" d="M72 0l2 2q150 157 220 284t71 257h-287v235h168q-36 41 -52.5 62t-41.5 59.5t-35.5 77.5t-10.5 84q0 198 133 311t369 113q96 0 173.5 -30t126.5 -77.5t82.5 -110t48.5 -121t18 -118.5l-236 -67q-6 116 -65 188t-158 72q-92 0 -146.5 -42.5t-54.5 -113.5q0 -19 2 -38 t4.5 -34t9.5 -33.5t10 -29t13.5 -29t14 -25t17 -26.5t16.5 -23.5t18.5 -25t17.5 -23.5h295v-235h-203v-2q0 -152 -123 -285h510v-256h-927z" />
<glyph unicode="&#xa4;" horiz-adv-x="1198" d="M61 219l109 109q-90 129 -90 286q0 158 90 287l-109 109l142 143l112 -113q133 86 283 86q157 0 285 -86l112 113l142 -143l-111 -109q90 -129 90 -287q0 -157 -90 -286l111 -109l-142 -143l-112 112q-128 -86 -285 -86q-150 0 -283 86l-112 -112zM338 614 q0 -120 70 -198t190 -78t190 78t70 198t-70 198.5t-190 78.5t-190 -78.5t-70 -198.5z" />
<glyph unicode="&#xa5;" horiz-adv-x="1218" d="M-10 1434h297l325 -582l340 582h297l-362 -594h209v-236h-342v-174h342v-235h-342v-195h-277v195h-375v235h375v174h-375v236h238z" />
<glyph unicode="&#xa6;" horiz-adv-x="673" d="M205 10v512h264v-512h-264zM205 911v512h264v-512h-264z" />
<glyph unicode="&#xa7;" horiz-adv-x="917" d="M41 240l217 110q18 -83 74.5 -119t148.5 -36q70 0 96.5 20.5t26.5 56.5q0 46 -58 78q-28 15 -114 49q-42 17 -70.5 29.5t-72 35.5t-73 48t-58.5 58t-43.5 75t-14.5 90q0 76 53 132.5t146 86.5q-199 115 -199 252q0 120 98 194.5t269 74.5q137 0 244.5 -61.5t136.5 -143.5 l-213 -125q-31 59 -70 85.5t-96 26.5q-102 0 -102 -61q0 -36 48.5 -68.5t139.5 -70.5q56 -23 107.5 -51.5t102.5 -66.5t81.5 -85t30.5 -96q0 -173 -187 -236q187 -105 187 -256q0 -65 -23 -119.5t-61.5 -92t-91 -64t-110.5 -39t-120 -12.5q-181 0 -293.5 88t-136.5 213z M367 756q0 -27 10.5 -49.5t23.5 -36.5t42.5 -31t47.5 -25t60 -26q35 25 54.5 67.5t19.5 87.5q0 42 -49.5 76.5t-143.5 71.5q-1 0 -2 1t-2 1q-36 -25 -48.5 -56.5t-12.5 -80.5z" />
<glyph unicode="&#xa8;" horiz-adv-x="962" d="M41 1372q0 68 50 116t120 48t120 -48t50 -116t-50 -116t-120 -48t-120 48t-50 116zM532 1372q0 68 50 116t120 48t120 -48t50 -116t-50 -116t-120 -48t-120 48t-50 116z" />
<glyph unicode="&#xa9;" horiz-adv-x="1638" d="M82 717q0 158 56.5 295.5t154.5 234t234.5 152t291.5 55.5t291.5 -55.5t234.5 -152t154.5 -234t56.5 -295.5t-56.5 -295.5t-154.5 -234t-234.5 -152t-291.5 -55.5t-291.5 55.5t-234.5 152t-154.5 234t-56.5 295.5zM195 717q0 -135 48 -253t131 -201.5t198.5 -132 t246.5 -48.5q175 0 318 82t225 227.5t82 325.5t-82 325.5t-225 227.5t-318 82q-131 0 -246.5 -48.5t-198.5 -132t-131 -201.5t-48 -253zM371 717q0 205 133.5 336t339.5 131q168 0 276 -94v-205q-42 60 -115.5 98.5t-160.5 38.5q-122 0 -207.5 -86t-85.5 -219t85.5 -219 t207.5 -86q87 0 160.5 38.5t115.5 98.5v-205q-108 -94 -276 -94q-206 0 -339.5 131t-133.5 336z" />
<glyph unicode="&#xaa;" horiz-adv-x="487" d="M27 1085q0 42 18.5 74.5t47.5 50.5t59.5 26.5t60.5 8.5q87 0 147 -31v48q0 33 -27 53t-67 20q-45 0 -88.5 -15.5t-66.5 -31.5l-41 98q90 64 196 64t169 -42.5t63 -117.5v-338h-138v60q-19 -37 -58 -58.5t-89 -21.5q-88 0 -137 42t-49 111zM166 1100q0 -26 22.5 -41 t57.5 -15q50 0 82 22.5t32 70.5v4q-38 14 -94 14q-100 0 -100 -55z" />
<glyph unicode="&#xab;" horiz-adv-x="1044" d="M61 522l390 502l143 -113l-307 -381l307 -397l-143 -113zM430 522l389 502l144 -113l-308 -381l308 -397l-144 -113z" />
<glyph unicode="&#xac;" horiz-adv-x="1269" d="M133 573v236h1004v-451h-256v215h-748z" />
<glyph unicode="&#xad;" horiz-adv-x="430" d="M10 369v235h410v-235h-410z" />
<glyph unicode="&#xae;" horiz-adv-x="1638" d="M82 717q0 158 56.5 295.5t154.5 234t234.5 152t291.5 55.5t291.5 -55.5t234.5 -152t154.5 -234t56.5 -295.5t-56.5 -295.5t-154.5 -234t-234.5 -152t-291.5 -55.5t-291.5 55.5t-234.5 152t-154.5 234t-56.5 295.5zM195 717q0 -135 48 -253t131 -201.5t198.5 -132 t246.5 -48.5q175 0 318 82t225 227.5t82 325.5t-82 325.5t-225 227.5t-318 82q-131 0 -246.5 -48.5t-198.5 -132t-131 -201.5t-48 -253zM543 307v860h301q143 0 227 -74.5t84 -201.5q0 -96 -48.5 -163t-135.5 -95l223 -326h-203l-211 307h-65v-307h-172zM715 768h129 q65 0 102 31.5t37 91.5t-37 91.5t-102 31.5h-129v-246z" />
<glyph unicode="&#xaf;" horiz-adv-x="1044" d="M164 1188v235h717v-235h-717z" />
<glyph unicode="&#xb0;" horiz-adv-x="569" d="M25 1229q0 118 81 190t193 72t193 -72t81 -190t-81 -190t-193 -72t-193 72t-81 190zM164 1229q0 -66 36.5 -105t98.5 -39t98.5 39t36.5 105t-36.5 104.5t-98.5 38.5t-98.5 -38.5t-36.5 -104.5z" />
<glyph unicode="&#xb1;" horiz-adv-x="1259" d="M133 82v225h993v-225h-993zM133 645v246h348v276h297v-276h348v-246h-348v-276h-297v276h-348z" />
<glyph unicode="&#xb2;" horiz-adv-x="708" d="M2 578l418 411q57 54 77.5 103t20.5 108q0 48 -33 82.5t-94 34.5q-76 0 -119 -43.5t-43 -130.5h-166q0 140 89.5 233.5t238.5 93.5q97 0 166 -40.5t100 -100t31 -129.5q0 -86 -38.5 -162.5t-104.5 -132.5l-209 -180h358v-147h-692z" />
<glyph unicode="&#xb3;" horiz-adv-x="638" d="M27 813h168q0 -50 33 -83.5t91 -33.5q138 0 138 117q0 135 -162 135v139q79 0 108 29.5t29 91.5q0 103 -106 103q-43 0 -72 -24.5t-29 -65.5h-162q0 103 81.5 173t193.5 70q123 0 192.5 -71t69.5 -172q0 -147 -117 -201q142 -60 142 -219q0 -117 -80.5 -187.5 t-225.5 -70.5q-130 0 -211 74t-81 196z" />
<glyph unicode="&#xb4;" horiz-adv-x="768" d="M113 1106l307 328l246 -82l-369 -308z" />
<glyph unicode="&#xb5;" d="M123 -655v1597h276v-573q0 -107 36 -152t114 -45q46 0 81 9.5t65.5 32.5t46.5 67t16 108v553h276v-942h-276v139q-93 -182 -332 -182h-27v-612h-276z" />
<glyph unicode="&#xb6;" horiz-adv-x="1347" d="M123 993q0 206 133.5 323.5t333.5 117.5h635v-1885h-246v1659h-143v-1659h-246v1004q-130 0 -234.5 49.5t-168.5 151t-64 239.5z" />
<glyph unicode="&#xb7;" horiz-adv-x="614" d="M113 512q0 68 50 116t120 48t120 -48t50 -116t-50 -116t-120 -48t-120 48t-50 116z" />
<glyph unicode="&#xb8;" horiz-adv-x="716" d="M143 -389l86 119q33 -28 55.5 -38.5t59.5 -10.5q41 0 61.5 18t20.5 43q0 24 -20 38.5t-62 14.5q-106 0 -162 -33l-4 -4l162 365h227l-102 -209q56 -3 97.5 -47.5t41.5 -124.5q0 -60 -21.5 -103t-59.5 -66t-82 -33.5t-97 -10.5q-119 0 -201 82z" />
<glyph unicode="&#xb9;" horiz-adv-x="962" d="M262 1204v164l387 90v-897h-172v705z" />
<glyph unicode="&#xba;" horiz-adv-x="569" d="M25 1188q0 118 81 190t193 72t193 -72t81 -190t-81 -190t-193 -72t-193 72t-81 190zM164 1188q0 -66 36.5 -105t98.5 -39t98.5 39t36.5 105t-36.5 104.5t-98.5 38.5t-98.5 -38.5t-36.5 -104.5z" />
<glyph unicode="&#xbb;" horiz-adv-x="1044" d="M82 133l307 381l-307 397l143 113l389 -502l-389 -502zM451 133l307 381l-307 397l143 113l389 -502l-389 -502z" />
<glyph unicode="&#xbc;" horiz-adv-x="1544" d="M12 1204v164l387 90v-897h-172v705zM180 0l1024 1434h215l-1024 -1434h-215zM791 117l624 829v-682h135v-147h-135v-117h-172v117h-452zM1038 264h205v271z" />
<glyph unicode="&#xbd;" horiz-adv-x="1677" d="M12 1204v164l387 90v-897h-172v705zM180 0l1024 1434h215l-1024 -1434h-215zM961 4l417 412q57 55 78 104t21 107q0 48 -33 82t-94 34q-76 0 -119 -43.5t-43 -130.5h-166q0 140 89.5 234t238.5 94q97 0 166 -40.5t100 -100t31 -129.5q0 -86 -39 -162t-105 -133l-209 -180 h359v-148h-692z" />
<glyph unicode="&#xbe;" horiz-adv-x="1679" d="M37 813h168q0 -49 33.5 -83t91.5 -34q137 0 137 117q0 135 -162 135v139q79 0 108 29.5t29 91.5q0 103 -106 103q-43 0 -71.5 -24.5t-28.5 -65.5h-162q0 103 81 173t193 70q123 0 192.5 -71t69.5 -172q0 -148 -116 -201q141 -59 141 -219q0 -117 -80 -187.5t-225 -70.5 q-130 0 -211.5 74t-81.5 196zM317 0l1024 1434h215l-1024 -1434h-215zM928 117l624 829v-682h136v-147h-136v-117h-172v117h-452zM1176 264h204v271z" />
<glyph unicode="&#xbf;" horiz-adv-x="1140" d="M61 410q0 97 38 181t101.5 140.5t140 93t159.5 49.5l10 211h205l41 -389h-74q-88 0 -156.5 -25.5t-107.5 -67.5t-58.5 -91t-19.5 -102q0 -105 69 -160t181 -55q138 0 237 161l195 -145q-40 -60 -77.5 -102.5t-91.5 -81.5t-125 -58.5t-159 -19.5q-105 0 -196 29.5t-161 86 t-110.5 145.5t-40.5 200zM442 1331q0 68 50 116t120 48t120 -48t50 -116t-50 -116t-120 -48t-120 48t-50 116z" />
<glyph unicode="&#xc0;" horiz-adv-x="1515" d="M-10 0l768 1536l768 -1536h-307l-164 348h-594l-164 -348h-307zM338 1935l246 82l307 -327l-184 -62zM575 594h365l-182 387z" />
<glyph unicode="&#xc1;" horiz-adv-x="1515" d="M-10 0l768 1536l768 -1536h-307l-164 348h-594l-164 -348h-307zM575 594h365l-182 387zM625 1690l307 327l246 -82l-369 -307z" />
<glyph unicode="&#xc2;" horiz-adv-x="1515" d="M-10 0l768 1536l768 -1536h-307l-164 348h-594l-164 -348h-307zM389 1751l369 307l368 -307l-184 -143l-184 170l-185 -170zM575 594h365l-182 387z" />
<glyph unicode="&#xc3;" horiz-adv-x="1515" d="M-10 0l768 1536l768 -1536h-307l-164 348h-594l-164 -348h-307zM358 1724q17 83 76.5 136t167.5 53q23 0 46.5 -6t46.5 -17.5t39 -20.5t35 -22t24 -16q35 -20 54.5 -25.5t49.5 -5.5q33 0 75 24t70 70l136 -108q-31 -71 -102 -131t-167 -60q-42 0 -84.5 18.5t-72.5 40 t-71 40t-81 18.5q-49 0 -70.5 -26.5t-21.5 -57.5zM575 594h365l-182 387z" />
<glyph unicode="&#xc4;" horiz-adv-x="1515" d="M-10 0l768 1536l768 -1536h-307l-164 348h-594l-164 -348h-307zM317 1761q0 68 50 116t120 48t120 -48t50 -116t-50 -116t-120 -48t-120 48t-50 116zM575 594h365l-182 387zM809 1761q0 68 50 116t120 48t120 -48t50 -116t-50 -116t-120 -48t-120 48t-50 116z" />
<glyph unicode="&#xc5;" horiz-adv-x="1515" d="M-10 0l745 1493q-87 6 -138.5 61t-51.5 142q0 92 59 148.5t154 56.5t154 -56.5t59 -148.5q0 -86 -51.5 -141.5t-139.5 -61.5l746 -1493h-307l-164 348h-594l-164 -348h-307zM575 594h365l-182 387zM668 1696q0 -49 24.5 -73t65.5 -24t65.5 24t24.5 73t-25 73.5t-65 24.5 t-65 -24.5t-25 -73.5z" />
<glyph unicode="&#xc6;" horiz-adv-x="2170" d="M41 0l819 1434h1168v-256h-646v-277h605v-246h-605v-399h646v-256h-932v338h-527l-190 -338h-338zM715 594h381v672z" />
<glyph unicode="&#xc7;" horiz-adv-x="1423" d="M51 717q0 226 101 404t281 276t407 98q150 0 260 -40t200 -118v-340q-71 101 -192.5 164.5t-267.5 63.5q-131 0 -242 -63t-178.5 -180.5t-67.5 -264.5t67.5 -264.5t178.5 -180.5t242 -63q146 0 267.5 63.5t192.5 163.5v-340q-153 -134 -374 -153l-74 -154 q56 -3 97.5 -47.5t41.5 -124.5q0 -60 -21.5 -103t-59.5 -66t-82 -33.5t-97 -10.5q-119 0 -203 84l86 117q32 -27 56 -38t61 -11q41 0 61.5 18t20.5 43q0 24 -20 38.5t-62 14.5q-108 0 -162 -32q-1 -1 -3 -1.5t-3 -1.5l142 314q-293 43 -473.5 252.5t-180.5 515.5z" />
<glyph unicode="&#xc8;" horiz-adv-x="1187" d="M133 0v1434h932v-256h-645v-318h604v-246h-604v-358h645v-256h-932zM174 1884l246 82l307 -328l-184 -61z" />
<glyph unicode="&#xc9;" horiz-adv-x="1187" d="M133 0v1434h932v-256h-645v-318h604v-246h-604v-358h645v-256h-932zM461 1638l307 328l246 -82l-369 -307z" />
<glyph unicode="&#xca;" horiz-adv-x="1187" d="M133 0v1434h932v-256h-645v-318h604v-246h-604v-358h645v-256h-932zM225 1700l369 307l369 -307l-185 -144l-184 170l-184 -170z" />
<glyph unicode="&#xcb;" horiz-adv-x="1187" d="M133 0v1434h932v-256h-645v-318h604v-246h-604v-358h645v-256h-932zM154 1710q0 68 50 116t120 48t120 -48t50 -116t-50 -116t-120 -48t-120 48t-50 116zM645 1710q0 68 50 116t120 48t120 -48t50 -116t-50 -116t-120 -48t-120 48t-50 116z" />
<glyph unicode="&#xcc;" horiz-adv-x="552" d="M-201 1884l246 82l307 -328l-184 -61zM133 0v1434h287v-1434h-287z" />
<glyph unicode="&#xcd;" horiz-adv-x="552" d="M86 1638l307 328l246 -82l-369 -307zM133 0v1434h287v-1434h-287z" />
<glyph unicode="&#xce;" horiz-adv-x="552" d="M-147 1700l368 307l369 -307l-184 -144l-185 170l-184 -170zM133 0v1434h287v-1434h-287z" />
<glyph unicode="&#xcf;" horiz-adv-x="552" d="M-221 1710q0 67 50.5 115.5t121.5 48.5q70 0 119 -48t49 -116t-49 -116t-119 -48q-71 0 -121.5 48.5t-50.5 115.5zM133 0v1434h287v-1434h-287zM270 1710q0 67 50.5 115.5t121.5 48.5q70 0 119 -48t49 -116t-49 -116t-119 -48q-71 0 -121.5 48.5t-50.5 115.5z" />
<glyph unicode="&#xd0;" horiz-adv-x="1484" d="M31 594v235h102v605h543q347 0 552.5 -191.5t205.5 -525.5t-205.5 -525.5t-552.5 -191.5h-543v594h-102zM420 256h256q219 0 345 116.5t126 344.5t-126 344.5t-345 116.5h-256v-349h225v-235h-225v-338z" />
<glyph unicode="&#xd1;" horiz-adv-x="1587" d="M133 0v1505l1034 -938v867h287v-1506l-1034 938v-866h-287zM420 1724q17 83 76.5 136t167.5 53q28 0 60.5 -11t50.5 -21t48 -30t31 -20q35 -20 54.5 -25.5t49.5 -5.5q34 0 76 24t70 70l135 -108q-31 -72 -101.5 -131.5t-166.5 -59.5q-42 0 -84.5 18.5t-72.5 40t-71 40 t-81 18.5q-49 0 -71 -26.5t-22 -57.5z" />
<glyph unicode="&#xd2;" horiz-adv-x="1699" d="M51 717q0 168 65 314.5t174 247.5t255 158.5t305 57.5q163 0 309.5 -57.5t254.5 -158.5t171.5 -247.5t63.5 -314.5q0 -169 -62 -314.5t-169 -247t-254 -159t-314 -57.5t-314 57.5t-254 159t-169 247t-62 314.5zM344 717q0 -153 67.5 -271.5t182.5 -181.5t256 -63t256 63 t182.5 181.5t67.5 271.5q0 232 -142 374t-364 142q-141 0 -256 -63t-182.5 -181.5t-67.5 -271.5zM461 1905l246 82l307 -328l-185 -62z" />
<glyph unicode="&#xd3;" horiz-adv-x="1699" d="M51 717q0 168 65 314.5t174 247.5t255 158.5t305 57.5q163 0 309.5 -57.5t254.5 -158.5t171.5 -247.5t63.5 -314.5q0 -169 -62 -314.5t-169 -247t-254 -159t-314 -57.5t-314 57.5t-254 159t-169 247t-62 314.5zM344 717q0 -153 67.5 -271.5t182.5 -181.5t256 -63t256 63 t182.5 181.5t67.5 271.5q0 232 -142 374t-364 142q-141 0 -256 -63t-182.5 -181.5t-67.5 -271.5zM686 1659l307 328l246 -82l-369 -308z" />
<glyph unicode="&#xd4;" horiz-adv-x="1699" d="M51 717q0 168 65 314.5t174 247.5t255 158.5t305 57.5q163 0 309.5 -57.5t254.5 -158.5t171.5 -247.5t63.5 -314.5q0 -169 -62 -314.5t-169 -247t-254 -159t-314 -57.5t-314 57.5t-254 159t-169 247t-62 314.5zM344 717q0 -153 67.5 -271.5t182.5 -181.5t256 -63t256 63 t182.5 181.5t67.5 271.5q0 232 -142 374t-364 142q-141 0 -256 -63t-182.5 -181.5t-67.5 -271.5zM481 1720l369 308l369 -308l-185 -143l-184 170l-184 -170z" />
<glyph unicode="&#xd5;" horiz-adv-x="1699" d="M51 717q0 168 65 314.5t174 247.5t255 158.5t305 57.5q163 0 309.5 -57.5t254.5 -158.5t171.5 -247.5t63.5 -314.5q0 -169 -62 -314.5t-169 -247t-254 -159t-314 -57.5t-314 57.5t-254 159t-169 247t-62 314.5zM344 717q0 -153 67.5 -271.5t182.5 -181.5t256 -63t256 63 t182.5 181.5t67.5 271.5q0 232 -142 374t-364 142q-141 0 -256 -63t-182.5 -181.5t-67.5 -271.5zM451 1706q17 83 76 135.5t167 52.5q23 0 46.5 -6t46.5 -17.5t39 -20.5t35 -22t24 -16q34 -20 53.5 -25t50.5 -5q34 0 76 24t70 70l135 -109q-19 -43 -52 -83.5t-91.5 -73.5 t-125.5 -33q-42 0 -84.5 18.5t-72.5 40t-71 40t-81 18.5q-49 0 -70.5 -26.5t-21.5 -57.5z" />
<glyph unicode="&#xd6;" horiz-adv-x="1699" d="M51 717q0 168 65 314.5t174 247.5t255 158.5t305 57.5q163 0 309.5 -57.5t254.5 -158.5t171.5 -247.5t63.5 -314.5q0 -169 -62 -314.5t-169 -247t-254 -159t-314 -57.5t-314 57.5t-254 159t-169 247t-62 314.5zM344 717q0 -153 67.5 -271.5t182.5 -181.5t256 -63t256 63 t182.5 181.5t67.5 271.5q0 232 -142 374t-364 142q-141 0 -256 -63t-182.5 -181.5t-67.5 -271.5zM434 1751q0 68 50 116t120 48t120 -48t50 -116t-50 -116t-120 -48t-120 48t-50 116zM926 1751q0 68 50 116t120 48t120 -48t50 -116t-50 -116t-120 -48t-120 48t-50 116z" />
<glyph unicode="&#xd7;" horiz-adv-x="1220" d="M92 201l330 321l-330 322l197 196l321 -329l322 329l196 -196l-329 -322l329 -321l-196 -197l-322 330l-321 -330z" />
<glyph unicode="&#xd8;" horiz-adv-x="1699" d="M51 717q0 168 65 314.5t174 247.5t255 158.5t305 57.5q253 0 459 -135l63 74h342l-219 -248q154 -204 154 -469q0 -169 -62 -314.5t-169 -247t-254 -159t-314 -57.5q-207 0 -377 84l-20 -23h-340l151 172q-101 103 -157 243t-56 302zM344 717q0 -197 107 -332l679 772 q-121 76 -280 76q-141 0 -256 -63t-182.5 -181.5t-67.5 -271.5zM659 233q82 -32 191 -32q141 0 256 63t182.5 181.5t67.5 271.5q0 141 -53 250z" />
<glyph unicode="&#xd9;" horiz-adv-x="1343" d="M123 471v963h287v-963q0 -124 65 -200t197 -76t197 76t65 200v963h287v-963q0 -133 -43.5 -237t-120 -167.5t-174 -95.5t-211.5 -32t-211.5 32t-174 95.5t-120 167.5t-43.5 237zM252 1884l246 82l307 -328l-184 -61z" />
<glyph unicode="&#xda;" horiz-adv-x="1343" d="M123 471v963h287v-963q0 -124 65 -200t197 -76t197 76t65 200v963h287v-963q0 -133 -43.5 -237t-120 -167.5t-174 -95.5t-211.5 -32t-211.5 32t-174 95.5t-120 167.5t-43.5 237zM539 1638l307 328l246 -82l-369 -307z" />
<glyph unicode="&#xdb;" horiz-adv-x="1343" d="M123 471v963h287v-963q0 -124 65 -200t197 -76t197 76t65 200v963h287v-963q0 -133 -43.5 -237t-120 -167.5t-174 -95.5t-211.5 -32t-211.5 32t-174 95.5t-120 167.5t-43.5 237zM303 1700l369 307l368 -307l-184 -144l-184 170l-185 -170z" />
<glyph unicode="&#xdc;" horiz-adv-x="1343" d="M123 471v963h287v-963q0 -124 65 -200t197 -76t197 76t65 200v963h287v-963q0 -133 -43.5 -237t-120 -167.5t-174 -95.5t-211.5 -32t-211.5 32t-174 95.5t-120 167.5t-43.5 237zM231 1710q0 68 50 116t120 48t120 -48t50 -116t-50 -116t-120 -48t-120 48t-50 116z M723 1710q0 68 50 116t120 48t120 -48t50 -116t-50 -116t-120 -48t-120 48t-50 116z" />
<glyph unicode="&#xdd;" horiz-adv-x="1177" d="M-41 1434h297l326 -582l340 582h297l-496 -811v-623h-277v606zM434 1638l307 328l246 -82l-369 -307z" />
<glyph unicode="&#xde;" horiz-adv-x="1310" d="M164 0v1434h287v-236h215q261 0 410 -121.5t149 -359.5t-149 -359.5t-410 -121.5h-215v-236h-287zM451 492h215q128 0 200 56t72 169t-72 169t-200 56h-215v-450z" />
<glyph unicode="&#xdf;" horiz-adv-x="1239" d="M123 0v1241q0 192 130.5 294.5t344.5 102.5q243 0 370.5 -110.5t127.5 -286.5q0 -117 -58 -203t-170 -133q145 -59 227.5 -172.5t82.5 -271.5q0 -95 -31 -174.5t-85.5 -135.5t-129 -95t-161.5 -57.5t-183 -18.5v256q52 0 93.5 6.5t79.5 24.5t63 47.5t40 77t15 110.5 q0 266 -332 266v276q65 0 114.5 11.5t78 29t47 42t24.5 47t6 47.5q0 73 -57 117t-162 44q-94 0 -146.5 -36t-52.5 -105v-1241h-276z" />
<glyph unicode="&#xe0;" horiz-adv-x="1095" d="M31 266q0 69 25 125t63.5 91t89 59t98.5 33.5t94 9.5q180 0 295 -60v94q0 67 -54 106.5t-134 39.5q-91 0 -179.5 -30.5t-131.5 -61.5l-80 196q65 48 170.5 86.5t220.5 38.5q211 0 338 -83.5t127 -233.5v-676h-277v121q-37 -76 -113 -119t-177 -43q-175 0 -275 84 t-100 223zM109 1393l245 82l308 -328l-185 -62zM309 295q0 -51 43.5 -80t114.5 -29q101 0 165 44t64 139v6q-82 31 -184 31q-90 0 -146.5 -27t-56.5 -84z" />
<glyph unicode="&#xe1;" horiz-adv-x="1095" d="M31 266q0 69 25 125t63.5 91t89 59t98.5 33.5t94 9.5q180 0 295 -60v94q0 67 -54 106.5t-134 39.5q-91 0 -179.5 -30.5t-131.5 -61.5l-80 196q65 48 170.5 86.5t220.5 38.5q211 0 338 -83.5t127 -233.5v-676h-277v121q-37 -76 -113 -119t-177 -43q-175 0 -275 84 t-100 223zM309 295q0 -51 43.5 -80t114.5 -29q101 0 165 44t64 139v6q-82 31 -184 31q-90 0 -146.5 -27t-56.5 -84zM395 1147l307 328l246 -82l-368 -308z" />
<glyph unicode="&#xe2;" horiz-adv-x="1095" d="M31 266q0 69 25 125t63.5 91t89 59t98.5 33.5t94 9.5q180 0 295 -60v94q0 67 -54 106.5t-134 39.5q-91 0 -179.5 -30.5t-131.5 -61.5l-80 196q65 48 170.5 86.5t220.5 38.5q211 0 338 -83.5t127 -233.5v-676h-277v121q-37 -76 -113 -119t-177 -43q-175 0 -275 84 t-100 223zM160 1208l368 308l369 -308l-184 -143l-185 170l-184 -170zM309 295q0 -51 43.5 -80t114.5 -29q101 0 165 44t64 139v6q-82 31 -184 31q-90 0 -146.5 -27t-56.5 -84z" />
<glyph unicode="&#xe3;" horiz-adv-x="1095" d="M31 266q0 69 25 125t63.5 91t89 59t98.5 33.5t94 9.5q180 0 295 -60v94q0 67 -54 106.5t-134 39.5q-91 0 -179.5 -30.5t-131.5 -61.5l-80 196q65 48 170.5 86.5t220.5 38.5q211 0 338 -83.5t127 -233.5v-676h-277v121q-37 -76 -113 -119t-177 -43q-175 0 -275 84 t-100 223zM129 1182q17 83 76.5 135.5t167.5 52.5q28 0 60.5 -11t50.5 -21t48 -30t31 -20q34 -20 54 -25.5t51 -5.5q33 0 75 24.5t70 70.5l135 -109q-31 -71 -101.5 -130.5t-166.5 -59.5q-42 0 -84.5 18t-72.5 40t-71 40t-81 18q-49 0 -70.5 -26.5t-21.5 -57.5zM309 295 q0 -51 43.5 -80t114.5 -29q101 0 165 44t64 139v6q-82 31 -184 31q-90 0 -146.5 -27t-56.5 -84z" />
<glyph unicode="&#xe4;" horiz-adv-x="1095" d="M31 266q0 69 25 125t63.5 91t89 59t98.5 33.5t94 9.5q180 0 295 -60v94q0 67 -54 106.5t-134 39.5q-91 0 -179.5 -30.5t-131.5 -61.5l-80 196q65 48 170.5 86.5t220.5 38.5q211 0 338 -83.5t127 -233.5v-676h-277v121q-37 -76 -113 -119t-177 -43q-175 0 -275 84 t-100 223zM88 1219q0 68 50 115.5t120 47.5t120 -47.5t50 -115.5t-50 -116t-120 -48t-120 48t-50 116zM309 295q0 -51 43.5 -80t114.5 -29q101 0 165 44t64 139v6q-82 31 -184 31q-90 0 -146.5 -27t-56.5 -84zM580 1219q0 68 50 115.5t120 47.5t120 -47.5t50 -115.5 t-50 -116t-120 -48t-120 48t-50 116z" />
<glyph unicode="&#xe5;" horiz-adv-x="1095" d="M31 266q0 69 25 125t63.5 91t89 59t98.5 33.5t94 9.5q180 0 295 -60v94q0 67 -54 106.5t-134 39.5q-91 0 -179.5 -30.5t-131.5 -61.5l-80 196q65 48 170.5 86.5t220.5 38.5q211 0 338 -83.5t127 -233.5v-676h-277v121q-37 -76 -113 -119t-177 -43q-175 0 -275 84 t-100 223zM309 295q0 -51 43.5 -80t114.5 -29q101 0 165 44t64 139v6q-82 31 -184 31q-90 0 -146.5 -27t-56.5 -84zM315 1290q0 92 59 148.5t154 56.5t154 -56.5t59 -148.5t-59 -148.5t-154 -56.5t-154 56.5t-59 148.5zM438 1290q0 -49 25 -73.5t65 -24.5t65 24.5t25 73.5 t-25 74t-65 25t-65 -25t-25 -74z" />
<glyph unicode="&#xe6;" horiz-adv-x="1792" d="M31 266q0 69 24.5 126t63.5 93t89 61t98.5 35.5t94.5 10.5q176 0 295 -66v92q0 65 -52 95t-136 30q-93 0 -182.5 -26t-128.5 -55l-80 206q65 48 170.5 86.5t220.5 38.5q293 0 362 -202q115 202 375 202q227 0 356.5 -138.5t129.5 -365.5q0 -41 -5 -90h-745 q18 -109 84 -167t160 -58q159 0 231 145l262 -59q-145 -301 -493 -301q-147 0 -258 54t-179 151q-43 -92 -152.5 -148.5t-229.5 -56.5q-175 0 -275 84t-100 223zM309 295q0 -51 43.5 -80t114.5 -29q101 0 165 44t64 139v6q-82 31 -184 31q-90 0 -146.5 -27t-56.5 -84z M987 602h449q-35 186 -211 186q-79 0 -147 -51t-91 -135z" />
<glyph unicode="&#xe7;" horiz-adv-x="1050" d="M51 471q0 231 154 376.5t405 145.5q91 0 182.5 -24t145.5 -56v-311q-33 56 -122 97.5t-185 41.5q-131 0 -211 -73t-80 -197t80 -197t211 -73q108 0 190 41t117 100v-313q-76 -57 -236 -74l-79 -166q56 -3 97.5 -47.5t41.5 -124.5q0 -60 -21.5 -103t-59.5 -66t-82 -33.5 t-97 -10.5q-119 0 -203 84l86 117q32 -27 56 -38t61 -11q41 0 61.5 18t20.5 43q0 24 -20 38.5t-62 14.5q-108 0 -162 -32q-1 -1 -3 -1.5t-3 -1.5l145 326q-197 37 -312.5 174.5t-115.5 335.5z" />
<glyph unicode="&#xe8;" horiz-adv-x="1116" d="M41 471q0 143 65 261.5t187 189.5t276 71q229 0 367.5 -140t138.5 -364q0 -51 -4 -90h-745q18 -109 83.5 -167t159.5 -58q159 0 232 145l262 -59q-145 -301 -494 -301q-164 0 -285.5 69t-182 184t-60.5 259zM150 1393l245 82l307 -328l-184 -62zM332 602h448 q-35 186 -211 186q-79 0 -146.5 -51t-90.5 -135z" />
<glyph unicode="&#xe9;" horiz-adv-x="1116" d="M41 471q0 143 65 261.5t187 189.5t276 71q229 0 367.5 -140t138.5 -364q0 -51 -4 -90h-745q18 -109 83.5 -167t159.5 -58q159 0 232 145l262 -59q-145 -301 -494 -301q-164 0 -285.5 69t-182 184t-60.5 259zM332 602h448q-35 186 -211 186q-79 0 -146.5 -51t-90.5 -135z M436 1147l307 328l246 -82l-368 -308z" />
<glyph unicode="&#xea;" horiz-adv-x="1116" d="M41 471q0 143 65 261.5t187 189.5t276 71q229 0 367.5 -140t138.5 -364q0 -51 -4 -90h-745q18 -109 83.5 -167t159.5 -58q159 0 232 145l262 -59q-145 -301 -494 -301q-164 0 -285.5 69t-182 184t-60.5 259zM201 1208l368 308l369 -308l-184 -143l-185 170l-184 -170z M332 602h448q-35 186 -211 186q-79 0 -146.5 -51t-90.5 -135z" />
<glyph unicode="&#xeb;" horiz-adv-x="1116" d="M41 471q0 143 65 261.5t187 189.5t276 71q229 0 367.5 -140t138.5 -364q0 -51 -4 -90h-745q18 -109 83.5 -167t159.5 -58q159 0 232 145l262 -59q-145 -301 -494 -301q-164 0 -285.5 69t-182 184t-60.5 259zM129 1219q0 68 50 115.5t120 47.5t120 -47.5t50 -115.5 t-50 -116t-120 -48t-120 48t-50 116zM332 602h448q-35 186 -211 186q-79 0 -146.5 -51t-90.5 -135zM621 1219q0 68 50 115.5t120 47.5t120 -47.5t50 -115.5t-50 -116t-120 -48t-120 48t-50 116z" />
<glyph unicode="&#xec;" horiz-adv-x="544" d="M-147 1393l245 82l308 -328l-185 -62zM133 0v942h279v-942h-279z" />
<glyph unicode="&#xed;" horiz-adv-x="544" d="M133 0v942h279v-942h-279zM139 1147l307 328l246 -82l-368 -308z" />
<glyph unicode="&#xee;" horiz-adv-x="544" d="M-96 1208l368 308l369 -308l-184 -143l-185 170l-184 -170zM133 0v942h279v-942h-279z" />
<glyph unicode="&#xef;" horiz-adv-x="544" d="M-168 1219q0 68 50 115.5t120 47.5t120 -47.5t50 -115.5t-50 -116t-120 -48t-120 48t-50 116zM133 0v942h279v-942h-279zM324 1219q0 68 50 115.5t120 47.5t120 -47.5t50 -115.5t-50 -116t-120 -48t-120 48t-50 116z" />
<glyph unicode="&#xf0;" horiz-adv-x="1138" d="M10 471q0 139 62.5 254t167 179.5t225.5 64.5q49 0 90 -6l-51 61h-248v236h61l-139 174h326l141 -174h225v-236h-32l159 -195q51 -64 91 -163.5t40 -194.5q0 -158 -76 -278.5t-202 -182t-281 -61.5t-281 61.5t-202 182t-76 278.5zM315 471q0 -116 65 -191t189 -75t189 75 t65 191t-65 193t-189 77t-189 -77t-65 -193z" />
<glyph unicode="&#xf1;" d="M123 0v942h276v-139q46 86 125.5 134t186.5 48q148 0 235.5 -92.5t87.5 -257.5v-635h-276v573q0 107 -36 152t-114 45q-90 0 -149.5 -50.5t-59.5 -146.5v-573h-276zM188 1182q17 83 77.5 135.5t168.5 52.5q28 0 60 -11t50.5 -21.5t47.5 -29.5t31 -20q34 -20 54.5 -25.5 t51.5 -5.5q33 0 73.5 24.5t69.5 70.5l136 -109q-31 -72 -101 -131t-166 -59q-42 0 -84.5 18t-73 40t-72 40t-81.5 18q-49 0 -69.5 -26.5t-20.5 -57.5z" />
<glyph unicode="&#xf2;" horiz-adv-x="1179" d="M41 471q0 119 45.5 218.5t121.5 165t175 102t207 36.5t207 -36.5t175 -102t121.5 -165t45.5 -218.5t-45.5 -218.5t-121.5 -165t-175 -102t-207 -36.5t-207 36.5t-175 102t-121.5 165t-45.5 218.5zM170 1393l246 82l307 -328l-184 -62zM319 471q0 -132 74 -209.5 t197 -77.5t196.5 77.5t73.5 209.5t-73.5 209.5t-196.5 77.5t-197 -77.5t-74 -209.5z" />
<glyph unicode="&#xf3;" horiz-adv-x="1179" d="M41 471q0 119 45.5 218.5t121.5 165t175 102t207 36.5t207 -36.5t175 -102t121.5 -165t45.5 -218.5t-45.5 -218.5t-121.5 -165t-175 -102t-207 -36.5t-207 36.5t-175 102t-121.5 165t-45.5 218.5zM319 471q0 -132 74 -209.5t197 -77.5t196.5 77.5t73.5 209.5t-73.5 209.5 t-196.5 77.5t-197 -77.5t-74 -209.5zM457 1147l307 328l246 -82l-369 -308z" />
<glyph unicode="&#xf4;" horiz-adv-x="1179" d="M41 471q0 119 45.5 218.5t121.5 165t175 102t207 36.5t207 -36.5t175 -102t121.5 -165t45.5 -218.5t-45.5 -218.5t-121.5 -165t-175 -102t-207 -36.5t-207 36.5t-175 102t-121.5 165t-45.5 218.5zM221 1208l369 308l368 -308l-184 -143l-184 170l-184 -170zM319 471 q0 -132 74 -209.5t197 -77.5t196.5 77.5t73.5 209.5t-73.5 209.5t-196.5 77.5t-197 -77.5t-74 -209.5z" />
<glyph unicode="&#xf5;" horiz-adv-x="1179" d="M41 471q0 119 45.5 218.5t121.5 165t175 102t207 36.5t207 -36.5t175 -102t121.5 -165t45.5 -218.5t-45.5 -218.5t-121.5 -165t-175 -102t-207 -36.5t-207 36.5t-175 102t-121.5 165t-45.5 218.5zM190 1182q17 83 76.5 135.5t167.5 52.5q23 0 46.5 -6t46.5 -17.5 t39 -20.5t35 -22t24 -16q35 -20 54.5 -25.5t49.5 -5.5q33 0 75 24.5t70 70.5l136 -109q-19 -43 -52 -83.5t-91.5 -73.5t-125.5 -33q-42 0 -84.5 18t-72.5 40t-71 40t-81 18q-49 0 -70.5 -26.5t-21.5 -57.5zM319 471q0 -132 74 -209.5t197 -77.5t196.5 77.5t73.5 209.5 t-73.5 209.5t-196.5 77.5t-197 -77.5t-74 -209.5z" />
<glyph unicode="&#xf6;" horiz-adv-x="1179" d="M41 471q0 119 45.5 218.5t121.5 165t175 102t207 36.5t207 -36.5t175 -102t121.5 -165t45.5 -218.5t-45.5 -218.5t-121.5 -165t-175 -102t-207 -36.5t-207 36.5t-175 102t-121.5 165t-45.5 218.5zM150 1219q0 68 49.5 115.5t119.5 47.5t120 -47.5t50 -115.5t-50 -116 t-120 -48t-119.5 48t-49.5 116zM319 471q0 -132 74 -209.5t197 -77.5t196.5 77.5t73.5 209.5t-73.5 209.5t-196.5 77.5t-197 -77.5t-74 -209.5zM641 1219q0 68 50 115.5t120 47.5t120 -47.5t50 -115.5t-50 -116t-120 -48t-120 48t-50 116z" />
<glyph unicode="&#xf7;" horiz-adv-x="1261" d="M133 410v235h1024v-235h-1024zM451 164q0 68 50 116t120 48t120 -48t50 -116t-50 -116t-120 -48t-120 48t-50 116zM451 922q0 68 50 115.5t120 47.5t120 -47.5t50 -115.5t-50 -116t-120 -48t-120 48t-50 116z" />
<glyph unicode="&#xf8;" horiz-adv-x="1179" d="M41 471q0 119 45.5 218.5t121.5 165t175 102t207 36.5q170 0 315 -90l35 39h225l-133 -151q107 -136 107 -320q0 -119 -45.5 -218.5t-121.5 -165t-175 -102t-207 -36.5q-135 0 -250 53l-10 -10h-226l93 106q-156 146 -156 373zM319 471q0 -102 50 -178l372 424 q-62 41 -151 41q-123 0 -197 -77.5t-74 -209.5zM508 195q46 -11 82 -11q123 0 196.5 77.5t73.5 209.5q0 61 -14 107z" />
<glyph unicode="&#xf9;" d="M123 307v635h276v-573q0 -107 36 -152t114 -45q46 0 81 9.5t65.5 32.5t46.5 67t16 108v553h276v-942h-276v139q-93 -182 -332 -182q-157 0 -230 89t-73 261zM160 1393l246 82l307 -328l-185 -62z" />
<glyph unicode="&#xfa;" d="M123 307v635h276v-573q0 -107 36 -152t114 -45q46 0 81 9.5t65.5 32.5t46.5 67t16 108v553h276v-942h-276v139q-93 -182 -332 -182q-157 0 -230 89t-73 261zM446 1147l308 328l245 -82l-368 -308z" />
<glyph unicode="&#xfb;" d="M123 307v635h276v-573q0 -107 36 -152t114 -45q46 0 81 9.5t65.5 32.5t46.5 67t16 108v553h276v-942h-276v139q-93 -182 -332 -182q-157 0 -230 89t-73 261zM209 1208l369 308l368 -308l-184 -143l-184 170l-185 -170z" />
<glyph unicode="&#xfc;" d="M123 307v635h276v-573q0 -107 36 -152t114 -45q46 0 81 9.5t65.5 32.5t46.5 67t16 108v553h276v-942h-276v139q-93 -182 -332 -182q-157 0 -230 89t-73 261zM139 1219q0 68 49 115.5t119 47.5q71 0 121.5 -48t50.5 -115t-50.5 -115.5t-121.5 -48.5q-70 0 -119 48t-49 116 zM631 1219q0 68 49 115.5t119 47.5q71 0 121.5 -48t50.5 -115t-50.5 -115.5t-121.5 -48.5q-70 0 -119 48t-49 116z" />
<glyph unicode="&#xfd;" horiz-adv-x="1064" d="M-31 942h328l246 -614l245 614h308l-615 -1393h-307l221 514zM389 1147l307 328l246 -82l-369 -308z" />
<glyph unicode="&#xfe;" horiz-adv-x="1269" d="M113 -451v2048h276v-823q56 99 145.5 154t196.5 55q98 0 183 -32t151.5 -93.5t104.5 -161t38 -225.5t-38 -225.5t-104.5 -161t-151.5 -93.5t-183 -32q-107 0 -196.5 55t-145.5 154v-619h-276zM389 471q0 -138 75.5 -202t194.5 -64q122 0 196.5 66.5t74.5 199.5 q0 122 -76.5 194t-194.5 72q-119 0 -194.5 -64t-75.5 -202z" />
<glyph unicode="&#xff;" horiz-adv-x="1064" d="M-31 942h328l246 -614l245 614h308l-615 -1393h-307l221 514zM82 1219q0 68 50 115.5t120 47.5t120 -47.5t50 -115.5t-50 -116t-120 -48t-120 48t-50 116zM573 1219q0 68 50 115.5t120 47.5t120 -47.5t50 -115.5t-50 -116t-120 -48t-120 48t-50 116z" />
<glyph unicode="&#x2c6;" horiz-adv-x="983" d="M123 1249l369 307l368 -307l-184 -143l-184 170l-185 -170z" />
<glyph unicode="&#x2dc;" horiz-adv-x="1085" d="M143 1300q17 83 76.5 136t167.5 53q23 0 46.5 -6t46.5 -17.5t39 -20.5t35 -22t24 -16q35 -20 54.5 -25.5t49.5 -5.5q33 0 75 24t70 70l136 -108q-31 -71 -102 -131t-167 -60q-42 0 -84.5 18.5t-72.5 40t-71 40t-81 18.5q-49 0 -70.5 -26.5t-21.5 -57.5z" />
<glyph unicode="&#x2000;" horiz-adv-x="1029" />
<glyph unicode="&#x2001;" horiz-adv-x="2058" />
<glyph unicode="&#x2002;" horiz-adv-x="1029" />
<glyph unicode="&#x2003;" horiz-adv-x="2058" />
<glyph unicode="&#x2004;" horiz-adv-x="686" />
<glyph unicode="&#x2005;" horiz-adv-x="514" />
<glyph unicode="&#x2006;" horiz-adv-x="343" />
<glyph unicode="&#x2007;" horiz-adv-x="343" />
<glyph unicode="&#x2008;" horiz-adv-x="257" />
<glyph unicode="&#x2009;" horiz-adv-x="411" />
<glyph unicode="&#x200a;" horiz-adv-x="114" />
<glyph unicode="&#x2010;" horiz-adv-x="430" d="M10 369v235h410v-235h-410z" />
<glyph unicode="&#x2011;" horiz-adv-x="430" d="M10 369v235h410v-235h-410z" />
<glyph unicode="&#x2012;" horiz-adv-x="430" d="M10 369v235h410v-235h-410z" />
<glyph unicode="&#x2013;" horiz-adv-x="1515" d="M143 369v235h1229v-235h-1229z" />
<glyph unicode="&#x2014;" horiz-adv-x="1822" d="M143 369v235h1536v-235h-1536z" />
<glyph unicode="&#x2018;" horiz-adv-x="604" d="M61 963l215 471h185l-103 -471h-297z" />
<glyph unicode="&#x2019;" horiz-adv-x="604" d="M143 963l103 471h297l-215 -471h-185z" />
<glyph unicode="&#x201a;" horiz-adv-x="604" d="M143 -307l103 471h297l-215 -471h-185z" />
<glyph unicode="&#x201c;" horiz-adv-x="1013" d="M61 963l215 471h185l-103 -471h-297zM471 963l215 471h184l-102 -471h-297z" />
<glyph unicode="&#x201d;" horiz-adv-x="1013" d="M143 963l103 471h297l-215 -471h-185zM553 963l102 471h297l-215 -471h-184z" />
<glyph unicode="&#x202f;" horiz-adv-x="411" />
<glyph unicode="&#x2039;" horiz-adv-x="716" d="M61 522l390 502l143 -113l-307 -381l307 -397l-143 -113z" />
<glyph unicode="&#x203a;" horiz-adv-x="716" d="M123 133l307 381l-307 397l143 113l389 -502l-389 -502z" />
<glyph unicode="&#x205f;" horiz-adv-x="514" />
<glyph unicode="&#x20ac;" horiz-adv-x="1433" d="M-51 561v152h92v4q0 32 4 90h-96v151h119q58 240 221 384.5t407 144.5q162 0 308 -84v-301q-130 127 -308 127q-131 0 -219.5 -69t-128.5 -202h627v-151h-653q-5 -73 -5 -90v-4h605v-152h-592q28 -174 121.5 -265t244.5 -91q178 0 308 127v-299q-146 -84 -308 -84 q-135 0 -248 46t-193.5 128t-132.5 193.5t-71 244.5h-102z" />
<glyph unicode="&#x25fc;" horiz-adv-x="942" d="M0 0v942h942v-942h-942z" />
</font>
</defs>
</svg>
