<?xml version="1.0" standalone="no"?>
<!DOCTYPE svg PUBLIC "-//W3C//DTD SVG 1.1//EN" "http://www.w3.org/Graphics/SVG/1.1/DTD/svg11.dtd" >
<svg xmlns="http://www.w3.org/2000/svg" xmlns:xlink="http://www.w3.org/1999/xlink" version="1.1">
<metadata></metadata>
<defs>
<font id="renner_mediummedium_italic" horiz-adv-x="1218" >
<font-face units-per-em="2048" ascent="1638" descent="-410" />
<missing-glyph horiz-adv-x="614" />
<glyph horiz-adv-x="0" />
<glyph horiz-adv-x="682" />
<glyph unicode=" "  horiz-adv-x="614" />
<glyph unicode="&#x09;" horiz-adv-x="614" />
<glyph unicode="&#xa0;" horiz-adv-x="614" />
<glyph unicode="!" horiz-adv-x="614" d="M168 82q0 56 40.5 94.5t98.5 38.5t98.5 -38.5t40.5 -94.5t-40.5 -94.5t-98.5 -38.5t-98.5 38.5t-40.5 94.5zM276 410l150 1024h266l-252 -1024h-164z" />
<glyph unicode="&#x22;" horiz-adv-x="972" d="M340 819l199 615h235l-301 -615h-133zM709 819l198 615h236l-301 -615h-133z" />
<glyph unicode="#" horiz-adv-x="1239" d="M133 0l164 389h-135l28 174h179l133 318h-213l30 174h256l158 379h195l-158 -379h236l157 379h195l-158 -379h133l-30 -174h-177l-133 -318h211l-28 -174h-254l-164 -389h-195l164 389h-235l-164 -389h-195zM563 563h236l133 318h-236z" />
<glyph unicode="$" horiz-adv-x="1181" d="M135 365l203 118q37 -143 103 -219t177 -88l62 490q-4 2 -12.5 5t-12.5 5q-46 18 -78.5 33.5t-76.5 47.5t-72 69.5t-48 97t-20 131.5q0 178 118 286.5t304 128.5l25 201h139l-24 -201q81 -9 146.5 -40t106.5 -76t66 -93.5t37 -101.5l-197 -127q-13 36 -22.5 60t-26 54.5 t-34.5 50t-44.5 37.5t-58.5 26l-53 -410q4 -1 11 -4t11 -4q314 -116 314 -393q0 -211 -123 -337t-324 -149l-26 -196h-138l25 194q-377 27 -457 404zM596 1063q0 -90 115 -154l45 348q-70 -20 -115 -74.5t-45 -119.5zM758 188q81 24 130.5 85t49.5 149q0 116 -127 186z" />
<glyph unicode="%" horiz-adv-x="1660" d="M260 1126q27 146 145.5 247.5t270.5 101.5t235.5 -101.5t57.5 -247.5q-27 -146 -145.5 -247t-270.5 -101t-235.5 101t-57.5 247zM272 0l1174 1434h194l-1173 -1434h-195zM436 1126q-14 -80 26 -137t118 -57t138.5 57t74.5 137t-26 137.5t-118 57.5t-138.5 -57.5 t-74.5 -137.5zM944 307q27 146 145.5 247t270.5 101t235.5 -101t57.5 -247q-27 -146 -145.5 -247t-270.5 -101t-235.5 101t-57.5 247zM1120 307q-14 -80 27 -137t119 -57t137.5 57t73.5 137t-26 137.5t-118 57.5t-138.5 -57.5t-74.5 -137.5z" />
<glyph unicode="&#x26;" horiz-adv-x="1382" d="M115 322q0 83 28 154t70.5 120.5t105 92.5t117 69t121.5 51q-44 74 -68 138t-24 136q0 120 63 211t163.5 137t221.5 46q92 0 160 -27.5t105.5 -74t55 -100t17.5 -114.5q0 -41 -16 -81.5t-38.5 -73t-60.5 -67t-69.5 -57.5t-78 -51t-73 -42t-67.5 -35q-1 -1 -4 -2t-4 -2 l241 -357q114 107 246 275l146 -111q-180 -221 -285 -319l162 -238h-236l-80 113q-221 -154 -438 -154q-207 0 -344 99.5t-137 263.5zM340 367q0 -96 64 -154.5t206 -58.5q150 0 318 114l-281 400q-67 -29 -114 -54.5t-95 -62.5t-73 -83.5t-25 -100.5zM688 1081 q0 -52 16 -96t52 -106q117 51 197.5 132.5t80.5 149.5q0 119 -145 119q-104 0 -152.5 -53.5t-48.5 -145.5z" />
<glyph unicode="'" horiz-adv-x="604" d="M340 819l199 615h235l-301 -615h-133z" />
<glyph unicode="(" horiz-adv-x="634" d="M268 594q97 555 414 1003h195q-285 -444 -383 -1003q-100 -569 28 -1004h-194q-159 440 -60 1004z" />
<glyph unicode=")" horiz-adv-x="634" d="M-37 -410q285 444 383 1004q99 566 -29 1003h195q158 -437 59 -1003q-98 -558 -413 -1004h-195z" />
<glyph unicode="*" horiz-adv-x="1212" d="M381 1061l98 194l248 -110l29 289h205l-74 -289l289 110l28 -194l-293 -68l148 -221l-187 -121l-108 246l-195 -246l-145 121l227 221z" />
<glyph unicode="+" horiz-adv-x="1310" d="M207 420l37 205h409l74 419h225l-73 -419h409l-37 -205h-409l-74 -420h-225l73 420h-409z" />
<glyph unicode="," horiz-adv-x="630" d="M45 -305l272 530l191 -69l-326 -512z" />
<glyph unicode="-" horiz-adv-x="430" d="M88 389l16 195h410l-16 -195h-410z" />
<glyph unicode="." horiz-adv-x="565" d="M143 82q0 56 41 94.5t99 38.5t98.5 -38.5t40.5 -94.5t-40.5 -94.5t-98.5 -38.5t-99 38.5t-41 94.5z" />
<glyph unicode="/" horiz-adv-x="1300" d="M-23 -307l1330 1741h215l-1329 -1741h-216z" />
<glyph unicode="0" horiz-adv-x="1249" d="M170 522q0 195 62 374.5t162.5 304.5t229.5 199.5t261 74.5q202 0 325 -154t123 -410q0 -195 -62.5 -374t-163 -304t-230 -199.5t-261.5 -74.5q-200 0 -323 154.5t-123 408.5zM397 535q0 -170 64.5 -270.5t171.5 -100.5q117 0 226 99.5t178 270.5t69 363 q0 178 -59.5 275.5t-178.5 97.5q-126 0 -235 -100.5t-172.5 -270t-63.5 -364.5z" />
<glyph unicode="1" horiz-adv-x="993" d="M403 1130l39 222l568 133l-262 -1485h-232l217 1227z" />
<glyph unicode="2" horiz-adv-x="1175" d="M41 0l795 686q85 73 135.5 131t81 129t30.5 152q0 79 -49 126.5t-151 47.5q-127 0 -235 -93t-134 -237h-215q39 232 207.5 383.5t402.5 151.5q101 0 180 -32t125 -86t69.5 -118t23.5 -133q0 -92 -21.5 -168.5t-66 -139t-84.5 -103t-105 -95.5l-475 -397h596l-37 -205 h-1073z" />
<glyph unicode="3" horiz-adv-x="1118" d="M162 299q0 26 8 80h217q-4 -24 -4 -37q0 -81 52 -129.5t153 -48.5q134 0 220.5 75.5t86.5 221.5q0 184 -262 184q5 33 16.5 97.5t16.5 97.5q89 0 149.5 19t94 57.5t47.5 86.5t14 115q0 72 -39 112t-119 40q-216 0 -252 -193h-207q31 176 161.5 287t313.5 111 q164 0 263.5 -88t99.5 -238q0 -317 -277 -406q197 -68 197 -272q0 -233 -152.5 -372.5t-388.5 -139.5q-187 0 -298 95.5t-111 244.5z" />
<glyph unicode="4" horiz-adv-x="1265" d="M63 246l1190 1310l-53 -307l-2 -2l-141 -807h225l-35 -194h-225l-43 -246h-207l43 246h-752zM465 440h385l92 525z" />
<glyph unicode="5" horiz-adv-x="1185" d="M86 260l203 131q33 -98 115.5 -162.5t195.5 -64.5q66 0 131 28.5t117 79t84.5 125.5t32.5 160q0 110 -61.5 165.5t-174.5 55.5q-117 0 -224.5 -35.5t-232.5 -113.5l332 805h717l-33 -195h-547l-137 -321q123 55 283 55q129 0 221 -109.5t92 -288.5q0 -116 -37 -217 t-98.5 -173t-141.5 -124t-166.5 -77t-172.5 -25q-188 0 -316.5 84.5t-181.5 216.5z" />
<glyph unicode="6" horiz-adv-x="1200" d="M158 393q0 191 184 395l576 646h274l-469 -502q56 16 129 16q148 0 253 -121.5t105 -289.5q0 -104 -35.5 -197.5t-95 -162t-136.5 -118.5t-162 -75t-169 -25q-203 0 -328.5 122t-125.5 312zM387 403q0 -111 64.5 -175t177.5 -64q146 0 251 105t105 270q0 109 -64 176 t-163 67q-147 0 -259 -107.5t-112 -271.5z" />
<glyph unicode="7" horiz-adv-x="1075" d="M186 0l760 1229h-667l34 205h1004l-887 -1434h-244z" />
<glyph unicode="8" horiz-adv-x="1118" d="M143 334q0 158 99 269t250 161q-82 36 -128.5 102.5t-46.5 159.5q0 84 28.5 158t76 126.5t109.5 90t130.5 56t137.5 18.5q172 0 277.5 -95.5t105.5 -246.5q0 -140 -75.5 -233.5t-201.5 -137.5q95 -37 151 -107.5t56 -165.5q0 -150 -80.5 -274t-204 -190t-256.5 -66 q-189 0 -308.5 100t-119.5 275zM369 365q0 -98 60 -154.5t157 -56.5q120 0 215.5 87t95.5 226q0 91 -62 150t-157 59q-123 0 -216 -89t-93 -222zM532 1008q0 -74 46 -116t131 -42q110 0 179.5 70.5t69.5 187.5q0 82 -48.5 127t-125.5 45q-109 0 -180.5 -73t-71.5 -199z" />
<glyph unicode="9" horiz-adv-x="1200" d="M242 897q0 104 35.5 197.5t95 162t136.5 118.5t162 75t169 25q203 0 328.5 -122.5t125.5 -312.5q0 -191 -184 -395l-575 -645h-275l469 502q-59 -17 -129 -17q-148 0 -253 122t-105 290zM467 895q0 -109 64 -176.5t163 -67.5q147 0 259 107.5t112 271.5 q0 111 -64.5 175.5t-177.5 64.5q-146 0 -251 -105t-105 -270z" />
<glyph unicode=":" horiz-adv-x="565" d="M143 82q0 56 41 94.5t99 38.5t98.5 -38.5t40.5 -94.5t-40.5 -94.5t-98.5 -38.5t-99 38.5t-41 94.5zM287 860q0 56 40.5 94.5t98.5 38.5t98.5 -38.5t40.5 -94.5t-40.5 -94.5t-98.5 -38.5t-98.5 38.5t-40.5 94.5z" />
<glyph unicode=";" horiz-adv-x="675" d="M45 -305l272 530l191 -69l-326 -512zM348 860q0 56 40.5 94.5t98.5 38.5t99 -38.5t41 -94.5t-41 -94.5t-99 -38.5t-98.5 38.5t-40.5 94.5z" />
<glyph unicode="&#x3c;" horiz-adv-x="1310" d="M217 471l19 113l1120 430l-37 -219l-752 -267l654 -282l-35 -205z" />
<glyph unicode="=" d="M158 236l41 194h993l-41 -194h-993zM219 604l41 195h993l-41 -195h-993z" />
<glyph unicode="&#x3e;" horiz-adv-x="1310" d="M-45 41l37 219l751 266l-653 283l35 205l969 -430l-19 -113z" />
<glyph unicode="?" horiz-adv-x="1140" d="M334 1223q102 123 215 187.5t282 64.5q182 0 294 -109.5t112 -275.5q0 -91 -34 -175.5t-90.5 -147.5t-128.5 -111t-151 -74t-155 -29l-47 -205h-178l22 359h109q190 0 311 109t121 261q0 99 -55.5 151t-163.5 52q-86 0 -170.5 -46t-147.5 -124zM369 82q0 56 40.5 94.5 t98.5 38.5t98.5 -38.5t40.5 -94.5t-40.5 -94.5t-98.5 -38.5t-98.5 38.5t-40.5 94.5z" />
<glyph unicode="@" horiz-adv-x="1576" d="M152 522q0 154 50 300.5t139.5 263t206.5 205t257 136.5t285 48q135 0 247.5 -47.5t185.5 -127t113.5 -181t40.5 -210.5q0 -115 -32 -219t-84.5 -179.5t-118.5 -132t-134.5 -84.5t-131.5 -28q-79 0 -124 47t-48 121q-57 -70 -125.5 -108.5t-135.5 -38.5 q-125 0 -196.5 83.5t-71.5 209.5q0 109 48.5 210.5t121 168.5t153.5 107t150 40q77 0 127 -42t68 -112l39 113h192l-172 -494q-19 -70 -15 -93q8 -35 50 -36q31 0 74 36.5t84 96.5t69.5 149.5t28.5 182.5q0 178 -105 291t-307 113q-145 0 -280 -60t-237.5 -163t-164 -251.5 t-61.5 -314.5q0 -189 108.5 -294t303.5 -105q153 0 248 18t200 78l82 -145q-128 -57 -179 -72q-139 -43 -351 -43q-147 0 -262 42t-188 117.5t-110.5 177.5t-37.5 226zM674 592q0 -58 31 -94.5t90 -36.5q38 0 85.5 28t89.5 73.5t70.5 110t28.5 130.5q0 65 -36.5 97t-94.5 32 q-43 0 -89 -26t-85 -69.5t-64.5 -108.5t-25.5 -136z" />
<glyph unicode="A" horiz-adv-x="1454" d="M0 0l993 1516l461 -1516h-256l-108 389h-586l-248 -389h-256zM635 594h397l-121 432z" />
<glyph unicode="B" horiz-adv-x="1173" d="M143 0l252 1434h400q187 0 293 -85t106 -239q0 -241 -262 -319q108 -35 169.5 -112.5t61.5 -195.5q0 -99 -30.5 -180t-83 -136.5t-124 -93.5t-152 -55.5t-169.5 -17.5h-461zM412 205h209q138 0 227.5 73.5t89.5 210.5q0 91 -62.5 139t-173.5 48h-208zM530 881h168 q267 0 267 215q0 133 -185 133h-190z" />
<glyph unicode="C" horiz-adv-x="1392" d="M174 584q0 188 71 355t190.5 284t279.5 184.5t334 67.5q297 0 452 -158l-47 -268q-60 98 -167.5 152t-256.5 54q-90 0 -180.5 -31t-169.5 -90t-140 -137.5t-96.5 -179.5t-35.5 -209q0 -193 117.5 -311.5t293.5 -118.5q318 0 518 207l-47 -268q-208 -158 -489 -158 q-198 0 -341.5 82.5t-214.5 222.5t-71 320z" />
<glyph unicode="D" horiz-adv-x="1413" d="M143 0l252 1434h482q289 0 452.5 -156t163.5 -430q0 -165 -45 -304.5t-123.5 -238.5t-186 -168.5t-232 -103t-261.5 -33.5h-502zM412 205h250q124 0 233.5 43t192 122.5t130.5 202t48 271.5q0 185 -109 285t-295 100h-272z" />
<glyph unicode="E" horiz-adv-x="1146" d="M143 0l252 1434h871l-35 -205h-643l-60 -348h600l-36 -205h-600l-82 -471h641l-37 -205h-871z" />
<glyph unicode="F" horiz-adv-x="1044" d="M143 0l252 1434h789l-35 -205h-559l-60 -348h537l-37 -205h-536l-119 -676h-232z" />
<glyph unicode="G" horiz-adv-x="1617" d="M174 565q0 159 50 303t137.5 253t203 190t250.5 122.5t275 41.5q213 0 359 -79t212 -229l-182 -145q-47 113 -159 180.5t-247 67.5q-183 0 -335.5 -86.5t-243.5 -244.5t-91 -355q0 -184 124.5 -302t310.5 -118q193 0 346 113t229 296h-422l37 205h666l-8 -41 q-30 -170 -102 -311.5t-180 -246t-257.5 -162.5t-325.5 -58q-291 0 -469 166t-178 440z" />
<glyph unicode="H" horiz-adv-x="1474" d="M143 0l252 1434h232l-97 -553h732l96 553h231l-252 -1434h-231l119 676h-731l-119 -676h-232z" />
<glyph unicode="I" horiz-adv-x="512" d="M143 0l252 1434h232l-252 -1434h-232z" />
<glyph unicode="J" horiz-adv-x="501" d="M-317 -338l133 193q16 -38 59 -66.5t96 -28.5t102 46t66 139l256 1489h221l-274 -1557q-29 -164 -131.5 -246t-265.5 -82q-101 0 -170.5 36.5t-91.5 76.5z" />
<glyph unicode="K" horiz-adv-x="1236" d="M143 0l252 1434h230l-107 -605l666 605h274l-739 -672l518 -762h-274l-469 690l-121 -690h-230z" />
<glyph unicode="L" horiz-adv-x="942" d="M143 0l252 1434h230l-215 -1229h559l-37 -205h-789z" />
<glyph unicode="M" horiz-adv-x="1843" d="M41 0l504 1526l463 -1170l827 1170l-33 -1526h-225l27 852l-660 -924l-381 977l-287 -905h-235z" />
<glyph unicode="N" horiz-adv-x="1607" d="M143 0l269 1526l899 -1082l174 990h231l-268 -1526l-899 1081l-174 -989h-232z" />
<glyph unicode="O" horiz-adv-x="1658" d="M176 575q0 155 51 296.5t140 250t204.5 189t249 122.5t269.5 42q139 0 258 -43t205.5 -122t135 -196.5t48.5 -259.5q0 -160 -51.5 -303t-140.5 -249.5t-205.5 -185t-249.5 -118t-269 -39.5q-188 0 -335 77.5t-228.5 218t-81.5 320.5zM410 602q0 -193 121 -312.5 t309 -119.5q128 0 249.5 53.5t212 143t146 213t55.5 256.5q0 193 -118.5 310.5t-311.5 117.5q-128 0 -248.5 -50.5t-212 -137t-147 -211t-55.5 -263.5z" />
<glyph unicode="P" horiz-adv-x="1122" d="M143 0l252 1434h441q189 0 304 -101t115 -278q0 -116 -45.5 -212.5t-122 -159t-176 -96.5t-209.5 -34h-237l-96 -553h-226zM502 758h215q136 0 222.5 75.5t86.5 213.5q0 88 -55.5 135t-149.5 47h-237z" />
<glyph unicode="Q" horiz-adv-x="1658" d="M176 575q0 155 51 296.5t140 250t204.5 189t249 122.5t269.5 42q139 0 258 -43t205.5 -122t135 -196.5t48.5 -259.5q0 -359 -246 -612l207 -242h-287l-90 104q-231 -145 -500 -145q-188 0 -335 77.5t-228.5 218t-81.5 320.5zM410 602q0 -193 121 -312.5t309 -119.5 q178 0 340 100l-295 344h286l172 -200q160 191 160 422q0 193 -118.5 310.5t-311.5 117.5q-128 0 -248.5 -50.5t-212 -137t-147 -211t-55.5 -263.5z" />
<glyph unicode="R" horiz-adv-x="1177" d="M143 0l252 1434h441q189 0 304 -101t115 -278q0 -186 -108.5 -312.5t-280.5 -169.5l291 -573h-254l-280 553h-158l-96 -553h-226zM502 758h215q136 0 222.5 75.5t86.5 213.5q0 88 -55.5 135t-149.5 47h-237z" />
<glyph unicode="S" horiz-adv-x="1181" d="M135 365l203 118q40 -154 115 -231.5t204 -77.5q121 0 201 67t80 181q0 31 -9.5 58t-21.5 47t-37.5 40t-44 32.5t-54.5 29t-55.5 24t-60.5 23.5q-46 18 -78.5 33.5t-76.5 47.5t-72 69.5t-48 97t-20 131.5q0 131 68.5 228t180 144.5t249.5 47.5q97 0 175 -28.5t126.5 -76 t77 -100t41.5 -111.5l-197 -127q-15 42 -27 71t-34 63t-47 54t-64 34t-86 14q-93 0 -160 -62.5t-67 -142.5q0 -28 9 -52t30 -44.5t41 -36t57 -33t61.5 -27.5t69.5 -28q314 -116 314 -393q0 -155 -71 -267.5t-189 -167.5t-269 -55q-116 0 -206.5 29.5t-151.5 85.5t-99 127.5 t-57 163.5z" />
<glyph unicode="T" horiz-adv-x="1003" d="M238 1229l34 205h963l-35 -205h-369l-215 -1229h-229l215 1229h-364z" />
<glyph unicode="U" horiz-adv-x="1302" d="M207 358q0 48 10 113l168 963h225l-168 -963q-6 -37 -6 -70q0 -110 59 -173.5t175 -63.5q136 0 235 86.5t123 220.5l168 963h225l-168 -963q-42 -243 -201.5 -377.5t-398.5 -134.5q-212 0 -329 104t-117 295z" />
<glyph unicode="V" horiz-adv-x="1433" d="M242 1434h241l295 -1024l652 1024h266l-994 -1516z" />
<glyph unicode="W" horiz-adv-x="2068" d="M252 1434h246l180 -985l625 1077l229 -1075l522 983h266l-862 -1526l-241 1075l-639 -1075z" />
<glyph unicode="X" horiz-adv-x="1239" d="M6 0l623 756l-312 678h248l223 -486l402 486h264l-571 -693l342 -741h-248l-252 549l-455 -549h-264z" />
<glyph unicode="Y" horiz-adv-x="1157" d="M242 1434h241l228 -611l456 611h252l-631 -836l-104 -598h-219l102 582z" />
<glyph unicode="Z" horiz-adv-x="1167" d="M31 0l938 1229h-650l35 205h1035l-938 -1229h651l-37 -205h-1034z" />
<glyph unicode="[" horiz-adv-x="634" d="M96 -440l361 2048h420l-33 -195h-209l-295 -1679h207l-31 -174h-420z" />
<glyph unicode="\" horiz-adv-x="1095" d="M283 1434h209l573 -1434h-209z" />
<glyph unicode="]" horiz-adv-x="614" d="M-262 -440l33 194h209l294 1680h-206l30 174h420l-360 -2048h-420z" />
<glyph unicode="^" horiz-adv-x="1044" d="M279 942l438 512h123l258 -512h-205l-148 315l-262 -315h-204z" />
<glyph unicode="_" horiz-adv-x="1024" d="M94 -289l41 144h1024l-41 -144h-1024z" />
<glyph unicode="`" horiz-adv-x="768" d="M360 1352l209 82l260 -328l-143 -62z" />
<glyph unicode="a" d="M133 369q0 142 48.5 260t129.5 194.5t185 118t217 41.5q104 0 179.5 -57.5t113.5 -157.5l30 174h219l-165 -942h-220l27 147q-70 -89 -167 -138.5t-200 -49.5q-185 0 -291 109t-106 301zM354 379q0 -112 67 -168.5t185 -56.5q112 0 213.5 79t130.5 218l4 28q4 40 4 66 q0 118 -69 180.5t-170 62.5q-146 0 -255.5 -117t-109.5 -292z" />
<glyph unicode="b" d="M127 0l283 1597h221l-142 -802q70 89 166 138.5t199 49.5q185 0 291 -109t106 -301q0 -142 -48.5 -260t-129.5 -194.5t-184.5 -118t-216.5 -41.5q-104 0 -180 56.5t-113 156.5l-31 -172h-221zM426 397q0 -118 69.5 -180.5t170.5 -62.5q146 0 255 117t109 292 q0 112 -67 168.5t-185 56.5q-70 0 -138.5 -31.5t-125.5 -98.5t-78 -158l-8 -45q-2 -18 -2 -58z" />
<glyph unicode="c" horiz-adv-x="1009" d="M129 381q0 173 85 312t227.5 214.5t312.5 75.5q102 0 186.5 -25.5t122.5 -74.5l-47 -271q-20 69 -97 119.5t-161 50.5q-179 0 -290.5 -104.5t-111.5 -269.5q0 -111 71.5 -179.5t201.5 -68.5q109 0 199 48.5t137 121.5l-47 -271q-111 -100 -326 -100q-218 0 -340.5 117 t-122.5 305z" />
<glyph unicode="d" d="M133 369q0 142 48.5 260t129.5 194.5t185 118t217 41.5q104 0 179.5 -57.5t113.5 -157.5l147 829h219l-282 -1597h-220l27 147q-70 -89 -167 -138.5t-200 -49.5q-185 0 -291 109t-106 301zM354 379q0 -112 67 -168.5t185 -56.5q61 0 122 25.5t113 72.5t84.5 123.5 t32.5 169.5q0 118 -69 180.5t-170 62.5q-146 0 -255.5 -117t-109.5 -292z" />
<glyph unicode="e" horiz-adv-x="1095" d="M135 379q0 173 79.5 312t213.5 215.5t295 76.5q187 0 297 -103t110 -278q0 -97 -26 -182h-748v-25q0 -115 53.5 -178t155.5 -63q93 0 183 39t149 112l170 -106q-96 -116 -219.5 -178t-296.5 -62q-201 0 -308.5 114t-107.5 306zM393 592h514q0 207 -196 207 q-96 0 -188.5 -58.5t-129.5 -148.5z" />
<glyph unicode="f" horiz-adv-x="643" d="M154 0l131 748h-113l35 194h112l62 348q30 174 116 261t248 87q87 0 138 -28.5t73 -67.5l-135 -170q-26 62 -92 62q-49 0 -86 -41t-51 -123l-57 -328h235l-35 -194h-235l-131 -748h-215z" />
<glyph unicode="g" d="M59 -61h217q0 -48 9 -84.5t31.5 -70.5t68 -52.5t111.5 -18.5q56 0 114.5 18t113 53.5t95.5 96.5t55 139l23 127q-71 -89 -167 -138.5t-200 -49.5q-185 0 -291 109t-106 301q0 142 48.5 260t129.5 194.5t185 118t217 41.5q104 0 179.5 -57.5t113.5 -157.5l30 174h215 l-161 -922q-22 -126 -81.5 -225.5t-143 -161t-181.5 -93.5t-203 -32q-216 0 -319 112.5t-103 318.5zM354 379q0 -112 67 -168.5t185 -56.5q61 0 122 25.5t113 72.5t84.5 123.5t32.5 169.5q0 118 -69 180.5t-170 62.5q-146 0 -255.5 -117t-109.5 -292z" />
<glyph unicode="h" horiz-adv-x="1105" d="M129 0l283 1597h219l-139 -792q69 80 155 129t156 49q169 0 245 -92q51 -62 51 -174q0 -55 -12 -123l-104 -594h-219l100 573q7 41 7 75q0 58 -22 90q-35 50 -122 50q-92 0 -170.5 -52.5t-103.5 -141.5l-105 -594h-219z" />
<glyph unicode="i" horiz-adv-x="462" d="M123 0l166 942h221l-166 -942h-221zM324 1311q0 56 40.5 94.5t98.5 38.5t98.5 -38.5t40.5 -94.5t-40.5 -94.5t-98.5 -38.5t-98.5 38.5t-40.5 94.5z" />
<glyph unicode="j" horiz-adv-x="462" d="M-260 -395l135 170q26 -62 92 -62q48 0 83.5 40.5t49.5 123.5l189 1065h217l-191 -1085q-30 -174 -116 -261.5t-248 -87.5q-87 0 -138 29t-73 68zM324 1311q0 56 40.5 94.5t98.5 38.5t98.5 -38.5t40.5 -94.5t-40.5 -94.5t-98.5 -38.5t-98.5 38.5t-40.5 94.5z" />
<glyph unicode="k" horiz-adv-x="993" d="M133 0l283 1597h221l-172 -966l366 311h297l-456 -389l332 -553h-267l-295 494l-88 -494h-221z" />
<glyph unicode="l" horiz-adv-x="481" d="M131 0l283 1597h219l-283 -1597h-219z" />
<glyph unicode="m" horiz-adv-x="1658" d="M133 0l166 942h215l-20 -117q61 73 137.5 115.5t150.5 42.5q108 0 175.5 -48t89.5 -138q64 85 151.5 135.5t177.5 50.5q162 1 232 -93q48 -64 47 -170q0 -49 -10 -106l-109 -614h-215l100 573q8 43 8 77q0 138 -129 138q-98 0 -165 -56.5t-88 -143.5l-105 -588h-215 l100 573q8 43 8 77q0 138 -128 138q-97 0 -165 -57t-89 -141l-105 -590h-215z" />
<glyph unicode="n" horiz-adv-x="1105" d="M129 0l166 942h219l-25 -137q69 79 156 128.5t158 49.5q169 0 245 -92q51 -62 51 -174q0 -55 -12 -123l-104 -594h-219l100 573q7 41 7 75q0 58 -22 90q-35 50 -122 50q-93 0 -172.5 -54t-101.5 -144l-105 -590h-219z" />
<glyph unicode="o" horiz-adv-x="1159" d="M137 393q0 107 34.5 202.5t93 165t134.5 120.5t162 76.5t172 25.5q216 0 336.5 -120.5t120.5 -313.5q0 -170 -81.5 -306t-218 -210t-298.5 -74q-88 0 -169.5 30.5t-145 85t-102 137.5t-38.5 181zM356 403q0 -113 68 -181t182 -68q146 0 255.5 109t109.5 274 q0 113 -68.5 182t-183.5 69q-70 0 -136 -28.5t-116 -78.5t-80.5 -122.5t-30.5 -155.5z" />
<glyph unicode="p" d="M49 -451l246 1393h219l-27 -147q70 89 167 138.5t200 49.5q185 0 291 -109t106 -301q0 -142 -48.5 -260t-129.5 -194.5t-184.5 -118t-216.5 -41.5q-104 0 -179.5 57.5t-113.5 157.5l-111 -625h-219zM426 397q0 -118 69.5 -180.5t170.5 -62.5q146 0 255 117t109 292 q0 112 -67 168.5t-185 56.5q-62 0 -123.5 -27t-113 -75t-83.5 -124t-32 -165z" />
<glyph unicode="q" d="M133 369q0 142 48.5 260t129.5 194.5t185 118t217 41.5q104 0 180 -56.5t113 -156.5l30 172h221l-245 -1393h-221l104 598q-70 -89 -166 -138.5t-199 -49.5q-185 0 -291 109t-106 301zM354 379q0 -112 67 -168.5t185 -56.5q110 0 211 78t131 214l6 37q4 40 4 62 q0 118 -69 180.5t-170 62.5q-146 0 -255.5 -117t-109.5 -292z" />
<glyph unicode="r" horiz-adv-x="753" d="M127 0l166 942h231l-18 -102q52 66 110.5 104.5t104.5 38.5q52 0 103 -17.5t81 -47.5l-121 -177q-56 47 -129 47q-150 0 -192 -190l-105 -598h-231z" />
<glyph unicode="s" horiz-adv-x="886" d="M96 252l189 78q3 -82 59 -129t133 -47q76 0 120 29.5t44 86.5q0 90 -168 148q-50 16 -88 35.5t-78 50.5t-62 78.5t-22 107.5q0 90 55 158.5t137 101.5t175 33q125 0 227.5 -62.5t116.5 -142.5l-186 -84q-25 45 -69 74t-99 29q-54 0 -96 -24.5t-42 -67.5q0 -34 45 -64 t138 -68q40 -16 69 -30.5t63 -39.5t56 -54t36.5 -72t14.5 -94q0 -109 -53.5 -184t-139.5 -107.5t-198 -32.5q-170 0 -272.5 86t-104.5 207z" />
<glyph unicode="t" horiz-adv-x="522" d="M131 748l35 194h149l58 328h223l-57 -328h149l-35 -194h-149l-131 -748h-223l131 748h-150z" />
<glyph unicode="u" horiz-adv-x="1105" d="M184 348l105 594h219l-100 -573q-7 -41 -8 -75q0 -58 23 -90q35 -50 122 -50q93 0 172.5 54t101.5 144l105 590h219l-166 -942h-219l24 137q-69 -79 -155.5 -128.5t-157.5 -49.5q-297 0 -297 271q0 54 12 118z" />
<glyph unicode="v" horiz-adv-x="942" d="M156 942h229l139 -592l348 592h246l-663 -1034z" />
<glyph unicode="w" horiz-adv-x="1423" d="M156 942h219l114 -575l400 667l168 -672l321 580h221l-602 -1034l-182 657l-412 -657z" />
<glyph unicode="x" horiz-adv-x="962" d="M-14 0l458 489l-266 453h242l172 -295l276 295h254l-432 -461l281 -481h-242l-188 322l-301 -322h-254z" />
<glyph unicode="y" horiz-adv-x="983" d="M59 -451l310 512l-224 881h238l149 -672l388 672h249l-860 -1393h-250z" />
<glyph unicode="z" horiz-adv-x="952" d="M20 0l670 748h-477l35 194h860l-670 -747h477l-34 -195h-861z" />
<glyph unicode="{" horiz-adv-x="708" d="M219 492l37 204q136 41 168 226h2l68 389q12 72 44 129.5t72 90t80 49.5t76 17h164l-33 -184h-72q-44 0 -76 -30t-40 -72l-56 -307q-22 -124 -77.5 -239t-143.5 -171q47 -39 70 -112t21 -148t-13 -150l-55 -307q-8 -41 15 -71.5t67 -30.5h71l-33 -185h-163 q-36 0 -70 16.5t-63 51t-39.5 89t0.5 130.5l69 389q32 183 -90 226z" />
<glyph unicode="|" horiz-adv-x="612" d="M125 -440l360 2048h207l-360 -2048h-207z" />
<glyph unicode="}" horiz-adv-x="657" d="M-170 -410l33 185h71q44 0 76.5 30t40.5 72l55 307q22 124 78 239t144 171q-47 39 -70 112t-21 148t13 150l55 307q8 41 -15 71.5t-67 30.5h-71l32 184h164q36 0 70 -16t63 -50.5t39.5 -89t-0.5 -130.5l-69 -389q-32 -183 90 -226l-37 -204q-136 -41 -168 -226h-2 l-68 -389q-12 -72 -44 -129.5t-72 -90.5t-80 -50t-76 -17h-164z" />
<glyph unicode="~" horiz-adv-x="1177" d="M184 371q-3 24 2 49q7 37 29 83.5t53 80.5q97 106 250 106q123 0 244 -108q6 -6 18 -16t16 -14t12.5 -11t12.5 -9.5t11 -6.5t11.5 -5.5t11 -2.5t13.5 -1q55 0 85 41t18 105l200 -11q4 -29 -2 -57q-21 -110 -73 -166q-49 -51 -103.5 -73.5t-126.5 -22.5q-103 0 -227 108 q-44 39 -70.5 53.5t-62.5 14.5q-53 0 -87.5 -27.5t-43.5 -74.5q-4 -29 0 -46z" />
<glyph unicode="&#xa1;" horiz-adv-x="614" d="M-78 -502l252 1024h164l-150 -1024h-266zM168 850q0 56 40.5 94.5t98.5 38.5t98.5 -38.5t40.5 -94.5t-40.5 -94.5t-98.5 -38.5t-98.5 38.5t-40.5 94.5z" />
<glyph unicode="&#xa2;" horiz-adv-x="1009" d="M129 381q0 241 157 407t392 191l45 205h178l-45 -207q148 -20 207 -94l-47 -271q-17 57 -75.5 103t-129.5 61l-135 -614q93 10 170 57t119 111l-47 -271q-104 -90 -285 -100l-43 -188h-178l45 202q-156 35 -242 144t-86 264zM356 408q0 -79 37.5 -139t108.5 -87l129 584 q-127 -34 -201 -129.5t-74 -228.5z" />
<glyph unicode="&#xa3;" horiz-adv-x="1097" d="M72 0q130 114 200.5 187.5t118.5 154t64 168.5q4 18 4 53h-283l35 195h176q-14 28 -23 48.5t-19.5 52t-14.5 59.5t-3.5 65.5t7.5 77.5q35 195 180 304.5t354 109.5q71 0 129.5 -19t97.5 -51t68 -74t41.5 -89.5t18.5 -97t-2 -95.5l-207 -68q34 281 -193 281 q-97 0 -167.5 -50t-88.5 -147q-6 -34 -5.5 -66.5t3.5 -55.5t13.5 -52t17.5 -45t22 -45.5t21 -42.5h311l-35 -195h-241q0 -6 -4 -22q-18 -95 -74.5 -183t-134.5 -153h577l-37 -205h-927z" />
<glyph unicode="&#xa4;" horiz-adv-x="1198" d="M100 219l127 109q-38 73 -45.5 155.5t12.5 157.5t54.5 141t81.5 119l-90 109l166 143l92 -113q149 86 299 86q154 0 270 -86l131 113l117 -143l-129 -109q38 -73 45.5 -155.5t-12.5 -157.5t-54.5 -141t-81.5 -119l93 -109l-166 -143l-95 112q-144 -86 -299 -86 q-148 0 -268 86l-131 -112zM406 614q-24 -135 43 -226t202 -91t234 91t123 226t-43.5 226.5t-202.5 91.5t-233.5 -91.5t-122.5 -226.5z" />
<glyph unicode="&#xa5;" d="M127 236l41 194h403l27 152l-8 22h-402l41 195h285l-242 635h242l227 -611l457 611h252l-479 -635h252l-41 -195h-359l-4 -6l-28 -168h370l-41 -194h-364l-41 -236h-219l41 236h-410z" />
<glyph unicode="&#xa6;" horiz-adv-x="612" d="M207 10l90 512h203l-90 -512h-203zM365 911l92 512h202l-92 -512h-202z" />
<glyph unicode="&#xa7;" horiz-adv-x="835" d="M84 240l170 90q3 -84 62.5 -130t150.5 -46q146 0 162 98q6 33 -0.5 57t-31 43t-42.5 28.5t-62 27.5q-19 8 -28 12q-24 10 -37.5 16t-36.5 17t-37 20t-34 22.5t-32 27t-26 30.5t-21 36t-12.5 41.5t-5 49t5.5 55.5q13 81 71.5 138t154.5 85q-167 101 -142 248 q20 118 124.5 193.5t248.5 75.5q133 0 210.5 -59.5t92.5 -145.5l-170 -105q-39 113 -166 113q-60 0 -94.5 -19.5t-40.5 -52.5q-8 -50 41 -90.5t137 -79.5q262 -115 232 -278q-31 -182 -215 -240q73 -42 109 -101.5t20 -150.5q-28 -158 -141.5 -232.5t-278.5 -74.5 q-132 0 -234.5 83.5t-103.5 197.5zM438 756q-10 -59 32 -102t120 -79q49 21 83 69.5t42 98.5q6 34 0 58t-31 43t-42.5 28t-62.5 27q-9 4 -14 6q-60 -27 -89 -62t-38 -87z" />
<glyph unicode="&#xa8;" horiz-adv-x="962" d="M354 1352q0 56 41 94.5t99 38.5t98.5 -38.5t40.5 -94.5t-40.5 -94.5t-98.5 -38.5t-99 38.5t-41 94.5zM805 1352q0 56 40.5 94.5t98.5 38.5t98.5 -38.5t40.5 -94.5t-40.5 -94.5t-98.5 -38.5t-98.5 38.5t-40.5 94.5z" />
<glyph unicode="&#xa9;" horiz-adv-x="1638" d="M197 573q0 152 48 290.5t132.5 244.5t195 185t240 120t262.5 41q279 0 450 -168.5t171 -447.5q0 -146 -48.5 -280.5t-133.5 -238t-196 -181t-240.5 -118t-262.5 -40.5q-278 0 -448 164t-170 429zM311 575q0 -213 145.5 -353t377.5 -140q113 0 223 35.5t204 103.5 t166 159.5t113 210t41 247.5q0 227 -145 370.5t-379 143.5q-142 0 -276.5 -57t-238.5 -157t-167.5 -247.5t-63.5 -315.5zM506 637q0 151 72 274.5t191.5 191.5t260.5 68q182 0 273 -94l-29 -162q-77 125 -254 125q-91 0 -177 -50t-142 -141.5t-56 -197.5q0 -116 71.5 -187 t176.5 -71q189 0 311 125l-28 -162q-124 -94 -293 -94q-178 0 -277.5 104.5t-99.5 270.5z" />
<glyph unicode="&#xaa;" horiz-adv-x="487" d="M221 1137q0 140 86 223.5t205 83.5q104 0 145 -107l15 86h110l-82 -471h-110l12 74q-75 -94 -182 -94q-92 0 -145.5 55t-53.5 150zM332 1143q0 -57 34 -86t93 -29q65 0 120.5 55t55.5 142q0 58 -35 90.5t-86 32.5q-73 0 -127.5 -59t-54.5 -146z" />
<glyph unicode="&#xab;" horiz-adv-x="1044" d="M174 522l473 482l96 -103l-381 -387l230 -385l-113 -88zM502 522l473 482l96 -103l-381 -387l230 -385l-113 -88z" />
<glyph unicode="&#xac;" horiz-adv-x="1269" d="M324 594l41 194h1003q-10 -47 -88 -430h-195l48 236h-809z" />
<glyph unicode="&#xad;" horiz-adv-x="430" d="M88 389l16 195h410l-16 -195h-410z" />
<glyph unicode="&#xae;" horiz-adv-x="1638" d="M197 573q0 152 48 290.5t132.5 244.5t195 185t240 120t262.5 41q279 0 450 -168.5t171 -447.5q0 -146 -48.5 -280.5t-133.5 -238t-196 -181t-240.5 -118t-262.5 -40.5q-278 0 -448 164t-170 429zM311 575q0 -213 145.5 -353t377.5 -140q113 0 223 35.5t204 103.5 t166 159.5t113 210t41 247.5q0 227 -145 370.5t-379 143.5q-142 0 -276.5 -57t-238.5 -157t-167.5 -247.5t-63.5 -315.5zM610 307l152 860h264q112 0 182 -61t70 -166q0 -112 -65.5 -187.5t-168.5 -101.5l175 -344h-152l-170 332h-94l-58 -332h-135zM825 762h129 q82 0 134.5 45.5t52.5 128.5q0 53 -33 80.5t-90 27.5h-144z" />
<glyph unicode="&#xaf;" horiz-adv-x="1044" d="M381 1208l29 195h716l-28 -195h-717z" />
<glyph unicode="&#xb0;" horiz-adv-x="569" d="M238 1190q0 131 92 213t207 82q107 0 167 -60t60 -157q0 -128 -87 -211.5t-212 -83.5q-92 0 -159.5 60t-67.5 157zM348 1196q0 -57 33 -92t90 -35q73 0 127.5 55t54.5 138q0 57 -34 92t-91 35q-73 0 -126.5 -55t-53.5 -138z" />
<glyph unicode="&#xb1;" horiz-adv-x="1259" d="M158 143l28 164h994l-29 -164h-993zM254 686l29 164h411l56 317h174l-56 -317h408l-29 -164h-409l-56 -317h-174l56 317h-410z" />
<glyph unicode="&#xb2;" horiz-adv-x="708" d="M113 578l475 411q77 67 113 123t36 125q0 47 -30 75.5t-91 28.5q-76 0 -141 -55.5t-80 -142.5h-129q24 139 125.5 230t241.5 91q117 0 177 -66t60 -155q0 -55 -12.5 -100.5t-38.5 -83t-50.5 -62.5t-63.5 -57l-285 -240h358l-22 -122h-643z" />
<glyph unicode="&#xb3;" horiz-adv-x="638" d="M178 754q0 15 4 47h131q-2 -8 -2 -23q0 -49 31 -77.5t92 -28.5q80 0 132 45t52 133q0 111 -157 111l18 116q103 0 144 42.5t41 123.5q0 43 -23.5 67.5t-71.5 24.5q-132 0 -151 -114h-125q19 105 97.5 171t187.5 66q99 0 159 -52t60 -142q0 -190 -168 -244 q119 -42 119 -164q0 -140 -91 -223.5t-233 -83.5q-112 0 -179 58t-67 147z" />
<glyph unicode="&#xb4;" horiz-adv-x="768" d="M328 1106l354 328l201 -82l-412 -308z" />
<glyph unicode="&#xb5;" horiz-adv-x="1105" d="M6 -655l283 1597h219l-100 -573q-20 -114 15 -164.5t122 -50.5q93 0 172.5 54t101.5 144l105 590h219l-166 -942h-219l24 137q-69 -79 -155.5 -128.5t-157.5 -49.5q-79 0 -131 16l-113 -630h-219z" />
<glyph unicode="&#xb6;" horiz-adv-x="1224" d="M299 993q25 138 106 239.5t194 151.5t243 50h512l-332 -1885h-184l301 1711h-144l-301 -1711h-184l176 1004q-97 0 -176 29t-133 83.5t-75.5 139t-2.5 188.5z" />
<glyph unicode="&#xb7;" horiz-adv-x="614" d="M266 492q0 56 41 94.5t99 38.5t98.5 -38.5t40.5 -94.5t-40.5 -95t-98.5 -39t-99 39t-41 95z" />
<glyph unicode="&#xb8;" horiz-adv-x="716" d="M143 -389l86 78q33 -28 55.5 -38.5t59.5 -10.5q49 0 75.5 30.5t26.5 71.5q0 74 -102 74q-51 0 -96 -21l-29 -16l162 344h145l-110 -229q56 0 101.5 -41t45.5 -111q0 -95 -60 -154t-159 -59q-119 0 -201 82z" />
<glyph unicode="&#xb9;" horiz-adv-x="962" d="M459 1239l24 133l340 80l-157 -891h-140l131 735z" />
<glyph unicode="&#xba;" horiz-adv-x="569" d="M238 1149q0 131 92 213t207 82q107 0 167 -60t60 -157q0 -128 -87 -211.5t-212 -83.5q-92 0 -159.5 60t-67.5 157zM348 1155q0 -57 33 -92t90 -35q73 0 127.5 55t54.5 138q0 57 -34 92t-91 35q-73 0 -126.5 -55t-53.5 -138z" />
<glyph unicode="&#xbb;" horiz-adv-x="1044" d="M-27 143l381 387l-229 385l113 89l305 -482l-473 -481zM301 143l381 387l-229 385l112 89l305 -482l-473 -481z" />
<glyph unicode="&#xbc;" horiz-adv-x="1544" d="M201 0l1276 1434h174l-1276 -1434h-174zM209 1239l24 133l340 80l-157 -891h-140l132 735zM829 147l713 787l-31 -184h-2l-84 -486h136l-21 -117h-135l-27 -147h-125l27 147h-451zM1071 264h229l56 316z" />
<glyph unicode="&#xbd;" horiz-adv-x="1677" d="M201 0l1276 1434h174l-1276 -1434h-174zM209 1239l24 133l340 80l-157 -891h-140l132 735zM1010 4l475 412q77 67 113 123t36 125q0 47 -30 75.5t-91 28.5q-76 0 -141 -56t-80 -143h-129q24 139 125.5 230.5t241.5 91.5q117 0 177 -66t60 -155q0 -55 -12.5 -100.5 t-38.5 -83t-50.5 -62.5t-63.5 -57l-285 -240h358l-22 -123h-643z" />
<glyph unicode="&#xbe;" horiz-adv-x="1679" d="M188 754q0 7 5 47h131q-2 -8 -2 -23q0 -49 30.5 -77.5t91.5 -28.5q80 0 132.5 45t52.5 133q0 111 -158 111l18 116q103 0 144 42.5t41 123.5q0 92 -94 92q-133 0 -152 -114h-125q19 105 97.5 171t187.5 66q99 0 159 -52t60 -142q0 -190 -168 -244q119 -42 119 -164 q0 -140 -91 -223.5t-233 -83.5q-112 0 -179 58t-67 147zM338 0l1276 1434h174l-1276 -1434h-174zM967 147l712 787l-30 -184h-2l-84 -486h135l-21 -117h-135l-26 -147h-125l26 147h-450zM1208 264h230l55 316z" />
<glyph unicode="&#xbf;" horiz-adv-x="1140" d="M-96 344q0 91 34 175.5t90.5 147.5t128.5 111t151 74t155 29l47 204h178l-22 -358h-109q-190 0 -311 -109.5t-121 -261.5q0 -99 55.5 -150.5t163.5 -51.5q86 0 170.5 46t147.5 124l145 -113q-49 -59 -95 -100.5t-106 -78t-134.5 -55t-162.5 -18.5q-181 0 -293 109.5 t-112 275.5zM494 1352q0 56 40.5 94.5t98.5 38.5t98.5 -38.5t40.5 -94.5t-40.5 -94.5t-98.5 -38.5t-98.5 38.5t-40.5 94.5z" />
<glyph unicode="&#xc0;" horiz-adv-x="1454" d="M0 0l993 1516l461 -1516h-256l-108 389h-586l-248 -389h-256zM565 1935l209 82l260 -327l-143 -62zM635 594h397l-121 432z" />
<glyph unicode="&#xc1;" horiz-adv-x="1454" d="M0 0l993 1516l461 -1516h-256l-108 389h-586l-248 -389h-256zM635 594h397l-121 432zM809 1690l354 327l201 -82l-412 -307z" />
<glyph unicode="&#xc2;" horiz-adv-x="1454" d="M0 0l993 1516l461 -1516h-256l-108 389h-586l-248 -389h-256zM596 1731l401 307l295 -307l-153 -95l-164 183l-248 -197zM635 594h397l-121 432z" />
<glyph unicode="&#xc3;" horiz-adv-x="1454" d="M0 0l993 1516l461 -1516h-256l-108 389h-586l-248 -389h-256zM573 1704q30 78 102 133t154 55q13 0 25.5 -1.5t24 -4.5t21 -5.5t20 -7.5t17 -8t16 -9.5t13.5 -9t12.5 -8.5t10.5 -7q3 -2 12.5 -8.5t12.5 -8.5t11.5 -7.5t12 -7.5t11 -6t11.5 -6t10.5 -4.5t11.5 -3.5t11 -2 t11 -1q64 0 143 98l99 -88q-38 -64 -111.5 -117t-144.5 -53q-10 0 -20 1t-18 2t-18 3.5t-15.5 4t-15 6t-13 5.5t-14 7t-12.5 7t-13.5 7.5t-12.5 7.5q-9 6 -30.5 20.5t-35 22.5t-33.5 15.5t-38 7.5q-49 0 -76.5 -35t-34.5 -70zM635 594h397l-121 432z" />
<glyph unicode="&#xc4;" horiz-adv-x="1454" d="M0 0l993 1516l461 -1516h-256l-108 389h-586l-248 -389h-256zM600 1741q0 56 40.5 94.5t98.5 38.5t99 -38.5t41 -94.5t-41 -94.5t-99 -38.5t-98.5 38.5t-40.5 94.5zM635 594h397l-121 432zM1051 1741q0 56 40.5 94.5t98.5 38.5t98.5 -38.5t40.5 -94.5t-40.5 -94.5 t-98.5 -38.5t-98.5 38.5t-40.5 94.5z" />
<glyph unicode="&#xc5;" horiz-adv-x="1454" d="M0 0l979 1493q-82 11 -130 65.5t-48 137.5q0 92 59 148.5t154 56.5t154 -56.5t59 -148.5t-59 -148.5t-154 -56.5h-13l453 -1491h-256l-108 389h-586l-248 -389h-256zM635 594h397l-121 432zM905 1696q0 -53 28.5 -85t80.5 -32t80 32t28 85t-28 86t-80 33t-80.5 -33 t-28.5 -86z" />
<glyph unicode="&#xc6;" horiz-adv-x="2109" d="M41 0l1133 1434h1044l-35 -205h-647l-59 -348h604l-37 -205h-604l-82 -471h645l-37 -205h-870l67 389h-557v4l-309 -393h-256zM764 594h436l125 711z" />
<glyph unicode="&#xc7;" horiz-adv-x="1392" d="M174 584q0 188 71 355t190.5 284t279.5 184.5t334 67.5q297 0 452 -158l-47 -268q-60 98 -167.5 152t-256.5 54q-90 0 -180.5 -31t-169.5 -90t-140 -137.5t-96.5 -179.5t-35.5 -209q0 -193 117.5 -311.5t293.5 -118.5q318 0 518 207l-47 -268q-190 -143 -426 -156 l-94 -192q57 0 103.5 -41t46.5 -111q0 -94 -60.5 -153.5t-159.5 -59.5q-118 0 -202 84l88 76q33 -28 55 -38.5t59 -10.5q49 0 76 30.5t27 71.5q0 74 -103 74q-52 0 -98 -21l-29 -14l146 307q-173 16 -297.5 101.5t-186 218.5t-61.5 301z" />
<glyph unicode="&#xc8;" horiz-adv-x="1146" d="M143 0l252 1434h871l-35 -205h-643l-60 -348h600l-36 -205h-600l-82 -471h641l-37 -205h-871zM442 1884l209 82l260 -328l-143 -61z" />
<glyph unicode="&#xc9;" horiz-adv-x="1146" d="M143 0l252 1434h871l-35 -205h-643l-60 -348h600l-36 -205h-600l-82 -471h641l-37 -205h-871zM686 1638l354 328l201 -82l-412 -307z" />
<glyph unicode="&#xca;" horiz-adv-x="1146" d="M143 0l252 1434h871l-35 -205h-643l-60 -348h600l-36 -205h-600l-82 -471h641l-37 -205h-871zM473 1679l401 308l295 -308l-153 -94l-164 182l-248 -196z" />
<glyph unicode="&#xcb;" horiz-adv-x="1146" d="M143 0l252 1434h871l-35 -205h-643l-60 -348h600l-36 -205h-600l-82 -471h641l-37 -205h-871zM477 1690q0 56 40.5 94.5t98.5 38.5t99 -38.5t41 -94.5t-41 -95t-99 -39t-98.5 39t-40.5 95zM928 1690q0 56 40.5 94.5t98.5 38.5t98.5 -38.5t40.5 -94.5t-40.5 -95t-98.5 -39 t-98.5 39t-40.5 95z" />
<glyph unicode="&#xcc;" horiz-adv-x="512" d="M70 1884l209 82l258 -328l-144 -61zM143 0l252 1434h232l-252 -1434h-232z" />
<glyph unicode="&#xcd;" horiz-adv-x="512" d="M143 0l252 1434h232l-252 -1434h-232zM311 1638l357 328l200 -82l-413 -307z" />
<glyph unicode="&#xce;" horiz-adv-x="512" d="M98 1679l402 308l295 -308l-152 -94l-166 182l-248 -196zM143 0l252 1434h232l-252 -1434h-232z" />
<glyph unicode="&#xcf;" horiz-adv-x="512" d="M102 1690q0 56 41 94.5t99 38.5t98.5 -38.5t40.5 -94.5t-40.5 -95t-98.5 -39t-99 39t-41 95zM143 0l252 1434h232l-252 -1434h-232zM553 1690q0 56 40.5 94.5t98.5 38.5t98.5 -38.5t40.5 -94.5t-40.5 -95t-98.5 -39t-98.5 39t-40.5 95z" />
<glyph unicode="&#xd0;" horiz-adv-x="1413" d="M143 0l109 614h-94l24 195h103l110 625h482q289 0 452.5 -156t163.5 -430q0 -165 -45 -304.5t-123.5 -238.5t-186 -168.5t-232 -103t-261.5 -33.5h-502zM412 205h250q124 0 233.5 43t192 122.5t130.5 202t48 271.5q0 185 -109 285t-295 100h-272l-74 -420h281l-25 -195 h-289z" />
<glyph unicode="&#xd1;" horiz-adv-x="1607" d="M143 0l269 1526l899 -1082l174 990h231l-268 -1526l-899 1081l-174 -989h-232zM676 1704q30 78 102 133t154 55q13 0 25.5 -1.5t24 -4.5t21 -5.5t20 -7.5t17 -8t16 -9.5t13.5 -9t12.5 -8.5t10.5 -7q4 -2 15.5 -10t15.5 -11t14 -9t14.5 -8.5t13 -6.5t14.5 -5.5t13 -3 t14 -1.5q65 0 144 98l98 -88q-38 -64 -111.5 -117t-144.5 -53q-10 0 -20 1t-18 2t-18 3.5t-15.5 4t-15 6t-13 5.5t-14 7t-12.5 7t-13.5 7.5t-12.5 7.5q-9 6 -30.5 20.5t-35 22.5t-33.5 15.5t-38 7.5q-49 0 -76 -35t-34 -70z" />
<glyph unicode="&#xd2;" horiz-adv-x="1658" d="M176 575q0 155 51 296.5t140 250t204.5 189t249 122.5t269.5 42q139 0 258 -43t205.5 -122t135 -196.5t48.5 -259.5q0 -160 -51.5 -303t-140.5 -249.5t-205.5 -185t-249.5 -118t-269 -39.5q-188 0 -335 77.5t-228.5 218t-81.5 320.5zM410 602q0 -193 121 -312.5 t309 -119.5q128 0 249.5 53.5t212 143t146 213t55.5 256.5q0 193 -118.5 310.5t-311.5 117.5q-128 0 -248.5 -50.5t-212 -137t-147 -211t-55.5 -263.5zM698 1905l209 82l260 -328l-143 -62z" />
<glyph unicode="&#xd3;" horiz-adv-x="1658" d="M176 575q0 155 51 296.5t140 250t204.5 189t249 122.5t269.5 42q139 0 258 -43t205.5 -122t135 -196.5t48.5 -259.5q0 -160 -51.5 -303t-140.5 -249.5t-205.5 -185t-249.5 -118t-269 -39.5q-188 0 -335 77.5t-228.5 218t-81.5 320.5zM410 602q0 -193 121 -312.5 t309 -119.5q128 0 249.5 53.5t212 143t146 213t55.5 256.5q0 193 -118.5 310.5t-311.5 117.5q-128 0 -248.5 -50.5t-212 -137t-147 -211t-55.5 -263.5zM881 1659l354 328l201 -82l-412 -308z" />
<glyph unicode="&#xd4;" horiz-adv-x="1658" d="M176 575q0 155 51 296.5t140 250t204.5 189t249 122.5t269.5 42q139 0 258 -43t205.5 -122t135 -196.5t48.5 -259.5q0 -160 -51.5 -303t-140.5 -249.5t-205.5 -185t-249.5 -118t-269 -39.5q-188 0 -335 77.5t-228.5 218t-81.5 320.5zM410 602q0 -193 121 -312.5 t309 -119.5q128 0 249.5 53.5t212 143t146 213t55.5 256.5q0 193 -118.5 310.5t-311.5 117.5q-128 0 -248.5 -50.5t-212 -137t-147 -211t-55.5 -263.5zM698 1700l402 307l295 -307l-154 -94l-164 182l-248 -197z" />
<glyph unicode="&#xd5;" horiz-adv-x="1658" d="M176 575q0 155 51 296.5t140 250t204.5 189t249 122.5t269.5 42q139 0 258 -43t205.5 -122t135 -196.5t48.5 -259.5q0 -160 -51.5 -303t-140.5 -249.5t-205.5 -185t-249.5 -118t-269 -39.5q-188 0 -335 77.5t-228.5 218t-81.5 320.5zM410 602q0 -193 121 -312.5 t309 -119.5q128 0 249.5 53.5t212 143t146 213t55.5 256.5q0 193 -118.5 310.5t-311.5 117.5q-128 0 -248.5 -50.5t-212 -137t-147 -211t-55.5 -263.5zM676 1686q30 78 102 133t154 55q15 0 29 -2t25.5 -4.5t24 -8t20.5 -9t19 -10.5t15.5 -10t14.5 -10t12 -8q4 -2 15.5 -10 t15.5 -11t14 -9t14.5 -8.5t13 -6.5t14.5 -5.5t13 -3t14 -1.5q65 0 144 98l98 -88q-38 -64 -111.5 -117t-144.5 -53q-13 0 -25.5 1.5t-21.5 3t-21 6t-17.5 6t-18.5 8.5t-15.5 8.5t-17 9.5t-15.5 9q-9 5 -31 20t-35 22.5t-33 15t-38 7.5q-49 0 -76 -34.5t-34 -69.5z" />
<glyph unicode="&#xd6;" horiz-adv-x="1658" d="M176 575q0 155 51 296.5t140 250t204.5 189t249 122.5t269.5 42q139 0 258 -43t205.5 -122t135 -196.5t48.5 -259.5q0 -160 -51.5 -303t-140.5 -249.5t-205.5 -185t-249.5 -118t-269 -39.5q-188 0 -335 77.5t-228.5 218t-81.5 320.5zM410 602q0 -193 121 -312.5 t309 -119.5q128 0 249.5 53.5t212 143t146 213t55.5 256.5q0 193 -118.5 310.5t-311.5 117.5q-128 0 -248.5 -50.5t-212 -137t-147 -211t-55.5 -263.5zM727 1731q0 56 40.5 94.5t98.5 38.5t99 -38.5t41 -94.5t-41 -95t-99 -39t-98.5 39t-40.5 95zM1178 1731q0 56 40.5 94.5 t98.5 38.5t98.5 -38.5t40.5 -94.5t-40.5 -95t-98.5 -39t-98.5 39t-40.5 95z" />
<glyph unicode="&#xd7;" horiz-adv-x="1220" d="M145 180l410 342l-291 342l185 156l280 -350l404 350l127 -156l-410 -342l291 -342l-185 -155l-280 350l-404 -350z" />
<glyph unicode="&#xd8;" horiz-adv-x="1658" d="M27 0l252 221q-103 153 -103 354q0 155 51 296.5t140 250t204.5 189t249 122.5t269.5 42q270 0 448 -152l125 111h264l-276 -244q86 -144 86 -336q0 -160 -51.5 -303t-140.5 -249.5t-205.5 -185t-249.5 -118t-269 -39.5q-248 0 -422 135l-108 -94h-264zM410 602 q0 -121 53 -219l897 784q-118 97 -287 97q-128 0 -248.5 -50.5t-212 -137t-147 -211t-55.5 -263.5zM578 250q113 -80 262 -80q128 0 249.5 53.5t212 143t146 213t55.5 256.5q0 106 -39 192z" />
<glyph unicode="&#xd9;" horiz-adv-x="1302" d="M207 358q0 48 10 113l168 963h225l-168 -963q-6 -37 -6 -70q0 -110 59 -173.5t175 -63.5q136 0 235 86.5t123 220.5l168 963h225l-168 -963q-42 -243 -201.5 -377.5t-398.5 -134.5q-212 0 -329 104t-117 295zM489 1884l209 82l260 -328l-143 -61z" />
<glyph unicode="&#xda;" horiz-adv-x="1302" d="M207 358q0 48 10 113l168 963h225l-168 -963q-6 -37 -6 -70q0 -110 59 -173.5t175 -63.5q136 0 235 86.5t123 220.5l168 963h225l-168 -963q-42 -243 -201.5 -377.5t-398.5 -134.5q-212 0 -329 104t-117 295zM733 1638l354 328l201 -82l-411 -307z" />
<glyph unicode="&#xdb;" horiz-adv-x="1302" d="M207 358q0 48 10 113l168 963h225l-168 -963q-6 -37 -6 -70q0 -110 59 -173.5t175 -63.5q136 0 235 86.5t123 220.5l168 963h225l-168 -963q-42 -243 -201.5 -377.5t-398.5 -134.5q-212 0 -329 104t-117 295zM520 1679l402 308l295 -308l-154 -94l-164 182l-248 -196z " />
<glyph unicode="&#xdc;" horiz-adv-x="1302" d="M207 358q0 48 10 113l168 963h225l-168 -963q-6 -37 -6 -70q0 -110 59 -173.5t175 -63.5q136 0 235 86.5t123 220.5l168 963h225l-168 -963q-42 -243 -201.5 -377.5t-398.5 -134.5q-212 0 -329 104t-117 295zM524 1690q0 56 41 94.5t99 38.5t98.5 -38.5t40.5 -94.5 t-40.5 -95t-98.5 -39t-99 39t-41 95zM975 1690q0 56 40.5 94.5t98.5 38.5t98.5 -38.5t40.5 -94.5t-40.5 -95t-98.5 -39t-98.5 39t-40.5 95z" />
<glyph unicode="&#xdd;" horiz-adv-x="1157" d="M242 1434h241l228 -611l456 611h252l-631 -836l-104 -598h-219l102 582zM659 1638l357 328l201 -82l-414 -307z" />
<glyph unicode="&#xde;" horiz-adv-x="1208" d="M164 0l252 1434h225l-47 -267h217q252 0 364.5 -117.5t73.5 -332.5q-39 -216 -193 -333.5t-405 -117.5h-215l-47 -266h-225zM471 471h217q293 0 336 246q23 128 -42 187t-208 59h-215z" />
<glyph unicode="&#xdf;" horiz-adv-x="1239" d="M143 0l219 1241q29 167 181 282t344 115q229 0 333.5 -111t73.5 -286q-47 -265 -325 -340q153 -55 225 -170t45 -270q-25 -139 -121 -250t-236 -171t-298 -60l34 194q64 0 127.5 18t121.5 53.5t100.5 96.5t56.5 139q23 132 -73 219.5t-265 87.5q7 39 20.5 118t20.5 118 q161 0 245.5 52.5t100.5 144.5q20 105 -34 164t-187 59q-105 0 -180 -47.5t-94 -155.5l-220 -1241h-215z" />
<glyph unicode="&#xe0;" d="M133 369q0 142 48.5 260t129.5 194.5t185 118t217 41.5q104 0 179.5 -57.5t113.5 -157.5l30 174h219l-165 -942h-220l27 147q-70 -89 -167 -138.5t-200 -49.5q-185 0 -291 109t-106 301zM354 379q0 -112 67 -168.5t185 -56.5q112 0 213.5 79t130.5 218l4 28q4 40 4 66 q0 118 -69 180.5t-170 62.5q-146 0 -255.5 -117t-109.5 -292zM356 1393l209 82l260 -328l-143 -62z" />
<glyph unicode="&#xe1;" d="M133 369q0 142 48.5 260t129.5 194.5t185 118t217 41.5q104 0 179.5 -57.5t113.5 -157.5l30 174h219l-165 -942h-220l27 147q-70 -89 -167 -138.5t-200 -49.5q-185 0 -291 109t-106 301zM354 379q0 -112 67 -168.5t185 -56.5q112 0 213.5 79t130.5 218l4 28q4 40 4 66 q0 118 -69 180.5t-170 62.5q-146 0 -255.5 -117t-109.5 -292zM600 1147l354 328l201 -82l-412 -308z" />
<glyph unicode="&#xe2;" d="M133 369q0 142 48.5 260t129.5 194.5t185 118t217 41.5q104 0 179.5 -57.5t113.5 -157.5l30 174h219l-165 -942h-220l27 147q-70 -89 -167 -138.5t-200 -49.5q-185 0 -291 109t-106 301zM354 379q0 -112 67 -168.5t185 -56.5q112 0 213.5 79t130.5 218l4 28q4 40 4 66 q0 118 -69 180.5t-170 62.5q-146 0 -255.5 -117t-109.5 -292zM387 1188l401 307l295 -307l-153 -94l-164 182l-248 -197z" />
<glyph unicode="&#xe3;" d="M133 369q0 142 48.5 260t129.5 194.5t185 118t217 41.5q104 0 179.5 -57.5t113.5 -157.5l30 174h219l-165 -942h-220l27 147q-70 -89 -167 -138.5t-200 -49.5q-185 0 -291 109t-106 301zM354 379q0 -112 67 -168.5t185 -56.5q112 0 213.5 79t130.5 218l4 28q4 40 4 66 q0 118 -69 180.5t-170 62.5q-146 0 -255.5 -117t-109.5 -292zM365 1161q30 78 102 133.5t154 55.5q17 0 32 -2t29.5 -7t25 -9t23.5 -11.5t18.5 -11t17.5 -12t13 -9.5q3 -2 12.5 -8.5t12.5 -8.5t11.5 -7.5t12 -7.5t11 -6t11.5 -6t10.5 -4.5t11.5 -3.5t11 -2t11 -1 q64 0 143 98l99 -88q-38 -64 -111.5 -117t-144.5 -53q-10 0 -20 1t-18 2t-18 3.5t-15.5 4t-15 6t-13 5.5t-14 7t-12.5 7t-13.5 7.5t-12.5 7.5q-9 6 -30.5 20.5t-35 22.5t-33.5 15.5t-38 7.5q-49 0 -76.5 -35t-34.5 -70z" />
<glyph unicode="&#xe4;" d="M133 369q0 142 48.5 260t129.5 194.5t185 118t217 41.5q104 0 179.5 -57.5t113.5 -157.5l30 174h219l-165 -942h-220l27 147q-70 -89 -167 -138.5t-200 -49.5q-185 0 -291 109t-106 301zM354 379q0 -112 67 -168.5t185 -56.5q112 0 213.5 79t130.5 218l4 28q4 40 4 66 q0 118 -69 180.5t-170 62.5q-146 0 -255.5 -117t-109.5 -292zM391 1198q0 56 40.5 94.5t98.5 38.5t99 -38.5t41 -94.5t-41 -94.5t-99 -38.5t-98.5 38.5t-40.5 94.5zM842 1198q0 56 40.5 94.5t98.5 38.5t98.5 -38.5t40.5 -94.5t-40.5 -94.5t-98.5 -38.5t-98.5 38.5 t-40.5 94.5z" />
<glyph unicode="&#xe5;" d="M133 369q0 142 48.5 260t129.5 194.5t185 118t217 41.5q104 0 179.5 -57.5t113.5 -157.5l30 174h219l-165 -942h-220l27 147q-70 -89 -167 -138.5t-200 -49.5q-185 0 -291 109t-106 301zM354 379q0 -112 67 -168.5t185 -56.5q112 0 213.5 79t130.5 218l4 28q4 40 4 66 q0 118 -69 180.5t-170 62.5q-146 0 -255.5 -117t-109.5 -292zM592 1290q0 92 59 148.5t154 56.5t154 -56.5t59 -148.5t-59 -148.5t-154 -56.5t-154 56.5t-59 148.5zM696 1290q0 -53 28.5 -86t80.5 -33t80 33t28 86t-28 86t-80 33t-80.5 -33t-28.5 -86z" />
<glyph unicode="&#xe6;" horiz-adv-x="1689" d="M98 266q19 106 91 182t172.5 112t216.5 36q143 0 233 -55l25 135q10 57 -41.5 82.5t-137.5 25.5q-90 0 -172.5 -29t-134.5 -63l-51 166q191 125 393 125q117 0 203 -34t127 -99q162 133 367 133q215 0 321 -135.5t66 -358.5q-3 -20 -17 -69h-747q-7 -123 56 -194.5 t173 -71.5q201 0 318 145l143 -100q-200 -240 -496 -240q-130 0 -221.5 48.5t-140.5 135.5q-66 -85 -184 -134.5t-252 -49.5q-76 0 -136.5 17t-105.5 52.5t-63.5 96t-4.5 141.5zM309 287q-11 -66 43.5 -104t130.5 -38q127 0 198.5 44t96.5 157l10 57q-93 37 -208 37 q-109 0 -184.5 -45.5t-86.5 -107.5zM1049 592h514q0 98 -53 152.5t-154 54.5q-95 0 -182 -58t-125 -149z" />
<glyph unicode="&#xe7;" horiz-adv-x="1009" d="M129 381q0 173 85 312t227.5 214.5t312.5 75.5q102 0 186.5 -25.5t122.5 -74.5l-47 -271q-20 69 -97 119.5t-161 50.5q-179 0 -290.5 -104.5t-111.5 -269.5q0 -111 71.5 -179.5t201.5 -68.5q109 0 199 48.5t137 121.5l-47 -271q-101 -88 -285 -98l-92 -192q57 0 103 -41 t46 -111q0 -95 -60 -154t-159 -59q-119 0 -203 84l88 76q33 -28 55.5 -38.5t59.5 -10.5q49 0 75.5 30.5t26.5 71.5q0 74 -102 74q-53 0 -98 -21l-29 -14l148 311q-172 27 -267.5 138.5t-95.5 275.5z" />
<glyph unicode="&#xe8;" horiz-adv-x="1095" d="M135 379q0 173 79.5 312t213.5 215.5t295 76.5q187 0 297 -103t110 -278q0 -97 -26 -182h-748v-25q0 -115 53.5 -178t155.5 -63q93 0 183 39t149 112l170 -106q-96 -116 -219.5 -178t-296.5 -62q-201 0 -308.5 114t-107.5 306zM393 592h514q0 207 -196 207 q-96 0 -188.5 -58.5t-129.5 -148.5zM397 1393l209 82l260 -328l-143 -62z" />
<glyph unicode="&#xe9;" horiz-adv-x="1095" d="M135 379q0 173 79.5 312t213.5 215.5t295 76.5q187 0 297 -103t110 -278q0 -97 -26 -182h-748v-25q0 -115 53.5 -178t155.5 -63q93 0 183 39t149 112l170 -106q-96 -116 -219.5 -178t-296.5 -62q-201 0 -308.5 114t-107.5 306zM393 592h514q0 207 -196 207 q-96 0 -188.5 -58.5t-129.5 -148.5zM641 1147l354 328l201 -82l-412 -308z" />
<glyph unicode="&#xea;" horiz-adv-x="1095" d="M135 379q0 173 79.5 312t213.5 215.5t295 76.5q187 0 297 -103t110 -278q0 -97 -26 -182h-748v-25q0 -115 53.5 -178t155.5 -63q93 0 183 39t149 112l170 -106q-96 -116 -219.5 -178t-296.5 -62q-201 0 -308.5 114t-107.5 306zM393 592h514q0 207 -196 207 q-96 0 -188.5 -58.5t-129.5 -148.5zM428 1188l401 307l295 -307l-153 -94l-164 182l-248 -197z" />
<glyph unicode="&#xeb;" horiz-adv-x="1095" d="M135 379q0 173 79.5 312t213.5 215.5t295 76.5q187 0 297 -103t110 -278q0 -97 -26 -182h-748v-25q0 -115 53.5 -178t155.5 -63q93 0 183 39t149 112l170 -106q-96 -116 -219.5 -178t-296.5 -62q-201 0 -308.5 114t-107.5 306zM393 592h514q0 207 -196 207 q-96 0 -188.5 -58.5t-129.5 -148.5zM432 1198q0 56 40.5 94.5t98.5 38.5t99 -38.5t41 -94.5t-41 -94.5t-99 -38.5t-98.5 38.5t-40.5 94.5zM883 1198q0 56 40.5 94.5t98.5 38.5t98.5 -38.5t40.5 -94.5t-40.5 -94.5t-98.5 -38.5t-98.5 38.5t-40.5 94.5z" />
<glyph unicode="&#xec;" horiz-adv-x="532" d="M104 1393l209 82l260 -328l-143 -62zM158 0l166 942h217l-166 -942h-217z" />
<glyph unicode="&#xed;" horiz-adv-x="532" d="M158 0l166 942h217l-166 -942h-217zM348 1147l354 328l201 -82l-411 -308z" />
<glyph unicode="&#xee;" horiz-adv-x="532" d="M135 1188l402 307l294 -307l-153 -94l-164 182l-248 -197zM158 0l166 942h217l-166 -942h-217z" />
<glyph unicode="&#xef;" horiz-adv-x="532" d="M139 1198q0 56 41 94.5t99 38.5t98.5 -38.5t40.5 -94.5t-40.5 -94.5t-98.5 -38.5t-99 38.5t-41 94.5zM158 0l166 942h217l-166 -942h-217zM590 1198q0 56 40.5 94.5t98.5 38.5t98.5 -38.5t40.5 -94.5t-40.5 -94.5t-98.5 -38.5t-98.5 38.5t-40.5 94.5z" />
<glyph unicode="&#xf0;" horiz-adv-x="1138" d="M135 471q23 128 104 239t192.5 174.5t221.5 63.5q89 0 146 -26l-72 122h-252l25 195h114l-112 195h254l106 -195h252l-24 -195h-123l139 -256q37 -68 58 -152.5t7 -164.5q-26 -149 -117 -267t-220.5 -181.5t-272.5 -63.5q-219 0 -342 143.5t-84 368.5zM358 471 q-25 -139 42 -223t198 -84t228 84t122 223t-42.5 225t-198.5 86t-227.5 -86t-121.5 -225z" />
<glyph unicode="&#xf1;" horiz-adv-x="1105" d="M129 0l166 942h219l-25 -137q69 79 156 128.5t158 49.5q170 0 245.5 -92t38.5 -297l-104 -594h-219l100 573q20 114 -15 164.5t-122 50.5q-93 0 -172.5 -54t-101.5 -144l-105 -590h-219zM414 1161q30 78 103 133.5t155 55.5q17 0 32 -2t29.5 -7t25 -9t23.5 -11.5 t18.5 -11t17.5 -12t13 -9.5q3 -2 12.5 -8.5t12.5 -8.5t11.5 -7.5t12 -7.5t11 -6t11.5 -6t10.5 -4.5t11.5 -3.5t11 -2t11 -1q65 0 144 98l98 -88q-37 -63 -112 -116.5t-146 -53.5q-10 0 -20 1t-18 2t-18 3.5t-15.5 4t-15 6t-13 5.5t-14 7t-12.5 7t-13.5 7.5t-12.5 7.5 q-10 6 -30.5 20.5t-34 22.5t-33 15.5t-37.5 7.5q-49 0 -76.5 -35t-34.5 -70z" />
<glyph unicode="&#xf2;" horiz-adv-x="1159" d="M137 393q0 107 34.5 202.5t93 165t134.5 120.5t162 76.5t172 25.5q216 0 336.5 -120.5t120.5 -313.5q0 -170 -81.5 -306t-218 -210t-298.5 -74q-88 0 -169.5 30.5t-145 85t-102 137.5t-38.5 181zM356 403q0 -113 68 -181t182 -68q146 0 255.5 109t109.5 274 q0 113 -68.5 182t-183.5 69q-70 0 -136 -28.5t-116 -78.5t-80.5 -122.5t-30.5 -155.5zM418 1393l209 82l260 -328l-144 -62z" />
<glyph unicode="&#xf3;" horiz-adv-x="1159" d="M137 393q0 107 34.5 202.5t93 165t134.5 120.5t162 76.5t172 25.5q216 0 336.5 -120.5t120.5 -313.5q0 -170 -81.5 -306t-218 -210t-298.5 -74q-88 0 -169.5 30.5t-145 85t-102 137.5t-38.5 181zM356 403q0 -113 68 -181t182 -68q146 0 255.5 109t109.5 274 q0 113 -68.5 182t-183.5 69q-70 0 -136 -28.5t-116 -78.5t-80.5 -122.5t-30.5 -155.5zM662 1147l354 328l201 -82l-412 -308z" />
<glyph unicode="&#xf4;" horiz-adv-x="1159" d="M137 393q0 107 34.5 202.5t93 165t134.5 120.5t162 76.5t172 25.5q216 0 336.5 -120.5t120.5 -313.5q0 -170 -81.5 -306t-218 -210t-298.5 -74q-88 0 -169.5 30.5t-145 85t-102 137.5t-38.5 181zM356 403q0 -113 68 -181t182 -68q146 0 255.5 109t109.5 274 q0 113 -68.5 182t-183.5 69q-70 0 -136 -28.5t-116 -78.5t-80.5 -122.5t-30.5 -155.5zM449 1188l401 307l295 -307l-154 -94l-164 182l-247 -197z" />
<glyph unicode="&#xf5;" horiz-adv-x="1159" d="M137 393q0 107 34.5 202.5t93 165t134.5 120.5t162 76.5t172 25.5q216 0 336.5 -120.5t120.5 -313.5q0 -170 -81.5 -306t-218 -210t-298.5 -74q-88 0 -169.5 30.5t-145 85t-102 137.5t-38.5 181zM356 403q0 -113 68 -181t182 -68q146 0 255.5 109t109.5 274 q0 113 -68.5 182t-183.5 69q-70 0 -136 -28.5t-116 -78.5t-80.5 -122.5t-30.5 -155.5zM426 1161q30 78 102 133.5t154 55.5q15 0 29 -2t25.5 -4.5t24 -8t20.5 -9t19 -10.5t15.5 -10t14.5 -10t12 -8q4 -2 15.5 -10t15.5 -11t14 -9t14.5 -8.5t13 -6.5t14.5 -5.5t13 -3t14 -1.5 q65 0 144 98l98 -88q-38 -64 -111.5 -117t-144.5 -53q-11 0 -21.5 0.5t-21 3t-18 4t-17.5 6t-15 6t-15.5 7.5t-13.5 7.5t-15 8.5t-14 8q-9 5 -31 20t-35 23t-33.5 15.5t-38.5 7.5q-49 0 -76 -35t-34 -70z" />
<glyph unicode="&#xf6;" horiz-adv-x="1159" d="M137 393q0 107 34.5 202.5t93 165t134.5 120.5t162 76.5t172 25.5q216 0 336.5 -120.5t120.5 -313.5q0 -170 -81.5 -306t-218 -210t-298.5 -74q-88 0 -169.5 30.5t-145 85t-102 137.5t-38.5 181zM356 403q0 -113 68 -181t182 -68q146 0 255.5 109t109.5 274 q0 113 -68.5 182t-183.5 69q-70 0 -136 -28.5t-116 -78.5t-80.5 -122.5t-30.5 -155.5zM453 1198q0 56 40.5 94.5t98.5 38.5t98.5 -38.5t40.5 -94.5t-40.5 -94.5t-98.5 -38.5t-98.5 38.5t-40.5 94.5zM903 1198q0 56 40.5 94.5t98.5 38.5t99 -38.5t41 -94.5t-41 -94.5 t-99 -38.5t-98.5 38.5t-40.5 94.5z" />
<glyph unicode="&#xf7;" horiz-adv-x="1261" d="M184 430l41 195h1024l-41 -195h-1024zM522 143q0 56 41 94.5t99 38.5t98.5 -38.5t40.5 -94.5t-40.5 -94.5t-98.5 -38.5t-99 38.5t-41 94.5zM645 901q0 56 40.5 94.5t98.5 38.5t99 -38.5t41 -94.5t-41 -94.5t-99 -38.5t-98.5 38.5t-40.5 94.5z" />
<glyph unicode="&#xf8;" horiz-adv-x="1159" d="M51 -8l166 145q-80 107 -80 256q0 107 34.5 202.5t93 165t134.5 120.5t162 76.5t172 25.5q199 0 324 -109l78 68h176l-181 -158q60 -105 60 -235q0 -170 -81.5 -306t-218 -210t-298.5 -74q-168 0 -293 96l-74 -63h-174zM356 403q0 -61 27 -120l508 446q-65 59 -172 59 q-70 0 -136 -28.5t-116 -78.5t-80.5 -122.5t-30.5 -155.5zM459 195q59 -41 147 -41q146 0 255.5 109t109.5 274q0 51 -15 94z" />
<glyph unicode="&#xf9;" horiz-adv-x="1105" d="M184 348l105 594h219l-100 -573q-20 -114 15 -164.5t122 -50.5q93 0 172.5 54t101.5 144l105 590h219l-166 -942h-219l24 137q-69 -79 -155.5 -128.5t-157.5 -49.5q-355 0 -285 389zM397 1393l209 82l258 -328l-143 -62z" />
<glyph unicode="&#xfa;" horiz-adv-x="1105" d="M184 348l105 594h219l-100 -573q-20 -114 15 -164.5t122 -50.5q93 0 172.5 54t101.5 144l105 590h219l-166 -942h-219l24 137q-69 -79 -155.5 -128.5t-157.5 -49.5q-355 0 -285 389zM639 1147l356 328l201 -82l-414 -308z" />
<glyph unicode="&#xfb;" horiz-adv-x="1105" d="M184 348l105 594h219l-100 -573q-20 -114 15 -164.5t122 -50.5q93 0 172.5 54t101.5 144l105 590h219l-166 -942h-219l24 137q-69 -79 -155.5 -128.5t-157.5 -49.5q-355 0 -285 389zM426 1188l401 307l295 -307l-151 -94l-166 182l-248 -197z" />
<glyph unicode="&#xfc;" horiz-adv-x="1105" d="M184 348l105 594h219l-100 -573q-20 -114 15 -164.5t122 -50.5q93 0 172.5 54t101.5 144l105 590h219l-166 -942h-219l24 137q-69 -79 -155.5 -128.5t-157.5 -49.5q-355 0 -285 389zM430 1198q0 56 40.5 94.5t98.5 38.5t99 -38.5t41 -94.5t-41 -94.5t-99 -38.5 t-98.5 38.5t-40.5 94.5zM881 1198q0 56 40.5 94.5t98.5 38.5t98.5 -38.5t40.5 -94.5t-40.5 -94.5t-98.5 -38.5t-98.5 38.5t-40.5 94.5z" />
<glyph unicode="&#xfd;" horiz-adv-x="983" d="M59 -451l310 512l-224 881h238l149 -672l388 672h249l-860 -1393h-250zM573 1147l355 328l200 -82l-411 -308z" />
<glyph unicode="&#xfe;" d="M53 -451l363 2048h215l-146 -817q71 96 167.5 149.5t201.5 53.5q97 0 176.5 -34.5t134 -98.5t76 -162t0.5 -217t-77 -217t-133 -162t-169.5 -98.5t-189.5 -34.5q-106 0 -182 53t-113 150l-109 -613h-215zM432 471q-27 -153 44.5 -235t189.5 -82q133 0 232.5 86t125.5 231 t-43.5 231t-202.5 86q-55 0 -109 -19.5t-102.5 -57t-84.5 -100t-50 -140.5z" />
<glyph unicode="&#xff;" horiz-adv-x="983" d="M59 -451l310 512l-224 881h238l149 -672l388 672h249l-860 -1393h-250zM365 1198q0 56 40.5 94.5t98.5 38.5t98.5 -38.5t40.5 -94.5t-40.5 -94.5t-98.5 -38.5t-98.5 38.5t-40.5 94.5zM815 1198q0 56 40.5 94.5t98.5 38.5t99 -38.5t41 -94.5t-41 -94.5t-99 -38.5 t-98.5 38.5t-40.5 94.5z" />
<glyph unicode="&#x2c6;" horiz-adv-x="983" d="M360 1229l402 307l295 -307l-154 -94l-164 182l-247 -197z" />
<glyph unicode="&#x2dc;" horiz-adv-x="1085" d="M389 1280q30 78 102 133t154 55q13 0 25.5 -1.5t24 -4.5t21 -5.5t20 -7.5t17 -8t16 -9.5t13.5 -9t12.5 -8.5t10.5 -7q3 -2 12.5 -8.5t12.5 -8.5t11.5 -7.5t12 -7.5t11 -6t11.5 -6t10.5 -4.5t11.5 -3.5t11 -2t11 -1q64 0 143 98l98 -88q-38 -64 -111.5 -117t-144.5 -53 q-11 0 -21.5 0.5t-21 3t-18 4t-17.5 6t-15 6t-15.5 7.5t-13.5 7.5t-15 8.5t-14 8q-9 5 -31 20t-35 23t-33.5 15.5t-38.5 7.5q-49 0 -76 -35t-34 -70z" />
<glyph unicode="&#x2000;" horiz-adv-x="1019" />
<glyph unicode="&#x2001;" horiz-adv-x="2038" />
<glyph unicode="&#x2002;" horiz-adv-x="1019" />
<glyph unicode="&#x2003;" horiz-adv-x="2038" />
<glyph unicode="&#x2004;" horiz-adv-x="679" />
<glyph unicode="&#x2005;" horiz-adv-x="509" />
<glyph unicode="&#x2006;" horiz-adv-x="339" />
<glyph unicode="&#x2007;" horiz-adv-x="339" />
<glyph unicode="&#x2008;" horiz-adv-x="254" />
<glyph unicode="&#x2009;" horiz-adv-x="407" />
<glyph unicode="&#x200a;" horiz-adv-x="113" />
<glyph unicode="&#x2010;" horiz-adv-x="430" d="M88 389l16 195h410l-16 -195h-410z" />
<glyph unicode="&#x2011;" horiz-adv-x="430" d="M88 389l16 195h410l-16 -195h-410z" />
<glyph unicode="&#x2012;" horiz-adv-x="430" d="M88 389l16 195h410l-16 -195h-410z" />
<glyph unicode="&#x2013;" horiz-adv-x="1515" d="M213 389l49 195h1229l-49 -195h-1229z" />
<glyph unicode="&#x2014;" horiz-adv-x="1822" d="M188 389l62 195h1536l-62 -195h-1536z" />
<glyph unicode="&#x2018;" horiz-adv-x="604" d="M281 963l297 471h143l-205 -471h-235z" />
<glyph unicode="&#x2019;" horiz-adv-x="604" d="M334 963l205 471h235l-297 -471h-143z" />
<glyph unicode="&#x201a;" horiz-adv-x="604" d="M88 -307l205 471h235l-297 -471h-143z" />
<glyph unicode="&#x201c;" horiz-adv-x="1013" d="M281 963l297 471h143l-205 -471h-235zM690 963l297 471h143l-204 -471h-236z" />
<glyph unicode="&#x201d;" horiz-adv-x="1013" d="M334 963l205 471h235l-297 -471h-143zM743 963l205 471h236l-297 -471h-144z" />
<glyph unicode="&#x202f;" horiz-adv-x="407" />
<glyph unicode="&#x2039;" horiz-adv-x="716" d="M174 522l473 482l96 -103l-381 -387l230 -385l-113 -88z" />
<glyph unicode="&#x203a;" horiz-adv-x="716" d="M-27 143l381 387l-229 385l113 89l305 -482l-473 -481z" />
<glyph unicode="&#x205f;" horiz-adv-x="509" />
<glyph unicode="&#x20ac;" horiz-adv-x="1433" d="M236 575l38 123h97q0 13 2 19q12 72 22 104h-149l41 123h151q99 238 288 384.5t415 146.5q163 0 293 -84l-45 -248q-108 127 -285 127q-146 0 -261.5 -86t-185.5 -240h656l-41 -123h-660q-15 -51 -24 -104q-2 -6 -2 -19h661l-39 -123h-635q-5 -191 83 -301t253 -110 q178 0 330 127l-43 -248q-162 -84 -324 -84q-164 0 -283.5 80t-178 219t-52.5 317h-122z" />
<glyph unicode="&#x25fc;" horiz-adv-x="942" d="M0 0v942h942v-942h-942z" />
</font>
</defs>
</svg>
