<?xml version="1.0" standalone="no"?>
<!DOCTYPE svg PUBLIC "-//W3C//DTD SVG 1.1//EN" "http://www.w3.org/Graphics/SVG/1.1/DTD/svg11.dtd" >
<svg xmlns="http://www.w3.org/2000/svg" xmlns:xlink="http://www.w3.org/1999/xlink" version="1.1">
<metadata></metadata>
<defs>
<font id="rennerbook_italic" horiz-adv-x="1167" >
<font-face units-per-em="2048" ascent="1638" descent="-410" />
<missing-glyph horiz-adv-x="614" />
<glyph horiz-adv-x="0" />
<glyph horiz-adv-x="682" />
<glyph unicode=" "  horiz-adv-x="614" />
<glyph unicode="&#x09;" horiz-adv-x="614" />
<glyph unicode="&#xa0;" horiz-adv-x="614" />
<glyph unicode="!" horiz-adv-x="614" d="M211 82q0 46 33.5 79.5t79.5 33.5t79 -33.5t33 -79.5t-33 -79.5t-79 -33.5t-79.5 33.5t-33.5 79.5zM317 410l140 1024h205l-222 -1024h-123z" />
<glyph unicode="&#x22;" horiz-adv-x="972" d="M350 819l209 615h195l-291 -615h-113zM719 819l209 615h194l-291 -615h-112z" />
<glyph unicode="#" horiz-adv-x="1239" d="M154 0l172 410h-162l24 133h193l149 358h-237l22 133h271l168 400h153l-168 -400h277l168 400h153l-168 -400h160l-22 -133h-193l-149 -358h237l-24 -133h-269l-172 -410h-153l172 410h-277l-172 -410h-153zM535 543h276l150 358h-277z" />
<glyph unicode="$" horiz-adv-x="1101" d="M127 375l164 88q33 -124 93.5 -203.5t145.5 -105.5l88 538h-2q-52 20 -98 48.5t-93 72t-75 106.5t-28 136q0 172 115.5 277.5t305.5 119.5l35 223h131l-37 -227q130 -22 215 -108.5t107 -192.5l-147 -80q-31 88 -75 141t-126 72l-76 -461q3 -1 10.5 -4t10.5 -4 q44 -17 79.5 -35.5t77.5 -50.5t70.5 -69.5t47.5 -93t19 -120.5q0 -218 -120.5 -333.5t-331.5 -126.5l-35 -211h-131l35 217q-144 26 -243.5 129t-131.5 258zM504 1069q0 -111 145 -192l66 407q-97 -11 -154 -65t-57 -150zM659 147q110 14 175 86.5t65 188.5q0 131 -160 215z " />
<glyph unicode="%" horiz-adv-x="1538" d="M231 0l1174 1434h154l-1174 -1434h-154zM270 1126q25 140 131.5 234t249.5 94q144 0 218 -94.5t49 -233.5t-131.5 -233t-249.5 -94q-144 0 -218 94t-49 233zM416 1126q-14 -82 23.5 -138t119.5 -56t140.5 56.5t72.5 137.5q14 82 -23.5 138.5t-119.5 56.5t-140.5 -57 t-72.5 -138zM872 307q25 139 132 233.5t251 94.5t217 -94.5t48 -233.5t-131.5 -233t-249.5 -94q-144 0 -218 94t-49 233zM1018 307q-14 -81 24.5 -137.5t120.5 -56.5t139.5 56t71.5 138t-23.5 138.5t-119.5 56.5t-140.5 -57t-72.5 -138z" />
<glyph unicode="&#x26;" horiz-adv-x="1382" d="M145 334q0 83 29 153.5t71 118t106 88.5t117 64.5t120 46.5q-94 162 -94 293q0 109 60.5 192.5t151.5 124.5t193 41q85 0 150.5 -25t103 -66.5t56 -89.5t18.5 -99q0 -75 -32 -137.5t-99.5 -114.5t-108 -76.5t-120.5 -65.5q-10 -5 -15 -8q-8 -5 -27.5 -12.5t-23.5 -9.5 l272 -387q156 132 275 282l112 -80q-183 -222 -301 -327l168 -240l-188 4l-97 139q-222 -163 -432 -163q-221 0 -343 89.5t-122 264.5zM319 365q0 -100 72 -166t225 -66q139 0 336 137l-299 428q-57 -20 -98 -38t-88.5 -47t-77.5 -62t-50 -81t-20 -105zM655 1104 q0 -109 80 -248q138 55 233 140t95 180q0 60 -41.5 96.5t-128.5 36.5q-108 0 -173 -58.5t-65 -146.5z" />
<glyph unicode="'" horiz-adv-x="604" d="M350 819l209 615h195l-291 -615h-113z" />
<glyph unicode="(" horiz-adv-x="634" d="M289 594q98 557 413 1003h154q-285 -444 -383 -1003q-99 -566 29 -1004h-154q-158 438 -59 1004z" />
<glyph unicode=")" horiz-adv-x="634" d="M4 -410q285 444 383 1004q99 566 -29 1003h154q158 -437 59 -1003q-98 -558 -413 -1004h-154z" />
<glyph unicode="*" horiz-adv-x="1212" d="M397 1090l68 137l283 -117l38 324h144l-74 -324l326 117l18 -137l-326 -84l158 -252l-131 -84l-129 270l-223 -270l-103 84l248 252z" />
<glyph unicode="+" horiz-adv-x="1259" d="M211 440l29 164h409l74 420h174l-74 -420h410l-29 -164h-409l-74 -420h-174l74 420h-410z" />
<glyph unicode="," horiz-adv-x="630" d="M70 -305l272 530l154 -61l-316 -512z" />
<glyph unicode="-" horiz-adv-x="430" d="M96 410v153h410v-153h-410z" />
<glyph unicode="." horiz-adv-x="614" d="M195 82q0 46 33 79.5t79 33.5t79.5 -33.5t33.5 -79.5t-33.5 -79.5t-79.5 -33.5t-79 33.5t-33 79.5z" />
<glyph unicode="/" horiz-adv-x="1259" d="M-23 -307l1330 1741h174l-1329 -1741h-175z" />
<glyph unicode="0" horiz-adv-x="1228" d="M190 516q0 152 34 295t96 258.5t143.5 202.5t181.5 134.5t205 47.5q210 0 326 -146.5t116 -392.5q0 -204 -53.5 -380.5t-143.5 -297t-210.5 -189t-253.5 -68.5q-198 0 -319.5 147.5t-121.5 388.5zM365 532q0 -166 73.5 -275.5t202.5 -109.5q126 0 236 104t174.5 278 t64.5 370q0 180 -71.5 285.5t-202.5 105.5q-118 0 -228.5 -105t-179.5 -282t-69 -371z" />
<glyph unicode="1" horiz-adv-x="962" d="M432 1171l31 181l514 123l-260 -1475h-174l223 1268z" />
<glyph unicode="2" horiz-adv-x="1165" d="M41 0l754 686q57 52 89.5 83t70.5 75.5t57.5 80.5t33 82.5t13.5 96.5q0 85 -59 136.5t-164 51.5q-150 0 -253 -98.5t-130 -251.5h-174q40 222 197.5 368t387.5 146q76 0 139 -20.5t105 -55t71.5 -80.5t42.5 -94.5t13 -99.5q0 -69 -18.5 -133.5t-42.5 -110.5t-69.5 -99 t-76.5 -83t-86 -78l-496 -438h635l-28 -164h-1012z" />
<glyph unicode="3" horiz-adv-x="1118" d="M184 301q0 37 6 78h166q-4 -28 -4 -45q0 -88 62 -144.5t168 -56.5q140 0 241 85t101 235q0 99 -72.5 156t-216.5 57l29 153q174 0 255.5 78.5t81.5 218.5q0 83 -46.5 133.5t-135.5 50.5q-109 0 -183.5 -58t-94.5 -165h-166q30 169 152.5 273t297.5 104q110 0 190.5 -47.5 t118 -121t37.5 -161.5q0 -302 -274 -385q95 -38 145 -108t50 -164q0 -230 -143.5 -358.5t-373.5 -128.5q-180 0 -285.5 89.5t-105.5 231.5z" />
<glyph unicode="4" horiz-adv-x="1214" d="M92 287l1106 1249l-192 -1096h225l-27 -153h-225l-51 -287h-174l51 287h-713zM414 440h417l103 586z" />
<glyph unicode="5" horiz-adv-x="1155" d="M111 281l165 100q33 -98 120 -168t200 -70q76 0 145.5 27t124 77t87 128.5t32.5 173.5q0 121 -74 185.5t-198 64.5q-104 0 -186 -26.5t-203 -102.5l321 764h676l-27 -154h-540l-160 -373q52 32 98 44t131 12q144 0 244 -113.5t100 -290.5q0 -119 -34 -217.5t-90.5 -164.5 t-132 -111.5t-156.5 -65.5t-166 -20q-186 0 -304.5 83t-172.5 218z" />
<glyph unicode="6" horiz-adv-x="1138" d="M158 371q0 230 149 397l600 666h219l-503 -539q78 33 194 33q141 0 236.5 -103t95.5 -262q0 -128 -47 -239t-125 -185.5t-179.5 -116.5t-211.5 -42q-198 0 -313 105.5t-115 285.5zM326 391q0 -119 72.5 -186.5t195.5 -67.5q100 0 188 50t143.5 144t55.5 210 q0 120 -73.5 194t-194.5 74q-74 0 -144.5 -32t-124 -86.5t-86 -133t-32.5 -166.5z" />
<glyph unicode="7" horiz-adv-x="1075" d="M184 0l832 1270h-731l28 164h1004l-938 -1434h-195z" />
<glyph unicode="8" horiz-adv-x="1118" d="M176 342q0 149 91 259t231 161q-150 65 -150 242q0 101 39 187.5t103 143t143.5 88t161.5 31.5q152 0 255 -85.5t103 -233.5q0 -137 -72 -232.5t-192 -140.5q90 -40 142 -119.5t52 -193.5q0 -130 -73.5 -239t-190 -169.5t-244.5 -60.5q-185 0 -292 100t-107 262zM346 356 q0 -103 68 -163t168 -60q77 0 151.5 36.5t128 112.5t53.5 173q0 99 -68.5 165t-166.5 66q-80 0 -156.5 -42t-127 -119.5t-50.5 -168.5zM514 1016q0 -81 50.5 -128.5t142.5 -47.5q119 0 196.5 77t77.5 201q0 88 -54 135t-139 47q-108 0 -191 -76t-83 -208z" />
<glyph unicode="9" horiz-adv-x="1118" d="M236 870q0 128 47 239t125 185.5t179.5 117t211.5 42.5q198 0 313 -105.5t115 -285.5q0 -229 -150 -397l-600 -666h-219l504 539q-78 -33 -195 -33q-141 0 -236 102.5t-95 261.5zM403 893q0 -120 74 -194t195 -74q99 0 188 53.5t144 150.5t55 213q0 119 -72.5 186.5 t-195.5 67.5q-155 0 -271.5 -114.5t-116.5 -288.5z" />
<glyph unicode=":" horiz-adv-x="614" d="M195 82q0 46 33 79.5t79 33.5t79.5 -33.5t33.5 -79.5t-33.5 -79.5t-79.5 -33.5t-79 33.5t-33 79.5zM358 860q0 46 33.5 79.5t79.5 33.5t79.5 -33.5t33.5 -79.5t-33.5 -79t-79.5 -33t-79.5 33t-33.5 79z" />
<glyph unicode=";" horiz-adv-x="675" d="M70 -305l272 530l154 -61l-316 -512zM420 860q0 46 33 79.5t79 33.5t79.5 -33.5t33.5 -79.5t-33.5 -79t-79.5 -33t-79 33t-33 79z" />
<glyph unicode="&#x3c;" horiz-adv-x="1310" d="M219 492l12 71l1125 451l-25 -164l-821 -320l702 -335l-26 -154z" />
<glyph unicode="=" horiz-adv-x="1259" d="M319 287v153h994v-153h-994zM375 594v154h993v-154h-993z" />
<glyph unicode="&#x3e;" horiz-adv-x="1310" d="M141 41l25 164l821 319l-702 336l26 154l967 -451l-12 -71z" />
<glyph unicode="?" horiz-adv-x="1140" d="M338 1214q51 61 90.5 99t95.5 73.5t125 51.5t158 16q172 0 284.5 -103t112.5 -270q0 -104 -46 -195.5t-120 -153t-165.5 -98t-184.5 -40.5l-57 -246h-123l22 359h54q195 0 324.5 111.5t129.5 266.5q0 102 -68 158.5t-190 56.5q-188 0 -325 -170zM414 82q0 46 33 79.5 t79 33.5t79.5 -33.5t33.5 -79.5t-33.5 -79.5t-79.5 -33.5t-79 33.5t-33 79.5z" />
<glyph unicode="@" horiz-adv-x="1576" d="M172 516q0 201 77 378t205.5 298.5t298.5 191.5t353 70q133 0 240 -47t173.5 -126.5t102 -178.5t35.5 -207q0 -141 -47 -261t-117.5 -193t-148 -113.5t-144.5 -40.5q-82 0 -123 39t-41 106q0 17 2 23q-130 -148 -313 -148q-102 0 -165.5 68t-63.5 184t46.5 218.5 t117 167.5t151.5 102.5t154 37.5q152 0 192 -149l45 129h154l-172 -494q-19 -59 -19 -88q0 -61 68 -61q23 0 58 21.5t73 65t71 99t54.5 133t21.5 158.5q0 118 -47 212t-145.5 152t-235.5 58q-150 0 -291 -63.5t-245.5 -169.5t-167 -252.5t-62.5 -305.5q0 -194 116 -305.5 t315 -111.5q145 0 243.5 22t206.5 84l64 -119q-70 -31 -106 -45t-106.5 -35.5t-149.5 -30.5t-177 -9q-264 0 -407.5 146.5t-143.5 389.5zM653 584q0 -64 35.5 -98.5t104.5 -34.5q63 0 138.5 48t119.5 134l30 92q9 40 9 84q0 133 -150 133q-105 0 -196 -106.5t-91 -251.5z " />
<glyph unicode="A" horiz-adv-x="1351" d="M10 0l932 1505l399 -1505h-194l-107 430h-573l-260 -430h-197zM565 594h434l-127 510z" />
<glyph unicode="B" horiz-adv-x="1126" d="M164 0l252 1434h348q185 0 288 -77t103 -214q0 -297 -297 -365q262 -66 262 -303q0 -92 -31 -170.5t-85 -134t-126.5 -94.5t-154.5 -57.5t-170 -18.5h-389zM371 164h211q157 0 260.5 83.5t103.5 237.5q0 102 -72 156.5t-198 54.5h-211zM494 860h170q150 0 231.5 62.5 t81.5 187.5q0 160 -242 160h-170z" />
<glyph unicode="C" horiz-adv-x="1402" d="M197 573q0 152 46 290t128 244.5t189 185t234.5 120t260.5 41.5q153 0 254 -38t180 -120l-39 -219q-61 99 -169 156t-255 57q-128 0 -248 -54.5t-209 -146.5t-142.5 -220.5t-53.5 -268.5q0 -204 125 -330.5t325 -126.5q147 0 275.5 57t224.5 156l-39 -219 q-107 -81 -221.5 -119t-267.5 -38q-265 0 -431.5 165t-166.5 428z" />
<glyph unicode="D" horiz-adv-x="1392" d="M164 0l252 1434h430q262 0 434 -166t172 -424q0 -149 -40 -280.5t-115.5 -234t-180 -176.5t-238 -113.5t-284.5 -39.5h-430zM371 164h252q130 0 248.5 48.5t207.5 135t142 214t53 276.5q0 199 -122.5 315.5t-334.5 116.5h-252z" />
<glyph unicode="E" horiz-adv-x="1126" d="M164 0l252 1434h819l-29 -164h-645l-72 -410h605l-29 -164h-604l-94 -532h645l-29 -164h-819z" />
<glyph unicode="F" horiz-adv-x="1003" d="M164 0l252 1434h737l-29 -164h-563l-72 -410h543l-28 -164h-543l-123 -696h-174z" />
<glyph unicode="G" horiz-adv-x="1607" d="M197 594q0 153 44 289t123.5 239t186.5 178.5t236 114.5t268 39q202 0 355 -79t218 -226l-133 -102q-60 116 -173.5 179.5t-274.5 63.5q-104 0 -203 -30t-184 -88.5t-149.5 -138t-101 -185.5t-36.5 -225q0 -207 130 -343.5t341 -136.5q217 0 371 122.5t215 307.5h-449 l29 164h635q-29 -162 -98 -299t-172.5 -239.5t-247.5 -160.5t-312 -58q-181 0 -323.5 84.5t-218.5 224t-76 305.5z" />
<glyph unicode="H" horiz-adv-x="1464" d="M164 0l252 1434h174l-101 -574h789l100 574h174l-252 -1434h-174l123 696h-788l-123 -696h-174z" />
<glyph unicode="I" horiz-adv-x="481" d="M154 0l252 1434h174l-252 -1434h-174z" />
<glyph unicode="J" horiz-adv-x="532" d="M-268 -348l114 135q15 -35 53.5 -54.5t94.5 -19.5q54 0 104.5 46t67.5 139l270 1536h164l-274 -1557q-29 -163 -125.5 -245.5t-245.5 -82.5q-75 0 -139 33.5t-84 69.5z" />
<glyph unicode="K" horiz-adv-x="1146" d="M154 0l252 1434h174l-107 -611l670 611h215l-740 -672l519 -762h-215l-471 694l-123 -694h-174z" />
<glyph unicode="L" horiz-adv-x="921" d="M164 0l252 1434h174l-223 -1270h563l-29 -164h-737z" />
<glyph unicode="M" horiz-adv-x="1925" d="M102 0l543 1505l406 -1194l786 1194l27 -1505h-191l13 979l-691 -1030l-362 1028l-336 -977h-195z" />
<glyph unicode="N" horiz-adv-x="1566" d="M154 0l266 1505l880 -1159l191 1088h174l-264 -1506l-881 1162l-192 -1090h-174z" />
<glyph unicode="O" horiz-adv-x="1638" d="M197 573q0 152 48 290.5t132.5 244.5t195 185t240 120t262.5 41q277 0 449 -165.5t172 -430.5q0 -190 -72 -355.5t-193 -279t-281.5 -178.5t-334.5 -65q-278 0 -448 164t-170 429zM373 584q0 -197 129 -319t342 -122q98 0 195.5 32t183.5 94.5t152.5 147t105.5 197.5 t39 238q0 192 -129 315t-340 123q-123 0 -243.5 -51.5t-217.5 -141t-157 -224.5t-60 -289z" />
<glyph unicode="P" horiz-adv-x="1126" d="M164 0l252 1434h389q186 0 303 -104t117 -267q0 -145 -83 -259t-212.5 -172.5t-276.5 -58.5h-215l-100 -573h-174zM467 737h215q68 0 131 20.5t115 59.5t83 101.5t31 140.5q0 103 -70.5 157t-195.5 54h-215z" />
<glyph unicode="Q" horiz-adv-x="1638" d="M197 573q0 152 48 290.5t132.5 244.5t195 185t240 120t262.5 41q277 0 449 -165.5t172 -430.5q0 -186 -67 -346t-187 -279l184 -233h-215l-100 129q-227 -149 -496 -149q-278 0 -448 164t-170 429zM373 602q0 -205 129 -332t342 -127q196 0 366 113l-284 358h215 l196 -249q183 200 183 487q0 191 -131 314.5t-342 123.5q-97 0 -195 -32t-183.5 -93.5t-152 -144t-105 -191.5t-38.5 -227z" />
<glyph unicode="R" d="M164 0l252 1434h389q186 0 303 -104t117 -267q0 -183 -112 -305t-288 -164l301 -594h-202l-291 573h-195l-100 -573h-174zM467 737h215q68 0 131 20.5t115 59.5t83 101.5t31 140.5q0 103 -70.5 157t-195.5 54h-215z" />
<glyph unicode="S" horiz-adv-x="1101" d="M127 375l164 88q39 -151 120 -235.5t197 -84.5q131 0 211 75t80 204q0 54 -23 97t-68 75.5t-87 53t-105 44.5q-52 20 -98 48.5t-93 72t-75 106.5t-28 136q0 184 131.5 291.5t341.5 107.5q83 0 154.5 -27.5t120.5 -72t80.5 -98t43.5 -109.5l-147 -80q-17 50 -36.5 85.5 t-51 68.5t-79.5 50t-112 17q-117 0 -190.5 -55t-73.5 -164q0 -46 22 -85.5t65.5 -70.5t89 -54t110.5 -48q44 -17 79.5 -35.5t77.5 -50.5t70.5 -69.5t47.5 -93t19 -120.5q0 -228 -133 -345t-362 -117q-176 0 -301 108t-162 287z" />
<glyph unicode="T" horiz-adv-x="952" d="M244 1270l28 164h912l-29 -164h-369l-223 -1270h-174l223 1270h-368z" />
<glyph unicode="U" horiz-adv-x="1245" d="M229 375q0 47 9 96l168 963h174l-168 -963q-6 -37 -6 -72q0 -116 67 -186t172 -70q141 0 254 91.5t139 236.5l168 963h174l-168 -963q-39 -216 -197 -353.5t-378 -137.5q-182 0 -295 110t-113 285z" />
<glyph unicode="V" horiz-adv-x="1351" d="M262 1434h195l272 -1098l670 1098h194l-929 -1506z" />
<glyph unicode="W" horiz-adv-x="2027" d="M272 1434h195l188 -1041l625 1112l225 -1108l559 1037h195l-827 -1506l-234 1100l-627 -1100z" />
<glyph unicode="X" horiz-adv-x="1136" d="M20 0l588 752l-284 682h184l223 -527l412 527h194l-538 -689l317 -745h-194l-246 590l-461 -590h-195z" />
<glyph unicode="Y" horiz-adv-x="1157" d="M262 1434h182l254 -674l506 674h195l-633 -832l-104 -602h-175l103 582z" />
<glyph unicode="Z" horiz-adv-x="1075" d="M20 0l967 1270h-702l28 164h1004l-967 -1270h703l-29 -164h-1004z" />
<glyph unicode="[" horiz-adv-x="614" d="M127 -440l360 2048h369l-27 -154h-206l-308 -1741h207l-26 -153h-369z" />
<glyph unicode="\" horiz-adv-x="1054" d="M283 1434h174l567 -1434h-174z" />
<glyph unicode="]" horiz-adv-x="614" d="M-37 -440l27 153h207l307 1741h-207l27 154h368l-360 -2048h-369z" />
<glyph unicode="^" horiz-adv-x="1044" d="M299 942l438 512h82l258 -512h-164l-157 311l-283 -311h-174z" />
<glyph unicode="_" horiz-adv-x="1024" d="M-33 -160h1024v-112h-1024v112z" />
<glyph unicode="`" horiz-adv-x="768" d="M391 1352l168 82l250 -328l-102 -62z" />
<glyph unicode="a" d="M145 367q0 133 49 247t129.5 189t181 117.5t204.5 42.5q101 0 175.5 -50.5t112.5 -138.5l29 168h164l-166 -942h-164l29 162q-69 -87 -161 -134.5t-193 -47.5q-172 0 -281 104.5t-109 282.5zM319 397q0 -133 68 -198.5t174 -65.5q67 0 135.5 30.5t125 84t92.5 134.5 t36 173q0 122 -72.5 188t-175.5 66q-70 0 -139 -31t-123 -84t-87.5 -131t-33.5 -166z" />
<glyph unicode="b" d="M143 0l283 1597h164l-146 -819q68 88 161 136.5t194 48.5q172 0 281.5 -105t109.5 -283q0 -133 -49.5 -247t-130 -189t-181 -117t-204.5 -42t-179 48t-110 136l-29 -164h-164zM385 397q0 -122 72.5 -193t173.5 -71q71 0 140.5 31.5t124.5 86.5t89.5 138t34.5 178 q0 122 -73 182t-195 60q-76 0 -148 -34.5t-128.5 -103t-78.5 -159.5l-10 -57q-2 -18 -2 -58z" />
<glyph unicode="c" horiz-adv-x="978" d="M137 385q0 168 80 301.5t212 205t290 71.5q99 0 184.5 -32.5t122.5 -88.5l-37 -199q-21 70 -104 117t-195 47q-157 0 -271 -114.5t-114 -301.5q0 -109 69 -180.5t193 -71.5q114 0 216.5 45.5t146.5 114.5l-35 -199q-57 -57 -153 -88.5t-197 -31.5q-181 0 -294.5 114.5 t-113.5 290.5z" />
<glyph unicode="d" d="M145 367q0 133 49 247t129.5 189t181 117.5t204.5 42.5t177.5 -47.5t110.5 -135.5l146 817h164l-283 -1597h-164l29 162q-69 -87 -161 -134.5t-193 -47.5q-172 0 -281 104.5t-109 282.5zM319 397q0 -133 68 -198.5t174 -65.5q67 0 135.5 30.5t125 84t92.5 134.5t36 173 q0 122 -72.5 188t-175.5 66q-70 0 -139 -31t-123 -84t-87.5 -131t-33.5 -166z" />
<glyph unicode="e" horiz-adv-x="1054" d="M145 365q0 38 11 106q39 219 187 355.5t366 136.5q157 0 262.5 -105t105.5 -262q0 -84 -20 -166h-742q-2 -16 -2 -49q0 -121 59.5 -184.5t176.5 -63.5q98 0 183 48t151 130l123 -92q-100 -121 -207 -180t-277 -59q-173 0 -275 106t-102 279zM344 569h569q5 35 5 41 q0 96 -68.5 152.5t-165.5 56.5q-114 0 -210 -70.5t-130 -179.5z" />
<glyph unicode="f" horiz-adv-x="585" d="M174 0l139 788h-92l27 154h92l61 348q28 163 110 245.5t200 82.5q140 0 186 -82l-113 -135q-23 53 -92 53q-97 0 -131 -184l-57 -328h215l-27 -154h-215l-139 -788h-164z" />
<glyph unicode="g" d="M74 -137q0 35 6 76h166q-4 -28 -4 -41q0 -96 57.5 -155.5t181.5 -59.5q44 0 90.5 12t94 38.5t87 64.5t69.5 95.5t42 126.5l25 142q-69 -87 -161 -134.5t-193 -47.5q-172 0 -281 104.5t-109 282.5q0 133 49 247t129.5 189t181 117.5t204.5 42.5t177.5 -47.5t110.5 -135.5 l29 162h164l-162 -922q-27 -157 -114 -270.5t-200.5 -167t-240.5 -53.5q-183 0 -291 91t-108 243zM319 397q0 -133 68 -198.5t174 -65.5q67 0 135.5 30.5t125 83t92.5 133.5t36 173q0 122 -72.5 189t-175.5 67q-70 0 -139 -31t-123 -84t-87.5 -131t-33.5 -166z" />
<glyph unicode="h" horiz-adv-x="1075" d="M154 0l282 1597h164l-139 -782q63 69 143.5 108.5t163.5 39.5q127 0 197.5 -69t70.5 -200q0 -38 -10 -100l-104 -594h-164l100 573q8 54 8 105q0 131 -166 131q-100 0 -175.5 -59.5t-100.5 -153.5l-107 -596h-163z" />
<glyph unicode="i" horiz-adv-x="532" d="M180 0l166 942h172l-166 -942h-172zM389 1331q0 46 33.5 79.5t79.5 33.5t79 -33.5t33 -79.5t-33 -79t-79 -33t-79.5 33t-33.5 79z" />
<glyph unicode="j" horiz-adv-x="532" d="M-170 -369l115 136q23 -54 90 -54q97 0 131 185l184 1044h164l-188 -1065q-28 -163 -110 -245.5t-200 -82.5q-63 0 -115.5 24.5t-70.5 57.5zM389 1331q0 46 33.5 79.5t79.5 33.5t79 -33.5t33 -79.5t-33 -79t-79 -33t-79.5 33t-33.5 79z" />
<glyph unicode="k" horiz-adv-x="901" d="M143 0l283 1597h164l-172 -966l383 311h225l-477 -389l352 -553h-205l-305 477l-84 -477h-164z" />
<glyph unicode="l" horiz-adv-x="471" d="M154 0l282 1597h164l-283 -1597h-163z" />
<glyph unicode="m" horiz-adv-x="1597" d="M154 0l165 942h164l-20 -117q125 138 285 138q198 0 239 -168q62 78 148 123t176 45q122 0 185 -64.5t63 -191.5q0 -57 -11 -113l-104 -594h-164l100 573q13 72 13 111q0 68 -27 96.5t-102 28.5q-114 0 -185 -59.5t-94 -159.5l-104 -590h-164l100 573q12 66 12 111 q0 68 -27 96.5t-102 28.5q-112 0 -183 -59t-95 -158l-105 -592h-163z" />
<glyph unicode="n" horiz-adv-x="1075" d="M154 0l165 942h164l-22 -127q62 70 142.5 109t164.5 39q127 0 197.5 -69t70.5 -200q0 -38 -10 -100l-104 -594h-164l100 573q10 68 10 95q0 79 -40.5 110t-127.5 31q-102 0 -178 -61.5t-100 -157.5l-105 -590h-163z" />
<glyph unicode="o" horiz-adv-x="1118" d="M147 375q0 126 49.5 237.5t131 187t186.5 119.5t215 44q183 0 296.5 -110.5t113.5 -285.5q0 -126 -50 -237t-131.5 -187t-187 -119.5t-215.5 -43.5q-182 0 -295 110t-113 285zM315 381q0 -103 70.5 -175.5t175.5 -72.5q101 0 194 51.5t154.5 151.5t61.5 225 q0 111 -70.5 179.5t-177.5 68.5q-101 0 -193.5 -51.5t-153.5 -151.5t-61 -225z" />
<glyph unicode="p" d="M63 -451l246 1393h164l-29 -164q68 88 160.5 136.5t194.5 48.5q172 0 281.5 -105t109.5 -283q0 -133 -49.5 -247t-130 -189t-181 -117t-204.5 -42q-106 0 -180 47.5t-109 136.5l-109 -615h-164zM385 397q0 -122 72.5 -193t173.5 -71q71 0 140.5 31.5t124.5 86.5t89.5 138 t34.5 178q0 122 -73 182t-195 60q-120 0 -223 -84t-134 -225l-6 -35q-4 -40 -4 -68z" />
<glyph unicode="q" d="M145 367q0 133 49 247t129.5 189t181 117.5t204.5 42.5t177.5 -47.5t110.5 -135.5l29 162h164l-246 -1393h-164l109 613q-69 -87 -161 -134.5t-193 -47.5q-172 0 -281 104.5t-109 282.5zM319 397q0 -133 68 -198.5t174 -65.5q122 0 235 91t144 237l6 31q4 40 4 61 q0 122 -72.5 189t-175.5 67q-70 0 -139 -31t-123 -84t-87.5 -131t-33.5 -166z" />
<glyph unicode="r" horiz-adv-x="702" d="M154 0l165 942h164l-18 -108q52 61 110 95t111 34q111 0 164 -66l-113 -135q-31 26 -56 36.5t-63 10.5q-81 0 -126.5 -55t-67.5 -154l-107 -600h-163z" />
<glyph unicode="s" horiz-adv-x="835" d="M106 252l148 78q3 -86 62 -141.5t147 -55.5q86 0 137 35.5t51 107.5q0 25 -11 47t-25.5 36.5t-42.5 31t-47.5 25.5t-55.5 24q-50 22 -82.5 40t-69 48t-55 72t-18.5 96q0 112 96.5 189.5t245.5 77.5q114 0 209 -54t108 -131l-135 -80q-66 109 -199 109q-67 0 -111 -25 t-44 -77q0 -24 16.5 -47t48.5 -44t60.5 -35.5t70.5 -33.5q215 -93 215 -262q0 -76 -30.5 -135t-84 -95t-120.5 -54.5t-144 -18.5q-133 0 -236 79.5t-104 192.5z" />
<glyph unicode="t" horiz-adv-x="491" d="M150 788l26 154h154l57 328h164l-57 -328h153l-26 -154h-154l-139 -788h-164l139 788h-153z" />
<glyph unicode="u" horiz-adv-x="1075" d="M205 248q0 38 10 100l104 594h164l-100 -573q-12 -81 -12 -95q0 -79 41.5 -110t128.5 -31q102 0 178 61.5t100 157.5l105 590h163l-165 -942h-164l22 127q-62 -69 -142.5 -108t-164.5 -39q-127 0 -197.5 68.5t-70.5 199.5z" />
<glyph unicode="v" horiz-adv-x="901" d="M166 942h184l144 -623l378 623h195l-629 -1014z" />
<glyph unicode="w" horiz-adv-x="1392" d="M176 942h174l131 -608l383 680l156 -672l344 600h184l-587 -1014l-168 656l-385 -656z" />
<glyph unicode="x" horiz-adv-x="860" d="M0 0l418 485l-232 457h195l160 -313l270 313h195l-394 -457l248 -485h-194l-174 344l-297 -344h-195z" />
<glyph unicode="y" horiz-adv-x="901" d="M12 -451l369 596l-215 797h174l164 -639l368 639h195l-860 -1393h-195z" />
<glyph unicode="z" horiz-adv-x="921" d="M20 0l709 788h-528l26 154h840l-709 -788h529l-27 -154h-840z" />
<glyph unicode="{" horiz-adv-x="657" d="M240 -123l75 430q17 118 3 163.5t-60 61.5l21 123q53 16 86.5 65.5t52.5 160.5l76 430q24 139 103.5 212.5t158.5 73.5h123l-27 -143h-72q-44 0 -76 -30t-40 -72l-62 -348q-10 -58 -18.5 -96.5t-25.5 -94t-37 -93t-52 -73t-72 -53.5q42 -22 63.5 -66t22 -108.5t-5 -113 t-18.5 -122.5l-62 -348q-8 -41 14 -71.5t66 -30.5h72l-25 -144h-123q-79 0 -132 74t-29 213z" />
<glyph unicode="|" horiz-adv-x="962" d="M225 -440l361 2048h151l-360 -2048h-152z" />
<glyph unicode="}" horiz-adv-x="657" d="M-119 -410l27 144h72q44 0 76 30t40 72l62 348q10 59 18 96.5t25 94t37 93.5t52 72.5t72 53.5q-25 13 -42 35t-27 46.5t-13.5 59t-3.5 63.5t4.5 70t9 68t11.5 68l61 348q8 42 -13.5 72t-65.5 30h-72l25 143h122q79 0 132.5 -73.5t29.5 -212.5l-76 -430 q-17 -118 -2.5 -164t60.5 -62l-21 -123q-54 -16 -87 -65t-52 -160l-76 -430q-24 -139 -103.5 -213t-158.5 -74h-123z" />
<glyph unicode="~" horiz-adv-x="1177" d="M205 371q-3 24 2 49q18 96 63 145q48 52 113 78.5t133 26.5q123 0 234 -99q73 -65 139 -65q44 0 70 27t32 73q4 34 0 56l160 -11q4 -29 -2 -57q-21 -107 -64 -154q-47 -50 -95.5 -69t-108.5 -19q-95 0 -222 97q-91 69 -172 69q-113 0 -133 -112q-4 -29 0 -46z" />
<glyph unicode="&#xa1;" horiz-adv-x="614" d="M117 -502l221 1024h123l-139 -1024h-205zM342 850q0 46 33.5 79.5t79.5 33.5t79 -33.5t33 -79.5t-33 -79.5t-79 -33.5t-79.5 33.5t-33.5 79.5z" />
<glyph unicode="&#xa2;" horiz-adv-x="978" d="M137 385q0 123 43.5 229.5t118 180.5t175.5 118.5t214 49.5l49 221h131l-49 -230q69 -12 124.5 -41.5t82.5 -70.5l-37 -199q-15 54 -70 95.5t-135 58.5l-145 -654q94 12 174 55t117 101l-35 -199q-48 -48 -126 -79t-165 -39l-47 -211h-131l47 213q-153 23 -244.5 132.5 t-91.5 268.5zM305 391q0 -95 53 -163t150 -85l147 662q-146 -14 -248 -126.5t-102 -287.5z" />
<glyph unicode="&#xa3;" horiz-adv-x="1130" d="M72 0q86 75 132 117.5t101.5 99t84 98t52 92t33.5 103.5q9 51 0 94h-291l27 154h201q-35 74 -49.5 142.5t2.5 160.5q32 181 169 287t330 106q61 0 111.5 -14.5t85 -39t61.5 -57.5t41 -71t23.5 -78t8.5 -79t-3 -75l-158 -59q10 79 -6.5 145t-68.5 111t-136 45 q-102 0 -180.5 -54t-97.5 -163q-6 -34 -6 -66.5t3.5 -55.5t13.5 -52.5t17 -44.5t22 -45.5t21 -42.5h332l-26 -154h-269q0 -28 -6 -63q-21 -114 -88.5 -214t-157.5 -163h627l-29 -164h-927z" />
<glyph unicode="&#xa4;" horiz-adv-x="1118" d="M158 199l143 120q-39 72 -46 157.5t13 164.5t56 148t82 120l-101 121l119 103l100 -121q147 94 312 94t280 -94l141 121l82 -103l-141 -121q40 -70 47 -156t-13.5 -165.5t-56.5 -149t-81 -119.5l100 -120l-119 -103l-100 121q-147 -94 -311 -94q-166 0 -281 94l-141 -121 zM428 614q-26 -147 48.5 -242.5t213.5 -95.5t247 95.5t134 242.5t-48.5 242.5t-213.5 95.5t-247 -95.5t-134 -242.5z" />
<glyph unicode="&#xa5;" horiz-adv-x="1218" d="M166 287v153h430l25 142l-7 12h-393v154h334l-262 686h182l254 -674l506 674h195l-521 -686h305v-154h-417l-27 -154h389v-153h-418l-49 -287h-174l51 287h-403z" />
<glyph unicode="&#xa6;" horiz-adv-x="962" d="M305 10l86 492h152l-86 -492h-152zM467 932l88 491h152l-89 -491h-151z" />
<glyph unicode="&#xa7;" horiz-adv-x="835" d="M106 252l148 78q3 -86 62 -141.5t147 -55.5q166 0 186 119q6 36 -5 65t-43 52.5t-57.5 36.5t-74.5 34q-254 107 -219 295q31 181 231 230q-81 40 -122 97.5t-25 143.5q13 75 68 133t128.5 86.5t151.5 28.5q113 0 203.5 -53.5t103.5 -130.5l-145 -84q-19 55 -72 83.5 t-115 28.5q-65 0 -108.5 -23.5t-50.5 -68.5q-3 -21 8 -42t28 -37t48.5 -34.5t54 -29t59.5 -27.5q242 -107 211 -278q-35 -198 -227 -248q167 -100 141 -244q-25 -146 -130 -216t-265 -70q-131 0 -225 78.5t-95 193.5zM418 756q-7 -40 1 -71.5t32.5 -53.5t47 -35t60.5 -29 q64 12 115.5 65t60.5 111q11 61 -27.5 98.5t-117.5 73.5q-81 -30 -122 -67t-50 -92z" />
<glyph unicode="&#xa8;" horiz-adv-x="962" d="M410 1352q0 46 33 79t79 33t79.5 -33t33.5 -79t-33.5 -79.5t-79.5 -33.5t-79 33.5t-33 79.5zM819 1352q0 46 33.5 79t79.5 33t79 -33t33 -79t-33 -79.5t-79 -33.5t-79.5 33.5t-33.5 79.5z" />
<glyph unicode="&#xa9;" horiz-adv-x="1638" d="M197 573q0 152 48 290.5t132.5 244.5t195 185t240 120t262.5 41q277 0 449 -165.5t172 -430.5q0 -190 -72 -355.5t-193 -279t-281.5 -178.5t-334.5 -65q-278 0 -448 164t-170 429zM311 596q0 -227 144.5 -370.5t378.5 -143.5q140 0 276 59.5t240 159.5t167.5 241.5 t63.5 295.5q0 227 -145 370.5t-379 143.5q-141 0 -276 -57t-239 -154.5t-167.5 -240.5t-63.5 -304zM504 631q0 113 43 213t114.5 168t165 107.5t193.5 39.5q92 0 152.5 -22.5t107.5 -71.5l-23 -131q-79 127 -253 127q-158 0 -276 -122t-118 -292q0 -123 75.5 -198.5 t195.5 -75.5q177 0 301 127l-25 -131q-65 -49 -133.5 -72t-159.5 -23q-159 0 -259.5 99.5t-100.5 257.5z" />
<glyph unicode="&#xaa;" horiz-adv-x="487" d="M84 1135q0 132 85.5 215.5t195.5 83.5q103 0 145 -95l14 84h82l-82 -471h-82l13 82q-73 -92 -176 -92q-86 0 -140.5 52t-54.5 141zM170 1151q0 -67 33.5 -99t87.5 -32q72 0 134 60t62 151q0 61 -36.5 93t-88.5 32q-74 0 -133 -59t-59 -146z" />
<glyph unicode="&#xab;" horiz-adv-x="1044" d="M174 522l473 482l94 -101l-385 -391l232 -387l-109 -84zM502 522l473 482l94 -101l-385 -391l231 -387l-108 -84z" />
<glyph unicode="&#xac;" horiz-adv-x="1269" d="M262 614v154h1079l-163 -410h-174l102 256h-844z" />
<glyph unicode="&#xad;" horiz-adv-x="430" d="M96 410v153h410v-153h-410z" />
<glyph unicode="&#xae;" horiz-adv-x="1638" d="M197 573q0 152 48 290.5t132.5 244.5t195 185t240 120t262.5 41q277 0 449 -165.5t172 -430.5q0 -190 -72 -355.5t-193 -279t-281.5 -178.5t-334.5 -65q-278 0 -448 164t-170 429zM311 596q0 -227 144.5 -370.5t378.5 -143.5q140 0 276 59.5t240 159.5t167.5 241.5 t63.5 295.5q0 227 -145 370.5t-379 143.5q-141 0 -276 -57t-239 -154.5t-167.5 -240.5t-63.5 -304zM623 307l151 860h234q111 0 181.5 -61.5t70.5 -159.5q0 -110 -67 -183t-173 -99l180 -357h-121l-176 344h-115l-61 -344h-104zM805 750h129q86 0 151.5 50.5t65.5 141.5 q0 62 -43.5 94.5t-118.5 32.5h-129z" />
<glyph unicode="&#xaf;" horiz-adv-x="1044" d="M315 1229v153h717v-153h-717z" />
<glyph unicode="&#xb0;" horiz-adv-x="569" d="M78 1180q0 126 88 210.5t203 84.5q92 0 149 -55.5t57 -143.5q0 -125 -88.5 -209t-203.5 -84q-92 0 -148.5 54.5t-56.5 142.5zM162 1184q0 -51 36.5 -87t88.5 -36q78 0 141.5 60.5t63.5 152.5q0 55 -35 89t-90 34q-79 0 -142 -60t-63 -153z" />
<glyph unicode="&#xb1;" horiz-adv-x="1259" d="M158 143l28 164h994l-29 -164h-993zM254 686l29 164h411l56 317h174l-56 -317h408l-29 -164h-409l-56 -317h-174l56 317h-410z" />
<glyph unicode="&#xb2;" horiz-adv-x="708" d="M154 578l450 411q46 42 66.5 62.5t47 54t36.5 64.5t10 69q0 52 -36 83.5t-99 31.5q-90 0 -152.5 -59.5t-77.5 -151.5h-104q24 133 119 221t233 88q109 0 165 -63.5t56 -147.5q0 -51 -13.5 -94.5t-43.5 -83t-52.5 -62.5t-64.5 -61l-297 -264h379l-16 -98h-606z" />
<glyph unicode="&#xb3;" horiz-adv-x="638" d="M190 754q0 7 5 47h100q-2 -8 -2 -27q0 -53 36.5 -87t100.5 -34q84 0 144.5 50.5t60.5 140.5q0 59 -44 94t-130 35l18 92q104 0 153.5 47t49.5 131q0 49 -28.5 80t-82.5 31q-66 0 -109.5 -34t-55.5 -99h-101q17 101 91 163t179 62q98 0 153.5 -57.5t55.5 -139.5 q0 -180 -159 -231q110 -43 110 -164q0 -134 -86.5 -213.5t-222.5 -79.5q-107 0 -171.5 54t-64.5 139z" />
<glyph unicode="&#xb4;" horiz-adv-x="768" d="M348 1106l365 328l139 -82l-422 -308z" />
<glyph unicode="&#xb5;" horiz-adv-x="1075" d="M37 -655l176 989q0 2 1 7t1 7l104 594h164q-4 -26 -43 -242.5t-57 -330.5q-12 -81 -12 -95q0 -79 41.5 -110t128.5 -31q102 0 178 61.5t100 157.5l105 590h163l-165 -942h-164l22 127q-62 -69 -142.5 -108t-164.5 -39q-98 0 -154 34l-118 -669h-164z" />
<glyph unicode="&#xb6;" horiz-adv-x="1183" d="M123 993q0 206 133.5 323.5t333.5 117.5h471v-1885h-143v1751h-185v-1751h-143v1004q-130 0 -234.5 49.5t-168.5 151t-64 239.5z" />
<glyph unicode="&#xb7;" horiz-adv-x="614" d="M276 492q0 46 33.5 79t79.5 33t79.5 -33t33.5 -79t-33.5 -79.5t-79.5 -33.5t-79.5 33.5t-33.5 79.5z" />
<glyph unicode="&#xb8;" horiz-adv-x="716" d="M162 -373l67 62q33 -28 55.5 -38.5t59.5 -10.5q49 0 75.5 30.5t26.5 71.5q0 40 -26 67t-76 27q-30 0 -65 -18l-31 -19l153 324h105l-111 -229h19q51 0 90 -46t39 -106q0 -91 -55.5 -142t-143.5 -51q-57 0 -98 17.5t-84 60.5z" />
<glyph unicode="&#xb9;" horiz-adv-x="962" d="M539 1264l18 108l307 74l-155 -885h-105l135 760z" />
<glyph unicode="&#xba;" horiz-adv-x="569" d="M78 1139q0 126 88 210.5t203 84.5q92 0 149 -55.5t57 -143.5q0 -125 -88.5 -209t-203.5 -84q-92 0 -148.5 54.5t-56.5 142.5zM162 1143q0 -51 36.5 -87t88.5 -36q78 0 141.5 60.5t63.5 152.5q0 55 -35 89t-90 34q-79 0 -142 -60t-63 -153z" />
<glyph unicode="&#xbb;" horiz-adv-x="1044" d="M-25 141l385 391l-231 388l109 84l305 -482l-473 -481zM303 141l385 391l-231 388l108 84l305 -482l-473 -481z" />
<glyph unicode="&#xbc;" horiz-adv-x="1544" d="M201 0l1317 1434h133l-1317 -1434h-133zM289 1264l18 108l307 74l-155 -885h-105l135 760zM846 172l663 750l-114 -658h135l-17 -92h-135l-30 -172h-105l31 172h-428zM1038 264h252l62 352z" />
<glyph unicode="&#xbd;" horiz-adv-x="1677" d="M201 0l1317 1434h133l-1317 -1434h-133zM289 1264l18 108l307 74l-155 -885h-105l135 760zM1010 4l450 412q46 42 66.5 62.5t47 54t36.5 64.5t10 69q0 52 -35.5 83t-99.5 31q-90 0 -152.5 -59.5t-77.5 -151.5h-104q24 133 119 221.5t233 88.5q109 0 165 -63.5t56 -147.5 q0 -51 -13.5 -94.5t-43.5 -83t-52.5 -62.5t-64.5 -61l-297 -265h379l-16 -98h-606z" />
<glyph unicode="&#xbe;" horiz-adv-x="1679" d="M201 754q0 15 4 47h100q-2 -8 -2 -27q0 -53 36.5 -87t100.5 -34q84 0 144.5 50.5t60.5 140.5q0 59 -44 94t-130 35l18 92q104 0 153.5 47t49.5 131q0 49 -28.5 80t-81.5 31q-66 0 -110 -34t-56 -99h-101q17 100 91.5 162.5t179.5 62.5q98 0 153.5 -57.5t55.5 -139.5 q0 -179 -160 -231q110 -43 110 -164q0 -134 -86.5 -213.5t-222.5 -79.5q-107 0 -171 54t-64 139zM338 0l1317 1434h133l-1317 -1434h-133zM983 172l664 750l-115 -658h135l-16 -92h-135l-31 -172h-105l31 172h-428zM1176 264h251l62 352z" />
<glyph unicode="&#xbf;" horiz-adv-x="1140" d="M182 352q0 104 46 196t120 153.5t165.5 98t184.5 40.5l58 245h123l-23 -358h-53q-195 0 -325 -112t-130 -267q0 -102 68 -158.5t190 -56.5q189 0 326 170l117 -84q-51 -61 -91 -99t-95.5 -73t-124.5 -51t-158 -16q-173 0 -285.5 102.5t-112.5 269.5zM748 1352q0 46 33 79 t79 33t79.5 -33t33.5 -79t-33.5 -79.5t-79.5 -33.5t-79 33.5t-33 79.5z" />
<glyph unicode="&#xc0;" horiz-adv-x="1351" d="M10 0l932 1505l399 -1505h-194l-107 430h-573l-260 -430h-197zM565 594h434l-127 510zM649 1935l168 82l250 -327l-102 -62z" />
<glyph unicode="&#xc1;" horiz-adv-x="1351" d="M10 0l932 1505l399 -1505h-194l-107 430h-573l-260 -430h-197zM565 594h434l-127 510zM883 1690l364 327l139 -82l-421 -307z" />
<glyph unicode="&#xc2;" horiz-adv-x="1351" d="M10 0l932 1505l399 -1505h-194l-107 430h-573l-260 -430h-197zM565 594h434l-127 510zM674 1724l379 287l276 -287l-115 -79l-176 182l-264 -199z" />
<glyph unicode="&#xc3;" horiz-adv-x="1351" d="M10 0l932 1505l399 -1505h-194l-107 430h-573l-260 -430h-197zM565 594h434l-127 510zM598 1704q28 72 104.5 120t149.5 48q52 0 93 -15t63.5 -33t59.5 -33t81 -15q64 0 143 98l78 -88q-38 -64 -103 -107t-151 -43q-80 0 -151 41q-31 19 -45 27t-42.5 18.5t-52.5 10.5 q-39 0 -82.5 -39t-48.5 -66z" />
<glyph unicode="&#xc4;" horiz-adv-x="1351" d="M10 0l932 1505l399 -1505h-194l-107 430h-573l-260 -430h-197zM565 594h434l-127 510zM604 1741q0 46 33.5 79t79.5 33t79 -33t33 -79t-33 -79.5t-79 -33.5t-79.5 33.5t-33.5 79.5zM1014 1741q0 46 33 79t79 33t79.5 -33t33.5 -79t-33.5 -79.5t-79.5 -33.5t-79 33.5 t-33 79.5z" />
<glyph unicode="&#xc5;" horiz-adv-x="1351" d="M10 0l926 1495q-72 14 -116 68.5t-44 132.5q0 92 56.5 148.5t146.5 56.5t146.5 -56.5t56.5 -148.5t-56.5 -148.5t-146.5 -56.5q-25 0 -35 2l397 -1493h-194l-107 430h-573l-260 -430h-197zM565 594h434l-127 510zM858 1696q0 -58 33.5 -92.5t87.5 -34.5t86.5 34.5 t32.5 92.5q0 59 -32.5 94t-86.5 35t-87.5 -35.5t-33.5 -93.5z" />
<glyph unicode="&#xc6;" horiz-adv-x="1996" d="M41 0l1133 1434h931l-28 -164h-645l-72 -410h604l-29 -164h-604l-94 -532h645l-29 -164h-819l76 430h-537l-337 -430h-195zM702 594h437l125 711z" />
<glyph unicode="&#xc7;" horiz-adv-x="1402" d="M197 573q0 152 46 290t128 244.5t189 185t234.5 120t260.5 41.5q153 0 254 -38t180 -120l-39 -219q-61 99 -169 156t-255 57q-128 0 -248 -54.5t-209 -146.5t-142.5 -220.5t-53.5 -268.5q0 -204 125 -330.5t325 -126.5q147 0 275.5 57t224.5 156l-39 -219 q-99 -75 -203 -113t-239 -44l-103 -211h21q51 0 90 -46t39 -106q0 -91 -55.5 -141.5t-143.5 -50.5q-57 0 -99 18t-85 61l67 60q32 -27 56 -38t61 -11q49 0 76 30.5t27 71.5q0 40 -26.5 67t-76.5 27q-36 0 -67 -16l-31 -19l147 306q-243 19 -392.5 180.5t-149.5 410.5z" />
<glyph unicode="&#xc8;" horiz-adv-x="1126" d="M164 0l252 1434h819l-29 -164h-645l-72 -410h605l-29 -164h-604l-94 -532h645l-29 -164h-819zM442 1884l168 82l250 -328l-102 -61z" />
<glyph unicode="&#xc9;" horiz-adv-x="1126" d="M164 0l252 1434h819l-29 -164h-645l-72 -410h605l-29 -164h-604l-94 -532h645l-29 -164h-819zM676 1638l364 328l140 -82l-422 -307z" />
<glyph unicode="&#xca;" horiz-adv-x="1126" d="M164 0l252 1434h819l-29 -164h-645l-72 -410h605l-29 -164h-604l-94 -532h645l-29 -164h-819zM479 1659l379 287l277 -287l-115 -80l-178 182l-262 -198z" />
<glyph unicode="&#xcb;" horiz-adv-x="1126" d="M164 0l252 1434h819l-29 -164h-645l-72 -410h605l-29 -164h-604l-94 -532h645l-29 -164h-819zM502 1690q0 46 33 79t79 33t79.5 -33t33.5 -79t-33.5 -79.5t-79.5 -33.5t-79 33.5t-33 79.5zM911 1690q0 46 33.5 79t79.5 33t79.5 -33t33.5 -79t-33.5 -79.5t-79.5 -33.5 t-79.5 33.5t-33.5 79.5z" />
<glyph unicode="&#xcc;" horiz-adv-x="481" d="M111 1884l168 82l249 -328l-102 -61zM154 0l252 1434h174l-252 -1434h-174z" />
<glyph unicode="&#xcd;" horiz-adv-x="481" d="M154 0l252 1434h174l-252 -1434h-174zM344 1638l365 328l139 -82l-422 -307z" />
<glyph unicode="&#xce;" horiz-adv-x="481" d="M147 1659l377 287l279 -287l-115 -80l-178 182l-264 -198zM154 0l252 1434h174l-252 -1434h-174z" />
<glyph unicode="&#xcf;" horiz-adv-x="481" d="M154 0l252 1434h174l-252 -1434h-174zM168 1690q0 45 34.5 78.5t80.5 33.5t78 -33t32 -79t-32.5 -79.5t-77.5 -33.5q-46 0 -80.5 33.5t-34.5 79.5zM578 1690q0 46 34 79t80 33t78.5 -33t32.5 -79t-32.5 -79.5t-78.5 -33.5t-80 33.5t-34 79.5z" />
<glyph unicode="&#xd0;" horiz-adv-x="1392" d="M139 635v153h164l113 646h430q262 0 434 -166t172 -424q0 -149 -40 -280.5t-115.5 -234t-180 -176.5t-238 -113.5t-284.5 -39.5h-430l110 635h-135zM371 164h252q130 0 248.5 48.5t207.5 135t142 214t53 276.5q0 199 -122.5 315.5t-334.5 116.5h-252l-84 -482h273v-153 h-301z" />
<glyph unicode="&#xd1;" horiz-adv-x="1566" d="M154 0l266 1505l880 -1159l191 1088h174l-264 -1506l-881 1162l-192 -1090h-174zM655 1704q28 72 104.5 120t149.5 48q52 0 93 -15t63.5 -33t59.5 -33t81 -15q65 0 144 98l77 -88q-38 -64 -102.5 -107t-150.5 -43q-81 0 -152 41q-73 44 -108 52q-16 4 -31 4 q-39 0 -82.5 -39t-48.5 -66z" />
<glyph unicode="&#xd2;" horiz-adv-x="1638" d="M197 573q0 152 48 290.5t132.5 244.5t195 185t240 120t262.5 41q277 0 449 -165.5t172 -430.5q0 -190 -72 -355.5t-193 -279t-281.5 -178.5t-334.5 -65q-278 0 -448 164t-170 429zM373 584q0 -197 129 -319t342 -122q98 0 195.5 32t183.5 94.5t152.5 147t105.5 197.5 t39 238q0 192 -129 315t-340 123q-123 0 -243.5 -51.5t-217.5 -141t-157 -224.5t-60 -289zM688 1884l168 82l250 -328l-102 -61z" />
<glyph unicode="&#xd3;" horiz-adv-x="1638" d="M197 573q0 152 48 290.5t132.5 244.5t195 185t240 120t262.5 41q277 0 449 -165.5t172 -430.5q0 -190 -72 -355.5t-193 -279t-281.5 -178.5t-334.5 -65q-278 0 -448 164t-170 429zM373 584q0 -197 129 -319t342 -122q98 0 195.5 32t183.5 94.5t152.5 147t105.5 197.5 t39 238q0 192 -129 315t-340 123q-123 0 -243.5 -51.5t-217.5 -141t-157 -224.5t-60 -289zM1016 1638l364 328l140 -82l-422 -307z" />
<glyph unicode="&#xd4;" horiz-adv-x="1638" d="M197 573q0 152 48 290.5t132.5 244.5t195 185t240 120t262.5 41q277 0 449 -165.5t172 -430.5q0 -190 -72 -355.5t-193 -279t-281.5 -178.5t-334.5 -65q-278 0 -448 164t-170 429zM373 584q0 -197 129 -319t342 -122q98 0 195.5 32t183.5 94.5t152.5 147t105.5 197.5 t39 238q0 192 -129 315t-340 123q-123 0 -243.5 -51.5t-217.5 -141t-157 -224.5t-60 -289zM786 1673l379 287l277 -287l-115 -80l-176 183l-264 -199z" />
<glyph unicode="&#xd5;" horiz-adv-x="1638" d="M197 573q0 152 48 290.5t132.5 244.5t195 185t240 120t262.5 41q277 0 449 -165.5t172 -430.5q0 -190 -72 -355.5t-193 -279t-281.5 -178.5t-334.5 -65q-278 0 -448 164t-170 429zM373 584q0 -197 129 -319t342 -122q98 0 195.5 32t183.5 94.5t152.5 147t105.5 197.5 t39 238q0 192 -129 315t-340 123q-123 0 -243.5 -51.5t-217.5 -141t-157 -224.5t-60 -289zM731 1653q28 72 104.5 120t149.5 48q52 0 93 -15t63.5 -33.5t59.5 -33.5t81 -15q64 0 143 99l78 -88q-38 -64 -103 -107t-151 -43q-80 0 -151 41q-90 55 -140 55q-39 0 -82.5 -38.5 t-48.5 -65.5z" />
<glyph unicode="&#xd6;" horiz-adv-x="1638" d="M197 573q0 152 48 290.5t132.5 244.5t195 185t240 120t262.5 41q277 0 449 -165.5t172 -430.5q0 -190 -72 -355.5t-193 -279t-281.5 -178.5t-334.5 -65q-278 0 -448 164t-170 429zM373 584q0 -197 129 -319t342 -122q98 0 195.5 32t183.5 94.5t152.5 147t105.5 197.5 t39 238q0 192 -129 315t-340 123q-123 0 -243.5 -51.5t-217.5 -141t-157 -224.5t-60 -289zM799 1690q0 46 33 79t79 33t79.5 -33t33.5 -79t-33.5 -79.5t-79.5 -33.5t-79 33.5t-33 79.5zM1208 1690q0 46 33.5 79t79.5 33t79.5 -33t33.5 -79t-33.5 -79.5t-79.5 -33.5 t-79.5 33.5t-33.5 79.5z" />
<glyph unicode="&#xd7;" horiz-adv-x="1220" d="M158 164l440 366l-305 359l127 106l293 -366l432 375l100 -123l-438 -367l305 -358l-127 -107l-295 369l-432 -377z" />
<glyph unicode="&#xd8;" horiz-adv-x="1638" d="M16 0l273 240q-92 143 -92 333q0 152 48 290.5t132.5 244.5t195 185t240 120t262.5 41q257 0 430 -149l148 129h213l-267 -234q97 -145 97 -342q0 -190 -72 -355.5t-193 -279t-281.5 -178.5t-334.5 -65q-263 0 -434 151l-150 -131h-215zM373 584q0 -125 55 -224l942 826 q-126 104 -319 104q-123 0 -243.5 -51.5t-217.5 -141t-157 -224.5t-60 -289zM516 252q131 -109 328 -109q98 0 195.5 32t183.5 94.5t152.5 147t105.5 197.5t39 238t-60 227z" />
<glyph unicode="&#xd9;" horiz-adv-x="1245" d="M229 375q0 47 9 96l168 963h174l-168 -963q-6 -37 -6 -72q0 -116 67 -186t172 -70q141 0 254 91.5t139 236.5l168 963h174l-168 -963q-39 -216 -197 -353.5t-378 -137.5q-182 0 -295 110t-113 285zM510 1884l168 82l250 -328l-103 -61z" />
<glyph unicode="&#xda;" horiz-adv-x="1245" d="M229 375q0 47 9 96l168 963h174l-168 -963q-6 -37 -6 -72q0 -116 67 -186t172 -70q141 0 254 91.5t139 236.5l168 963h174l-168 -963q-39 -216 -197 -353.5t-378 -137.5q-182 0 -295 110t-113 285zM743 1638l365 328l139 -82l-422 -307z" />
<glyph unicode="&#xdb;" horiz-adv-x="1245" d="M229 375q0 47 9 96l168 963h174l-168 -963q-6 -37 -6 -72q0 -116 67 -186t172 -70q141 0 254 91.5t139 236.5l168 963h174l-168 -963q-39 -216 -197 -353.5t-378 -137.5q-182 0 -295 110t-113 285zM547 1659l379 287l276 -287l-115 -80l-178 182l-262 -198z" />
<glyph unicode="&#xdc;" horiz-adv-x="1245" d="M229 375q0 47 9 96l168 963h174l-168 -963q-6 -37 -6 -72q0 -116 67 -186t172 -70q141 0 254 91.5t139 236.5l168 963h174l-168 -963q-39 -216 -197 -353.5t-378 -137.5q-182 0 -295 110t-113 285zM569 1690q0 46 33.5 79t79.5 33t79.5 -33t33.5 -79t-33.5 -79.5 t-79.5 -33.5t-79.5 33.5t-33.5 79.5zM979 1690q0 46 33.5 79t79.5 33t79 -33t33 -79t-33 -79.5t-79 -33.5t-79.5 33.5t-33.5 79.5z" />
<glyph unicode="&#xdd;" horiz-adv-x="1157" d="M262 1434h182l254 -674l506 674h195l-633 -832l-104 -602h-175l103 582zM680 1638l364 328l140 -82l-422 -307z" />
<glyph unicode="&#xde;" horiz-adv-x="1126" d="M164 0v1434h174v-287h215q211 0 349 -118t138 -312t-138 -312t-349 -118h-215v-287h-174zM338 451h215q142 0 227.5 68.5t85.5 197.5t-85.5 197.5t-227.5 68.5h-215v-532z" />
<glyph unicode="&#xdf;" horiz-adv-x="1136" d="M205 0v1241q0 108 56 195.5t148 134.5t199 47q203 0 314.5 -103t111.5 -274q0 -264 -241 -340q149 -55 236 -170.5t87 -269.5q0 -139 -72 -250t-190 -171t-256 -60v153q84 0 163.5 40.5t134 122.5t54.5 185q0 136 -114.5 242t-278.5 106v154q156 0 233.5 70.5t77.5 167.5 q0 108 -64.5 175.5t-195.5 67.5q-101 0 -170 -56.5t-69 -166.5v-1241h-164z" />
<glyph unicode="&#xe0;" d="M145 367q0 133 49 247t129.5 189t181 117.5t204.5 42.5q101 0 175.5 -50.5t112.5 -138.5l29 168h164l-166 -942h-164l29 162q-69 -87 -161 -134.5t-193 -47.5q-172 0 -281 104.5t-109 282.5zM319 397q0 -133 68 -198.5t174 -65.5q67 0 135.5 30.5t125 84t92.5 134.5 t36 173q0 122 -72.5 188t-175.5 66q-70 0 -139 -31t-123 -84t-87.5 -131t-33.5 -166zM377 1393l168 82l250 -328l-103 -62z" />
<glyph unicode="&#xe1;" d="M145 367q0 133 49 247t129.5 189t181 117.5t204.5 42.5q101 0 175.5 -50.5t112.5 -138.5l29 168h164l-166 -942h-164l29 162q-69 -87 -161 -134.5t-193 -47.5q-172 0 -281 104.5t-109 282.5zM319 397q0 -133 68 -198.5t174 -65.5q67 0 135.5 30.5t125 84t92.5 134.5 t36 173q0 122 -72.5 188t-175.5 66q-70 0 -139 -31t-123 -84t-87.5 -131t-33.5 -166zM610 1147l365 328l139 -82l-422 -308z" />
<glyph unicode="&#xe2;" d="M145 367q0 133 49 247t129.5 189t181 117.5t204.5 42.5q101 0 175.5 -50.5t112.5 -138.5l29 168h164l-166 -942h-164l29 162q-69 -87 -161 -134.5t-193 -47.5q-172 0 -281 104.5t-109 282.5zM319 397q0 -133 68 -198.5t174 -65.5q67 0 135.5 30.5t125 84t92.5 134.5 t36 173q0 122 -72.5 188t-175.5 66q-70 0 -139 -31t-123 -84t-87.5 -131t-33.5 -166zM414 1167l379 287l276 -287l-115 -80l-178 183l-262 -199z" />
<glyph unicode="&#xe3;" d="M145 367q0 133 49 247t129.5 189t181 117.5t204.5 42.5q101 0 175.5 -50.5t112.5 -138.5l29 168h164l-166 -942h-164l29 162q-69 -87 -161 -134.5t-193 -47.5q-172 0 -281 104.5t-109 282.5zM319 397q0 -133 68 -198.5t174 -65.5q67 0 135.5 30.5t125 84t92.5 134.5 t36 173q0 122 -72.5 188t-175.5 66q-70 0 -139 -31t-123 -84t-87.5 -131t-33.5 -166zM354 1161q28 72 104.5 120t149.5 48q52 0 93 -15t63.5 -33t59.5 -33t81 -15q65 0 144 98l77 -88q-38 -64 -103 -106.5t-151 -42.5q-80 0 -151 41q-30 18 -44.5 26.5t-42.5 18.5t-52 10 q-39 0 -82.5 -39t-48.5 -66z" />
<glyph unicode="&#xe4;" d="M145 367q0 133 49 247t129.5 189t181 117.5t204.5 42.5q101 0 175.5 -50.5t112.5 -138.5l29 168h164l-166 -942h-164l29 162q-69 -87 -161 -134.5t-193 -47.5q-172 0 -281 104.5t-109 282.5zM319 397q0 -133 68 -198.5t174 -65.5q67 0 135.5 30.5t125 84t92.5 134.5 t36 173q0 122 -72.5 188t-175.5 66q-70 0 -139 -31t-123 -84t-87.5 -131t-33.5 -166zM436 1198q0 46 33.5 79.5t79.5 33.5t79.5 -33.5t33.5 -79.5t-33.5 -79.5t-79.5 -33.5t-79.5 33.5t-33.5 79.5zM846 1198q0 46 33 79.5t79 33.5t79.5 -33.5t33.5 -79.5t-33.5 -79.5 t-79.5 -33.5t-79 33.5t-33 79.5z" />
<glyph unicode="&#xe5;" d="M145 367q0 133 49 247t129.5 189t181 117.5t204.5 42.5q101 0 175.5 -50.5t112.5 -138.5l29 168h164l-166 -942h-164l29 162q-69 -87 -161 -134.5t-193 -47.5q-172 0 -281 104.5t-109 282.5zM319 397q0 -133 68 -198.5t174 -65.5q67 0 135.5 30.5t125 84t92.5 134.5 t36 173q0 122 -72.5 188t-175.5 66q-70 0 -139 -31t-123 -84t-87.5 -131t-33.5 -166zM532 1290q0 92 56.5 148.5t146.5 56.5t146.5 -56.5t56.5 -148.5t-56.5 -148.5t-146.5 -56.5t-146.5 56.5t-56.5 148.5zM616 1290q0 -58 32.5 -92.5t86.5 -34.5t87.5 34.5t33.5 92.5 t-33.5 92.5t-87.5 34.5t-86.5 -34.5t-32.5 -92.5z" />
<glyph unicode="&#xe6;" horiz-adv-x="1689" d="M113 287q13 72 59.5 130.5t113 94.5t144 55t156.5 19q131 0 215 -54l24 144q11 67 -39.5 105t-132.5 38q-148 0 -299 -98l-57 125q179 117 381 117q132 0 215 -50t98 -141q135 191 373 191q187 0 282 -132t56 -352q-2 -18 -10 -49h-742q-15 -141 50.5 -219t195.5 -78 q189 0 326 170l118 -84q-65 -78 -126.5 -127t-149.5 -80.5t-195 -31.5q-270 0 -333 198q-55 -92 -171 -145t-243 -53q-68 0 -127.5 17t-106.5 52t-68 96.5t-7 141.5zM279 287q-9 -48 5.5 -82t46.5 -50t65.5 -23t72.5 -7q251 0 299 221l12 78q-93 37 -207 37 q-264 0 -294 -174zM979 569h561q6 116 -48.5 183t-172.5 67q-116 0 -211.5 -68.5t-128.5 -181.5z" />
<glyph unicode="&#xe7;" horiz-adv-x="978" d="M137 385q0 168 80 301.5t212 205t290 71.5q99 0 184.5 -32.5t122.5 -88.5l-37 -199q-21 70 -104 117t-195 47q-157 0 -271 -114.5t-114 -301.5q0 -109 69 -180.5t193 -71.5q114 0 216.5 45.5t146.5 114.5l-35 -199q-50 -50 -132 -81t-171 -37l-103 -213h21q51 0 90 -46 t39 -106q0 -91 -55.5 -141.5t-143.5 -50.5q-57 0 -99 18t-85 61l68 60q32 -27 55.5 -38t60.5 -11q49 0 76 30.5t27 71.5q0 40 -26.5 67t-76.5 27q-36 0 -67 -16l-31 -19l147 308q-159 19 -255.5 129t-96.5 272z" />
<glyph unicode="&#xe8;" horiz-adv-x="1054" d="M145 365q0 38 11 106q39 219 187 355.5t366 136.5q157 0 262.5 -105t105.5 -262q0 -84 -20 -166h-742q-2 -16 -2 -49q0 -121 59.5 -184.5t176.5 -63.5q98 0 183 48t151 130l123 -92q-100 -121 -207 -180t-277 -59q-173 0 -275 106t-102 279zM344 569h569q5 35 5 41 q0 96 -68.5 152.5t-165.5 56.5q-114 0 -210 -70.5t-130 -179.5zM408 1393l167 82l250 -328l-102 -62z" />
<glyph unicode="&#xe9;" horiz-adv-x="1054" d="M145 365q0 38 11 106q39 219 187 355.5t366 136.5q157 0 262.5 -105t105.5 -262q0 -84 -20 -166h-742q-2 -16 -2 -49q0 -121 59.5 -184.5t176.5 -63.5q98 0 183 48t151 130l123 -92q-100 -121 -207 -180t-277 -59q-173 0 -275 106t-102 279zM344 569h569q5 35 5 41 q0 96 -68.5 152.5t-165.5 56.5q-114 0 -210 -70.5t-130 -179.5zM641 1147l365 328l139 -82l-422 -308z" />
<glyph unicode="&#xea;" horiz-adv-x="1054" d="M145 365q0 38 11 106q39 219 187 355.5t366 136.5q157 0 262.5 -105t105.5 -262q0 -84 -20 -166h-742q-2 -16 -2 -49q0 -121 59.5 -184.5t176.5 -63.5q98 0 183 48t151 130l123 -92q-100 -121 -207 -180t-277 -59q-173 0 -275 106t-102 279zM344 569h569q5 35 5 41 q0 96 -68.5 152.5t-165.5 56.5q-114 0 -210 -70.5t-130 -179.5zM444 1167l379 287l277 -287l-115 -80l-178 183l-262 -199z" />
<glyph unicode="&#xeb;" horiz-adv-x="1054" d="M145 365q0 38 11 106q39 219 187 355.5t366 136.5q157 0 262.5 -105t105.5 -262q0 -84 -20 -166h-742q-2 -16 -2 -49q0 -121 59.5 -184.5t176.5 -63.5q98 0 183 48t151 130l123 -92q-100 -121 -207 -180t-277 -59q-173 0 -275 106t-102 279zM344 569h569q5 35 5 41 q0 96 -68.5 152.5t-165.5 56.5q-114 0 -210 -70.5t-130 -179.5zM467 1198q0 46 33.5 79.5t79.5 33.5t79 -33.5t33 -79.5t-33 -79.5t-79 -33.5t-79.5 33.5t-33.5 79.5zM877 1198q0 46 33 79.5t79 33.5t79.5 -33.5t33.5 -79.5t-33.5 -79.5t-79.5 -33.5t-79 33.5t-33 79.5z" />
<glyph unicode="&#xec;" horiz-adv-x="532" d="M143 1393l168 82l250 -328l-102 -62zM184 0l166 942h164l-166 -942h-164z" />
<glyph unicode="&#xed;" horiz-adv-x="532" d="M184 0l166 942h164l-166 -942h-164zM377 1147l364 328l140 -82l-422 -308z" />
<glyph unicode="&#xee;" horiz-adv-x="532" d="M147 1182l379 286l277 -286l-115 -80l-178 182l-262 -199zM184 0l166 942h164l-166 -942h-164z" />
<glyph unicode="&#xef;" horiz-adv-x="532" d="M160 1198q0 46 33 79.5t79 33.5t79.5 -33.5t33.5 -79.5t-33.5 -79.5t-79.5 -33.5t-79 33.5t-33 79.5zM184 0l166 942h164l-166 -942h-164zM569 1198q0 46 33.5 79.5t79.5 33.5t79.5 -33.5t33.5 -79.5t-33.5 -79.5t-79.5 -33.5t-79.5 33.5t-33.5 79.5z" />
<glyph unicode="&#xf0;" horiz-adv-x="1138" d="M82 471q0 194 120 325.5t283 131.5q116 0 187 -33l-129 170h-117v154l-162 215h219l156 -215h401v-154h-288l215 -297q90 -124 90 -297q0 -218 -139 -354.5t-349 -136.5t-348.5 136.5t-138.5 354.5zM248 471q0 -147 91 -240.5t230 -93.5t230.5 93.5t91.5 240.5 t-91.5 242.5t-230.5 95.5t-230 -95.5t-91 -242.5z" />
<glyph unicode="&#xf1;" horiz-adv-x="1075" d="M154 0l165 942h164l-22 -127q62 70 142.5 109t164.5 39q127 0 197.5 -69t70.5 -200q0 -38 -10 -100l-104 -594h-164l100 573q10 68 10 95q0 79 -40.5 110t-127.5 31q-102 0 -178 -61.5t-100 -157.5l-105 -590h-163zM385 1161q28 72 104.5 120t149.5 48q51 0 92 -15 t63.5 -33t59.5 -33t80 -15q64 0 143 98l78 -88q-38 -64 -103 -106.5t-151 -42.5q-80 0 -151 41q-90 55 -140 55q-39 0 -82.5 -39t-48.5 -66z" />
<glyph unicode="&#xf2;" horiz-adv-x="1118" d="M147 375q0 126 49.5 237.5t131 187t186.5 119.5t215 44q183 0 296.5 -110.5t113.5 -285.5q0 -126 -50 -237t-131.5 -187t-187 -119.5t-215.5 -43.5q-182 0 -295 110t-113 285zM315 381q0 -103 70.5 -175.5t175.5 -72.5q101 0 194 51.5t154.5 151.5t61.5 225 q0 111 -70.5 179.5t-177.5 68.5q-101 0 -193.5 -51.5t-153.5 -151.5t-61 -225zM428 1393l168 82l250 -328l-103 -62z" />
<glyph unicode="&#xf3;" horiz-adv-x="1118" d="M147 375q0 126 49.5 237.5t131 187t186.5 119.5t215 44q183 0 296.5 -110.5t113.5 -285.5q0 -126 -50 -237t-131.5 -187t-187 -119.5t-215.5 -43.5q-182 0 -295 110t-113 285zM315 381q0 -103 70.5 -175.5t175.5 -72.5q101 0 194 51.5t154.5 151.5t61.5 225 q0 111 -70.5 179.5t-177.5 68.5q-101 0 -193.5 -51.5t-153.5 -151.5t-61 -225zM662 1147l364 328l139 -82l-422 -308z" />
<glyph unicode="&#xf4;" horiz-adv-x="1118" d="M147 375q0 126 49.5 237.5t131 187t186.5 119.5t215 44q183 0 296.5 -110.5t113.5 -285.5q0 -126 -50 -237t-131.5 -187t-187 -119.5t-215.5 -43.5q-182 0 -295 110t-113 285zM315 381q0 -103 70.5 -175.5t175.5 -72.5q101 0 194 51.5t154.5 151.5t61.5 225 q0 111 -70.5 179.5t-177.5 68.5q-101 0 -193.5 -51.5t-153.5 -151.5t-61 -225zM465 1167l379 287l276 -287l-114 -80l-179 183l-262 -199z" />
<glyph unicode="&#xf5;" horiz-adv-x="1118" d="M147 375q0 126 49.5 237.5t131 187t186.5 119.5t215 44q183 0 296.5 -110.5t113.5 -285.5q0 -126 -50 -237t-131.5 -187t-187 -119.5t-215.5 -43.5q-182 0 -295 110t-113 285zM315 381q0 -103 70.5 -175.5t175.5 -72.5q101 0 194 51.5t154.5 151.5t61.5 225 q0 111 -70.5 179.5t-177.5 68.5q-101 0 -193.5 -51.5t-153.5 -151.5t-61 -225zM406 1161q28 72 104.5 120t148.5 48q52 0 93 -15t63.5 -33t59.5 -33t81 -15q65 0 144 98l78 -88q-38 -64 -103 -106.5t-151 -42.5q-81 0 -152 41q-30 18 -44.5 26.5t-42.5 18.5t-52 10 q-39 0 -82.5 -39t-48.5 -66z" />
<glyph unicode="&#xf6;" horiz-adv-x="1118" d="M147 375q0 126 49.5 237.5t131 187t186.5 119.5t215 44q183 0 296.5 -110.5t113.5 -285.5q0 -126 -50 -237t-131.5 -187t-187 -119.5t-215.5 -43.5q-182 0 -295 110t-113 285zM315 381q0 -103 70.5 -175.5t175.5 -72.5q101 0 194 51.5t154.5 151.5t61.5 225 q0 111 -70.5 179.5t-177.5 68.5q-101 0 -193.5 -51.5t-153.5 -151.5t-61 -225zM487 1198q0 46 33.5 79.5t79.5 33.5t79.5 -33.5t33.5 -79.5t-33.5 -79.5t-79.5 -33.5t-79.5 33.5t-33.5 79.5zM897 1198q0 46 33.5 79.5t79.5 33.5t79 -33.5t33 -79.5t-33 -79.5t-79 -33.5 t-79.5 33.5t-33.5 79.5z" />
<glyph unicode="&#xf7;" horiz-adv-x="1261" d="M348 451v153h1024v-153h-1024zM717 143q0 46 33 79.5t79 33.5t79.5 -33.5t33.5 -79.5t-33.5 -79t-79.5 -33t-79 33t-33 79zM819 901q0 46 33.5 79.5t79.5 33.5t79 -33.5t33 -79.5t-33 -79.5t-79 -33.5t-79.5 33.5t-33.5 79.5z" />
<glyph unicode="&#xf8;" horiz-adv-x="1118" d="M31 -8l178 158q-62 92 -62 225q0 126 49.5 237.5t131 187t186.5 119.5t215 44q176 0 291 -105l94 84h141l-176 -156q60 -94 60 -219q0 -126 -50 -237t-131.5 -187t-187 -119.5t-215.5 -43.5q-173 0 -285 98l-98 -86h-141zM315 381q0 -63 27 -115l551 482q-67 61 -170 61 q-101 0 -193.5 -51.5t-153.5 -151.5t-61 -225zM401 193q70 -60 160 -60q101 0 194 51.5t154.5 151.5t61.5 225q0 57 -23 111z" />
<glyph unicode="&#xf9;" horiz-adv-x="1075" d="M205 248q0 38 10 100l104 594h164l-100 -573q-12 -81 -12 -95q0 -79 41.5 -110t128.5 -31q102 0 178 61.5t100 157.5l105 590h163l-165 -942h-164l22 127q-62 -69 -142.5 -108t-164.5 -39q-127 0 -197.5 68.5t-70.5 199.5zM406 1393l167 82l250 -328l-102 -62z" />
<glyph unicode="&#xfa;" horiz-adv-x="1075" d="M205 248q0 38 10 100l104 594h164l-100 -573q-12 -81 -12 -95q0 -79 41.5 -110t128.5 -31q102 0 178 61.5t100 157.5l105 590h163l-165 -942h-164l22 127q-62 -69 -142.5 -108t-164.5 -39q-127 0 -197.5 68.5t-70.5 199.5zM639 1147l365 328l139 -82l-422 -308z" />
<glyph unicode="&#xfb;" horiz-adv-x="1075" d="M205 248q0 38 10 100l104 594h164l-100 -573q-12 -81 -12 -95q0 -79 41.5 -110t128.5 -31q102 0 178 61.5t100 157.5l105 590h163l-165 -942h-164l22 127q-62 -69 -142.5 -108t-164.5 -39q-127 0 -197.5 68.5t-70.5 199.5zM442 1167l381 287l275 -287l-115 -80l-176 183 l-262 -199z" />
<glyph unicode="&#xfc;" horiz-adv-x="1075" d="M205 248q0 38 10 100l104 594h164l-100 -573q-12 -81 -12 -95q0 -79 41.5 -110t128.5 -31q102 0 178 61.5t100 157.5l105 590h163l-165 -942h-164l22 127q-62 -69 -142.5 -108t-164.5 -39q-127 0 -197.5 68.5t-70.5 199.5zM467 1198q0 46 32.5 79.5t78.5 33.5t80 -33.5 t34 -79.5t-34 -79.5t-80 -33.5t-78.5 33.5t-32.5 79.5zM877 1198q0 46 32.5 79.5t77.5 33.5q46 0 80.5 -33.5t34.5 -79.5t-34.5 -79.5t-80.5 -33.5q-45 0 -77.5 33.5t-32.5 79.5z" />
<glyph unicode="&#xfd;" horiz-adv-x="901" d="M12 -451l369 596l-215 797h174l164 -639l368 639h195l-860 -1393h-195zM553 1147l365 328l139 -82l-422 -308z" />
<glyph unicode="&#xfe;" d="M63 -451l363 2048h164l-146 -817q68 88 159.5 135.5t195.5 47.5q96 0 175 -34.5t131.5 -96.5t73 -155.5t1.5 -205.5q-39 -222 -198 -356.5t-357 -134.5q-104 0 -179 48t-110 136l-109 -615h-164zM391 471q-14 -78 1 -143.5t51 -107t84.5 -64.5t103.5 -23q137 0 246 90.5 t137 247.5t-48.5 247.5t-213.5 90.5q-116 0 -224.5 -92t-136.5 -246z" />
<glyph unicode="&#xff;" horiz-adv-x="901" d="M12 -451l369 596l-215 797h174l164 -639l368 639h195l-860 -1393h-195zM344 1198q0 46 33.5 79.5t79.5 33.5t79 -33.5t33 -79.5t-33 -79.5t-79 -33.5t-79.5 33.5t-33.5 79.5zM754 1198q0 46 33 79.5t79 33.5t79.5 -33.5t33.5 -79.5t-33.5 -79.5t-79.5 -33.5t-79 33.5 t-33 79.5z" />
<glyph unicode="&#x2c6;" horiz-adv-x="983" d="M397 1208l379 287l277 -287l-115 -80l-178 183l-262 -199z" />
<glyph unicode="&#x2dc;" horiz-adv-x="1085" d="M389 1280q28 72 104.5 120t149.5 48q52 0 93 -15t63.5 -33t59.5 -33t81 -15q64 0 143 98l78 -88q-38 -64 -103 -107t-151 -43q-80 0 -151 41q-31 19 -45 27t-42.5 18.5t-52.5 10.5q-39 0 -82.5 -39t-48.5 -66z" />
<glyph unicode="&#x2000;" horiz-adv-x="1008" />
<glyph unicode="&#x2001;" horiz-adv-x="2017" />
<glyph unicode="&#x2002;" horiz-adv-x="1008" />
<glyph unicode="&#x2003;" horiz-adv-x="2017" />
<glyph unicode="&#x2004;" horiz-adv-x="672" />
<glyph unicode="&#x2005;" horiz-adv-x="504" />
<glyph unicode="&#x2006;" horiz-adv-x="336" />
<glyph unicode="&#x2007;" horiz-adv-x="336" />
<glyph unicode="&#x2008;" horiz-adv-x="252" />
<glyph unicode="&#x2009;" horiz-adv-x="403" />
<glyph unicode="&#x200a;" horiz-adv-x="112" />
<glyph unicode="&#x2010;" horiz-adv-x="430" d="M96 410v153h410v-153h-410z" />
<glyph unicode="&#x2011;" horiz-adv-x="430" d="M96 410v153h410v-153h-410z" />
<glyph unicode="&#x2012;" horiz-adv-x="430" d="M96 410v153h410v-153h-410z" />
<glyph unicode="&#x2013;" horiz-adv-x="1515" d="M238 410v153h1228v-153h-1228z" />
<glyph unicode="&#x2014;" horiz-adv-x="1822" d="M242 410v153h1536v-153h-1536z" />
<glyph unicode="&#x2018;" horiz-adv-x="604" d="M260 963l287 471h112l-204 -471h-195z" />
<glyph unicode="&#x2019;" horiz-adv-x="604" d="M354 963l205 471h195l-287 -471h-113z" />
<glyph unicode="&#x201a;" horiz-adv-x="604" d="M88 -307l205 471h194l-286 -471h-113z" />
<glyph unicode="&#x201c;" horiz-adv-x="1013" d="M240 963l286 471h113l-205 -471h-194zM649 963l287 471h113l-205 -471h-195z" />
<glyph unicode="&#x201d;" horiz-adv-x="1013" d="M354 963l205 471h195l-287 -471h-113zM764 963l205 471h194l-286 -471h-113z" />
<glyph unicode="&#x202f;" horiz-adv-x="403" />
<glyph unicode="&#x2039;" horiz-adv-x="716" d="M174 522l473 482l94 -101l-385 -391l232 -387l-109 -84z" />
<glyph unicode="&#x203a;" horiz-adv-x="716" d="M-25 141l385 391l-231 388l109 84l305 -482l-473 -481z" />
<glyph unicode="&#x205f;" horiz-adv-x="504" />
<glyph unicode="&#x20ac;" horiz-adv-x="1433" d="M31 588v98h174q1 5 2 15.5t2 15.5q5 37 27 117h-195v98h229q96 237 280 379.5t402 142.5q163 0 293 -84l-37 -207q-108 127 -284 127q-149 0 -274.5 -96.5t-200.5 -261.5h618v-98h-655q-11 -33 -33 -148h625v-98h-635q-6 -200 89 -322.5t263 -122.5q178 0 330 127 l-37 -207q-160 -83 -322 -83q-238 0 -373.5 168t-123.5 440h-164z" />
<glyph unicode="&#x25fc;" horiz-adv-x="942" d="M0 0v942h942v-942h-942z" />
</font>
</defs>
</svg>
