<?xml version="1.0" standalone="no"?>
<!DOCTYPE svg PUBLIC "-//W3C//DTD SVG 1.1//EN" "http://www.w3.org/Graphics/SVG/1.1/DTD/svg11.dtd" >
<svg xmlns="http://www.w3.org/2000/svg" xmlns:xlink="http://www.w3.org/1999/xlink" version="1.1">
<metadata></metadata>
<defs>
<font id="rennerbook" horiz-adv-x="1118" >
<font-face units-per-em="2048" ascent="1638" descent="-410" />
<missing-glyph horiz-adv-x="614" />
<glyph horiz-adv-x="0" />
<glyph horiz-adv-x="682" />
<glyph unicode=" "  horiz-adv-x="614" />
<glyph unicode="&#x09;" horiz-adv-x="614" />
<glyph unicode="&#xa0;" horiz-adv-x="614" />
<glyph unicode="!" horiz-adv-x="614" d="M195 82q0 46 33 79.5t79 33.5t79.5 -33.5t33.5 -79.5t-33.5 -79.5t-79.5 -33.5t-79 33.5t-33 79.5zM205 1434h205l-41 -1024h-123z" />
<glyph unicode="&#x22;" horiz-adv-x="972" d="M205 819l102 615h195l-185 -615h-112zM573 819l103 615h194l-184 -615h-113z" />
<glyph unicode="#" horiz-adv-x="1239" d="M92 410v133h193l88 358h-240v133h273l96 400h153l-96 -400h277l96 400h153l-96 -400h158v-133h-191l-88 -358h238v-133h-268l-101 -410h-153l100 410h-276l-101 -410h-153l100 410h-162zM438 543h277l88 358h-277z" />
<glyph unicode="$" horiz-adv-x="1101" d="M61 375l148 88q55 -127 124 -204.5t161 -102.5v536q-42 15 -77 31t-79.5 41t-78.5 57t-64 73t-46 95t-16 117q0 134 102.5 231.5t258.5 114.5v223h131v-227q132 -22 228 -108t138 -193l-141 -94q-22 42 -42 73t-47.5 63.5t-61.5 55t-74 33.5v-459q4 -1 11 -4t11 -4 q53 -19 96.5 -40t95.5 -57.5t87.5 -79.5t59.5 -106.5t24 -138.5q0 -175 -100 -284.5t-285 -122.5v-211h-131v215q-146 24 -259 127t-174 262zM315 1094q0 -136 179 -220v410q-179 -20 -179 -190zM625 145q101 10 152.5 70t51.5 160q0 94 -54.5 156.5t-149.5 107.5v-494z" />
<glyph unicode="%" horiz-adv-x="1538" d="M72 1126q0 139 89.5 233.5t233.5 94.5t234 -94.5t90 -233.5t-90 -233t-234 -94t-233.5 94t-89.5 233zM217 1126q0 -82 48 -138t130 -56t130 56t48 138t-48 138.5t-130 56.5t-130 -56.5t-48 -138.5zM231 0l922 1434h154l-922 -1434h-154zM819 307q0 139 90 233.5t234 94.5 t233.5 -94.5t89.5 -233.5t-89.5 -233t-233.5 -94t-234 94t-90 233zM965 307q0 -82 48 -138t130 -56t130 56t48 138t-48 138.5t-130 56.5t-130 -56.5t-48 -138.5z" />
<glyph unicode="&#x26;" horiz-adv-x="1382" d="M82 389q0 73 22.5 135t55.5 103.5t83 77.5t94 57t99 41q-65 81 -100 158t-35 178q0 144 100.5 230.5t262.5 86.5q172 0 257 -85.5t85 -235.5q0 -56 -26.5 -112t-71.5 -102t-92.5 -81.5t-100.5 -65.5l-25 -12l332 -389q122 128 211 274l127 -80q-125 -195 -236 -315 l217 -252h-206l-125 143q-199 -163 -406 -163q-150 0 -267 46.5t-186 140t-69 222.5zM252 410q0 -52 21 -100.5t62 -88.5t110.5 -64t158.5 -24q138 0 299 131l-377 432q-61 -23 -102.5 -45t-84.5 -55.5t-65 -80t-22 -105.5zM473 1139q0 -75 30.5 -133t100.5 -142 q104 50 170 127t66 144q0 63 -45.5 114t-130.5 51q-87 0 -139 -50t-52 -111z" />
<glyph unicode="'" horiz-adv-x="604" d="M205 819l102 615h195l-185 -615h-112z" />
<glyph unicode="(" horiz-adv-x="634" d="M184 594q0 561 236 1003h153q-204 -438 -204 -1003q0 -566 204 -1004h-153q-236 442 -236 1004z" />
<glyph unicode=")" horiz-adv-x="634" d="M61 -410q205 440 205 1004q0 563 -205 1003h154q236 -442 236 -1003q0 -562 -236 -1004h-154z" />
<glyph unicode="*" horiz-adv-x="1212" d="M205 1090l43 137l303 -117l-16 324h143l-16 -324l303 117l43 -137l-312 -84l203 -252l-117 -84l-176 270l-176 -270l-117 84l203 252z" />
<glyph unicode="+" horiz-adv-x="1259" d="M133 440v164h410v420h174v-420h409v-164h-409v-420h-174v420h-410z" />
<glyph unicode="," horiz-adv-x="630" d="M123 -305l180 530l164 -61l-225 -512z" />
<glyph unicode="-" horiz-adv-x="430" d="M10 410v153h410v-153h-410z" />
<glyph unicode="." horiz-adv-x="614" d="M195 82q0 46 33 79.5t79 33.5t79.5 -33.5t33.5 -79.5t-33.5 -79.5t-79.5 -33.5t-79 33.5t-33 79.5z" />
<glyph unicode="/" horiz-adv-x="1259" d="M31 -307l1024 1741h174l-1024 -1741h-174z" />
<glyph unicode="0" horiz-adv-x="1228" d="M82 717q0 212 67 380t188.5 262.5t276.5 94.5t277 -94.5t189 -262.5t67 -380t-67 -380t-189 -262.5t-277 -94.5t-276.5 94.5t-188.5 262.5t-67 380zM256 717q0 -167 43 -296.5t125 -203.5t190 -74q109 0 191 74t125 203.5t43 296.5t-43 296.5t-125 203t-191 73.5 t-190.5 -73.5t-124.5 -203t-43 -296.5z" />
<glyph unicode="1" horiz-adv-x="962" d="M225 1171v181l492 123v-1475h-174v1266z" />
<glyph unicode="2" horiz-adv-x="1165" d="M41 0l633 686q103 111 148.5 193t45.5 178q0 104 -70 169.5t-190 65.5q-150 0 -235.5 -98.5t-85.5 -251.5h-174q0 144 56.5 259.5t170.5 185t268 69.5q107 0 192.5 -36.5t136.5 -95.5t78 -127.5t27 -139.5q0 -136 -57 -241.5t-160 -213.5l-417 -438h645v-164h-1012z" />
<glyph unicode="3" d="M123 379h166q0 -104 75 -175t195 -71q128 0 209.5 69.5t81.5 196.5q0 122 -84.5 194.5t-247.5 72.5v153q158 0 224.5 63.5t66.5 174.5q0 106 -57.5 174.5t-161.5 68.5q-110 0 -175 -58t-65 -165h-166q0 167 114 272t292 105q172 0 278.5 -110t106.5 -267 q0 -257 -211 -334q252 -85 252 -364q0 -182 -124.5 -290.5t-332.5 -108.5q-201 0 -318.5 113t-117.5 286z" />
<glyph unicode="4" horiz-adv-x="1214" d="M41 287l887 1249v-1096h225v-153h-225v-287h-174v287h-713zM336 440h418v586z" />
<glyph unicode="5" horiz-adv-x="1155" d="M61 281l148 100q50 -99 149.5 -168.5t212.5 -69.5q143 0 232.5 85t89.5 243t-89.5 243t-232.5 85q-104 0 -181.5 -27t-184.5 -102l188 764h676v-154h-541l-96 -375q44 33 89.5 45.5t131.5 12.5q81 0 156.5 -34.5t134 -96.5t94 -156t35.5 -205q0 -125 -42 -222 t-113.5 -154t-159.5 -86t-187 -29q-337 0 -510 301z" />
<glyph unicode="6" horiz-adv-x="1138" d="M82 471q0 173 90 297l483 666h219l-407 -539q71 33 186 33q163 0 283.5 -131.5t120.5 -325.5q0 -218 -139 -354.5t-349 -136.5t-348.5 136.5t-138.5 354.5zM248 471q0 -147 91 -240.5t230 -93.5t230.5 93.5t91.5 240.5t-91.5 242.5t-230.5 95.5t-230 -95.5t-91 -242.5z " />
<glyph unicode="7" horiz-adv-x="1075" d="M61 1270v164h1004l-686 -1434h-182l608 1270h-744z" />
<glyph unicode="8" d="M113 389q0 135 67.5 231t181.5 142q-198 82 -198 325q0 163 114.5 265t280.5 102t280.5 -102t114.5 -265q0 -243 -198 -325q114 -46 182 -142.5t68 -230.5q0 -169 -128.5 -289t-318.5 -120t-318 120t-128 289zM279 410q0 -126 83 -201.5t197 -75.5t197.5 75.5t83.5 201.5 q0 114 -85.5 195t-195.5 81t-195 -81t-85 -195zM330 1067q0 -102 61.5 -164.5t167.5 -62.5t167.5 62.5t61.5 164.5q0 112 -65.5 172.5t-163.5 60.5t-163.5 -60.5t-65.5 -172.5z" />
<glyph unicode="9" d="M61 963q0 218 139 354.5t349 136.5t348.5 -136.5t138.5 -354.5q0 -173 -90 -297l-483 -666h-219l407 539q-71 -33 -186 -33q-163 0 -283.5 131.5t-120.5 325.5zM227 963q0 -147 91.5 -242.5t230.5 -95.5t230 95.5t91 242.5t-91 240t-230 93t-230.5 -93t-91.5 -240z" />
<glyph unicode=":" horiz-adv-x="614" d="M195 82q0 46 33 79.5t79 33.5t79.5 -33.5t33.5 -79.5t-33.5 -79.5t-79.5 -33.5t-79 33.5t-33 79.5zM195 860q0 46 33 79.5t79 33.5t79.5 -33.5t33.5 -79.5t-33.5 -79t-79.5 -33t-79 33t-33 79z" />
<glyph unicode=";" horiz-adv-x="675" d="M123 -305l180 530l164 -61l-225 -512zM256 860q0 46 33.5 79.5t79.5 33.5t79 -33.5t33 -79.5t-33 -79t-79 -33t-79.5 33t-33.5 79z" />
<glyph unicode="&#x3c;" horiz-adv-x="1310" d="M133 492v71l1045 451v-154l-775 -323l775 -342v-154z" />
<glyph unicode="=" horiz-adv-x="1259" d="M133 287v153h993v-153h-993zM133 594v154h993v-154h-993z" />
<glyph unicode="&#x3e;" horiz-adv-x="1310" d="M133 41v154l774 323l-774 342v154l1045 -451v-71z" />
<glyph unicode="?" horiz-adv-x="1140" d="M123 1214q38 58 76 98.5t90.5 74.5t122.5 50.5t159 16.5q192 0 319.5 -123.5t127.5 -306.5q0 -115 -61 -212.5t-160.5 -154.5t-212.5 -63l-15 -246h-123l-40 359h53q89 0 164.5 27.5t124.5 72.5t76.5 101.5t27.5 115.5q0 131 -81 203.5t-220 72.5q-190 0 -295 -170z M399 82q0 46 33.5 79.5t79.5 33.5t79.5 -33.5t33.5 -79.5t-33.5 -79.5t-79.5 -33.5t-79.5 33.5t-33.5 79.5z" />
<glyph unicode="@" horiz-adv-x="1576" d="M72 655q0 167 57.5 314t159 254t247 169t314.5 62q151 0 277.5 -56.5t207.5 -149t125.5 -209t44.5 -240.5q0 -100 -24.5 -186t-64 -144.5t-89.5 -100.5t-100.5 -61.5t-98.5 -19.5q-79 0 -123 54t-44 140q-47 -84 -123 -129t-166 -45q-119 0 -201 90t-82 238 q0 102 35.5 189.5t92 143t124 86.5t133.5 31q152 0 217 -143l23 123h153l-84 -494q-4 -28 -4 -55q0 -43 16.5 -68.5t63.5 -25.5q25 0 58 23.5t66 67t56 119.5t23 167q0 103 -35 196.5t-99 166.5t-162 116t-216 43q-188 0 -334 -88.5t-223.5 -239.5t-77.5 -338 q0 -248 141 -395t371 -147q145 0 240 22t192 84l74 -110q-8 -4 -50.5 -25t-57 -27t-55 -22.5t-69.5 -23t-74 -15.5t-94 -12.5t-106 -3.5q-310 0 -482.5 182.5t-172.5 492.5zM545 635q0 -88 42.5 -136t125.5 -48q73 0 140.5 55.5t90.5 161.5l4 24q4 40 4 66q0 96 -48 140 t-130 44q-102 0 -165.5 -81.5t-63.5 -225.5z" />
<glyph unicode="A" horiz-adv-x="1351" d="M10 0l666 1505l665 -1505h-194l-182 430h-578l-182 -430h-195zM457 594h438l-219 516z" />
<glyph unicode="B" horiz-adv-x="1126" d="M164 0v1434h348q207 0 326.5 -96t119.5 -263q0 -229 -235 -293q148 -32 232.5 -122.5t84.5 -239.5q0 -193 -137.5 -306.5t-349.5 -113.5h-389zM338 164h215q142 0 227.5 68.5t85.5 197.5t-85.5 197.5t-227.5 68.5h-215v-532zM338 860h174q272 0 272 205t-272 205h-174 v-410z" />
<glyph unicode="C" horiz-adv-x="1402" d="M82 717q0 157 56.5 295t153 234.5t228.5 152t279 55.5q153 0 260.5 -38t200.5 -120v-219q-78 99 -196 156t-265 57q-150 0 -274 -73t-196.5 -204.5t-72.5 -295.5t72.5 -296t196.5 -205t274 -73q147 0 265 57t196 156v-219q-93 -82 -200.5 -119.5t-260.5 -37.5 q-147 0 -279 55.5t-228.5 152t-153 234.5t-56.5 295z" />
<glyph unicode="D" horiz-adv-x="1392" d="M164 0v1434h430q207 0 370.5 -89.5t255 -253t91.5 -374.5t-91.5 -374.5t-255 -253t-370.5 -89.5h-430zM338 164h256q244 0 393.5 151.5t149.5 401.5t-149.5 401.5t-393.5 151.5h-256v-1106z" />
<glyph unicode="E" horiz-adv-x="1126" d="M164 0v1434h819v-164h-645v-410h604v-164h-604v-532h645v-164h-819z" />
<glyph unicode="F" horiz-adv-x="1003" d="M164 0v1434h737v-164h-563v-410h543v-164h-543v-696h-174z" />
<glyph unicode="G" horiz-adv-x="1607" d="M82 717q0 158 56.5 295.5t154.5 234t234.5 152t291.5 55.5q200 0 357 -78.5t249 -226.5l-122 -113q-69 117 -196 185.5t-288 68.5q-160 0 -288.5 -73t-201.5 -204t-73 -296t73 -296t201.5 -204.5t288.5 -73.5q207 0 336.5 116.5t169.5 313.5h-444v164h635 q0 -160 -48 -298.5t-136 -240.5t-220 -160t-293 -58q-155 0 -291.5 55.5t-234.5 152t-154.5 234t-56.5 295.5z" />
<glyph unicode="H" horiz-adv-x="1464" d="M164 0v1434h174v-574h788v574h174v-1434h-174v696h-788v-696h-174z" />
<glyph unicode="I" horiz-adv-x="481" d="M154 0v1434h174v-1434h-174z" />
<glyph unicode="J" horiz-adv-x="532" d="M-207 -348l90 135q46 -74 162 -74q54 0 96.5 46t42.5 139v1536h164v-1557q0 -163 -82 -245.5t-231 -82.5q-75 0 -145 33.5t-97 69.5z" />
<glyph unicode="K" horiz-adv-x="1146" d="M154 0v1434h174v-611l563 611h215l-621 -672l652 -762h-215l-594 694v-694h-174z" />
<glyph unicode="L" horiz-adv-x="921" d="M164 0v1434h174v-1270h563v-164h-737z" />
<glyph unicode="M" horiz-adv-x="1699" d="M102 0l174 1505l574 -1038l573 1038l174 -1505h-174l-106 969l-467 -836l-467 836l-107 -969h-174z" />
<glyph unicode="N" horiz-adv-x="1566" d="M154 0v1505l1085 -1138v1067h174v-1506l-1085 1139v-1067h-174z" />
<glyph unicode="O" horiz-adv-x="1638" d="M82 717q0 158 56.5 295.5t154.5 234t234.5 152t291.5 55.5t291.5 -55.5t234.5 -152t154.5 -234t56.5 -295.5t-56.5 -295.5t-154.5 -234t-234.5 -152t-291.5 -55.5t-291.5 55.5t-234.5 152t-154.5 234t-56.5 295.5zM256 717q0 -165 73 -296t201.5 -204.5t288.5 -73.5 t288.5 73.5t201.5 204.5t73 296t-73 296t-201.5 204t-288.5 73t-288.5 -73t-201.5 -204t-73 -296z" />
<glyph unicode="P" horiz-adv-x="1126" d="M164 0v1434h389q211 0 349 -118t138 -312q0 -129 -64 -228t-174.5 -151t-248.5 -52h-215v-573h-174zM338 737h215q142 0 227.5 69t85.5 198t-85.5 197.5t-227.5 68.5h-215v-533z" />
<glyph unicode="Q" horiz-adv-x="1638" d="M82 717q0 158 56.5 295.5t154.5 234t234.5 152t291.5 55.5t291.5 -55.5t234.5 -152t154.5 -234t56.5 -295.5q0 -275 -163 -475l233 -242h-215l-129 133q-195 -153 -463 -153q-155 0 -291.5 55.5t-234.5 152t-154.5 234t-56.5 295.5zM256 717q0 -165 73 -296t201.5 -204.5 t288.5 -73.5q201 0 346 111l-348 360h215l242 -249q108 145 108 352q0 165 -73 296t-201.5 204t-288.5 73t-288.5 -73t-201.5 -204t-73 -296z" />
<glyph unicode="R" horiz-adv-x="1126" d="M164 0v1434h389q211 0 349 -118t138 -312q0 -153 -87.5 -260t-233.5 -148l407 -596h-215l-393 573h-180v-573h-174zM338 737h215q142 0 227.5 69t85.5 198t-85.5 197.5t-227.5 68.5h-215v-533z" />
<glyph unicode="S" horiz-adv-x="1101" d="M61 375l148 88q68 -157 157.5 -238.5t217.5 -81.5q121 0 183 61t62 171q0 53 -20 98t-49.5 75.5t-78 59.5t-88.5 46t-99 38q-42 15 -77 31t-79.5 41t-78.5 57t-64 73t-46 95t-16 117q0 147 120.5 247.5t295.5 100.5q83 0 157.5 -27t129.5 -72.5t94 -98t61 -109.5 l-141 -94q-26 51 -51 88t-61 73t-83 55t-104 19q-236 0 -236 -194q0 -33 10 -62t24.5 -50.5t42.5 -43.5t50.5 -36.5t63.5 -33t67 -29t74 -28.5q53 -19 96.5 -40t95.5 -57.5t87.5 -79.5t59.5 -106.5t24 -138.5q0 -187 -114 -298t-323 -111q-173 0 -308 107t-204 288z" />
<glyph unicode="T" horiz-adv-x="952" d="M20 1270v164h912v-164h-369v-1270h-174v1270h-369z" />
<glyph unicode="U" horiz-adv-x="1245" d="M154 471v963h174v-963q0 -147 87 -237.5t226 -90.5t226 90.5t87 237.5v963h174v-963q0 -213 -139.5 -352t-347.5 -139t-347.5 139t-139.5 352z" />
<glyph unicode="V" horiz-adv-x="1351" d="M10 1434h195l471 -1110l471 1110h194l-665 -1506z" />
<glyph unicode="W" horiz-adv-x="2027" d="M20 1434h195l375 -1055l424 1126l424 -1126l374 1055h195l-563 -1506l-430 1106l-430 -1106z" />
<glyph unicode="X" horiz-adv-x="1136" d="M20 0l457 752l-405 682h194l309 -521l316 521h194l-413 -682l444 -752h-194l-349 590l-358 -590h-195z" />
<glyph unicode="Y" horiz-adv-x="1157" d="M10 1434h195l364 -664l383 664h195l-485 -832v-602h-175v582z" />
<glyph unicode="Z" horiz-adv-x="1075" d="M20 0l754 1270h-713v164h1004l-754 -1270h713v-164h-1004z" />
<glyph unicode="[" horiz-adv-x="614" d="M205 -440v2048h368v-154h-206v-1741h206v-153h-368z" />
<glyph unicode="\" horiz-adv-x="1054" d="M31 1434h174l819 -1434h-174z" />
<glyph unicode="]" horiz-adv-x="614" d="M41 -287h207v1741h-207v154h369v-2048h-369v153z" />
<glyph unicode="^" horiz-adv-x="1044" d="M133 942l348 512h82l348 -512h-163l-226 330l-225 -330h-164z" />
<glyph unicode="_" horiz-adv-x="1024" d="M2 -160h1024v-112h-1024v112z" />
<glyph unicode="`" horiz-adv-x="768" d="M154 1352l153 82l307 -328l-92 -62z" />
<glyph unicode="a" horiz-adv-x="993" d="M61 287q0 72 36.5 130.5t97 94.5t135 55t153.5 19q134 0 224 -51v141q0 67 -58.5 105t-140.5 38q-147 0 -281 -98l-80 125q161 117 361 117q164 0 263 -76.5t99 -210.5v-676h-163v135q-42 -74 -128 -114.5t-194 -40.5q-53 0 -107 17.5t-104 52t-81.5 96.5t-31.5 141z M227 287q0 -48 20.5 -82t55.5 -50t69.5 -23t73.5 -7q128 0 194.5 58t66.5 186v55q-99 37 -215 37q-130 0 -197.5 -44t-67.5 -130z" />
<glyph unicode="b" horiz-adv-x="1167" d="M143 0v1597h164v-817q53 88 135.5 135.5t186.5 47.5q96 0 181 -34.5t148.5 -96.5t100.5 -155.5t37 -205.5t-37 -205t-100.5 -155t-148.5 -96.5t-181 -34.5q-104 0 -186.5 47t-135.5 135v-162h-164zM307 471q0 -153 92.5 -245.5t208.5 -92.5q137 0 229.5 90.5t92.5 247.5 t-92.5 247.5t-229.5 90.5q-116 0 -208.5 -92.5t-92.5 -245.5z" />
<glyph unicode="c" horiz-adv-x="978" d="M61 471q0 213 140 352.5t348 139.5q99 0 189 -32.5t139 -88.5v-199q-33 71 -124.5 118.5t-203.5 47.5q-139 0 -230.5 -95.5t-91.5 -242.5t91.5 -242.5t230.5 -95.5q112 0 203.5 47.5t124.5 118.5v-199q-48 -57 -138 -88.5t-190 -31.5q-208 0 -348 139.5t-140 351.5z" />
<glyph unicode="d" horiz-adv-x="1167" d="M72 471q0 112 37 205.5t100.5 155.5t148.5 96.5t181 34.5q104 0 186 -47.5t135 -135.5v817h164v-1597h-164v162q-53 -88 -135 -135t-186 -47q-96 0 -181 34.5t-148.5 96.5t-100.5 155t-37 205zM238 471q0 -157 92.5 -247.5t228.5 -90.5q55 0 108 23t96 64.5t70 107 t27 143.5t-27 143.5t-70 107t-96 64.5t-108 23q-136 0 -228.5 -90.5t-92.5 -247.5z" />
<glyph unicode="e" horiz-adv-x="1054" d="M72 471q0 215 130.5 353.5t336.5 138.5q201 0 322.5 -131.5t121.5 -352.5q0 -33 -2 -49h-741q10 -141 89.5 -219t209.5 -78q190 0 295 170l133 -84q-52 -78 -104.5 -127t-140 -80.5t-204.5 -31.5q-193 0 -319.5 139t-126.5 352zM244 569h561q-13 115 -80 182.5t-186 67.5 q-116 0 -199.5 -68.5t-95.5 -181.5z" />
<glyph unicode="f" horiz-adv-x="585" d="M82 788v154h92v348q0 164 70.5 246t201.5 82q61 0 108 -23.5t73 -58.5l-90 -135q-33 53 -101 53q-98 0 -98 -184v-328h215v-154h-215v-788h-164v788h-92z" />
<glyph unicode="g" horiz-adv-x="1167" d="M72 471q0 112 37 205.5t100.5 155.5t148.5 96.5t181 34.5q104 0 186 -47.5t135 -135.5v162h164v-922q0 -118 -39.5 -213.5t-106 -155t-149 -91t-172.5 -31.5q-207 0 -337 113.5t-130 296.5h166q0 -105 83.5 -180.5t217.5 -75.5q56 0 108 20t96.5 59t71.5 105.5t27 152.5 v142q-53 -88 -135 -135t-186 -47q-96 0 -181 34.5t-148.5 96.5t-100.5 155t-37 205zM238 471q0 -157 92.5 -247.5t228.5 -90.5q55 0 108 23t96 64.5t70 107t27 143.5t-27 143.5t-70 107t-96 64.5t-108 23q-136 0 -228.5 -90.5t-92.5 -247.5z" />
<glyph unicode="h" horiz-adv-x="1075" d="M154 0v1597h163v-782q50 70 123 109t158 39q150 0 237 -95t87 -274v-594h-164v573q0 236 -201 236q-106 0 -173 -67t-67 -169v-573h-163z" />
<glyph unicode="i" horiz-adv-x="532" d="M154 1331q0 46 33 79.5t79 33.5t79.5 -33.5t33.5 -79.5t-33.5 -79t-79.5 -33t-79 33t-33 79zM184 0v942h164v-942h-164z" />
<glyph unicode="j" horiz-adv-x="532" d="M-104 -369l90 136q33 -54 100 -54q98 0 98 185v1044h164v-1065q0 -164 -70.5 -246t-201.5 -82q-61 0 -107.5 23.5t-72.5 58.5zM154 1331q0 46 33 79.5t79 33.5t79.5 -33.5t33.5 -79.5t-33.5 -79t-79.5 -33t-79 33t-33 79z" />
<glyph unicode="k" horiz-adv-x="901" d="M143 0v1597h164v-987l348 332h205l-409 -389l450 -553h-205l-389 477v-477h-164z" />
<glyph unicode="l" horiz-adv-x="471" d="M154 0v1597h163v-1597h-163z" />
<glyph unicode="m" horiz-adv-x="1597" d="M154 0v942h163v-117q45 64 113 101t148 37q203 0 270 -168q48 78 125.5 123t167.5 45q147 0 225 -93.5t78 -275.5v-594h-164v573q0 121 -41.5 178.5t-138.5 57.5q-104 0 -161.5 -65.5t-57.5 -170.5v-573h-164v573q0 121 -41.5 178.5t-138.5 57.5q-104 0 -162 -65.5 t-58 -170.5v-573h-163z" />
<glyph unicode="n" horiz-adv-x="1075" d="M154 0v942h163v-127q50 70 123 109t158 39q150 0 237 -95t87 -274v-594h-164v573q0 236 -201 236q-106 0 -173 -67t-67 -169v-573h-163z" />
<glyph unicode="o" d="M72 471q0 213 139.5 352.5t347.5 139.5t348 -139.5t140 -352.5q0 -212 -140 -351.5t-348 -139.5t-347.5 139t-139.5 352zM238 471q0 -147 91 -242.5t230 -95.5t230.5 95.5t91.5 242.5t-91.5 242.5t-230.5 95.5t-230 -95.5t-91 -242.5z" />
<glyph unicode="p" horiz-adv-x="1167" d="M143 -451v1393h164v-162q53 88 135.5 135.5t186.5 47.5q96 0 181 -34.5t148.5 -96.5t100.5 -155.5t37 -205.5t-37 -205t-100.5 -155t-148.5 -96.5t-181 -34.5q-104 0 -186.5 47t-135.5 135v-613h-164zM307 471q0 -153 92.5 -245.5t208.5 -92.5q137 0 229.5 90.5 t92.5 247.5t-92.5 247.5t-229.5 90.5q-116 0 -208.5 -92.5t-92.5 -245.5z" />
<glyph unicode="q" horiz-adv-x="1167" d="M72 471q0 112 37 205.5t100.5 155.5t148.5 96.5t181 34.5q104 0 186 -47.5t135 -135.5v162h164v-1393h-164v613q-53 -88 -135 -135t-186 -47q-96 0 -181 34.5t-148.5 96.5t-100.5 155t-37 205zM238 471q0 -157 92.5 -247.5t228.5 -90.5q55 0 108 23t96 64.5t70 107 t27 143.5t-27 143.5t-70 107t-96 64.5t-108 23q-136 0 -228.5 -90.5t-92.5 -247.5z" />
<glyph unicode="r" horiz-adv-x="702" d="M154 0v942h163v-108q40 60 92.5 94.5t106.5 34.5q113 0 176 -66l-90 -135q-36 26 -62.5 36.5t-64.5 10.5q-87 0 -122.5 -62.5t-35.5 -173.5v-573h-163z" />
<glyph unicode="s" horiz-adv-x="835" d="M61 252l136 78q19 -86 87 -141.5t156 -55.5q164 0 164 119q0 30 -13 55t-30 42.5t-49.5 35.5t-55.5 28.5t-65 26.5q-47 18 -78.5 33t-71 40t-63.5 51.5t-40.5 65.5t-16.5 85q0 75 45 133t113.5 86.5t146.5 28.5q113 0 212.5 -53.5t127.5 -131.5l-131 -84q-29 55 -87 84 t-120 29q-65 0 -104 -23.5t-39 -68.5q0 -26 19 -50.5t58.5 -47.5t69.5 -37t82 -35q260 -108 260 -279q0 -146 -92 -216t-252 -70q-132 0 -239.5 78.5t-129.5 193.5z" />
<glyph unicode="t" horiz-adv-x="491" d="M10 788v154h154v328h164v-328h153v-154h-153v-788h-164v788h-154z" />
<glyph unicode="u" horiz-adv-x="1075" d="M154 348v594h163v-573q0 -236 201 -236q106 0 173 67t67 169v573h164v-942h-164v127q-50 -70 -123 -108.5t-158 -38.5q-150 0 -236.5 94.5t-86.5 273.5z" />
<glyph unicode="v" horiz-adv-x="901" d="M0 942h184l267 -666l266 666h184l-450 -1014z" />
<glyph unicode="w" horiz-adv-x="1392" d="M10 942h185l235 -612l256 684l275 -688l237 616h184l-409 -1014l-285 686l-268 -686z" />
<glyph unicode="x" horiz-adv-x="860" d="M0 0l338 485l-318 457h185l225 -324l225 324h185l-318 -457l338 -485h-184l-246 352l-246 -352h-184z" />
<glyph unicode="y" horiz-adv-x="901" d="M0 942h184l267 -666l266 666h184l-614 -1393h-185l258 584z" />
<glyph unicode="z" horiz-adv-x="921" d="M20 0l584 788h-543v154h840l-584 -788h543v-154h-840z" />
<glyph unicode="{" horiz-adv-x="657" d="M164 532v123q49 16 73.5 65.5t24.5 160.5v430q0 139 66 212.5t145 73.5h123v-143h-72q-44 0 -71 -30t-27 -72v-348q0 -48 -1 -80t-4.5 -79t-12.5 -80.5t-23 -69t-37.5 -61t-54.5 -40.5q31 -15 54.5 -40.5t37.5 -61t23 -69t12.5 -80.5t4.5 -79t1 -80v-348q0 -42 27 -72 t71 -30h72v-144h-123q-79 0 -145 74t-66 213v430q0 110 -24 159.5t-74 65.5z" />
<glyph unicode="|" horiz-adv-x="962" d="M303 -440v2048h152v-2048h-152z" />
<glyph unicode="}" horiz-adv-x="657" d="M164 -266h72q44 0 71 30t27 72v348q0 48 1 80t4.5 79t12.5 80.5t23 69t37.5 61t54.5 40.5q-31 15 -54.5 40.5t-37.5 61t-23 69t-12.5 80.5t-4.5 79t-1 80v348q0 42 -27 72t-71 30h-72v143h123q79 0 145 -73.5t66 -212.5v-430q0 -111 24.5 -160.5t73.5 -65.5v-123 q-50 -16 -74 -65.5t-24 -159.5v-430q0 -139 -66 -213t-145 -74h-123v144z" />
<glyph unicode="~" horiz-adv-x="1177" d="M133 420q0 78 49 143q79 107 215 107q123 0 252 -99q84 -65 150 -65q86 0 86 100q0 28 -11 56l162 -11q8 -32 8 -57q0 -85 -45 -145q-73 -97 -192 -97q-104 0 -236 99q-87 67 -176 67q-112 0 -112 -112q0 -25 8 -46l-152 11q-6 21 -6 49z" />
<glyph unicode="&#xa1;" horiz-adv-x="614" d="M195 850q0 46 33 79.5t79 33.5t79.5 -33.5t33.5 -79.5t-33.5 -79.5t-79.5 -33.5t-79 33.5t-33 79.5zM205 -502l41 1024h123l41 -1024h-205z" />
<glyph unicode="&#xa2;" horiz-adv-x="978" d="M61 471q0 198 122.5 334.5t310.5 155.5v223h131v-226q79 -11 146 -41t106 -75v-199q-26 57 -94.5 101t-157.5 59v-664q89 15 157.5 59t94.5 101v-199q-39 -46 -106.5 -76.5t-145.5 -39.5v-213h-131v211q-188 19 -310.5 155t-122.5 334zM227 471q0 -131 74.5 -223 t192.5 -111v668q-118 -19 -192.5 -111t-74.5 -223z" />
<glyph unicode="&#xa3;" horiz-adv-x="1130" d="M72 0q61 64 94 99.5t75.5 84.5t63.5 83t42.5 76t29.5 82.5t8 84.5q0 42 -18 94h-289v154h201q-48 73 -74.5 142t-26.5 161q0 181 118.5 287t311.5 106q84 0 152.5 -27.5t112 -70.5t74 -99.5t44.5 -110t17 -106.5l-146 -59q-4 79 -32 145t-88 111t-144 45q-102 0 -172 -54 t-70 -163q0 -40 6.5 -75.5t22.5 -70t27 -54t36 -57.5t33 -50h334v-154h-270q6 -30 6 -63q0 -114 -50 -214t-130 -163h628v-164h-927z" />
<glyph unicode="&#xa4;" d="M123 199l123 120q-92 129 -92 295t92 295l-123 121l102 103l121 -121q131 94 295 94t295 -94l121 121l102 -103l-123 -121q92 -129 92 -295t-92 -295l123 -120l-102 -103l-121 121q-131 -94 -295 -94t-295 94l-121 -121zM319 614q0 -147 91.5 -242.5t230.5 -95.5 t230.5 95.5t91.5 242.5t-91.5 242.5t-230.5 95.5t-230.5 -95.5t-91.5 -242.5z" />
<glyph unicode="&#xa5;" horiz-adv-x="1218" d="M41 1434h195l364 -664l383 664h195l-400 -686h318v-154h-404v-154h404v-153h-404v-287h-174v287h-416v153h416v142l-8 12h-408v154h322z" />
<glyph unicode="&#xa6;" horiz-adv-x="962" d="M303 10v492h152v-492h-152zM303 932v491h152v-491h-152z" />
<glyph unicode="&#xa7;" horiz-adv-x="835" d="M61 252l136 78q19 -86 87 -141.5t156 -55.5q164 0 164 119q0 30 -13 55t-30 42.5t-49.5 35.5t-55.5 28.5t-65 26.5q-270 107 -270 295q0 181 190 230q-89 43 -139.5 99t-50.5 142q0 75 45 133t113.5 86.5t146.5 28.5q113 0 212.5 -53.5t127.5 -130.5l-131 -84 q-29 55 -87 83.5t-120 28.5q-65 0 -104 -23.5t-39 -68.5q0 -26 19 -50.5t58.5 -47.5t69.5 -37t82 -35q260 -108 260 -278q0 -198 -184 -248q184 -99 184 -244q0 -146 -92 -216t-252 -70q-132 0 -239.5 78.5t-129.5 193.5zM285 756q0 -40 13.5 -71t42.5 -53t53 -35t67 -30 q62 13 102.5 65.5t40.5 110.5q0 61 -44.5 99t-129.5 73q-76 -30 -110.5 -66.5t-34.5 -92.5z" />
<glyph unicode="&#xa8;" horiz-adv-x="962" d="M164 1352q0 46 33 79t79 33t79.5 -33t33.5 -79t-33.5 -79.5t-79.5 -33.5t-79 33.5t-33 79.5zM573 1352q0 46 33.5 79t79.5 33t79.5 -33t33.5 -79t-33.5 -79.5t-79.5 -33.5t-79.5 33.5t-33.5 79.5z" />
<glyph unicode="&#xa9;" horiz-adv-x="1638" d="M82 717q0 158 56.5 295.5t154.5 234t234.5 152t291.5 55.5t291.5 -55.5t234.5 -152t154.5 -234t56.5 -295.5t-56.5 -295.5t-154.5 -234t-234.5 -152t-291.5 -55.5t-291.5 55.5t-234.5 152t-154.5 234t-56.5 295.5zM195 717q0 -135 48 -253t131 -201.5t198.5 -132 t246.5 -48.5q175 0 318 82t225 227.5t82 325.5t-82 325.5t-225 227.5t-318 82q-131 0 -246.5 -48.5t-198.5 -132t-131 -201.5t-48 -253zM379 717q0 190 125 316t305 126q91 0 155.5 -22.5t120.5 -71.5v-131q-46 59 -117 93t-159 34q-138 0 -232 -97.5t-94 -246.5t94 -246.5 t232 -97.5q88 0 159 34t117 93v-131q-56 -49 -120.5 -72t-155.5 -23q-180 0 -305 126.5t-125 316.5z" />
<glyph unicode="&#xaa;" horiz-adv-x="487" d="M41 1096q0 69 64.5 109t148.5 40q65 0 111 -26v71q0 34 -29 53t-70 19q-71 0 -141 -49l-39 63q81 58 180 58q81 0 130.5 -38.5t49.5 -105.5v-338h-81v68q-44 -78 -160 -78q-36 0 -72 14.5t-64 51t-28 88.5zM125 1096q0 -80 108 -80q132 0 132 121v26q-55 21 -107 21 q-65 0 -99 -22.5t-34 -65.5z" />
<glyph unicode="&#xab;" horiz-adv-x="1044" d="M82 522l389 482l102 -93l-307 -381l307 -397l-102 -92zM410 522l389 482l102 -93l-307 -381l307 -397l-102 -92z" />
<glyph unicode="&#xac;" horiz-adv-x="1269" d="M133 614v154h1004v-410h-154v256h-850z" />
<glyph unicode="&#xad;" horiz-adv-x="430" d="M10 410v153h410v-153h-410z" />
<glyph unicode="&#xae;" horiz-adv-x="1638" d="M82 717q0 158 56.5 295.5t154.5 234t234.5 152t291.5 55.5t291.5 -55.5t234.5 -152t154.5 -234t56.5 -295.5t-56.5 -295.5t-154.5 -234t-234.5 -152t-291.5 -55.5t-291.5 55.5t-234.5 152t-154.5 234t-56.5 295.5zM195 717q0 -135 48 -253t131 -201.5t198.5 -132 t246.5 -48.5q175 0 318 82t225 227.5t82 325.5t-82 325.5t-225 227.5t-318 82q-131 0 -246.5 -48.5t-198.5 -132t-131 -201.5t-48 -253zM561 307v860h234q127 0 209.5 -70.5t82.5 -187.5q0 -91 -52.5 -155.5t-141.5 -89.5l246 -357h-129l-236 344h-108v-344h-105zM666 750 h129q86 0 137 41t51 118t-51 118.5t-137 41.5h-129v-319z" />
<glyph unicode="&#xaf;" horiz-adv-x="1044" d="M164 1229v153h717v-153h-717z" />
<glyph unicode="&#xb0;" horiz-adv-x="569" d="M41 1229q0 107 69.5 176.5t174.5 69.5t174 -69.5t69 -176.5t-69 -176.5t-174 -69.5t-174.5 69.5t-69.5 176.5zM123 1229q0 -73 46.5 -120.5t115.5 -47.5t115 47.5t46 120.5t-46 120.5t-115 47.5t-115.5 -47.5t-46.5 -120.5z" />
<glyph unicode="&#xb1;" horiz-adv-x="1259" d="M133 143v164h993v-164h-993zM133 686v164h410v317h174v-317h409v-164h-409v-317h-174v317h-410z" />
<glyph unicode="&#xb2;" horiz-adv-x="708" d="M51 578l379 411q62 67 89.5 116t27.5 107q0 63 -42 102.5t-114 39.5q-90 0 -141 -59.5t-51 -151.5h-105q0 133 79.5 221t217.5 88q64 0 115.5 -22t82 -57.5t46.5 -77t16 -83.5q0 -81 -34.5 -144.5t-96.5 -127.5l-250 -264h387v-98h-606z" />
<glyph unicode="&#xb3;" horiz-adv-x="638" d="M51 801h101q0 -63 44.5 -105.5t116.5 -42.5q77 0 125.5 41.5t48.5 118.5q0 73 -50 116.5t-148 43.5v92q95 0 134.5 38t39.5 105q0 64 -34.5 105t-96.5 41q-66 0 -105 -34.5t-39 -98.5h-100q0 99 69 162t175 63q103 0 167 -65.5t64 -159.5q0 -153 -127 -201 q152 -51 152 -219q0 -109 -75 -174.5t-200 -65.5q-121 0 -191.5 68.5t-70.5 171.5z" />
<glyph unicode="&#xb4;" horiz-adv-x="768" d="M154 1106l307 328l153 -82l-368 -308z" />
<glyph unicode="&#xb5;" horiz-adv-x="1075" d="M154 -655v1597h163v-573q0 -236 201 -236q106 0 173 67t67 169v573h164v-942h-164v127q-50 -70 -123 -108.5t-158 -38.5q-99 0 -160 34v-669h-163z" />
<glyph unicode="&#xb6;" horiz-adv-x="1183" d="M123 993q0 206 133.5 323.5t333.5 117.5h471v-1885h-143v1751h-185v-1751h-143v1004q-130 0 -234.5 49.5t-168.5 151t-64 239.5z" />
<glyph unicode="&#xb7;" horiz-adv-x="614" d="M195 492q0 46 33 79t79 33t79.5 -33t33.5 -79t-33.5 -79.5t-79.5 -33.5t-79 33.5t-33 79.5z" />
<glyph unicode="&#xb8;" horiz-adv-x="716" d="M162 -373l67 62q33 -28 55.5 -38.5t59.5 -10.5q49 0 75.5 30.5t26.5 71.5q0 40 -26 67t-76 27q-30 0 -65 -18l-31 -19l153 324h105l-111 -229h19q51 0 90 -46t39 -106q0 -91 -55.5 -142t-143.5 -51q-57 0 -98 17.5t-84 60.5z" />
<glyph unicode="&#xb9;" horiz-adv-x="962" d="M311 1264v108l295 74v-885h-104v760z" />
<glyph unicode="&#xba;" horiz-adv-x="569" d="M41 1188q0 107 69.5 176.5t174.5 69.5t174 -69.5t69 -176.5t-69 -176.5t-174 -69.5t-174.5 69.5t-69.5 176.5zM123 1188q0 -73 46.5 -120.5t115.5 -47.5t115 47.5t46 120.5t-46 120.5t-115 47.5t-115.5 -47.5t-46.5 -120.5z" />
<glyph unicode="&#xbb;" horiz-adv-x="1044" d="M143 133l308 381l-308 397l103 93l389 -482l-389 -481zM471 133l307 381l-307 397l102 93l390 -482l-390 -481z" />
<glyph unicode="&#xbc;" horiz-adv-x="1544" d="M61 1264v108l295 74v-885h-104v760zM201 0l1065 1434h133l-1065 -1434h-133zM815 172l533 750v-658h135v-92h-135v-172h-105v172h-428zM991 264h252v352z" />
<glyph unicode="&#xbd;" horiz-adv-x="1677" d="M61 1264v108l295 74v-885h-104v760zM201 0l1065 1434h133l-1065 -1434h-133zM1010 4l379 412q62 66 89 115.5t27 107.5q0 63 -41.5 102t-113.5 39q-90 0 -141.5 -59.5t-51.5 -151.5h-104q0 133 79.5 221.5t217.5 88.5q64 0 115.5 -22t82 -57.5t46.5 -77t16 -83.5 q0 -81 -34.5 -144.5t-96.5 -127.5l-250 -265h387v-98h-606z" />
<glyph unicode="&#xbe;" horiz-adv-x="1679" d="M61 801h101q0 -63 45 -105.5t117 -42.5q77 0 125.5 41.5t48.5 118.5q0 73 -50.5 116.5t-148.5 43.5v92q95 0 134.5 38t39.5 105q0 64 -34.5 105t-96.5 41q-66 0 -104.5 -34t-38.5 -99h-101q0 99 69 162t175 63q103 0 167 -65.5t64 -159.5q0 -153 -127 -201 q152 -51 152 -219q0 -109 -75 -174.5t-199 -65.5q-121 0 -192 68.5t-71 171.5zM338 0l1065 1434h133l-1065 -1434h-133zM952 172l533 750v-658h135v-92h-135v-172h-105v172h-428zM1128 264h252v352z" />
<glyph unicode="&#xbf;" horiz-adv-x="1140" d="M123 410q0 115 61 212.5t160.5 154.5t212.5 63l14 245h123l41 -358h-53q-89 0 -164.5 -27.5t-124.5 -72.5t-76.5 -101.5t-27.5 -115.5q0 -131 81 -204t220 -73q190 0 295 170l133 -84q-52 -78 -104.5 -127t-140 -80.5t-204.5 -31.5q-191 0 -318.5 123.5t-127.5 306.5z M516 1352q0 46 33.5 79t79.5 33t79 -33t33 -79t-33 -79.5t-79 -33.5t-79.5 33.5t-33.5 79.5z" />
<glyph unicode="&#xc0;" horiz-adv-x="1351" d="M10 0l666 1505l665 -1505h-194l-182 430h-578l-182 -430h-195zM307 1935l154 82l307 -327l-92 -62zM457 594h438l-219 516z" />
<glyph unicode="&#xc1;" horiz-adv-x="1351" d="M10 0l666 1505l665 -1505h-194l-182 430h-578l-182 -430h-195zM457 594h438l-219 516zM584 1690l307 327l153 -82l-368 -307z" />
<glyph unicode="&#xc2;" horiz-adv-x="1351" d="M10 0l666 1505l665 -1505h-194l-182 430h-578l-182 -430h-195zM348 1710l328 287l328 -287l-103 -82l-225 195l-225 -195zM457 594h438l-219 516z" />
<glyph unicode="&#xc3;" horiz-adv-x="1351" d="M10 0l666 1505l665 -1505h-194l-182 430h-578l-182 -430h-195zM297 1704q14 72 82 120t141 48q52 0 96 -15t70.5 -33t66.5 -33t83 -15q64 0 125 98l94 -88q-26 -60 -90.5 -105t-137.5 -45q-82 0 -159 41q-101 56 -150 56q-56 0 -84 -36t-28 -69zM457 594h438l-219 516z " />
<glyph unicode="&#xc4;" horiz-adv-x="1351" d="M10 0l666 1505l665 -1505h-194l-182 430h-578l-182 -430h-195zM358 1741q0 46 33.5 79t79.5 33t79.5 -33t33.5 -79t-33.5 -79.5t-79.5 -33.5t-79.5 33.5t-33.5 79.5zM457 594h438l-219 516zM768 1741q0 46 33.5 79t79.5 33t79 -33t33 -79t-33 -79.5t-79 -33.5t-79.5 33.5 t-33.5 79.5z" />
<glyph unicode="&#xc5;" horiz-adv-x="1351" d="M10 0l660 1491q-86 2 -141.5 59t-55.5 146q0 92 56.5 148.5t146.5 56.5t146.5 -56.5t56.5 -148.5q0 -89 -55.5 -146t-141.5 -59l659 -1491h-194l-182 430h-578l-182 -430h-195zM457 594h438l-219 516zM557 1696q0 -58 32.5 -92.5t86.5 -34.5t86.5 34.5t32.5 92.5 q0 59 -32.5 94t-86.5 35t-86.5 -35t-32.5 -94z" />
<glyph unicode="&#xc6;" horiz-adv-x="1996" d="M41 0l881 1434h931v-164h-645v-410h604v-164h-604v-532h645v-164h-819v430h-534l-264 -430h-195zM600 594h434v711z" />
<glyph unicode="&#xc7;" horiz-adv-x="1402" d="M82 717q0 157 56.5 295t153 234.5t228.5 152t279 55.5q153 0 260.5 -38t200.5 -120v-219q-78 99 -196 156t-265 57q-150 0 -274 -73t-196.5 -204.5t-72.5 -295.5t72.5 -296t196.5 -205t274 -73q147 0 265 57t196 156v-219q-88 -76 -186 -114.5t-232 -42.5l-103 -211h21 q51 0 90 -46t39 -106q0 -91 -55.5 -141.5t-143.5 -50.5q-57 0 -99 18t-85 61l67 60q32 -27 56 -38t61 -11q49 0 76 30.5t27 71.5q0 40 -26.5 67t-76.5 27q-36 0 -67 -16l-31 -19l147 306q-137 11 -258 70.5t-209 155t-139 228t-51 281.5z" />
<glyph unicode="&#xc8;" horiz-adv-x="1126" d="M164 0v1434h819v-164h-645v-410h604v-164h-604v-532h645v-164h-819zM205 1884l153 82l308 -328l-93 -61z" />
<glyph unicode="&#xc9;" horiz-adv-x="1126" d="M164 0v1434h819v-164h-645v-410h604v-164h-604v-532h645v-164h-819zM481 1638l307 328l154 -82l-369 -307z" />
<glyph unicode="&#xca;" horiz-adv-x="1126" d="M164 0v1434h819v-164h-645v-410h604v-164h-604v-532h645v-164h-819zM246 1659l327 287l328 -287l-102 -82l-226 195l-225 -195z" />
<glyph unicode="&#xcb;" horiz-adv-x="1126" d="M164 0v1434h819v-164h-645v-410h604v-164h-604v-532h645v-164h-819zM256 1690q0 46 33.5 79t79.5 33t79 -33t33 -79t-33 -79.5t-79 -33.5t-79.5 33.5t-33.5 79.5zM666 1690q0 46 33 79t79 33t79.5 -33t33.5 -79t-33.5 -79.5t-79.5 -33.5t-79 33.5t-33 79.5z" />
<glyph unicode="&#xcc;" horiz-adv-x="481" d="M-127 1884l152 82l307 -328l-90 -61zM154 0v1434h174v-1434h-174z" />
<glyph unicode="&#xcd;" horiz-adv-x="481" d="M147 1638l308 328l155 -82l-368 -307zM154 0v1434h174v-1434h-174z" />
<glyph unicode="&#xce;" horiz-adv-x="481" d="M-86 1659l328 287l327 -287l-102 -82l-225 195l-226 -195zM154 0v1434h174v-1434h-174z" />
<glyph unicode="&#xcf;" horiz-adv-x="481" d="M-78 1690q0 45 34.5 78.5t80.5 33.5t78 -33t32 -79t-32.5 -79.5t-77.5 -33.5q-46 0 -80.5 33.5t-34.5 79.5zM154 0v1434h174v-1434h-174zM332 1690q0 46 34 79t80 33t78.5 -33t32.5 -79t-32.5 -79.5t-78.5 -33.5t-80 33.5t-34 79.5z" />
<glyph unicode="&#xd0;" horiz-adv-x="1392" d="M10 635v153h154v646h430q207 0 370.5 -89.5t255 -253t91.5 -374.5t-91.5 -374.5t-255 -253t-370.5 -89.5h-430v635h-154zM338 164h256q244 0 393.5 151.5t149.5 401.5t-149.5 401.5t-393.5 151.5h-256v-482h287v-153h-287v-471z" />
<glyph unicode="&#xd1;" horiz-adv-x="1566" d="M154 0v1505l1085 -1138v1067h174v-1506l-1085 1139v-1067h-174zM430 1704q14 72 82 120t141 48q52 0 96 -15t70.5 -33t66.5 -33t83 -15q64 0 125 98l94 -88q-26 -60 -90 -105t-137 -45q-83 0 -160 41q-101 56 -150 56q-56 0 -84 -36t-28 -69z" />
<glyph unicode="&#xd2;" horiz-adv-x="1638" d="M82 717q0 158 56.5 295.5t154.5 234t234.5 152t291.5 55.5t291.5 -55.5t234.5 -152t154.5 -234t56.5 -295.5t-56.5 -295.5t-154.5 -234t-234.5 -152t-291.5 -55.5t-291.5 55.5t-234.5 152t-154.5 234t-56.5 295.5zM256 717q0 -165 73 -296t201.5 -204.5t288.5 -73.5 t288.5 73.5t201.5 204.5t73 296t-73 296t-201.5 204t-288.5 73t-288.5 -73t-201.5 -204t-73 -296zM451 1884l153 82l307 -328l-92 -61z" />
<glyph unicode="&#xd3;" horiz-adv-x="1638" d="M82 717q0 158 56.5 295.5t154.5 234t234.5 152t291.5 55.5t291.5 -55.5t234.5 -152t154.5 -234t56.5 -295.5t-56.5 -295.5t-154.5 -234t-234.5 -152t-291.5 -55.5t-291.5 55.5t-234.5 152t-154.5 234t-56.5 295.5zM256 717q0 -165 73 -296t201.5 -204.5t288.5 -73.5 t288.5 73.5t201.5 204.5t73 296t-73 296t-201.5 204t-288.5 73t-288.5 -73t-201.5 -204t-73 -296zM727 1638l307 328l154 -82l-369 -307z" />
<glyph unicode="&#xd4;" horiz-adv-x="1638" d="M82 717q0 158 56.5 295.5t154.5 234t234.5 152t291.5 55.5t291.5 -55.5t234.5 -152t154.5 -234t56.5 -295.5t-56.5 -295.5t-154.5 -234t-234.5 -152t-291.5 -55.5t-291.5 55.5t-234.5 152t-154.5 234t-56.5 295.5zM256 717q0 -165 73 -296t201.5 -204.5t288.5 -73.5 t288.5 73.5t201.5 204.5t73 296t-73 296t-201.5 204t-288.5 73t-288.5 -73t-201.5 -204t-73 -296zM492 1659l327 287l328 -287l-103 -82l-225 195l-225 -195z" />
<glyph unicode="&#xd5;" horiz-adv-x="1638" d="M82 717q0 158 56.5 295.5t154.5 234t234.5 152t291.5 55.5t291.5 -55.5t234.5 -152t154.5 -234t56.5 -295.5t-56.5 -295.5t-154.5 -234t-234.5 -152t-291.5 -55.5t-291.5 55.5t-234.5 152t-154.5 234t-56.5 295.5zM256 717q0 -165 73 -296t201.5 -204.5t288.5 -73.5 t288.5 73.5t201.5 204.5t73 296t-73 296t-201.5 204t-288.5 73t-288.5 -73t-201.5 -204t-73 -296zM440 1653q14 72 82.5 120t141.5 48q52 0 96 -15t70.5 -33.5t66 -33.5t82.5 -15q63 0 125 99l94 -88q-26 -60 -90 -105t-137 -45q-83 0 -160 41q-99 55 -149 55 q-56 0 -84.5 -36t-28.5 -68z" />
<glyph unicode="&#xd6;" horiz-adv-x="1638" d="M82 717q0 158 56.5 295.5t154.5 234t234.5 152t291.5 55.5t291.5 -55.5t234.5 -152t154.5 -234t56.5 -295.5t-56.5 -295.5t-154.5 -234t-234.5 -152t-291.5 -55.5t-291.5 55.5t-234.5 152t-154.5 234t-56.5 295.5zM256 717q0 -165 73 -296t201.5 -204.5t288.5 -73.5 t288.5 73.5t201.5 204.5t73 296t-73 296t-201.5 204t-288.5 73t-288.5 -73t-201.5 -204t-73 -296zM502 1690q0 46 33 79t79 33t79.5 -33t33.5 -79t-33.5 -79.5t-79.5 -33.5t-79 33.5t-33 79.5zM911 1690q0 46 33.5 79t79.5 33t79.5 -33t33.5 -79t-33.5 -79.5t-79.5 -33.5 t-79.5 33.5t-33.5 79.5z" />
<glyph unicode="&#xd7;" horiz-adv-x="1220" d="M133 160l373 362l-373 363l115 114l362 -372l363 372l114 -114l-372 -363l372 -362l-114 -115l-363 373l-362 -373z" />
<glyph unicode="&#xd8;" horiz-adv-x="1638" d="M82 0l188 213q-188 207 -188 504q0 158 56.5 295.5t154.5 234t234.5 152t291.5 55.5q241 0 428 -129l94 109h215l-188 -213q188 -207 188 -504q0 -158 -56.5 -295.5t-154.5 -234t-234.5 -152t-291.5 -55.5q-241 0 -428 129l-94 -109h-215zM256 717q0 -219 127 -375 l754 858q-139 90 -318 90q-160 0 -288.5 -73t-201.5 -204t-73 -296zM502 233q139 -90 317 -90q160 0 288.5 73.5t201.5 204.5t73 296q0 219 -127 375z" />
<glyph unicode="&#xd9;" horiz-adv-x="1245" d="M154 471v963h174v-963q0 -147 87 -237.5t226 -90.5t226 90.5t87 237.5v963h174v-963q0 -213 -139.5 -352t-347.5 -139t-347.5 139t-139.5 352zM272 1884l154 82l307 -328l-92 -61z" />
<glyph unicode="&#xda;" horiz-adv-x="1245" d="M154 471v963h174v-963q0 -147 87 -237.5t226 -90.5t226 90.5t87 237.5v963h174v-963q0 -213 -139.5 -352t-347.5 -139t-347.5 139t-139.5 352zM549 1638l307 328l154 -82l-369 -307z" />
<glyph unicode="&#xdb;" horiz-adv-x="1245" d="M154 471v963h174v-963q0 -147 87 -237.5t226 -90.5t226 90.5t87 237.5v963h174v-963q0 -213 -139.5 -352t-347.5 -139t-347.5 139t-139.5 352zM313 1659l328 287l328 -287l-103 -82l-225 195l-225 -195z" />
<glyph unicode="&#xdc;" horiz-adv-x="1245" d="M154 471v963h174v-963q0 -147 87 -237.5t226 -90.5t226 90.5t87 237.5v963h174v-963q0 -213 -139.5 -352t-347.5 -139t-347.5 139t-139.5 352zM324 1690q0 46 33 79t79 33t79.5 -33t33.5 -79t-33.5 -79.5t-79.5 -33.5t-79 33.5t-33 79.5zM733 1690q0 46 33.5 79t79.5 33 t79 -33t33 -79t-33 -79.5t-79 -33.5t-79.5 33.5t-33.5 79.5z" />
<glyph unicode="&#xdd;" horiz-adv-x="1157" d="M10 1434h195l364 -664l383 664h195l-485 -832v-602h-175v582zM487 1638l308 328l151 -82l-368 -307z" />
<glyph unicode="&#xde;" horiz-adv-x="1126" d="M164 0v1434h174v-287h215q211 0 349 -118t138 -312t-138 -312t-349 -118h-215v-287h-174zM338 451h215q142 0 227.5 68.5t85.5 197.5t-85.5 197.5t-227.5 68.5h-215v-532z" />
<glyph unicode="&#xdf;" horiz-adv-x="1136" d="M205 0v1241q0 108 56 195.5t148 134.5t199 47q203 0 314.5 -103t111.5 -274q0 -264 -241 -340q149 -55 236 -170.5t87 -269.5q0 -139 -72 -250t-190 -171t-256 -60v153q84 0 163.5 40.5t134 122.5t54.5 185q0 136 -114.5 242t-278.5 106v154q156 0 233.5 70.5t77.5 167.5 q0 108 -64.5 175.5t-195.5 67.5q-101 0 -170 -56.5t-69 -166.5v-1241h-164z" />
<glyph unicode="&#xe0;" horiz-adv-x="993" d="M61 287q0 72 36.5 130.5t97 94.5t135 55t153.5 19q134 0 224 -51v141q0 67 -58.5 105t-140.5 38q-147 0 -281 -98l-80 125q161 117 361 117q164 0 263 -76.5t99 -210.5v-676h-163v135q-42 -74 -128 -114.5t-194 -40.5q-53 0 -107 17.5t-104 52t-81.5 96.5t-31.5 141z M139 1393l154 82l307 -328l-92 -62zM227 287q0 -48 20.5 -82t55.5 -50t69.5 -23t73.5 -7q128 0 194.5 58t66.5 186v55q-99 37 -215 37q-130 0 -197.5 -44t-67.5 -130z" />
<glyph unicode="&#xe1;" horiz-adv-x="993" d="M61 287q0 72 36.5 130.5t97 94.5t135 55t153.5 19q134 0 224 -51v141q0 67 -58.5 105t-140.5 38q-147 0 -281 -98l-80 125q161 117 361 117q164 0 263 -76.5t99 -210.5v-676h-163v135q-42 -74 -128 -114.5t-194 -40.5q-53 0 -107 17.5t-104 52t-81.5 96.5t-31.5 141z M227 287q0 -48 20.5 -82t55.5 -50t69.5 -23t73.5 -7q128 0 194.5 58t66.5 186v55q-99 37 -215 37q-130 0 -197.5 -44t-67.5 -130zM416 1147l307 328l154 -82l-369 -308z" />
<glyph unicode="&#xe2;" horiz-adv-x="993" d="M61 287q0 72 36.5 130.5t97 94.5t135 55t153.5 19q134 0 224 -51v141q0 67 -58.5 105t-140.5 38q-147 0 -281 -98l-80 125q161 117 361 117q164 0 263 -76.5t99 -210.5v-676h-163v135q-42 -74 -128 -114.5t-194 -40.5q-53 0 -107 17.5t-104 52t-81.5 96.5t-31.5 141z M180 1167l328 287l328 -287l-103 -82l-225 195l-225 -195zM227 287q0 -48 20.5 -82t55.5 -50t69.5 -23t73.5 -7q128 0 194.5 58t66.5 186v55q-99 37 -215 37q-130 0 -197.5 -44t-67.5 -130z" />
<glyph unicode="&#xe3;" horiz-adv-x="993" d="M61 287q0 72 36.5 130.5t97 94.5t135 55t153.5 19q134 0 224 -51v141q0 67 -58.5 105t-140.5 38q-147 0 -281 -98l-80 125q161 117 361 117q164 0 263 -76.5t99 -210.5v-676h-163v135q-42 -74 -128 -114.5t-194 -40.5q-53 0 -107 17.5t-104 52t-81.5 96.5t-31.5 141z M129 1161q14 72 82 120t141 48q52 0 96 -15t70.5 -33t66.5 -33t83 -15q64 0 125 98l94 -88q-26 -60 -90.5 -104.5t-137.5 -44.5q-82 0 -159 41q-99 55 -150 55q-56 0 -84 -36t-28 -69zM227 287q0 -48 20.5 -82t55.5 -50t69.5 -23t73.5 -7q128 0 194.5 58t66.5 186v55 q-99 37 -215 37q-130 0 -197.5 -44t-67.5 -130z" />
<glyph unicode="&#xe4;" horiz-adv-x="993" d="M61 287q0 72 36.5 130.5t97 94.5t135 55t153.5 19q134 0 224 -51v141q0 67 -58.5 105t-140.5 38q-147 0 -281 -98l-80 125q161 117 361 117q164 0 263 -76.5t99 -210.5v-676h-163v135q-42 -74 -128 -114.5t-194 -40.5q-53 0 -107 17.5t-104 52t-81.5 96.5t-31.5 141z M190 1198q0 46 33.5 79.5t79.5 33.5t79.5 -33.5t33.5 -79.5t-33.5 -79.5t-79.5 -33.5t-79.5 33.5t-33.5 79.5zM227 287q0 -48 20.5 -82t55.5 -50t69.5 -23t73.5 -7q128 0 194.5 58t66.5 186v55q-99 37 -215 37q-130 0 -197.5 -44t-67.5 -130zM600 1198q0 46 33.5 79.5 t79.5 33.5t79 -33.5t33 -79.5t-33 -79.5t-79 -33.5t-79.5 33.5t-33.5 79.5z" />
<glyph unicode="&#xe5;" horiz-adv-x="993" d="M61 287q0 72 36.5 130.5t97 94.5t135 55t153.5 19q134 0 224 -51v141q0 67 -58.5 105t-140.5 38q-147 0 -281 -98l-80 125q161 117 361 117q164 0 263 -76.5t99 -210.5v-676h-163v135q-42 -74 -128 -114.5t-194 -40.5q-53 0 -107 17.5t-104 52t-81.5 96.5t-31.5 141z M227 287q0 -48 20.5 -82t55.5 -50t69.5 -23t73.5 -7q128 0 194.5 58t66.5 186v55q-99 37 -215 37q-130 0 -197.5 -44t-67.5 -130zM305 1290q0 92 56.5 148.5t146.5 56.5t146.5 -56.5t56.5 -148.5t-56.5 -148.5t-146.5 -56.5t-146.5 56.5t-56.5 148.5zM389 1290 q0 -58 32.5 -92.5t86.5 -34.5t86.5 34.5t32.5 92.5t-32.5 92.5t-86.5 34.5t-86.5 -34.5t-32.5 -92.5z" />
<glyph unicode="&#xe6;" horiz-adv-x="1689" d="M61 287q0 72 36.5 130.5t97 94.5t135 55t153.5 19q134 0 224 -51v141q0 67 -58.5 105t-140.5 38q-147 0 -281 -98l-80 125q161 117 361 117q132 0 223 -49.5t123 -141.5q101 191 340 191q187 0 305.5 -132t118.5 -352q0 -33 -2 -49h-742q10 -141 90 -219t210 -78 q189 0 294 170l134 -84q-51 -78 -103.5 -127t-135 -80.5t-189.5 -31.5q-271 0 -369 198q-38 -92 -145 -145t-234 -53q-68 0 -130.5 17t-116.5 52t-86 96.5t-32 141.5zM227 287q0 -48 20.5 -82t55.5 -50t69.5 -23t73.5 -7q128 0 194.5 58t66.5 186v55q-99 37 -215 37 q-130 0 -197.5 -44t-67.5 -130zM879 569h561q-13 115 -80 182.5t-186 67.5q-116 0 -199.5 -68.5t-95.5 -181.5z" />
<glyph unicode="&#xe7;" horiz-adv-x="978" d="M61 471q0 213 140 352.5t348 139.5q99 0 189 -32.5t139 -88.5v-199q-33 71 -124.5 118.5t-203.5 47.5q-139 0 -230.5 -95.5t-91.5 -242.5t91.5 -242.5t230.5 -95.5q112 0 203.5 47.5t124.5 118.5v-199q-41 -51 -118 -81.5t-167 -36.5l-103 -213h21q51 0 90 -46t39 -106 q0 -91 -55.5 -141.5t-143.5 -50.5q-57 0 -99 18t-85 61l68 60q32 -27 55.5 -38t60.5 -11q49 0 76 30.5t27 71.5q0 40 -26.5 67t-76.5 27q-36 0 -67 -16l-31 -19l147 308q-186 20 -307 155.5t-121 331.5z" />
<glyph unicode="&#xe8;" horiz-adv-x="1054" d="M72 471q0 215 130.5 353.5t336.5 138.5q201 0 322.5 -131.5t121.5 -352.5q0 -33 -2 -49h-741q10 -141 89.5 -219t209.5 -78q190 0 295 170l133 -84q-52 -78 -104.5 -127t-140 -80.5t-204.5 -31.5q-193 0 -319.5 139t-126.5 352zM170 1393l154 82l307 -328l-92 -62z M244 569h561q-13 115 -80 182.5t-186 67.5q-116 0 -199.5 -68.5t-95.5 -181.5z" />
<glyph unicode="&#xe9;" horiz-adv-x="1054" d="M72 471q0 215 130.5 353.5t336.5 138.5q201 0 322.5 -131.5t121.5 -352.5q0 -33 -2 -49h-741q10 -141 89.5 -219t209.5 -78q190 0 295 170l133 -84q-52 -78 -104.5 -127t-140 -80.5t-204.5 -31.5q-193 0 -319.5 139t-126.5 352zM244 569h561q-13 115 -80 182.5t-186 67.5 q-116 0 -199.5 -68.5t-95.5 -181.5zM446 1147l308 328l153 -82l-368 -308z" />
<glyph unicode="&#xea;" horiz-adv-x="1054" d="M72 471q0 215 130.5 353.5t336.5 138.5q201 0 322.5 -131.5t121.5 -352.5q0 -33 -2 -49h-741q10 -141 89.5 -219t209.5 -78q190 0 295 170l133 -84q-52 -78 -104.5 -127t-140 -80.5t-204.5 -31.5q-193 0 -319.5 139t-126.5 352zM211 1167l328 287l327 -287l-102 -82 l-225 195l-226 -195zM244 569h561q-13 115 -80 182.5t-186 67.5q-116 0 -199.5 -68.5t-95.5 -181.5z" />
<glyph unicode="&#xeb;" horiz-adv-x="1054" d="M72 471q0 215 130.5 353.5t336.5 138.5q201 0 322.5 -131.5t121.5 -352.5q0 -33 -2 -49h-741q10 -141 89.5 -219t209.5 -78q190 0 295 170l133 -84q-52 -78 -104.5 -127t-140 -80.5t-204.5 -31.5q-193 0 -319.5 139t-126.5 352zM221 1198q0 46 33.5 79.5t79.5 33.5 t79 -33.5t33 -79.5t-33 -79.5t-79 -33.5t-79.5 33.5t-33.5 79.5zM244 569h561q-13 115 -80 182.5t-186 67.5q-116 0 -199.5 -68.5t-95.5 -181.5zM631 1198q0 46 33 79.5t79 33.5t79.5 -33.5t33.5 -79.5t-33.5 -79.5t-79.5 -33.5t-79 33.5t-33 79.5z" />
<glyph unicode="&#xec;" horiz-adv-x="532" d="M-102 1393l153 82l307 -328l-92 -62zM184 0v942h164v-942h-164z" />
<glyph unicode="&#xed;" horiz-adv-x="532" d="M174 1147l307 328l154 -82l-369 -308zM184 0v942h164v-942h-164z" />
<glyph unicode="&#xee;" horiz-adv-x="532" d="M-61 1167l327 287l328 -287l-102 -82l-226 195l-225 -195zM184 0v942h164v-942h-164z" />
<glyph unicode="&#xef;" horiz-adv-x="532" d="M-51 1198q0 46 33 79.5t79 33.5t79.5 -33.5t33.5 -79.5t-33.5 -79.5t-79.5 -33.5t-79 33.5t-33 79.5zM184 0v942h164v-942h-164zM358 1198q0 46 33.5 79.5t79.5 33.5t79.5 -33.5t33.5 -79.5t-33.5 -79.5t-79.5 -33.5t-79.5 33.5t-33.5 79.5z" />
<glyph unicode="&#xf0;" horiz-adv-x="1138" d="M82 471q0 194 120 325.5t283 131.5q116 0 187 -33l-129 170h-246v154h129l-162 215h219l156 -215h272v-154h-159l215 -297q90 -124 90 -297q0 -218 -139 -354.5t-349 -136.5t-348.5 136.5t-138.5 354.5zM248 471q0 -147 91 -240.5t230 -93.5t230.5 93.5t91.5 240.5 t-91.5 242.5t-230.5 95.5t-230 -95.5t-91 -242.5z" />
<glyph unicode="&#xf1;" horiz-adv-x="1075" d="M154 0v942h163v-127q50 70 123 109t158 39q150 0 237 -95t87 -274v-594h-164v573q0 236 -201 236q-106 0 -173 -67t-67 -169v-573h-163zM160 1161q14 72 81.5 120t139.5 48q52 0 96 -15t70.5 -33t66 -33t82.5 -15q66 0 127 98l95 -88q-26 -60 -91 -104.5t-139 -44.5 q-83 0 -160 41q-34 19 -49 27t-44.5 18t-53.5 10q-56 0 -85.5 -36.5t-29.5 -68.5z" />
<glyph unicode="&#xf2;" d="M72 471q0 213 139.5 352.5t347.5 139.5t348 -139.5t140 -352.5q0 -212 -140 -351.5t-348 -139.5t-347.5 139t-139.5 352zM190 1393l154 82l307 -328l-92 -62zM238 471q0 -147 91 -242.5t230 -95.5t230.5 95.5t91.5 242.5t-91.5 242.5t-230.5 95.5t-230 -95.5t-91 -242.5z " />
<glyph unicode="&#xf3;" d="M72 471q0 213 139.5 352.5t347.5 139.5t348 -139.5t140 -352.5q0 -212 -140 -351.5t-348 -139.5t-347.5 139t-139.5 352zM238 471q0 -147 91 -242.5t230 -95.5t230.5 95.5t91.5 242.5t-91.5 242.5t-230.5 95.5t-230 -95.5t-91 -242.5zM467 1147l307 328l154 -82 l-369 -308z" />
<glyph unicode="&#xf4;" d="M72 471q0 213 139.5 352.5t347.5 139.5t348 -139.5t140 -352.5q0 -212 -140 -351.5t-348 -139.5t-347.5 139t-139.5 352zM231 1167l328 287l328 -287l-103 -82l-225 195l-225 -195zM238 471q0 -147 91 -242.5t230 -95.5t230.5 95.5t91.5 242.5t-91.5 242.5t-230.5 95.5 t-230 -95.5t-91 -242.5z" />
<glyph unicode="&#xf5;" d="M72 471q0 213 139.5 352.5t347.5 139.5t348 -139.5t140 -352.5q0 -212 -140 -351.5t-348 -139.5t-347.5 139t-139.5 352zM180 1161q14 72 82 120t141 48q52 0 96 -15t70.5 -33t66.5 -33t83 -15q64 0 125 98l94 -88q-26 -60 -90 -104.5t-137 -44.5q-83 0 -160 41 q-99 55 -150 55q-56 0 -84 -36t-28 -69zM238 471q0 -147 91 -242.5t230 -95.5t230.5 95.5t91.5 242.5t-91.5 242.5t-230.5 95.5t-230 -95.5t-91 -242.5z" />
<glyph unicode="&#xf6;" d="M72 471q0 213 139.5 352.5t347.5 139.5t348 -139.5t140 -352.5q0 -212 -140 -351.5t-348 -139.5t-347.5 139t-139.5 352zM238 471q0 -147 91 -242.5t230 -95.5t230.5 95.5t91.5 242.5t-91.5 242.5t-230.5 95.5t-230 -95.5t-91 -242.5zM242 1198q0 46 33 79.5t79 33.5 t79.5 -33.5t33.5 -79.5t-33.5 -79.5t-79.5 -33.5t-79 33.5t-33 79.5zM651 1198q0 46 33.5 79.5t79.5 33.5t79.5 -33.5t33.5 -79.5t-33.5 -79.5t-79.5 -33.5t-79.5 33.5t-33.5 79.5z" />
<glyph unicode="&#xf7;" horiz-adv-x="1261" d="M133 451v153h1024v-153h-1024zM532 143q0 46 33.5 79.5t79.5 33.5t79.5 -33.5t33.5 -79.5t-33.5 -79t-79.5 -33t-79.5 33t-33.5 79zM532 901q0 46 33.5 79.5t79.5 33.5t79.5 -33.5t33.5 -79.5t-33.5 -79.5t-79.5 -33.5t-79.5 33.5t-33.5 79.5z" />
<glyph unicode="&#xf8;" d="M72 471q0 213 139.5 352.5t347.5 139.5q161 0 289 -91l61 70h142l-123 -141q119 -135 119 -330q0 -212 -140 -351.5t-348 -139.5q-158 0 -280 83l-64 -71h-141l125 141q-127 137 -127 338zM238 471q0 -126 67 -215l438 498q-80 55 -184 55q-139 0 -230 -95.5t-91 -242.5z M383 182q73 -49 176 -49q139 0 230.5 95.5t91.5 242.5q0 120 -62 207z" />
<glyph unicode="&#xf9;" horiz-adv-x="1075" d="M154 348v594h163v-573q0 -236 201 -236q106 0 173 67t67 169v573h164v-942h-164v127q-50 -70 -123 -108.5t-158 -38.5q-150 0 -236.5 94.5t-86.5 273.5zM168 1393l156 82l307 -328l-94 -62z" />
<glyph unicode="&#xfa;" horiz-adv-x="1075" d="M154 348v594h163v-573q0 -236 201 -236q106 0 173 67t67 169v573h164v-942h-164v127q-50 -70 -123 -108.5t-158 -38.5q-150 0 -236.5 94.5t-86.5 273.5zM446 1147l308 328l151 -82l-368 -308z" />
<glyph unicode="&#xfb;" horiz-adv-x="1075" d="M154 348v594h163v-573q0 -236 201 -236q106 0 173 67t67 169v573h164v-942h-164v127q-50 -70 -123 -108.5t-158 -38.5q-150 0 -236.5 94.5t-86.5 273.5zM209 1167l328 287l327 -287l-102 -82l-225 195l-226 -195z" />
<glyph unicode="&#xfc;" horiz-adv-x="1075" d="M154 348v594h163v-573q0 -236 201 -236q106 0 173 67t67 169v573h164v-942h-164v127q-50 -70 -123 -108.5t-158 -38.5q-150 0 -236.5 94.5t-86.5 273.5zM221 1198q0 46 32.5 79.5t78.5 33.5t80 -33.5t34 -79.5t-34 -79.5t-80 -33.5t-78.5 33.5t-32.5 79.5zM631 1198 q0 46 32.5 79.5t77.5 33.5q46 0 80.5 -33.5t34.5 -79.5t-34.5 -79.5t-80.5 -33.5q-45 0 -77.5 33.5t-32.5 79.5z" />
<glyph unicode="&#xfd;" horiz-adv-x="901" d="M0 942h184l267 -666l266 666h184l-614 -1393h-185l258 584zM358 1147l308 328l153 -82l-368 -308z" />
<glyph unicode="&#xfe;" horiz-adv-x="1167" d="M143 -451v2048h164v-817q53 88 135.5 135.5t186.5 47.5q96 0 181 -34.5t148.5 -96.5t100.5 -155.5t37 -205.5t-37 -205t-100.5 -155t-148.5 -96.5t-181 -34.5q-104 0 -186.5 47t-135.5 135v-613h-164zM307 471q0 -153 92.5 -245.5t208.5 -92.5q137 0 229.5 90.5 t92.5 247.5t-92.5 247.5t-229.5 90.5q-116 0 -208.5 -92.5t-92.5 -245.5z" />
<glyph unicode="&#xff;" horiz-adv-x="901" d="M0 942h184l267 -666l266 666h184l-614 -1393h-185l258 584zM133 1198q0 46 33.5 79.5t79.5 33.5t79 -33.5t33 -79.5t-33 -79.5t-79 -33.5t-79.5 33.5t-33.5 79.5zM543 1198q0 46 33 79.5t79 33.5t79.5 -33.5t33.5 -79.5t-33.5 -79.5t-79.5 -33.5t-79 33.5t-33 79.5z" />
<glyph unicode="&#x2c6;" horiz-adv-x="983" d="M164 1208l328 287l327 -287l-102 -82l-225 195l-226 -195z" />
<glyph unicode="&#x2dc;" horiz-adv-x="1085" d="M164 1280q14 72 82 120t141 48q52 0 96 -15t70.5 -33t66 -33t82.5 -15q64 0 125 98l95 -88q-26 -60 -90.5 -105t-137.5 -45q-82 0 -159 41q-101 56 -150 56q-56 0 -84.5 -36t-28.5 -69z" />
<glyph unicode="&#x2000;" horiz-adv-x="1008" />
<glyph unicode="&#x2001;" horiz-adv-x="2017" />
<glyph unicode="&#x2002;" horiz-adv-x="1008" />
<glyph unicode="&#x2003;" horiz-adv-x="2017" />
<glyph unicode="&#x2004;" horiz-adv-x="672" />
<glyph unicode="&#x2005;" horiz-adv-x="504" />
<glyph unicode="&#x2006;" horiz-adv-x="336" />
<glyph unicode="&#x2007;" horiz-adv-x="336" />
<glyph unicode="&#x2008;" horiz-adv-x="252" />
<glyph unicode="&#x2009;" horiz-adv-x="403" />
<glyph unicode="&#x200a;" horiz-adv-x="112" />
<glyph unicode="&#x2010;" horiz-adv-x="430" d="M10 410v153h410v-153h-410z" />
<glyph unicode="&#x2011;" horiz-adv-x="430" d="M10 410v153h410v-153h-410z" />
<glyph unicode="&#x2012;" horiz-adv-x="430" d="M10 410v153h410v-153h-410z" />
<glyph unicode="&#x2013;" horiz-adv-x="1515" d="M143 410v153h1229v-153h-1229z" />
<glyph unicode="&#x2014;" horiz-adv-x="1822" d="M143 410v153h1536v-153h-1536z" />
<glyph unicode="&#x2018;" horiz-adv-x="604" d="M102 963l205 471h113l-123 -471h-195z" />
<glyph unicode="&#x2019;" horiz-adv-x="604" d="M184 963l123 471h195l-205 -471h-113z" />
<glyph unicode="&#x201a;" horiz-adv-x="604" d="M184 -307l123 471h195l-205 -471h-113z" />
<glyph unicode="&#x201c;" horiz-adv-x="1013" d="M102 963l205 471h113l-123 -471h-195zM512 963l205 471h112l-122 -471h-195z" />
<glyph unicode="&#x201d;" horiz-adv-x="1013" d="M184 963l123 471h195l-205 -471h-113zM594 963l123 471h194l-204 -471h-113z" />
<glyph unicode="&#x202f;" horiz-adv-x="403" />
<glyph unicode="&#x2039;" horiz-adv-x="716" d="M82 522l389 482l102 -93l-307 -381l307 -397l-102 -92z" />
<glyph unicode="&#x203a;" horiz-adv-x="716" d="M143 133l308 381l-308 397l103 93l389 -482l-389 -481z" />
<glyph unicode="&#x205f;" horiz-adv-x="504" />
<glyph unicode="&#x20ac;" horiz-adv-x="1433" d="M-31 588v98h113v31q0 61 6 117h-119v98h135q54 237 214 379.5t378 142.5q162 0 308 -84v-207q-130 127 -308 127q-149 0 -258.5 -96.5t-154.5 -261.5h712v-98h-731q-8 -74 -8 -117v-31h686v-98h-676q31 -201 146.5 -323t283.5 -122q178 0 308 127v-207q-144 -83 -308 -83 q-238 0 -404.5 168.5t-201.5 439.5h-121z" />
<glyph unicode="&#x25fc;" horiz-adv-x="942" d="M0 0v942h942v-942h-942z" />
</font>
</defs>
</svg>
